  0
SECTION
  2
HEADER
  9
$ACADVER
  1
AC1027
  9
$ACADMAINTVER
 70
105
  9
$DWGCODEPAGE
  3
ANSI_1252
  9
$LASTSAVEDBY
  1
ezdxf
  9
$REQUIREDVERSIONS
160
0
  9
$INSBASE
 10
0.0
 20
0.0
 30
0.0
  9
$EXTMIN
 10
1e+20
 20
1e+20
 30
1e+20
  9
$EXTMAX
 10
-1e+20
 20
-1e+20
 30
-1e+20
  9
$LIMMIN
 10
0.0
 20
0.0
  9
$LIMMAX
 10
420.0
 20
297.0
  9
$ORTHOMODE
 70
0
  9
$REGENMODE
 70
1
  9
$FILLMODE
 70
1
  9
$QTEXTMODE
 70
0
  9
$MIRRTEXT
 70
1
  9
$LTSCALE
 40
1.0
  9
$ATTMODE
 70
1
  9
$TEXTSIZE
 40
2.5
  9
$TRACEWID
 40
1.0
  9
$TEXTSTYLE
  7
Standard
  9
$CLAYER
  8
0
  9
$CELTYPE
  6
ByLayer
  9
$CECOLOR
 62
256
  9
$CELTSCALE
 40
1.0
  9
$DISPSILH
 70
0
  9
$DIMSCALE
 40
1.0
  9
$DIMASZ
 40
2.5
  9
$DIMEXO
 40
0.625
  9
$DIMDLI
 40
3.75
  9
$DIMRND
 40
0.0
  9
$DIMDLE
 40
0.0
  9
$DIMEXE
 40
1.25
  9
$DIMTP
 40
0.0
  9
$DIMTM
 40
0.0
  9
$DIMTXT
 40
2.5
  9
$DIMCEN
 40
2.5
  9
$DIMTSZ
 40
0.0
  9
$DIMTOL
 70
0
  9
$DIMLIM
 70
0
  9
$DIMTIH
 70
0
  9
$DIMTOH
 70
0
  9
$DIMSE1
 70
0
  9
$DIMSE2
 70
0
  9
$DIMTAD
 70
1
  9
$DIMZIN
 70
8
  9
$DIMBLK
  1

  9
$DIMASO
 70
1
  9
$DIMSHO
 70
1
  9
$DIMPOST
  1

  9
$DIMAPOST
  1

  9
$DIMALT
 70
0
  9
$DIMALTD
 70
3
  9
$DIMALTF
 40
0.03937007874
  9
$DIMLFAC
 40
1.0
  9
$DIMTOFL
 70
1
  9
$DIMTVP
 40
0.0
  9
$DIMTIX
 70
0
  9
$DIMSOXD
 70
0
  9
$DIMSAH
 70
0
  9
$DIMBLK1
  1

  9
$DIMBLK2
  1

  9
$DIMSTYLE
  2
ISO-25
  9
$DIMCLRD
 70
0
  9
$DIMCLRE
 70
0
  9
$DIMCLRT
 70
0
  9
$DIMTFAC
 40
1.0
  9
$DIMGAP
 40
0.625
  9
$DIMJUST
 70
0
  9
$DIMSD1
 70
0
  9
$DIMSD2
 70
0
  9
$DIMTOLJ
 70
0
  9
$DIMTZIN
 70
8
  9
$DIMALTZ
 70
0
  9
$DIMALTTZ
 70
0
  9
$DIMUPT
 70
0
  9
$DIMDEC
 70
2
  9
$DIMTDEC
 70
2
  9
$DIMALTU
 70
2
  9
$DIMALTTD
 70
3
  9
$DIMTXSTY
  7
Standard
  9
$DIMAUNIT
 70
0
  9
$DIMADEC
 70
0
  9
$DIMALTRND
 40
0.0
  9
$DIMAZIN
 70
0
  9
$DIMDSEP
 70
44
  9
$DIMATFIT
 70
3
  9
$DIMFRAC
 70
0
  9
$DIMLDRBLK
  1

  9
$DIMLUNIT
 70
2
  9
$DIMLWD
 70
-2
  9
$DIMLWE
 70
-2
  9
$DIMTMOVE
 70
0
  9
$DIMFXL
 40
1.0
  9
$DIMFXLON
 70
0
  9
$DIMJOGANG
 40
0.785398163397
  9
$DIMTFILL
 70
0
  9
$DIMTFILLCLR
 70
0
  9
$DIMARCSYM
 70
0
  9
$DIMLTYPE
  6

  9
$DIMLTEX1
  6

  9
$DIMLTEX2
  6

  9
$DIMTXTDIRECTION
 70
0
  9
$LUNITS
 70
2
  9
$LUPREC
 70
4
  9
$SKETCHINC
 40
1.0
  9
$FILLETRAD
 40
10.0
  9
$AUNITS
 70
0
  9
$AUPREC
 70
2
  9
$MENU
  1
.
  9
$ELEVATION
 40
0.0
  9
$PELEVATION
 40
0.0
  9
$THICKNESS
 40
0.0
  9
$LIMCHECK
 70
0
  9
$CHAMFERA
 40
0.0
  9
$CHAMFERB
 40
0.0
  9
$CHAMFERC
 40
0.0
  9
$CHAMFERD
 40
0.0
  9
$SKPOLY
 70
0
  9
$TDCREATE
 40
2461315.8120254627
  9
$TDUCREATE
 40
2458532.153996898
  9
$TDUPDATE
 40
2461315.8120254627
  9
$TDUUPDATE
 40
2458532.1544311
  9
$TDINDWG
 40
0.0
  9
$TDUSRTIMER
 40
0.0
  9
$USRTIMER
 70
1
  9
$ANGBASE
 50
0.0
  9
$ANGDIR
 70
0
  9
$PDMODE
 70
0
  9
$PDSIZE
 40
0.0
  9
$PLINEWID
 40
0.0
  9
$SPLFRAME
 70
0
  9
$SPLINETYPE
 70
6
  9
$SPLINESEGS
 70
8
  9
$HANDSEED
  5
3C9
  9
$SURFTAB1
 70
6
  9
$SURFTAB2
 70
6
  9
$SURFTYPE
 70
6
  9
$SURFU
 70
6
  9
$SURFV
 70
6
  9
$UCSBASE
  2

  9
$UCSNAME
  2

  9
$UCSORG
 10
0.0
 20
0.0
 30
0.0
  9
$UCSXDIR
 10
1.0
 20
0.0
 30
0.0
  9
$UCSYDIR
 10
0.0
 20
1.0
 30
0.0
  9
$UCSORTHOREF
  2

  9
$UCSORTHOVIEW
 70
0
  9
$UCSORGTOP
 10
0.0
 20
0.0
 30
0.0
  9
$UCSORGBOTTOM
 10
0.0
 20
0.0
 30
0.0
  9
$UCSORGLEFT
 10
0.0
 20
0.0
 30
0.0
  9
$UCSORGRIGHT
 10
0.0
 20
0.0
 30
0.0
  9
$UCSORGFRONT
 10
0.0
 20
0.0
 30
0.0
  9
$UCSORGBACK
 10
0.0
 20
0.0
 30
0.0
  9
$PUCSBASE
  2

  9
$PUCSNAME
  2

  9
$PUCSORG
 10
0.0
 20
0.0
 30
0.0
  9
$PUCSXDIR
 10
1.0
 20
0.0
 30
0.0
  9
$PUCSYDIR
 10
0.0
 20
1.0
 30
0.0
  9
$PUCSORTHOREF
  2

  9
$PUCSORTHOVIEW
 70
0
  9
$PUCSORGTOP
 10
0.0
 20
0.0
 30
0.0
  9
$PUCSORGBOTTOM
 10
0.0
 20
0.0
 30
0.0
  9
$PUCSORGLEFT
 10
0.0
 20
0.0
 30
0.0
  9
$PUCSORGRIGHT
 10
0.0
 20
0.0
 30
0.0
  9
$PUCSORGFRONT
 10
0.0
 20
0.0
 30
0.0
  9
$PUCSORGBACK
 10
0.0
 20
0.0
 30
0.0
  9
$USERI1
 70
0
  9
$USERI2
 70
0
  9
$USERI3
 70
0
  9
$USERI4
 70
0
  9
$USERI5
 70
0
  9
$USERR1
 40
0.0
  9
$USERR2
 40
0.0
  9
$USERR3
 40
0.0
  9
$USERR4
 40
0.0
  9
$USERR5
 40
0.0
  9
$WORLDVIEW
 70
1
  9
$SHADEDGE
 70
3
  9
$SHADEDIF
 70
70
  9
$TILEMODE
 70
1
  9
$MAXACTVP
 70
64
  9
$PINSBASE
 10
0.0
 20
0.0
 30
0.0
  9
$PLIMCHECK
 70
0
  9
$PEXTMIN
 10
1e+20
 20
1e+20
 30
1e+20
  9
$PEXTMAX
 10
-1e+20
 20
-1e+20
 30
-1e+20
  9
$PLIMMIN
 10
0.0
 20
0.0
  9
$PLIMMAX
 10
420.0
 20
297.0
  9
$UNITMODE
 70
0
  9
$VISRETAIN
 70
1
  9
$PLINEGEN
 70
0
  9
$PSLTSCALE
 70
1
  9
$TREEDEPTH
 70
3020
  9
$CMLSTYLE
  2
Standard
  9
$CMLJUST
 70
0
  9
$CMLSCALE
 40
20.0
  9
$PROXYGRAPHICS
 70
1
  9
$MEASUREMENT
 70
1
  9
$CELWEIGHT
370
-1
  9
$ENDCAPS
280
0
  9
$JOINSTYLE
280
0
  9
$LWDISPLAY
290
0
  9
$INSUNITS
 70
4
  9
$HYPERLINKBASE
  1

  9
$STYLESHEET
  1

  9
$XEDIT
290
1
  9
$CEPSNTYPE
380
0
  9
$PSTYLEMODE
290
1
  9
$FINGERPRINTGUID
  2
{57F14869-47F3-4973-9729-7E89BCEB2B80}
  9
$VERSIONGUID
  2
{1C47AF82-FAF0-4A25-A716-FE776F010AD2}
  9
$EXTNAMES
290
1
  9
$PSVPSCALE
 40
0.0
  9
$OLESTARTUP
290
0
  9
$SORTENTS
280
127
  9
$INDEXCTL
280
0
  9
$HIDETEXT
280
1
  9
$XCLIPFRAME
280
1
  9
$HALOGAP
280
0
  9
$OBSCOLOR
 70
257
  9
$OBSLTYPE
280
0
  9
$INTERSECTIONDISPLAY
280
0
  9
$INTERSECTIONCOLOR
 70
257
  9
$DIMASSOC
280
2
  9
$PROJECTNAME
  1

  9
$CAMERADISPLAY
290
0
  9
$LENSLENGTH
 40
50.0
  9
$CAMERAHEIGHT
 40
0.0
  9
$STEPSPERSEC
 40
24.0
  9
$STEPSIZE
 40
100.0
  9
$3DDWFPREC
 40
2.0
  9
$PSOLWIDTH
 40
0.005
  9
$PSOLHEIGHT
 40
0.08
  9
$LOFTANG1
 40
1.570796326795
  9
$LOFTANG2
 40
1.570796326795
  9
$LOFTMAG1
 40
0.0
  9
$LOFTMAG2
 40
0.0
  9
$LOFTPARAM
 70
7
  9
$LOFTNORMALS
280
1
  9
$LATITUDE
 40
37.795
  9
$LONGITUDE
 40
-122.394
  9
$NORTHDIRECTION
 40
0.0
  9
$TIMEZONE
 70
-8000
  9
$LIGHTGLYPHDISPLAY
280
1
  9
$TILEMODELIGHTSYNCH
280
1
  9
$CMATERIAL
347
20
  9
$SOLIDHIST
280
0
  9
$SHOWHIST
280
1
  9
$DWFFRAME
280
2
  9
$DGNFRAME
280
2
  9
$REALWORLDSCALE
290
1
  9
$INTERFERECOLOR
 62
256
  9
$CSHADOW
280
0
  9
$SHADOWPLANELOCATION
 40
0.0
  0
ENDSEC
  0
SECTION
  2
CLASSES
  0
CLASS
  1
ACDBDICTIONARYWDFLT
  2
AcDbDictionaryWithDefault
  3
ObjectDBX Classes
 90
0
 91
0
280
0
281
0
  0
CLASS
  1
SUN
  2
AcDbSun
  3
SCENEOE
 90
1153
 91
0
280
0
281
0
  0
CLASS
  1
VISUALSTYLE
  2
AcDbVisualStyle
  3
ObjectDBX Classes
 90
4095
 91
0
280
0
281
0
  0
CLASS
  1
MATERIAL
  2
AcDbMaterial
  3
ObjectDBX Classes
 90
1153
 91
0
280
0
281
0
  0
CLASS
  1
SCALE
  2
AcDbScale
  3
ObjectDBX Classes
 90
1153
 91
0
280
0
281
0
  0
CLASS
  1
TABLESTYLE
  2
AcDbTableStyle
  3
ObjectDBX Classes
 90
4095
 91
0
280
0
281
0
  0
CLASS
  1
MLEADERSTYLE
  2
AcDbMLeaderStyle
  3
ACDB_MLEADERSTYLE_CLASS
 90
4095
 91
0
280
0
281
0
  0
CLASS
  1
DICTIONARYVAR
  2
AcDbDictionaryVar
  3
ObjectDBX Classes
 90
0
 91
0
280
0
281
0
  0
CLASS
  1
CELLSTYLEMAP
  2
AcDbCellStyleMap
  3
ObjectDBX Classes
 90
1152
 91
0
280
0
281
0
  0
CLASS
  1
MENTALRAYRENDERSETTINGS
  2
AcDbMentalRayRenderSettings
  3
SCENEOE
 90
1024
 91
0
280
0
281
0
  0
CLASS
  1
ACDBDETAILVIEWSTYLE
  2
AcDbDetailViewStyle
  3
ObjectDBX Classes
 90
1025
 91
0
280
0
281
0
  0
CLASS
  1
ACDBSECTIONVIEWSTYLE
  2
AcDbSectionViewStyle
  3
ObjectDBX Classes
 90
1025
 91
0
280
0
281
0
  0
CLASS
  1
RASTERVARIABLES
  2
AcDbRasterVariables
  3
ISM
 90
0
 91
0
280
0
281
0
  0
CLASS
  1
ACDBPLACEHOLDER
  2
AcDbPlaceHolder
  3
ObjectDBX Classes
 90
0
 91
0
280
0
281
0
  0
CLASS
  1
LAYOUT
  2
AcDbLayout
  3
ObjectDBX Classes
 90
0
 91
0
280
0
281
0
  0
ENDSEC
  0
SECTION
  2
TABLES
  0
TABLE
  2
VPORT
  5
8
330
0
100
AcDbSymbolTable
 70
1
  0
VPORT
  5
23
330
8
100
AcDbSymbolTableRecord
100
AcDbViewportTableRecord
  2
*Active
 70
0
 10
0.0
 20
0.0
 11
1.0
 21
1.0
 12
0.0
 22
0.0
 13
0.0
 23
0.0
 14
0.5
 24
0.5
 15
0.5
 25
0.5
 16
0.0
 26
0.0
 36
1.0
 17
0.0
 27
0.0
 37
0.0
 40
1000.0
 41
1.34
 42
50.0
 43
0.0
 44
0.0
 50
0.0
 51
0.0
 71
0
 72
1000
 73
1
 74
3
 75
0
 76
0
 77
0
 78
0
281
0
 65
0
146
0.0
  0
ENDTAB
  0
TABLE
  2
LTYPE
  5
2
330
0
100
AcDbSymbolTable
 70
3
  0
LTYPE
  5
24
330
2
100
AcDbSymbolTableRecord
100
AcDbLinetypeTableRecord
  2
ByBlock
 70
0
  3

 72
65
 73
0
 40
0.0
  0
LTYPE
  5
25
330
2
100
AcDbSymbolTableRecord
100
AcDbLinetypeTableRecord
  2
ByLayer
 70
0
  3

 72
65
 73
0
 40
0.0
  0
LTYPE
  5
26
330
2
100
AcDbSymbolTableRecord
100
AcDbLinetypeTableRecord
  2
Continuous
 70
0
  3

 72
65
 73
0
 40
0.0
  0
ENDTAB
  0
TABLE
  2
LAYER
  5
1
330
0
100
AcDbSymbolTable
 70
4
  0
LAYER
  5
27
330
1
100
AcDbSymbolTableRecord
100
AcDbLayerTableRecord
  2
0
 70
0
 62
7
  6
Continuous
370
-3
390
13
347
21
  0
LAYER
  5
28
330
1
100
AcDbSymbolTableRecord
100
AcDbLayerTableRecord
  2
Defpoints
 70
0
 62
7
  6
Continuous
290
0
370
-3
390
13
347
21
  0
LAYER
  5
2F
330
1
100
AcDbSymbolTableRecord
100
AcDbLayerTableRecord
  2
可见轮廓
 70
0
 62
7
  6
Continuous
370
-3
390
13
347
21
  0
LAYER
  5
30
330
1
100
AcDbSymbolTableRecord
100
AcDbLayerTableRecord
  2
隐藏线
 70
0
 62
5
  6
Continuous
370
-3
390
13
347
21
  0
ENDTAB
  0
TABLE
  2
STYLE
  5
5
330
0
100
AcDbSymbolTable
 70
1
  0
STYLE
  5
29
330
5
100
AcDbSymbolTableRecord
100
AcDbTextStyleTableRecord
  2
Standard
 70
0
 40
0.0
 41
1.0
 50
0.0
 71
0
 42
2.5
  3
txt
  4

  0
ENDTAB
  0
TABLE
  2
VIEW
  5
7
330
0
100
AcDbSymbolTable
 70
0
  0
ENDTAB
  0
TABLE
  2
UCS
  5
6
330
0
100
AcDbSymbolTable
 70
0
  0
ENDTAB
  0
TABLE
  2
APPID
  5
3
330
0
100
AcDbSymbolTable
 70
3
  0
APPID
  5
2A
330
3
100
AcDbSymbolTableRecord
100
AcDbRegAppTableRecord
  2
ACAD
 70
0
  0
APPID
  5
3C6
330
3
100
AcDbSymbolTableRecord
100
AcDbRegAppTableRecord
  2
HATCHBACKGROUNDCOLOR
 70
0
  0
APPID
  5
3C7
330
3
100
AcDbSymbolTableRecord
100
AcDbRegAppTableRecord
  2
EZDXF
 70
0
  0
ENDTAB
  0
TABLE
  2
DIMSTYLE
  5
4
330
0
100
AcDbSymbolTable
 70
1
100
AcDbDimStyleTable
  0
DIMSTYLE
105
2B
330
4
100
AcDbSymbolTableRecord
100
AcDbDimStyleTableRecord
  2
Standard
 70
0
 40
1.0
 41
2.5
 42
0.625
 43
3.75
 44
1.25
 45
0.0
 46
0.0
 47
0.0
 48
0.0
 49
2.5
140
2.5
141
2.5
142
0.0
143
0.03937007874
144
1.0
145
0.0
146
1.0
147
0.625
148
0.0
 69
0
 70
0
 71
0
 72
0
 73
0
 74
0
 75
0
 76
0
 77
1
 78
8
 79
3
170
0
171
3
172
1
173
0
174
0
175
0
176
0
177
0
178
0
179
2
271
2
272
2
273
2
274
3
275
0
276
0
277
2
278
44
279
0
280
0
281
0
282
0
283
0
284
8
285
0
286
0
288
0
289
3
290
0
371
-2
372
-2
  0
ENDTAB
  0
TABLE
  2
BLOCK_RECORD
  5
9
330
0
100
AcDbSymbolTable
 70
2
  0
BLOCK_RECORD
  5
17
330
9
100
AcDbSymbolTableRecord
100
AcDbBlockTableRecord
  2
*Model_Space
340
1A
 70
0
280
1
281
0
  0
BLOCK_RECORD
  5
1B
330
9
100
AcDbSymbolTableRecord
100
AcDbBlockTableRecord
  2
*Paper_Space
340
1E
 70
0
280
1
281
0
  0
ENDTAB
  0
ENDSEC
  0
SECTION
  2
BLOCKS
  0
BLOCK
  5
18
330
17
100
AcDbEntity
  8
0
100
AcDbBlockBegin
  2
*Model_Space
 70
0
 10
0.0
 20
0.0
 30
0.0
  3
*Model_Space
  1

  0
ENDBLK
  5
19
330
17
100
AcDbEntity
  8
0
100
AcDbBlockEnd
  0
BLOCK
  5
1C
330
1B
100
AcDbEntity
  8
0
100
AcDbBlockBegin
  2
*Paper_Space
 70
0
 10
0.0
 20
0.0
 30
0.0
  3
*Paper_Space
  1

  0
ENDBLK
  5
1D
330
1B
100
AcDbEntity
  8
0
100
AcDbBlockEnd
  0
ENDSEC
  0
SECTION
  2
ENTITIES
  0
LINE
  5
31
330
17
100
AcDbEntity
  8
可见轮廓
100
AcDbLine
 10
42.0
 20
45.0
 30
0.0
 11
42.0
 21
24.500000000000004
 31
0.0
  0
LINE
  5
32
330
17
100
AcDbEntity
  8
可见轮廓
100
AcDbLine
 10
42.0
 20
24.500000000000004
 30
0.0
 11
42.0
 21
4.000000000000018
 31
0.0
  0
LINE
  5
33
330
17
100
AcDbEntity
  8
可见轮廓
100
AcDbLine
 10
40.00000000000001
 20
2.0000000000000036
 30
0.0
 11
22.000000000000004
 21
2.0000000000000036
 31
0.0
  0
LINE
  5
34
330
17
100
AcDbEntity
  8
可见轮廓
100
AcDbLine
 10
22.000000000000004
 20
2.0000000000000036
 30
0.0
 11
3.9999999999999964
 21
2.0000000000000036
 31
0.0
  0
LINE
  5
35
330
17
100
AcDbEntity
  8
可见轮廓
100
AcDbLine
 10
2.0
 20
4.000000000000018
 30
0.0
 11
2.0
 21
24.5
 31
0.0
  0
LINE
  5
36
330
17
100
AcDbEntity
  8
可见轮廓
100
AcDbLine
 10
2.0
 20
24.5
 30
0.0
 11
2.0
 21
45.0
 31
0.0
  0
LINE
  5
37
330
17
100
AcDbEntity
  8
可见轮廓
100
AcDbLine
 10
3.9999999999999964
 20
47.0
 30
0.0
 11
22.0
 21
47.0
 31
0.0
  0
LINE
  5
38
330
17
100
AcDbEntity
  8
可见轮廓
100
AcDbLine
 10
22.0
 20
47.0
 30
0.0
 11
40.00000000000001
 21
47.0
 31
0.0
  0
CIRCLE
  5
39
330
17
100
AcDbEntity
  8
可见轮廓
100
AcDbCircle
 10
22.0
 20
44.0
 30
0.0
 40
1.65
  0
CIRCLE
  5
3A
330
17
100
AcDbEntity
  8
可见轮廓
100
AcDbCircle
 10
39.0
 20
5.0000000000000036
 30
0.0
 40
1.65
  0
CIRCLE
  5
3B
330
17
100
AcDbEntity
  8
可见轮廓
100
AcDbCircle
 10
5.0
 20
5.0000000000000036
 30
0.0
 40
1.65
  0
ARC
  5
3C
330
17
100
AcDbEntity
  8
可见轮廓
100
AcDbCircle
 10
40.0
 20
45.0
 30
0.0
 40
2.0
100
AcDbArc
 50
0.0
 51
45.0
  0
ARC
  5
3D
330
17
100
AcDbEntity
  8
可见轮廓
100
AcDbCircle
 10
40.0
 20
45.0
 30
0.0
 40
2.0
100
AcDbArc
 50
45.0
 51
90.0
  0
ARC
  5
3E
330
17
100
AcDbEntity
  8
可见轮廓
100
AcDbCircle
 10
4.0
 20
45.0
 30
0.0
 40
2.0
100
AcDbArc
 50
90.0
 51
135.0
  0
ARC
  5
3F
330
17
100
AcDbEntity
  8
可见轮廓
100
AcDbCircle
 10
4.0
 20
45.0
 30
0.0
 40
2.0
100
AcDbArc
 50
135.0
 51
180.0
  0
ARC
  5
40
330
17
100
AcDbEntity
  8
可见轮廓
100
AcDbCircle
 10
4.0
 20
4.0000000000000036
 30
0.0
 40
2.0
100
AcDbArc
 50
179.9999999999996
 51
-135.00000000000023
  0
ARC
  5
41
330
17
100
AcDbEntity
  8
可见轮廓
100
AcDbCircle
 10
4.0
 20
4.0000000000000036
 30
0.0
 40
2.0
100
AcDbArc
 50
-135.00000000000023
 51
-90.0
  0
ARC
  5
42
330
17
100
AcDbEntity
  8
可见轮廓
100
AcDbCircle
 10
40.0
 20
4.0000000000000036
 30
0.0
 40
2.0
100
AcDbArc
 50
-90.0
 51
-44.99999999999979
  0
ARC
  5
43
330
17
100
AcDbEntity
  8
可见轮廓
100
AcDbCircle
 10
40.0
 20
4.0000000000000036
 30
0.0
 40
2.0
100
AcDbArc
 50
-44.99999999999979
 51
4.0711099922733015e-13
  0
LINE
  5
44
330
17
100
AcDbEntity
  8
隐藏线
100
AcDbLine
 10
42.0
 20
24.500000000000004
 30
0.0
 11
42.0
 21
12.00000000000001
 31
0.0
  0
LINE
  5
45
330
17
100
AcDbEntity
  8
隐藏线
100
AcDbLine
 10
42.0
 20
12.0
 30
0.0
 11
42.0
 21
7.0
 31
0.0
  0
LINE
  5
46
330
17
100
AcDbEntity
  8
隐藏线
100
AcDbLine
 10
42.0
 20
7.0
 30
0.0
 11
42.0
 21
4.000000000000007
 31
0.0
  0
LINE
  5
47
330
17
100
AcDbEntity
  8
隐藏线
100
AcDbLine
 10
11.999999999999998
 20
2.0000000000000036
 30
0.0
 11
6.9999999999999964
 21
2.0000000000000036
 31
0.0
  0
LINE
  5
48
330
17
100
AcDbEntity
  8
隐藏线
100
AcDbLine
 10
6.9999999999999964
 20
2.0000000000000036
 30
0.0
 11
3.9999999999999964
 21
2.0000000000000036
 31
0.0
  0
LINE
  5
49
330
17
100
AcDbEntity
  8
隐藏线
100
AcDbLine
 10
32.00000000000001
 20
2.0000000000000036
 30
0.0
 11
22.000000000000004
 21
2.0000000000000036
 31
0.0
  0
LINE
  5
4A
330
17
100
AcDbEntity
  8
隐藏线
100
AcDbLine
 10
22.000000000000004
 20
2.0000000000000036
 30
0.0
 11
11.999999999999998
 21
2.0000000000000036
 31
0.0
  0
LINE
  5
4B
330
17
100
AcDbEntity
  8
隐藏线
100
AcDbLine
 10
40.00000000000001
 20
2.0
 30
0.0
 11
37.00000000000001
 21
2.0
 31
0.0
  0
LINE
  5
4C
330
17
100
AcDbEntity
  8
隐藏线
100
AcDbLine
 10
37.00000000000001
 20
2.0
 30
0.0
 11
32.00000000000001
 21
2.0
 31
0.0
  0
LINE
  5
4D
330
17
100
AcDbEntity
  8
隐藏线
100
AcDbLine
 10
2.0
 20
12.000000000000018
 30
0.0
 11
2.0
 21
24.5
 31
0.0
  0
LINE
  5
4E
330
17
100
AcDbEntity
  8
隐藏线
100
AcDbLine
 10
2.0
 20
4.000000000000007
 30
0.0
 11
2.0000000000000036
 21
7.0000000000000036
 31
0.0
  0
LINE
  5
4F
330
17
100
AcDbEntity
  8
隐藏线
100
AcDbLine
 10
2.0000000000000036
 20
7.0000000000000036
 30
0.0
 11
2.0000000000000036
 21
12.000000000000005
 31
0.0
  0
LINE
  5
50
330
17
100
AcDbEntity
  8
隐藏线
100
AcDbLine
 10
28.000000000000007
 20
47.0
 30
0.0
 11
40.00000000000001
 21
47.0
 31
0.0
  0
LINE
  5
51
330
17
100
AcDbEntity
  8
隐藏线
100
AcDbLine
 10
16.000000000000007
 20
47.0
 30
0.0
 11
22.0
 21
47.0
 31
0.0
  0
LINE
  5
52
330
17
100
AcDbEntity
  8
隐藏线
100
AcDbLine
 10
22.0
 20
47.0
 30
0.0
 11
28.000000000000007
 21
47.0
 31
0.0
  0
LINE
  5
53
330
17
100
AcDbEntity
  8
隐藏线
100
AcDbLine
 10
3.9999999999999964
 20
47.0
 30
0.0
 11
16.000000000000007
 21
47.0
 31
0.0
  0
LINE
  5
54
330
17
100
AcDbEntity
  8
隐藏线
100
AcDbLine
 10
26.000000000000007
 20
45.0
 30
0.0
 11
26.000000000000007
 21
44.0
 31
0.0
  0
LINE
  5
55
330
17
100
AcDbEntity
  8
隐藏线
100
AcDbLine
 10
26.000000000000007
 20
44.0
 30
0.0
 11
26.000000000000007
 21
43.0
 31
0.0
  0
LINE
  5
56
330
17
100
AcDbEntity
  8
隐藏线
100
AcDbLine
 10
34.0
 20
10.000000000000002
 30
0.0
 11
37.0
 21
10.000000000000002
 31
0.0
  0
LINE
  5
57
330
17
100
AcDbEntity
  8
隐藏线
100
AcDbLine
 10
37.0
 20
10.000000000000002
 30
0.0
 11
40.0
 21
10.0
 31
0.0
  0
LINE
  5
58
330
17
100
AcDbEntity
  8
隐藏线
100
AcDbLine
 10
34.00000000000001
 20
4.000000000000007
 30
0.0
 11
34.0
 21
7.0000000000000036
 31
0.0
  0
LINE
  5
59
330
17
100
AcDbEntity
  8
隐藏线
100
AcDbLine
 10
34.0
 20
7.0000000000000036
 30
0.0
 11
34.0
 21
10.000000000000002
 31
0.0
  0
LINE
  5
5A
330
17
100
AcDbEntity
  8
隐藏线
100
AcDbLine
 10
10.0
 20
10.000000000000005
 30
0.0
 11
10.0
 21
7.000000000000007
 31
0.0
  0
LINE
  5
5B
330
17
100
AcDbEntity
  8
隐藏线
100
AcDbLine
 10
10.0
 20
7.000000000000007
 30
0.0
 11
9.999999999999998
 21
4.000000000000007
 31
0.0
  0
LINE
  5
5C
330
17
100
AcDbEntity
  8
隐藏线
100
AcDbLine
 10
3.9999999999999964
 20
10.000000000000005
 30
0.0
 11
6.999999999999998
 21
10.000000000000005
 31
0.0
  0
LINE
  5
5D
330
17
100
AcDbEntity
  8
隐藏线
100
AcDbLine
 10
6.999999999999998
 20
10.000000000000005
 30
0.0
 11
10.0
 21
10.000000000000005
 31
0.0
  0
LINE
  5
5E
330
17
100
AcDbEntity
  8
隐藏线
100
AcDbLine
 10
18.000000000000007
 20
43.0
 30
0.0
 11
18.000000000000007
 21
44.0
 31
0.0
  0
LINE
  5
5F
330
17
100
AcDbEntity
  8
隐藏线
100
AcDbLine
 10
18.000000000000007
 20
44.0
 30
0.0
 11
18.000000000000007
 21
45.0
 31
0.0
  0
CIRCLE
  5
60
330
17
100
AcDbEntity
  8
隐藏线
100
AcDbCircle
 10
22.0
 20
43.0
 30
0.0
 40
4.0
  0
ARC
  5
61
330
17
100
AcDbEntity
  8
隐藏线
100
AcDbCircle
 10
28.0
 20
45.0
 30
0.0
 40
2.0
100
AcDbArc
 50
135.00000000000003
 51
180.0
  0
ARC
  5
62
330
17
100
AcDbEntity
  8
隐藏线
100
AcDbCircle
 10
28.0
 20
45.0
 30
0.0
 40
2.0
100
AcDbArc
 50
90.0
 51
135.00000000000003
  0
ARC
  5
63
330
17
100
AcDbEntity
  8
隐藏线
100
AcDbCircle
 10
28.0
 20
45.0
 30
0.0
 40
2.0
100
AcDbArc
 50
90.0
 51
135.00000000000003
  0
ARC
  5
64
330
17
100
AcDbEntity
  8
隐藏线
100
AcDbCircle
 10
28.0
 20
45.0
 30
0.0
 40
2.0
100
AcDbArc
 50
135.00000000000003
 51
180.0
  0
ARC
  5
65
330
17
100
AcDbEntity
  8
隐藏线
100
AcDbCircle
 10
40.0
 20
12.000000000000004
 30
0.0
 40
2.0
100
AcDbArc
 50
-44.99999999999982
 51
3.562221243239139e-13
  0
ARC
  5
66
330
17
100
AcDbEntity
  8
隐藏线
100
AcDbCircle
 10
40.0
 20
12.000000000000004
 30
0.0
 40
2.0
100
AcDbArc
 50
-90.0
 51
-44.99999999999982
  0
ARC
  5
67
330
17
100
AcDbEntity
  8
隐藏线
100
AcDbCircle
 10
40.0
 20
12.000000000000004
 30
0.0
 40
2.0
100
AcDbArc
 50
-90.0
 51
-44.99999999999982
  0
ARC
  5
68
330
17
100
AcDbEntity
  8
隐藏线
100
AcDbCircle
 10
40.0
 20
12.000000000000004
 30
0.0
 40
2.0
100
AcDbArc
 50
-44.99999999999982
 51
0.0
  0
ARC
  5
69
330
17
100
AcDbEntity
  8
隐藏线
100
AcDbCircle
 10
32.0
 20
4.0000000000000036
 30
0.0
 40
2.0
100
AcDbArc
 50
-44.999999999999964
 51
0.0
  0
ARC
  5
6A
330
17
100
AcDbEntity
  8
隐藏线
100
AcDbCircle
 10
32.0
 20
4.0000000000000036
 30
0.0
 40
2.0
100
AcDbArc
 50
-90.0
 51
-44.999999999999964
  0
ARC
  5
6B
330
17
100
AcDbEntity
  8
隐藏线
100
AcDbCircle
 10
32.0
 20
4.0000000000000036
 30
0.0
 40
2.0
100
AcDbArc
 50
-90.0
 51
-45.0
  0
ARC
  5
6C
330
17
100
AcDbEntity
  8
隐藏线
100
AcDbCircle
 10
32.0
 20
4.0000000000000036
 30
0.0
 40
2.0
100
AcDbArc
 50
-45.0
 51
0.0
  0
ARC
  5
6D
330
17
100
AcDbEntity
  8
隐藏线
100
AcDbCircle
 10
12.0
 20
4.0000000000000036
 30
0.0
 40
2.0
100
AcDbArc
 50
-135.0
 51
-90.0
  0
ARC
  5
6E
330
17
100
AcDbEntity
  8
隐藏线
100
AcDbCircle
 10
12.0
 20
4.0000000000000036
 30
0.0
 40
2.0
100
AcDbArc
 50
180.0
 51
-135.0
  0
ARC
  5
6F
330
17
100
AcDbEntity
  8
隐藏线
100
AcDbCircle
 10
12.0
 20
4.0000000000000036
 30
0.0
 40
2.0
100
AcDbArc
 50
180.0
 51
-135.0
  0
ARC
  5
70
330
17
100
AcDbEntity
  8
隐藏线
100
AcDbCircle
 10
12.0
 20
4.0000000000000036
 30
0.0
 40
2.0
100
AcDbArc
 50
-135.0
 51
-90.0
  0
ARC
  5
71
330
17
100
AcDbEntity
  8
隐藏线
100
AcDbCircle
 10
4.0
 20
12.000000000000004
 30
0.0
 40
2.0
100
AcDbArc
 50
-135.00000000000017
 51
-90.0
  0
ARC
  5
72
330
17
100
AcDbEntity
  8
隐藏线
100
AcDbCircle
 10
4.0
 20
12.000000000000004
 30
0.0
 40
2.0
100
AcDbArc
 50
179.9999999999996
 51
-135.00000000000017
  0
ARC
  5
73
330
17
100
AcDbEntity
  8
隐藏线
100
AcDbCircle
 10
4.0
 20
12.000000000000004
 30
0.0
 40
2.0
100
AcDbArc
 50
180.0
 51
-135.00000000000017
  0
ARC
  5
74
330
17
100
AcDbEntity
  8
隐藏线
100
AcDbCircle
 10
4.0
 20
12.000000000000004
 30
0.0
 40
2.0
100
AcDbArc
 50
-135.00000000000017
 51
-90.0
  0
ARC
  5
75
330
17
100
AcDbEntity
  8
隐藏线
100
AcDbCircle
 10
16.0
 20
45.0
 30
0.0
 40
2.0
100
AcDbArc
 50
45.0
 51
90.0
  0
ARC
  5
76
330
17
100
AcDbEntity
  8
隐藏线
100
AcDbCircle
 10
16.0
 20
45.0
 30
0.0
 40
2.0
100
AcDbArc
 50
0.0
 51
45.0
  0
ARC
  5
77
330
17
100
AcDbEntity
  8
隐藏线
100
AcDbCircle
 10
16.0
 20
45.0
 30
0.0
 40
2.0
100
AcDbArc
 50
0.0
 51
44.99999999999998
  0
ARC
  5
78
330
17
100
AcDbEntity
  8
隐藏线
100
AcDbCircle
 10
16.0
 20
45.0
 30
0.0
 40
2.0
100
AcDbArc
 50
44.99999999999998
 51
89.99999999999997
  0
LINE
  5
79
330
17
100
AcDbEntity
  8
可见轮廓
100
AcDbLine
 10
2.0
 20
104.0
 30
0.0
 11
2.0
 21
101.0
 31
0.0
  0
LINE
  5
7A
330
17
100
AcDbEntity
  8
可见轮廓
100
AcDbLine
 10
2.0
 20
101.0
 30
0.0
 11
2.0
 21
102.5
 31
0.0
  0
LINE
  5
7B
330
17
100
AcDbEntity
  8
可见轮廓
100
AcDbLine
 10
2.0
 20
102.5
 30
0.0
 11
2.0
 21
104.0
 31
0.0
  0
LINE
  5
7C
330
17
100
AcDbEntity
  8
可见轮廓
100
AcDbLine
 10
2.0
 20
104.0
 30
0.0
 11
2.0
 21
111.0
 31
0.0
  0
LINE
  5
7D
330
17
100
AcDbEntity
  8
可见轮廓
100
AcDbLine
 10
2.0
 20
111.0
 30
0.0
 11
2.0
 21
112.5
 31
0.0
  0
LINE
  5
7E
330
17
100
AcDbEntity
  8
可见轮廓
100
AcDbLine
 10
2.0
 20
112.5
 30
0.0
 11
2.0
 21
121.0
 31
0.0
  0
LINE
  5
7F
330
17
100
AcDbEntity
  8
可见轮廓
100
AcDbLine
 10
3.999999999999993
 20
101.0
 30
0.0
 11
21.999999999999996
 21
101.0
 31
0.0
  0
LINE
  5
80
330
17
100
AcDbEntity
  8
可见轮廓
100
AcDbLine
 10
21.999999999999996
 20
101.0
 30
0.0
 11
40.0
 21
101.0
 31
0.0
  0
LINE
  5
81
330
17
100
AcDbEntity
  8
可见轮廓
100
AcDbLine
 10
32.0
 20
104.0
 30
0.0
 11
37.0
 21
104.0
 31
0.0
  0
LINE
  5
82
330
17
100
AcDbEntity
  8
可见轮廓
100
AcDbLine
 10
37.0
 20
104.0
 30
0.0
 11
40.0
 21
104.0
 31
0.0
  0
LINE
  5
83
330
17
100
AcDbEntity
  8
可见轮廓
100
AcDbLine
 10
11.999999999999993
 20
121.0
 30
0.0
 11
21.999999999999996
 21
121.0
 31
0.0
  0
LINE
  5
84
330
17
100
AcDbEntity
  8
可见轮廓
100
AcDbLine
 10
21.999999999999996
 20
121.0
 30
0.0
 11
32.0
 21
121.0
 31
0.0
  0
LINE
  5
85
330
17
100
AcDbEntity
  8
可见轮廓
100
AcDbLine
 10
3.999999999999993
 20
104.0
 30
0.0
 11
6.999999999999993
 21
104.0
 31
0.0
  0
LINE
  5
86
330
17
100
AcDbEntity
  8
可见轮廓
100
AcDbLine
 10
6.999999999999993
 20
104.0
 30
0.0
 11
11.999999999999995
 21
104.0
 31
0.0
  0
LINE
  5
87
330
17
100
AcDbEntity
  8
可见轮廓
100
AcDbLine
 10
42.0
 20
104.0
 30
0.0
 11
42.0
 21
111.0
 31
0.0
  0
LINE
  5
88
330
17
100
AcDbEntity
  8
可见轮廓
100
AcDbLine
 10
42.0
 20
111.0
 30
0.0
 11
42.0
 21
121.0
 31
0.0
  0
LINE
  5
89
330
17
100
AcDbEntity
  8
可见轮廓
100
AcDbLine
 10
42.0
 20
121.0
 30
0.0
 11
42.0
 21
112.5
 31
0.0
  0
LINE
  5
8A
330
17
100
AcDbEntity
  8
可见轮廓
100
AcDbLine
 10
42.0
 20
112.5
 30
0.0
 11
42.0
 21
111.0
 31
0.0
  0
LINE
  5
8B
330
17
100
AcDbEntity
  8
可见轮廓
100
AcDbLine
 10
42.0
 20
104.0
 30
0.0
 11
42.0
 21
102.5
 31
0.0
  0
LINE
  5
8C
330
17
100
AcDbEntity
  8
可见轮廓
100
AcDbLine
 10
42.0
 20
102.5
 30
0.0
 11
42.0
 21
101.0
 31
0.0
  0
LINE
  5
8D
330
17
100
AcDbEntity
  8
可见轮廓
100
AcDbLine
 10
1.9999999999999964
 20
121.0
 30
0.0
 11
2.010218277651223
 21
121.0
 31
0.0
  0
LINE
  5
8E
330
17
100
AcDbEntity
  8
可见轮廓
100
AcDbLine
 10
2.039201069299935
 20
121.0
 30
0.0
 11
2.086682351928161
 21
121.0
 31
0.0
  0
LINE
  5
8F
330
17
100
AcDbEntity
  8
可见轮廓
100
AcDbLine
 10
2.086682351928161
 20
121.0
 30
0.0
 11
2.1522409349774207
 21
121.0
 31
0.0
  0
LINE
  5
90
330
17
100
AcDbEntity
  8
可见轮廓
100
AcDbLine
 10
2.1522409349774207
 20
121.0
 30
0.0
 11
2.2366804331856507
 21
121.0
 31
0.0
  0
LINE
  5
91
330
17
100
AcDbEntity
  8
可见轮廓
100
AcDbLine
 10
2.2366804331856507
 20
121.0
 30
0.0
 11
2.337714931812446
 21
121.0
 31
0.0
  0
LINE
  5
92
330
17
100
AcDbEntity
  8
可见轮廓
100
AcDbLine
 10
2.337714931812446
 20
121.0
 30
0.0
 11
2.454431693856364
 21
121.0
 31
0.0
  0
LINE
  5
93
330
17
100
AcDbEntity
  8
可见轮廓
100
AcDbLine
 10
2.454431693856364
 20
121.0
 30
0.0
 11
2.585786437626897
 21
121.0
 31
0.0
  0
LINE
  5
94
330
17
100
AcDbEntity
  8
可见轮廓
100
AcDbLine
 10
2.585786437626897
 20
121.0
 30
0.0
 11
2.7315920082358893
 21
121.0
 31
0.0
  0
LINE
  5
95
330
17
100
AcDbEntity
  8
可见轮廓
100
AcDbLine
 10
2.7315920082358893
 20
121.0
 30
0.0
 11
2.8892966273048515
 21
121.0
 31
0.0
  0
LINE
  5
96
330
17
100
AcDbEntity
  8
可见轮廓
100
AcDbLine
 10
2.8892966273048515
 20
121.0
 30
0.0
 11
3.057479799783355
 21
121.0
 31
0.0
  0
LINE
  5
97
330
17
100
AcDbEntity
  8
可见轮廓
100
AcDbLine
 10
3.057479799783355
 20
121.0
 30
0.0
 11
3.2346331352698137
 21
121.0
 31
0.0
  0
LINE
  5
98
330
17
100
AcDbEntity
  8
可见轮廓
100
AcDbLine
 10
3.2346331352698137
 20
121.0
 30
0.0
 11
3.419607201885139
 21
121.0
 31
0.0
  0
LINE
  5
99
330
17
100
AcDbEntity
  8
可见轮廓
100
AcDbLine
 10
3.419607201885139
 20
121.0
 30
0.0
 11
3.6099728427389444
 21
121.0
 31
0.0
  0
LINE
  5
9A
330
17
100
AcDbEntity
  8
可见轮廓
100
AcDbLine
 10
3.6099728427389444
 20
121.0
 30
0.0
 11
3.8040180622264366
 21
121.0
 31
0.0
  0
LINE
  5
9B
330
17
100
AcDbEntity
  8
可见轮廓
100
AcDbLine
 10
3.8040180622264366
 20
121.0
 30
0.0
 11
3.9999999999999964
 21
121.0
 31
0.0
  0
LINE
  5
9C
330
17
100
AcDbEntity
  8
可见轮廓
100
AcDbLine
 10
9.999999999999996
 20
121.0
 30
0.0
 11
6.9999999999999964
 21
121.0
 31
0.0
  0
LINE
  5
9D
330
17
100
AcDbEntity
  8
可见轮廓
100
AcDbLine
 10
6.9999999999999964
 20
121.0
 30
0.0
 11
3.9999999999999964
 21
121.0
 31
0.0
  0
LINE
  5
9E
330
17
100
AcDbEntity
  8
可见轮廓
100
AcDbLine
 10
9.999999999999993
 20
121.0
 30
0.0
 11
10.010218277651221
 21
121.0
 31
0.0
  0
LINE
  5
9F
330
17
100
AcDbEntity
  8
可见轮廓
100
AcDbLine
 10
10.039201069299933
 20
121.0
 30
0.0
 11
10.08668235192816
 21
121.0
 31
0.0
  0
LINE
  5
A0
330
17
100
AcDbEntity
  8
可见轮廓
100
AcDbLine
 10
10.08668235192816
 20
121.0
 30
0.0
 11
10.15224093497742
 21
121.0
 31
0.0
  0
LINE
  5
A1
330
17
100
AcDbEntity
  8
可见轮廓
100
AcDbLine
 10
10.15224093497742
 20
121.0
 30
0.0
 11
10.236680433185654
 21
121.0
 31
0.0
  0
LINE
  5
A2
330
17
100
AcDbEntity
  8
可见轮廓
100
AcDbLine
 10
10.236680433185654
 20
121.0
 30
0.0
 11
10.337714931812448
 21
121.0
 31
0.0
  0
LINE
  5
A3
330
17
100
AcDbEntity
  8
可见轮廓
100
AcDbLine
 10
10.337714931812448
 20
121.0
 30
0.0
 11
10.454431693856366
 21
121.0
 31
0.0
  0
LINE
  5
A4
330
17
100
AcDbEntity
  8
可见轮廓
100
AcDbLine
 10
10.454431693856366
 20
121.0
 30
0.0
 11
10.585786437626897
 21
121.0
 31
0.0
  0
LINE
  5
A5
330
17
100
AcDbEntity
  8
可见轮廓
100
AcDbLine
 10
10.585786437626897
 20
121.0
 30
0.0
 11
10.731592008235891
 21
121.0
 31
0.0
  0
LINE
  5
A6
330
17
100
AcDbEntity
  8
可见轮廓
100
AcDbLine
 10
10.731592008235891
 20
121.0
 30
0.0
 11
10.889296627304851
 21
121.0
 31
0.0
  0
LINE
  5
A7
330
17
100
AcDbEntity
  8
可见轮廓
100
AcDbLine
 10
10.889296627304851
 20
121.0
 30
0.0
 11
11.057479799783355
 21
121.0
 31
0.0
  0
LINE
  5
A8
330
17
100
AcDbEntity
  8
可见轮廓
100
AcDbLine
 10
11.057479799783355
 20
121.0
 30
0.0
 11
11.234633135269814
 21
121.0
 31
0.0
  0
LINE
  5
A9
330
17
100
AcDbEntity
  8
可见轮廓
100
AcDbLine
 10
11.234633135269814
 20
121.0
 30
0.0
 11
11.419607201885137
 21
121.0
 31
0.0
  0
LINE
  5
AA
330
17
100
AcDbEntity
  8
可见轮廓
100
AcDbLine
 10
11.419607201885137
 20
121.0
 30
0.0
 11
11.609972842738943
 21
121.0
 31
0.0
  0
LINE
  5
AB
330
17
100
AcDbEntity
  8
可见轮廓
100
AcDbLine
 10
11.609972842738943
 20
121.0
 30
0.0
 11
11.804018062226437
 21
121.0
 31
0.0
  0
LINE
  5
AC
330
17
100
AcDbEntity
  8
可见轮廓
100
AcDbLine
 10
11.804018062226437
 20
121.0
 30
0.0
 11
11.999999999999995
 21
121.0
 31
0.0
  0
LINE
  5
AD
330
17
100
AcDbEntity
  8
可见轮廓
100
AcDbLine
 10
32.0
 20
121.0
 30
0.0
 11
32.19598193777356
 21
121.0
 31
0.0
  0
LINE
  5
AE
330
17
100
AcDbEntity
  8
可见轮廓
100
AcDbLine
 10
32.19598193777356
 20
121.0
 30
0.0
 11
32.39002715726105
 21
121.0
 31
0.0
  0
LINE
  5
AF
330
17
100
AcDbEntity
  8
可见轮廓
100
AcDbLine
 10
32.39002715726105
 20
121.0
 30
0.0
 11
32.58039279811486
 21
121.0
 31
0.0
  0
LINE
  5
B0
330
17
100
AcDbEntity
  8
可见轮廓
100
AcDbLine
 10
32.58039279811486
 20
121.0
 30
0.0
 11
32.76536686473018
 21
121.0
 31
0.0
  0
LINE
  5
B1
330
17
100
AcDbEntity
  8
可见轮廓
100
AcDbLine
 10
32.76536686473018
 20
121.0
 30
0.0
 11
32.94252020021664
 21
121.0
 31
0.0
  0
LINE
  5
B2
330
17
100
AcDbEntity
  8
可见轮廓
100
AcDbLine
 10
32.94252020021664
 20
121.0
 30
0.0
 11
33.11070337269514
 21
121.0
 31
0.0
  0
LINE
  5
B3
330
17
100
AcDbEntity
  8
可见轮廓
100
AcDbLine
 10
33.11070337269514
 20
121.0
 30
0.0
 11
33.26840799176411
 21
121.0
 31
0.0
  0
LINE
  5
B4
330
17
100
AcDbEntity
  8
可见轮廓
100
AcDbLine
 10
33.26840799176411
 20
121.0
 30
0.0
 11
33.4142135623731
 21
121.0
 31
0.0
  0
LINE
  5
B5
330
17
100
AcDbEntity
  8
可见轮廓
100
AcDbLine
 10
33.4142135623731
 20
121.0
 30
0.0
 11
33.54556830614363
 21
121.0
 31
0.0
  0
LINE
  5
B6
330
17
100
AcDbEntity
  8
可见轮廓
100
AcDbLine
 10
33.54556830614363
 20
121.0
 30
0.0
 11
33.66228506818754
 21
121.0
 31
0.0
  0
LINE
  5
B7
330
17
100
AcDbEntity
  8
可见轮廓
100
AcDbLine
 10
33.66228506818754
 20
121.0
 30
0.0
 11
33.763319566814346
 21
121.0
 31
0.0
  0
LINE
  5
B8
330
17
100
AcDbEntity
  8
可见轮廓
100
AcDbLine
 10
33.763319566814346
 20
121.0
 30
0.0
 11
33.84775906502258
 21
121.0
 31
0.0
  0
LINE
  5
B9
330
17
100
AcDbEntity
  8
可见轮廓
100
AcDbLine
 10
33.84775906502258
 20
121.0
 30
0.0
 11
33.91331764807184
 21
121.0
 31
0.0
  0
LINE
  5
BA
330
17
100
AcDbEntity
  8
可见轮廓
100
AcDbLine
 10
33.91331764807184
 20
121.0
 30
0.0
 11
33.960798930700065
 21
121.0
 31
0.0
  0
LINE
  5
BB
330
17
100
AcDbEntity
  8
可见轮廓
100
AcDbLine
 10
33.960798930700065
 20
121.0
 30
0.0
 11
33.98978172234877
 21
121.0
 31
0.0
  0
LINE
  5
BC
330
17
100
AcDbEntity
  8
可见轮廓
100
AcDbLine
 10
40.0
 20
121.0
 30
0.0
 11
37.0
 21
121.0
 31
0.0
  0
LINE
  5
BD
330
17
100
AcDbEntity
  8
可见轮廓
100
AcDbLine
 10
37.0
 20
121.0
 30
0.0
 11
34.0
 21
121.0
 31
0.0
  0
LINE
  5
BE
330
17
100
AcDbEntity
  8
可见轮廓
100
AcDbLine
 10
40.0
 20
121.0
 30
0.0
 11
40.19598193777356
 21
121.0
 31
0.0
  0
LINE
  5
BF
330
17
100
AcDbEntity
  8
可见轮廓
100
AcDbLine
 10
40.19598193777356
 20
121.0
 30
0.0
 11
40.39002715726106
 21
121.0
 31
0.0
  0
LINE
  5
C0
330
17
100
AcDbEntity
  8
可见轮廓
100
AcDbLine
 10
40.39002715726106
 20
121.0
 30
0.0
 11
40.580392798114865
 21
121.0
 31
0.0
  0
LINE
  5
C1
330
17
100
AcDbEntity
  8
可见轮廓
100
AcDbLine
 10
40.580392798114865
 20
121.0
 30
0.0
 11
40.76536686473018
 21
121.0
 31
0.0
  0
LINE
  5
C2
330
17
100
AcDbEntity
  8
可见轮廓
100
AcDbLine
 10
40.76536686473018
 20
121.0
 30
0.0
 11
40.94252020021665
 21
121.0
 31
0.0
  0
LINE
  5
C3
330
17
100
AcDbEntity
  8
可见轮廓
100
AcDbLine
 10
40.94252020021665
 20
121.0
 30
0.0
 11
41.110703372695156
 21
121.0
 31
0.0
  0
LINE
  5
C4
330
17
100
AcDbEntity
  8
可见轮廓
100
AcDbLine
 10
41.110703372695156
 20
121.0
 30
0.0
 11
41.26840799176411
 21
121.0
 31
0.0
  0
LINE
  5
C5
330
17
100
AcDbEntity
  8
可见轮廓
100
AcDbLine
 10
41.26840799176411
 20
121.0
 30
0.0
 11
41.41421356237311
 21
121.0
 31
0.0
  0
LINE
  5
C6
330
17
100
AcDbEntity
  8
可见轮廓
100
AcDbLine
 10
41.41421356237311
 20
121.0
 30
0.0
 11
41.545568306143636
 21
121.0
 31
0.0
  0
LINE
  5
C7
330
17
100
AcDbEntity
  8
可见轮廓
100
AcDbLine
 10
41.545568306143636
 20
121.0
 30
0.0
 11
41.66228506818756
 21
121.0
 31
0.0
  0
LINE
  5
C8
330
17
100
AcDbEntity
  8
可见轮廓
100
AcDbLine
 10
41.66228506818756
 20
121.0
 30
0.0
 11
41.763319566814346
 21
121.0
 31
0.0
  0
LINE
  5
C9
330
17
100
AcDbEntity
  8
可见轮廓
100
AcDbLine
 10
41.763319566814346
 20
121.0
 30
0.0
 11
41.84775906502258
 21
121.0
 31
0.0
  0
LINE
  5
CA
330
17
100
AcDbEntity
  8
可见轮廓
100
AcDbLine
 10
41.84775906502258
 20
121.0
 30
0.0
 11
41.91331764807184
 21
121.0
 31
0.0
  0
LINE
  5
CB
330
17
100
AcDbEntity
  8
可见轮廓
100
AcDbLine
 10
41.91331764807184
 20
121.0
 30
0.0
 11
41.960798930700065
 21
121.0
 31
0.0
  0
LINE
  5
CC
330
17
100
AcDbEntity
  8
可见轮廓
100
AcDbLine
 10
41.960798930700065
 20
121.0
 30
0.0
 11
41.98978172234878
 21
121.0
 31
0.0
  0
LINE
  5
CD
330
17
100
AcDbEntity
  8
可见轮廓
100
AcDbLine
 10
3.349999999999998
 20
101.0
 30
0.0
 11
3.361555339734121
 21
101.0
 31
0.0
  0
LINE
  5
CE
330
17
100
AcDbEntity
  8
可见轮廓
100
AcDbLine
 10
3.361555339734121
 20
101.0
 30
0.0
 11
3.3942886048203853
 21
101.0
 31
0.0
  0
LINE
  5
CF
330
17
100
AcDbEntity
  8
可见轮廓
100
AcDbLine
 10
3.4477879418708923
 20
101.0
 30
0.0
 11
3.5214026917378725
 21
101.0
 31
0.0
  0
LINE
  5
D0
330
17
100
AcDbEntity
  8
可见轮廓
100
AcDbLine
 10
3.5214026917378725
 20
101.0
 30
0.0
 11
3.615727374001125
 21
101.0
 31
0.0
  0
LINE
  5
D1
330
17
100
AcDbEntity
  8
可见轮廓
100
AcDbLine
 10
3.615727374001125
 20
101.0
 30
0.0
 11
3.7278925506239773
 21
101.0
 31
0.0
  0
LINE
  5
D2
330
17
100
AcDbEntity
  8
可见轮廓
100
AcDbLine
 10
3.7278925506239773
 20
101.0
 30
0.0
 11
3.8565094226880454
 21
101.0
 31
0.0
  0
LINE
  5
D3
330
17
100
AcDbEntity
  8
可见轮廓
100
AcDbLine
 10
3.8565094226880454
 20
101.0
 30
0.0
 11
3.999999999999993
 21
101.0
 31
0.0
  0
LINE
  5
D4
330
17
100
AcDbEntity
  8
可见轮廓
100
AcDbLine
 10
1.999999999999993
 20
101.0
 30
0.0
 11
2.010218277651223
 21
101.0
 31
0.0
  0
LINE
  5
D5
330
17
100
AcDbEntity
  8
可见轮廓
100
AcDbLine
 10
2.039201069299935
 20
101.0
 30
0.0
 11
2.086682351928161
 21
101.0
 31
0.0
  0
LINE
  5
D6
330
17
100
AcDbEntity
  8
可见轮廓
100
AcDbLine
 10
2.086682351928161
 20
101.0
 30
0.0
 11
2.1522409349774207
 21
101.0
 31
0.0
  0
LINE
  5
D7
330
17
100
AcDbEntity
  8
可见轮廓
100
AcDbLine
 10
2.1522409349774207
 20
101.0
 30
0.0
 11
2.2366804331856542
 21
101.0
 31
0.0
  0
LINE
  5
D8
330
17
100
AcDbEntity
  8
可见轮廓
100
AcDbLine
 10
2.2366804331856542
 20
101.0
 30
0.0
 11
2.3377149318124495
 21
101.0
 31
0.0
  0
LINE
  5
D9
330
17
100
AcDbEntity
  8
可见轮廓
100
AcDbLine
 10
2.3377149318124495
 20
101.0
 30
0.0
 11
2.4544316938563675
 21
101.0
 31
0.0
  0
LINE
  5
DA
330
17
100
AcDbEntity
  8
可见轮廓
100
AcDbLine
 10
2.4544316938563675
 20
101.0
 30
0.0
 11
2.5857864376269006
 21
101.0
 31
0.0
  0
LINE
  5
DB
330
17
100
AcDbEntity
  8
可见轮廓
100
AcDbLine
 10
2.5857864376269006
 20
101.0
 30
0.0
 11
2.668481036495468
 21
101.0
 31
0.0
  0
LINE
  5
DC
330
17
100
AcDbEntity
  8
可见轮廓
100
AcDbLine
 10
2.668481036495468
 20
101.0
 30
0.0
 11
2.755369753091422
 21
101.0
 31
0.0
  0
LINE
  5
DD
330
17
100
AcDbEntity
  8
可见轮廓
100
AcDbLine
 10
2.755369753091422
 20
101.0
 30
0.0
 11
2.8461907265424102
 21
101.0
 31
0.0
  0
LINE
  5
DE
330
17
100
AcDbEntity
  8
可见轮廓
100
AcDbLine
 10
2.8461907265424102
 20
101.0
 30
0.0
 11
2.9406710519098738
 21
101.0
 31
0.0
  0
LINE
  5
DF
330
17
100
AcDbEntity
  8
可见轮廓
100
AcDbLine
 10
2.9406710519098738
 20
101.0
 30
0.0
 11
3.0387768541925873
 21
101.0
 31
0.0
  0
LINE
  5
E0
330
17
100
AcDbEntity
  8
可见轮廓
100
AcDbLine
 10
3.0387768541925873
 20
101.0
 30
0.0
 11
3.139904609801519
 21
101.0
 31
0.0
  0
LINE
  5
E1
330
17
100
AcDbEntity
  8
可见轮廓
100
AcDbLine
 10
3.139904609801519
 20
101.0
 30
0.0
 11
3.243749731473585
 21
101.0
 31
0.0
  0
LINE
  5
E2
330
17
100
AcDbEntity
  8
可见轮廓
100
AcDbLine
 10
3.243749731473585
 20
101.0
 30
0.0
 11
3.349999999999998
 21
101.0
 31
0.0
  0
LINE
  5
E3
330
17
100
AcDbEntity
  8
可见轮廓
100
AcDbLine
 10
42.00000000000001
 20
101.0
 30
0.0
 11
41.98978172234878
 21
101.0
 31
0.0
  0
LINE
  5
E4
330
17
100
AcDbEntity
  8
可见轮廓
100
AcDbLine
 10
41.960798930700065
 20
101.0
 30
0.0
 11
41.91331764807184
 21
101.0
 31
0.0
  0
LINE
  5
E5
330
17
100
AcDbEntity
  8
可见轮廓
100
AcDbLine
 10
41.91331764807184
 20
101.0
 30
0.0
 11
41.847759065022586
 21
101.0
 31
0.0
  0
LINE
  5
E6
330
17
100
AcDbEntity
  8
可见轮廓
100
AcDbLine
 10
41.847759065022586
 20
101.0
 30
0.0
 11
41.76331956681435
 21
101.0
 31
0.0
  0
LINE
  5
E7
330
17
100
AcDbEntity
  8
可见轮廓
100
AcDbLine
 10
41.76331956681435
 20
101.0
 30
0.0
 11
41.66228506818756
 21
101.0
 31
0.0
  0
LINE
  5
E8
330
17
100
AcDbEntity
  8
可见轮廓
100
AcDbLine
 10
41.66228506818756
 20
101.0
 30
0.0
 11
41.545568306143636
 21
101.0
 31
0.0
  0
LINE
  5
E9
330
17
100
AcDbEntity
  8
可见轮廓
100
AcDbLine
 10
41.545568306143636
 20
101.0
 30
0.0
 11
41.41421356237311
 21
101.0
 31
0.0
  0
LINE
  5
EA
330
17
100
AcDbEntity
  8
可见轮廓
100
AcDbLine
 10
41.41421356237311
 20
101.0
 30
0.0
 11
41.268407991764114
 21
101.0
 31
0.0
  0
LINE
  5
EB
330
17
100
AcDbEntity
  8
可见轮廓
100
AcDbLine
 10
41.268407991764114
 20
101.0
 30
0.0
 11
41.110703372695156
 21
101.0
 31
0.0
  0
LINE
  5
EC
330
17
100
AcDbEntity
  8
可见轮廓
100
AcDbLine
 10
41.110703372695156
 20
101.0
 30
0.0
 11
40.94252020021665
 21
101.0
 31
0.0
  0
LINE
  5
ED
330
17
100
AcDbEntity
  8
可见轮廓
100
AcDbLine
 10
40.94252020021665
 20
101.0
 30
0.0
 11
40.76536686473019
 21
101.0
 31
0.0
  0
LINE
  5
EE
330
17
100
AcDbEntity
  8
可见轮廓
100
AcDbLine
 10
40.76536686473019
 20
101.0
 30
0.0
 11
40.580392798114865
 21
101.0
 31
0.0
  0
LINE
  5
EF
330
17
100
AcDbEntity
  8
可见轮廓
100
AcDbLine
 10
40.580392798114865
 20
101.0
 30
0.0
 11
40.39002715726106
 21
101.0
 31
0.0
  0
LINE
  5
F0
330
17
100
AcDbEntity
  8
可见轮廓
100
AcDbLine
 10
40.39002715726106
 20
101.0
 30
0.0
 11
40.19598193777357
 21
101.0
 31
0.0
  0
LINE
  5
F1
330
17
100
AcDbEntity
  8
可见轮廓
100
AcDbLine
 10
40.19598193777357
 20
101.0
 30
0.0
 11
40.0
 21
101.0
 31
0.0
  0
LINE
  5
F2
330
17
100
AcDbEntity
  8
可见轮廓
100
AcDbLine
 10
3.999999999999993
 20
101.0
 30
0.0
 11
3.804018062226433
 21
101.0
 31
0.0
  0
LINE
  5
F3
330
17
100
AcDbEntity
  8
可见轮廓
100
AcDbLine
 10
3.804018062226433
 20
101.0
 30
0.0
 11
3.609972842738941
 21
101.0
 31
0.0
  0
LINE
  5
F4
330
17
100
AcDbEntity
  8
可见轮廓
100
AcDbLine
 10
3.609972842738941
 20
101.0
 30
0.0
 11
3.419607201885132
 21
101.0
 31
0.0
  0
LINE
  5
F5
330
17
100
AcDbEntity
  8
可见轮廓
100
AcDbLine
 10
3.419607201885132
 20
101.0
 30
0.0
 11
3.23463313526981
 21
101.0
 31
0.0
  0
LINE
  5
F6
330
17
100
AcDbEntity
  8
可见轮廓
100
AcDbLine
 10
3.0574797997833514
 20
101.0
 30
0.0
 11
2.8892966273048444
 21
101.0
 31
0.0
  0
LINE
  5
F7
330
17
100
AcDbEntity
  8
可见轮廓
100
AcDbLine
 10
2.8892966273048444
 20
101.0
 30
0.0
 11
2.731592008235882
 21
101.0
 31
0.0
  0
LINE
  5
F8
330
17
100
AcDbEntity
  8
可见轮廓
100
AcDbLine
 10
9.999999999999995
 20
104.0
 30
0.0
 11
9.999999999999995
 21
112.5
 31
0.0
  0
LINE
  5
F9
330
17
100
AcDbEntity
  8
可见轮廓
100
AcDbLine
 10
9.999999999999995
 20
112.5
 30
0.0
 11
9.999999999999995
 21
121.0
 31
0.0
  0
LINE
  5
FA
330
17
100
AcDbEntity
  8
可见轮廓
100
AcDbLine
 10
3.349999999999998
 20
104.0
 30
0.0
 11
3.361555339734121
 21
104.0
 31
0.0
  0
LINE
  5
FB
330
17
100
AcDbEntity
  8
可见轮廓
100
AcDbLine
 10
3.361555339734121
 20
104.0
 30
0.0
 11
3.3942886048203853
 21
104.0
 31
0.0
  0
LINE
  5
FC
330
17
100
AcDbEntity
  8
可见轮廓
100
AcDbLine
 10
3.4477879418708923
 20
104.0
 30
0.0
 11
3.5214026917378725
 21
104.0
 31
0.0
  0
LINE
  5
FD
330
17
100
AcDbEntity
  8
可见轮廓
100
AcDbLine
 10
3.5214026917378725
 20
104.0
 30
0.0
 11
3.615727374001125
 21
104.0
 31
0.0
  0
LINE
  5
FE
330
17
100
AcDbEntity
  8
可见轮廓
100
AcDbLine
 10
3.615727374001125
 20
104.0
 30
0.0
 11
3.7278925506239773
 21
104.0
 31
0.0
  0
LINE
  5
FF
330
17
100
AcDbEntity
  8
可见轮廓
100
AcDbLine
 10
3.7278925506239773
 20
104.0
 30
0.0
 11
3.8565094226880454
 21
104.0
 31
0.0
  0
LINE
  5
100
330
17
100
AcDbEntity
  8
可见轮廓
100
AcDbLine
 10
3.8565094226880454
 20
104.0
 30
0.0
 11
3.999999999999993
 21
104.0
 31
0.0
  0
LINE
  5
101
330
17
100
AcDbEntity
  8
可见轮廓
100
AcDbLine
 10
1.999999999999993
 20
104.0
 30
0.0
 11
2.0102182776512194
 21
104.0
 31
0.0
  0
LINE
  5
102
330
17
100
AcDbEntity
  8
可见轮廓
100
AcDbLine
 10
2.0392010692999314
 20
104.0
 30
0.0
 11
2.0866823519281574
 21
104.0
 31
0.0
  0
LINE
  5
103
330
17
100
AcDbEntity
  8
可见轮廓
100
AcDbLine
 10
2.0866823519281574
 20
104.0
 30
0.0
 11
2.152240934977417
 21
104.0
 31
0.0
  0
LINE
  5
104
330
17
100
AcDbEntity
  8
可见轮廓
100
AcDbLine
 10
2.152240934977417
 20
104.0
 30
0.0
 11
2.2366804331856507
 21
104.0
 31
0.0
  0
LINE
  5
105
330
17
100
AcDbEntity
  8
可见轮廓
100
AcDbLine
 10
2.2366804331856507
 20
104.0
 30
0.0
 11
2.3377149318124424
 21
104.0
 31
0.0
  0
LINE
  5
106
330
17
100
AcDbEntity
  8
可见轮廓
100
AcDbLine
 10
2.3377149318124424
 20
104.0
 30
0.0
 11
2.4544316938563604
 21
104.0
 31
0.0
  0
LINE
  5
107
330
17
100
AcDbEntity
  8
可见轮廓
100
AcDbLine
 10
2.4544316938563604
 20
104.0
 30
0.0
 11
2.58578643762689
 21
104.0
 31
0.0
  0
LINE
  5
108
330
17
100
AcDbEntity
  8
可见轮廓
100
AcDbLine
 10
2.58578643762689
 20
104.0
 30
0.0
 11
2.731592008235882
 21
104.0
 31
0.0
  0
LINE
  5
109
330
17
100
AcDbEntity
  8
可见轮廓
100
AcDbLine
 10
2.731592008235882
 20
104.0
 30
0.0
 11
2.8892966273048444
 21
104.0
 31
0.0
  0
LINE
  5
10A
330
17
100
AcDbEntity
  8
可见轮廓
100
AcDbLine
 10
2.8892966273048444
 20
104.0
 30
0.0
 11
3.057479799783348
 21
104.0
 31
0.0
  0
LINE
  5
10B
330
17
100
AcDbEntity
  8
可见轮廓
100
AcDbLine
 10
3.057479799783348
 20
104.0
 30
0.0
 11
3.2346331352698066
 21
104.0
 31
0.0
  0
LINE
  5
10C
330
17
100
AcDbEntity
  8
可见轮廓
100
AcDbLine
 10
3.2346331352698066
 20
104.0
 30
0.0
 11
3.419607201885132
 21
104.0
 31
0.0
  0
LINE
  5
10D
330
17
100
AcDbEntity
  8
可见轮廓
100
AcDbLine
 10
3.419607201885132
 20
104.0
 30
0.0
 11
3.6099728427389373
 21
104.0
 31
0.0
  0
LINE
  5
10E
330
17
100
AcDbEntity
  8
可见轮廓
100
AcDbLine
 10
3.6099728427389373
 20
104.0
 30
0.0
 11
3.804018062226433
 21
104.0
 31
0.0
  0
LINE
  5
10F
330
17
100
AcDbEntity
  8
可见轮廓
100
AcDbLine
 10
3.804018062226433
 20
104.0
 30
0.0
 11
3.999999999999993
 21
104.0
 31
0.0
  0
LINE
  5
110
330
17
100
AcDbEntity
  8
可见轮廓
100
AcDbLine
 10
3.349999999999998
 20
104.0
 30
0.0
 11
3.2437497314735815
 21
104.0
 31
0.0
  0
LINE
  5
111
330
17
100
AcDbEntity
  8
可见轮廓
100
AcDbLine
 10
3.139904609801519
 20
104.0
 30
0.0
 11
3.0387768541925837
 21
104.0
 31
0.0
  0
LINE
  5
112
330
17
100
AcDbEntity
  8
可见轮廓
100
AcDbLine
 10
3.0387768541925837
 20
104.0
 30
0.0
 11
2.94067105190987
 21
104.0
 31
0.0
  0
LINE
  5
113
330
17
100
AcDbEntity
  8
可见轮廓
100
AcDbLine
 10
2.94067105190987
 20
104.0
 30
0.0
 11
2.8461907265424102
 21
104.0
 31
0.0
  0
LINE
  5
114
330
17
100
AcDbEntity
  8
可见轮廓
100
AcDbLine
 10
2.8461907265424102
 20
104.0
 30
0.0
 11
2.7553697530914185
 21
104.0
 31
0.0
  0
LINE
  5
115
330
17
100
AcDbEntity
  8
可见轮廓
100
AcDbLine
 10
2.7553697530914185
 20
104.0
 30
0.0
 11
2.6684810364954643
 21
104.0
 31
0.0
  0
LINE
  5
116
330
17
100
AcDbEntity
  8
可见轮廓
100
AcDbLine
 10
34.0
 20
121.0
 30
0.0
 11
34.0
 21
112.5
 31
0.0
  0
LINE
  5
117
330
17
100
AcDbEntity
  8
可见轮廓
100
AcDbLine
 10
34.0
 20
112.5
 30
0.0
 11
34.0
 21
104.0
 31
0.0
  0
LINE
  5
118
330
17
100
AcDbEntity
  8
可见轮廓
100
AcDbLine
 10
40.0
 20
104.0
 30
0.0
 11
40.19598193777356
 21
104.0
 31
0.0
  0
LINE
  5
119
330
17
100
AcDbEntity
  8
可见轮廓
100
AcDbLine
 10
40.19598193777356
 20
104.0
 30
0.0
 11
40.39002715726106
 21
104.0
 31
0.0
  0
LINE
  5
11A
330
17
100
AcDbEntity
  8
可见轮廓
100
AcDbLine
 10
40.39002715726106
 20
104.0
 30
0.0
 11
40.58039279811486
 21
104.0
 31
0.0
  0
LINE
  5
11B
330
17
100
AcDbEntity
  8
可见轮廓
100
AcDbLine
 10
40.58039279811486
 20
104.0
 30
0.0
 11
40.76536686473018
 21
104.0
 31
0.0
  0
LINE
  5
11C
330
17
100
AcDbEntity
  8
可见轮廓
100
AcDbLine
 10
40.76536686473018
 20
104.0
 30
0.0
 11
40.94252020021665
 21
104.0
 31
0.0
  0
LINE
  5
11D
330
17
100
AcDbEntity
  8
可见轮廓
100
AcDbLine
 10
40.94252020021665
 20
104.0
 30
0.0
 11
41.11070337269515
 21
104.0
 31
0.0
  0
LINE
  5
11E
330
17
100
AcDbEntity
  8
可见轮廓
100
AcDbLine
 10
41.11070337269515
 20
104.0
 30
0.0
 11
41.26840799176411
 21
104.0
 31
0.0
  0
LINE
  5
11F
330
17
100
AcDbEntity
  8
可见轮廓
100
AcDbLine
 10
41.26840799176411
 20
104.0
 30
0.0
 11
41.41421356237311
 21
104.0
 31
0.0
  0
LINE
  5
120
330
17
100
AcDbEntity
  8
可见轮廓
100
AcDbLine
 10
41.41421356237311
 20
104.0
 30
0.0
 11
41.545568306143636
 21
104.0
 31
0.0
  0
LINE
  5
121
330
17
100
AcDbEntity
  8
可见轮廓
100
AcDbLine
 10
41.545568306143636
 20
104.0
 30
0.0
 11
41.66228506818755
 21
104.0
 31
0.0
  0
LINE
  5
122
330
17
100
AcDbEntity
  8
可见轮廓
100
AcDbLine
 10
41.66228506818755
 20
104.0
 30
0.0
 11
41.763319566814346
 21
104.0
 31
0.0
  0
LINE
  5
123
330
17
100
AcDbEntity
  8
可见轮廓
100
AcDbLine
 10
41.763319566814346
 20
104.0
 30
0.0
 11
41.84775906502258
 21
104.0
 31
0.0
  0
LINE
  5
124
330
17
100
AcDbEntity
  8
可见轮廓
100
AcDbLine
 10
41.84775906502258
 20
104.0
 30
0.0
 11
41.91331764807184
 21
104.0
 31
0.0
  0
LINE
  5
125
330
17
100
AcDbEntity
  8
可见轮廓
100
AcDbLine
 10
41.91331764807184
 20
104.0
 30
0.0
 11
41.960798930700065
 21
104.0
 31
0.0
  0
LINE
  5
126
330
17
100
AcDbEntity
  8
可见轮廓
100
AcDbLine
 10
41.960798930700065
 20
104.0
 30
0.0
 11
41.98978172234878
 21
104.0
 31
0.0
  0
LINE
  5
127
330
17
100
AcDbEntity
  8
可见轮廓
100
AcDbLine
 10
3.349999999999998
 20
101.0
 30
0.0
 11
3.349999999999998
 21
102.5
 31
0.0
  0
LINE
  5
128
330
17
100
AcDbEntity
  8
可见轮廓
100
AcDbLine
 10
3.349999999999998
 20
102.5
 30
0.0
 11
3.349999999999998
 21
104.0
 31
0.0
  0
LINE
  5
129
330
17
100
AcDbEntity
  8
可见轮廓
100
AcDbLine
 10
40.0
 20
101.0
 30
0.0
 11
40.0
 21
102.5
 31
0.0
  0
LINE
  5
12A
330
17
100
AcDbEntity
  8
可见轮廓
100
AcDbLine
 10
40.0
 20
102.5
 30
0.0
 11
40.0
 21
104.0
 31
0.0
  0
LINE
  5
12B
330
17
100
AcDbEntity
  8
可见轮廓
100
AcDbLine
 10
32.0
 20
104.0
 30
0.0
 11
32.0
 21
111.0
 31
0.0
  0
LINE
  5
12C
330
17
100
AcDbEntity
  8
可见轮廓
100
AcDbLine
 10
32.0
 20
111.0
 30
0.0
 11
32.0
 21
112.5
 31
0.0
  0
LINE
  5
12D
330
17
100
AcDbEntity
  8
可见轮廓
100
AcDbLine
 10
32.0
 20
112.5
 30
0.0
 11
32.0
 21
121.0
 31
0.0
  0
LINE
  5
12E
330
17
100
AcDbEntity
  8
可见轮廓
100
AcDbLine
 10
11.999999999999995
 20
121.0
 30
0.0
 11
11.999999999999995
 21
112.5
 31
0.0
  0
LINE
  5
12F
330
17
100
AcDbEntity
  8
可见轮廓
100
AcDbLine
 10
11.999999999999995
 20
112.5
 30
0.0
 11
11.999999999999995
 21
111.0
 31
0.0
  0
LINE
  5
130
330
17
100
AcDbEntity
  8
可见轮廓
100
AcDbLine
 10
11.999999999999995
 20
111.0
 30
0.0
 11
11.999999999999995
 21
104.0
 31
0.0
  0
LINE
  5
131
330
17
100
AcDbEntity
  8
可见轮廓
100
AcDbLine
 10
3.999999999999993
 20
104.0
 30
0.0
 11
3.999999999999993
 21
102.5
 31
0.0
  0
LINE
  5
132
330
17
100
AcDbEntity
  8
可见轮廓
100
AcDbLine
 10
3.999999999999993
 20
102.5
 30
0.0
 11
3.999999999999993
 21
101.0
 31
0.0
  0
LINE
  5
133
330
17
100
AcDbEntity
  8
可见轮廓
100
AcDbLine
 10
3.9999999999999964
 20
121.0
 30
0.0
 11
3.9999999999999964
 21
112.5
 31
0.0
  0
LINE
  5
134
330
17
100
AcDbEntity
  8
可见轮廓
100
AcDbLine
 10
3.9999999999999964
 20
112.5
 30
0.0
 11
3.9999999999999964
 21
104.0
 31
0.0
  0
LINE
  5
135
330
17
100
AcDbEntity
  8
可见轮廓
100
AcDbLine
 10
40.0
 20
104.0
 30
0.0
 11
40.0
 21
112.5
 31
0.0
  0
LINE
  5
136
330
17
100
AcDbEntity
  8
可见轮廓
100
AcDbLine
 10
40.0
 20
112.5
 30
0.0
 11
40.0
 21
121.0
 31
0.0
  0
LINE
  5
137
330
17
100
AcDbEntity
  8
可见轮廓
100
AcDbLine
 10
17.999999999999993
 20
121.0
 30
0.0
 11
25.999999999999993
 21
121.0
 31
0.0
  0
LINE
  5
138
330
17
100
AcDbEntity
  8
可见轮廓
100
AcDbLine
 10
17.999999999999993
 20
104.0
 30
0.0
 11
25.999999999999993
 21
104.0
 31
0.0
  0
LINE
  5
139
330
17
100
AcDbEntity
  8
可见轮廓
100
AcDbLine
 10
15.999999999999993
 20
121.0
 30
0.0
 11
17.999999999999993
 21
121.0
 31
0.0
  0
LINE
  5
13A
330
17
100
AcDbEntity
  8
可见轮廓
100
AcDbLine
 10
1.999999999999993
 20
121.0
 30
0.0
 11
3.9999999999999964
 21
121.0
 31
0.0
  0
LINE
  5
13B
330
17
100
AcDbEntity
  8
可见轮廓
100
AcDbLine
 10
9.999999999999993
 20
121.0
 30
0.0
 11
11.999999999999995
 21
121.0
 31
0.0
  0
LINE
  5
13C
330
17
100
AcDbEntity
  8
可见轮廓
100
AcDbLine
 10
32.0
 20
121.0
 30
0.0
 11
34.0
 21
121.0
 31
0.0
  0
LINE
  5
13D
330
17
100
AcDbEntity
  8
可见轮廓
100
AcDbLine
 10
40.0
 20
121.0
 30
0.0
 11
42.0
 21
121.0
 31
0.0
  0
LINE
  5
13E
330
17
100
AcDbEntity
  8
可见轮廓
100
AcDbLine
 10
25.999999999999993
 20
121.0
 30
0.0
 11
27.999999999999993
 21
121.0
 31
0.0
  0
LINE
  5
13F
330
17
100
AcDbEntity
  8
可见轮廓
100
AcDbLine
 10
3.9999999999999964
 20
101.0
 30
0.0
 11
1.999999999999993
 21
101.0
 31
0.0
  0
LINE
  5
140
330
17
100
AcDbEntity
  8
可见轮廓
100
AcDbLine
 10
42.00000000000001
 20
101.0
 30
0.0
 11
40.0
 21
101.0
 31
0.0
  0
LINE
  5
141
330
17
100
AcDbEntity
  8
可见轮廓
100
AcDbLine
 10
27.999999999999993
 20
104.0
 30
0.0
 11
25.999999999999993
 21
104.0
 31
0.0
  0
LINE
  5
142
330
17
100
AcDbEntity
  8
可见轮廓
100
AcDbLine
 10
17.999999999999993
 20
104.0
 30
0.0
 11
15.999999999999993
 21
104.0
 31
0.0
  0
LINE
  5
143
330
17
100
AcDbEntity
  8
可见轮廓
100
AcDbLine
 10
23.64999999999999
 20
101.0
 30
0.0
 11
23.64999999999999
 21
101.1875
 31
0.0
  0
LINE
  5
144
330
17
100
AcDbEntity
  8
可见轮廓
100
AcDbLine
 10
23.64999999999999
 20
103.8125
 30
0.0
 11
23.64999999999999
 21
104.0
 31
0.0
  0
LINE
  5
145
330
17
100
AcDbEntity
  8
可见轮廓
100
AcDbLine
 10
21.999999999999993
 20
101.0
 30
0.0
 11
21.999999999999993
 21
104.0
 31
0.0
  0
LINE
  5
146
330
17
100
AcDbEntity
  8
可见轮廓
100
AcDbLine
 10
6.649999999999995
 20
101.0
 30
0.0
 11
6.649999999999995
 21
101.1875
 31
0.0
  0
LINE
  5
147
330
17
100
AcDbEntity
  8
可见轮廓
100
AcDbLine
 10
4.9999999999999964
 20
101.0
 30
0.0
 11
4.9999999999999964
 21
101.1875
 31
0.0
  0
LINE
  5
148
330
17
100
AcDbEntity
  8
可见轮廓
100
AcDbLine
 10
40.64999999999999
 20
101.0
 30
0.0
 11
40.64999999999999
 21
101.1875
 31
0.0
  0
LINE
  5
149
330
17
100
AcDbEntity
  8
可见轮廓
100
AcDbLine
 10
39.0
 20
101.0
 30
0.0
 11
39.0
 21
101.1875
 31
0.0
  0
LINE
  5
14A
330
17
100
AcDbEntity
  8
可见轮廓
100
AcDbLine
 10
17.999999999999993
 20
104.0
 30
0.0
 11
17.999999999999993
 21
121.0
 31
0.0
  0
LINE
  5
14B
330
17
100
AcDbEntity
  8
可见轮廓
100
AcDbLine
 10
1.999999999999993
 20
121.0
 30
0.0
 11
1.999999999999993
 21
101.0
 31
0.0
  0
LINE
  5
14C
330
17
100
AcDbEntity
  8
可见轮廓
100
AcDbLine
 10
40.0
 20
121.0
 30
0.0
 11
40.0
 21
101.0
 31
0.0
  0
LINE
  5
14D
330
17
100
AcDbEntity
  8
可见轮廓
100
AcDbLine
 10
42.00000000000001
 20
104.0
 30
0.0
 11
42.00000000000001
 21
101.0
 31
0.0
  0
LINE
  5
14E
330
17
100
AcDbEntity
  8
可见轮廓
100
AcDbLine
 10
3.999999999999993
 20
104.0
 30
0.0
 11
3.999999999999993
 21
101.0
 31
0.0
  0
LINE
  5
14F
330
17
100
AcDbEntity
  8
可见轮廓
100
AcDbLine
 10
42.0
 20
104.0
 30
0.0
 11
42.0
 21
121.0
 31
0.0
  0
LINE
  5
150
330
17
100
AcDbEntity
  8
可见轮廓
100
AcDbLine
 10
40.0
 20
104.0
 30
0.0
 11
40.0
 21
121.0
 31
0.0
  0
LINE
  5
151
330
17
100
AcDbEntity
  8
可见轮廓
100
AcDbLine
 10
32.0
 20
104.0
 30
0.0
 11
32.0
 21
121.0
 31
0.0
  0
LINE
  5
152
330
17
100
AcDbEntity
  8
可见轮廓
100
AcDbLine
 10
9.999999999999993
 20
104.0
 30
0.0
 11
9.999999999999993
 21
121.0
 31
0.0
  0
LINE
  5
153
330
17
100
AcDbEntity
  8
可见轮廓
100
AcDbLine
 10
1.9999999999999964
 20
104.0
 30
0.0
 11
1.9999999999999964
 21
121.0
 31
0.0
  0
LINE
  5
154
330
17
100
AcDbEntity
  8
可见轮廓
100
AcDbLine
 10
27.999999999999993
 20
104.0
 30
0.0
 11
27.999999999999993
 21
121.0
 31
0.0
  0
LINE
  5
155
330
17
100
AcDbEntity
  8
可见轮廓
100
AcDbLine
 10
37.349999999999994
 20
101.0
 30
0.0
 11
37.349999999999994
 21
101.1875
 31
0.0
  0
LINE
  5
156
330
17
100
AcDbEntity
  8
可见轮廓
100
AcDbLine
 10
3.349999999999998
 20
101.0
 30
0.0
 11
3.349999999999998
 21
101.1875
 31
0.0
  0
LINE
  5
157
330
17
100
AcDbEntity
  8
可见轮廓
100
AcDbLine
 10
20.349999999999994
 20
101.0
 30
0.0
 11
20.349999999999994
 21
101.1875
 31
0.0
  0
LINE
  5
158
330
17
100
AcDbEntity
  8
可见轮廓
100
AcDbLine
 10
20.349999999999994
 20
103.8125
 30
0.0
 11
20.349999999999994
 21
104.0
 31
0.0
  0
LINE
  5
159
330
17
100
AcDbEntity
  8
可见轮廓
100
AcDbLine
 10
21.999999999999993
 20
101.0
 30
0.0
 11
21.999999999999993
 21
101.1875
 31
0.0
  0
LINE
  5
15A
330
17
100
AcDbEntity
  8
可见轮廓
100
AcDbLine
 10
21.999999999999993
 20
103.8125
 30
0.0
 11
21.999999999999993
 21
104.0
 31
0.0
  0
LINE
  5
15B
330
17
100
AcDbEntity
  8
隐藏线
100
AcDbLine
 10
21.999999999999993
 20
104.0
 30
0.0
 11
22.18920080343375
 21
104.0
 31
0.0
  0
LINE
  5
15C
330
17
100
AcDbEntity
  8
隐藏线
100
AcDbLine
 10
22.18920080343375
 20
104.0
 30
0.0
 11
22.375838680493825
 21
104.0
 31
0.0
  0
LINE
  5
15D
330
17
100
AcDbEntity
  8
隐藏线
100
AcDbLine
 10
22.375838680493825
 20
104.0
 30
0.0
 11
22.557615974818106
 21
104.0
 31
0.0
  0
LINE
  5
15E
330
17
100
AcDbEntity
  8
隐藏线
100
AcDbLine
 10
22.557615974818106
 20
104.0
 30
0.0
 11
22.73229092579383
 21
104.0
 31
0.0
  0
LINE
  5
15F
330
17
100
AcDbEntity
  8
隐藏线
100
AcDbLine
 10
22.73229092579383
 20
104.0
 30
0.0
 11
22.896709064124995
 21
104.0
 31
0.0
  0
LINE
  5
160
330
17
100
AcDbEntity
  8
隐藏线
100
AcDbLine
 10
22.896709064124995
 20
104.0
 30
0.0
 11
23.049431482092576
 21
104.0
 31
0.0
  0
LINE
  5
161
330
17
100
AcDbEntity
  8
隐藏线
100
AcDbLine
 10
23.049431482092576
 20
104.0
 30
0.0
 11
23.188581990597413
 21
104.0
 31
0.0
  0
LINE
  5
162
330
17
100
AcDbEntity
  8
隐藏线
100
AcDbLine
 10
23.188581990597413
 20
104.0
 30
0.0
 11
23.312440474840656
 21
104.0
 31
0.0
  0
LINE
  5
163
330
17
100
AcDbEntity
  8
隐藏线
100
AcDbLine
 10
23.312440474840656
 20
104.0
 30
0.0
 11
23.389113331846563
 21
104.0
 31
0.0
  0
LINE
  5
164
330
17
100
AcDbEntity
  8
隐藏线
100
AcDbLine
 10
23.389113331846563
 20
104.0
 30
0.0
 11
23.456754746126805
 21
104.0
 31
0.0
  0
LINE
  5
165
330
17
100
AcDbEntity
  8
隐藏线
100
AcDbLine
 10
23.456754746126805
 20
104.0
 30
0.0
 11
23.514948804161985
 21
104.0
 31
0.0
  0
LINE
  5
166
330
17
100
AcDbEntity
  8
隐藏线
100
AcDbLine
 10
23.514948804161985
 20
104.0
 30
0.0
 11
23.563334062746513
 21
104.0
 31
0.0
  0
LINE
  5
167
330
17
100
AcDbEntity
  8
隐藏线
100
AcDbLine
 10
23.563334062746513
 20
104.0
 30
0.0
 11
23.60073742047939
 21
104.0
 31
0.0
  0
LINE
  5
168
330
17
100
AcDbEntity
  8
隐藏线
100
AcDbLine
 10
23.370326683063055
 20
104.0
 30
0.0
 11
23.166726188957796
 21
104.0
 31
0.0
  0
LINE
  5
169
330
17
100
AcDbEntity
  8
隐藏线
100
AcDbLine
 10
23.166726188957796
 20
104.0
 30
0.0
 11
22.91557923795445
 21
104.0
 31
0.0
  0
LINE
  5
16A
330
17
100
AcDbEntity
  8
隐藏线
100
AcDbLine
 10
22.91557923795445
 20
104.0
 30
0.0
 11
22.630434310884993
 21
104.0
 31
0.0
  0
LINE
  5
16B
330
17
100
AcDbEntity
  8
隐藏线
100
AcDbLine
 10
22.630434310884993
 20
104.0
 30
0.0
 11
22.321555002163546
 21
104.0
 31
0.0
  0
LINE
  5
16C
330
17
100
AcDbEntity
  8
隐藏线
100
AcDbLine
 10
22.321555002163546
 20
104.0
 30
0.0
 11
21.999999999999993
 21
104.0
 31
0.0
  0
LINE
  5
16D
330
17
100
AcDbEntity
  8
隐藏线
100
AcDbLine
 10
21.999999999999993
 20
101.0
 30
0.0
 11
22.321555002163546
 21
101.0
 31
0.0
  0
LINE
  5
16E
330
17
100
AcDbEntity
  8
隐藏线
100
AcDbLine
 10
22.321555002163546
 20
101.0
 30
0.0
 11
22.63043431088499
 21
101.0
 31
0.0
  0
LINE
  5
16F
330
17
100
AcDbEntity
  8
隐藏线
100
AcDbLine
 10
22.63043431088499
 20
101.0
 30
0.0
 11
22.91557923795445
 21
101.0
 31
0.0
  0
LINE
  5
170
330
17
100
AcDbEntity
  8
隐藏线
100
AcDbLine
 10
22.91557923795445
 20
101.0
 30
0.0
 11
23.166726188957796
 21
101.0
 31
0.0
  0
LINE
  5
171
330
17
100
AcDbEntity
  8
隐藏线
100
AcDbLine
 10
23.166726188957796
 20
101.0
 30
0.0
 11
23.370326683063055
 21
101.0
 31
0.0
  0
LINE
  5
172
330
17
100
AcDbEntity
  8
隐藏线
100
AcDbLine
 10
23.370326683063055
 20
101.0
 30
0.0
 11
23.52200306352389
 21
101.0
 31
0.0
  0
LINE
  5
173
330
17
100
AcDbEntity
  8
隐藏线
100
AcDbLine
 10
23.52200306352389
 20
101.0
 30
0.0
 11
23.61637957790596
 21
101.0
 31
0.0
  0
LINE
  5
174
330
17
100
AcDbEntity
  8
隐藏线
100
AcDbLine
 10
23.61637957790596
 20
101.0
 30
0.0
 11
23.64999999999999
 21
101.0
 31
0.0
  0
LINE
  5
175
330
17
100
AcDbEntity
  8
隐藏线
100
AcDbLine
 10
4.9999999999999964
 20
104.0
 30
0.0
 11
5.321555002163549
 21
104.0
 31
0.0
  0
LINE
  5
176
330
17
100
AcDbEntity
  8
隐藏线
100
AcDbLine
 10
5.321555002163549
 20
104.0
 30
0.0
 11
5.6304343108849935
 21
104.0
 31
0.0
  0
LINE
  5
177
330
17
100
AcDbEntity
  8
隐藏线
100
AcDbLine
 10
5.6304343108849935
 20
104.0
 30
0.0
 11
5.915579237954454
 21
104.0
 31
0.0
  0
LINE
  5
178
330
17
100
AcDbEntity
  8
隐藏线
100
AcDbLine
 10
5.915579237954454
 20
104.0
 30
0.0
 11
6.166726188957799
 21
104.0
 31
0.0
  0
LINE
  5
179
330
17
100
AcDbEntity
  8
隐藏线
100
AcDbLine
 10
6.166726188957799
 20
104.0
 30
0.0
 11
6.370326683063059
 21
104.0
 31
0.0
  0
LINE
  5
17A
330
17
100
AcDbEntity
  8
隐藏线
100
AcDbLine
 10
6.370326683063059
 20
104.0
 30
0.0
 11
6.5220030635238935
 21
104.0
 31
0.0
  0
LINE
  5
17B
330
17
100
AcDbEntity
  8
隐藏线
100
AcDbLine
 10
6.5220030635238935
 20
104.0
 30
0.0
 11
6.616379577905963
 21
104.0
 31
0.0
  0
LINE
  5
17C
330
17
100
AcDbEntity
  8
隐藏线
100
AcDbLine
 10
6.616379577905963
 20
104.0
 30
0.0
 11
6.649999999999995
 21
104.0
 31
0.0
  0
LINE
  5
17D
330
17
100
AcDbEntity
  8
隐藏线
100
AcDbLine
 10
4.9999999999999964
 20
101.0
 30
0.0
 11
5.321555002163549
 21
101.0
 31
0.0
  0
LINE
  5
17E
330
17
100
AcDbEntity
  8
隐藏线
100
AcDbLine
 10
5.321555002163549
 20
101.0
 30
0.0
 11
5.6304343108849935
 21
101.0
 31
0.0
  0
LINE
  5
17F
330
17
100
AcDbEntity
  8
隐藏线
100
AcDbLine
 10
5.6304343108849935
 20
101.0
 30
0.0
 11
5.915579237954454
 21
101.0
 31
0.0
  0
LINE
  5
180
330
17
100
AcDbEntity
  8
隐藏线
100
AcDbLine
 10
5.915579237954454
 20
101.0
 30
0.0
 11
6.166726188957799
 21
101.0
 31
0.0
  0
LINE
  5
181
330
17
100
AcDbEntity
  8
隐藏线
100
AcDbLine
 10
6.166726188957799
 20
101.0
 30
0.0
 11
6.370326683063059
 21
101.0
 31
0.0
  0
LINE
  5
182
330
17
100
AcDbEntity
  8
隐藏线
100
AcDbLine
 10
6.370326683063059
 20
101.0
 30
0.0
 11
6.5220030635238935
 21
101.0
 31
0.0
  0
LINE
  5
183
330
17
100
AcDbEntity
  8
隐藏线
100
AcDbLine
 10
6.5220030635238935
 20
101.0
 30
0.0
 11
6.616379577905963
 21
101.0
 31
0.0
  0
LINE
  5
184
330
17
100
AcDbEntity
  8
隐藏线
100
AcDbLine
 10
6.616379577905963
 20
101.0
 30
0.0
 11
6.649999999999995
 21
101.0
 31
0.0
  0
LINE
  5
185
330
17
100
AcDbEntity
  8
隐藏线
100
AcDbLine
 10
39.0
 20
104.0
 30
0.0
 11
39.32155500216355
 21
104.0
 31
0.0
  0
LINE
  5
186
330
17
100
AcDbEntity
  8
隐藏线
100
AcDbLine
 10
39.32155500216355
 20
104.0
 30
0.0
 11
39.63043431088499
 21
104.0
 31
0.0
  0
LINE
  5
187
330
17
100
AcDbEntity
  8
隐藏线
100
AcDbLine
 10
39.63043431088499
 20
104.0
 30
0.0
 11
39.915579237954454
 21
104.0
 31
0.0
  0
LINE
  5
188
330
17
100
AcDbEntity
  8
隐藏线
100
AcDbLine
 10
39.915579237954454
 20
104.0
 30
0.0
 11
40.166726188957796
 21
104.0
 31
0.0
  0
LINE
  5
189
330
17
100
AcDbEntity
  8
隐藏线
100
AcDbLine
 10
40.166726188957796
 20
104.0
 30
0.0
 11
40.370326683063055
 21
104.0
 31
0.0
  0
LINE
  5
18A
330
17
100
AcDbEntity
  8
隐藏线
100
AcDbLine
 10
40.370326683063055
 20
104.0
 30
0.0
 11
40.5220030635239
 21
104.0
 31
0.0
  0
LINE
  5
18B
330
17
100
AcDbEntity
  8
隐藏线
100
AcDbLine
 10
40.5220030635239
 20
104.0
 30
0.0
 11
40.61637957790597
 21
104.0
 31
0.0
  0
LINE
  5
18C
330
17
100
AcDbEntity
  8
隐藏线
100
AcDbLine
 10
40.61637957790597
 20
104.0
 30
0.0
 11
40.64999999999999
 21
104.0
 31
0.0
  0
LINE
  5
18D
330
17
100
AcDbEntity
  8
隐藏线
100
AcDbLine
 10
39.0
 20
101.0
 30
0.0
 11
39.32155500216355
 21
101.0
 31
0.0
  0
LINE
  5
18E
330
17
100
AcDbEntity
  8
隐藏线
100
AcDbLine
 10
39.32155500216355
 20
101.0
 30
0.0
 11
39.63043431088499
 21
101.0
 31
0.0
  0
LINE
  5
18F
330
17
100
AcDbEntity
  8
隐藏线
100
AcDbLine
 10
39.63043431088499
 20
101.0
 30
0.0
 11
39.915579237954454
 21
101.0
 31
0.0
  0
LINE
  5
190
330
17
100
AcDbEntity
  8
隐藏线
100
AcDbLine
 10
39.915579237954454
 20
101.0
 30
0.0
 11
40.166726188957796
 21
101.0
 31
0.0
  0
LINE
  5
191
330
17
100
AcDbEntity
  8
隐藏线
100
AcDbLine
 10
40.166726188957796
 20
101.0
 30
0.0
 11
40.370326683063055
 21
101.0
 31
0.0
  0
LINE
  5
192
330
17
100
AcDbEntity
  8
隐藏线
100
AcDbLine
 10
40.370326683063055
 20
101.0
 30
0.0
 11
40.5220030635239
 21
101.0
 31
0.0
  0
LINE
  5
193
330
17
100
AcDbEntity
  8
隐藏线
100
AcDbLine
 10
40.5220030635239
 20
101.0
 30
0.0
 11
40.61637957790597
 21
101.0
 31
0.0
  0
LINE
  5
194
330
17
100
AcDbEntity
  8
隐藏线
100
AcDbLine
 10
40.61637957790597
 20
101.0
 30
0.0
 11
40.64999999999999
 21
101.0
 31
0.0
  0
LINE
  5
195
330
17
100
AcDbEntity
  8
隐藏线
100
AcDbLine
 10
17.999999999999993
 20
121.0
 30
0.0
 11
18.08150405356128
 21
121.0
 31
0.0
  0
LINE
  5
196
330
17
100
AcDbEntity
  8
隐藏线
100
AcDbLine
 10
18.08150405356128
 20
121.0
 30
0.0
 11
18.31029560357842
 21
121.0
 31
0.0
  0
LINE
  5
197
330
17
100
AcDbEntity
  8
隐藏线
100
AcDbLine
 10
18.31029560357842
 20
121.0
 30
0.0
 11
18.677995919847113
 21
121.0
 31
0.0
  0
LINE
  5
198
330
17
100
AcDbEntity
  8
隐藏线
100
AcDbLine
 10
18.677995919847113
 20
121.0
 30
0.0
 11
19.171572875253805
 21
121.0
 31
0.0
  0
LINE
  5
199
330
17
100
AcDbEntity
  8
隐藏线
100
AcDbLine
 10
19.171572875253805
 20
121.0
 30
0.0
 11
19.780413968595248
 21
121.0
 31
0.0
  0
LINE
  5
19A
330
17
100
AcDbEntity
  8
隐藏线
100
AcDbLine
 10
19.780413968595248
 20
121.0
 30
0.0
 11
20.471674397854542
 21
121.0
 31
0.0
  0
LINE
  5
19B
330
17
100
AcDbEntity
  8
隐藏线
100
AcDbLine
 10
20.471674397854542
 20
121.0
 30
0.0
 11
21.220472722027743
 21
121.0
 31
0.0
  0
LINE
  5
19C
330
17
100
AcDbEntity
  8
隐藏线
100
AcDbLine
 10
21.220472722027743
 20
121.0
 30
0.0
 11
21.999999999999993
 21
121.0
 31
0.0
  0
LINE
  5
19D
330
17
100
AcDbEntity
  8
隐藏线
100
AcDbLine
 10
21.999999999999993
 20
121.0
 30
0.0
 11
22.779527277972242
 21
121.0
 31
0.0
  0
LINE
  5
19E
330
17
100
AcDbEntity
  8
隐藏线
100
AcDbLine
 10
22.779527277972242
 20
121.0
 30
0.0
 11
23.528325602145443
 21
121.0
 31
0.0
  0
LINE
  5
19F
330
17
100
AcDbEntity
  8
隐藏线
100
AcDbLine
 10
23.528325602145443
 20
121.0
 30
0.0
 11
24.219586031404734
 21
121.0
 31
0.0
  0
LINE
  5
1A0
330
17
100
AcDbEntity
  8
隐藏线
100
AcDbLine
 10
24.219586031404734
 20
121.0
 30
0.0
 11
24.82842712474618
 21
121.0
 31
0.0
  0
LINE
  5
1A1
330
17
100
AcDbEntity
  8
隐藏线
100
AcDbLine
 10
24.82842712474618
 20
121.0
 30
0.0
 11
25.322004080152876
 21
121.0
 31
0.0
  0
LINE
  5
1A2
330
17
100
AcDbEntity
  8
隐藏线
100
AcDbLine
 10
25.322004080152876
 20
121.0
 30
0.0
 11
25.689704396421565
 21
121.0
 31
0.0
  0
LINE
  5
1A3
330
17
100
AcDbEntity
  8
隐藏线
100
AcDbLine
 10
25.689704396421565
 20
121.0
 30
0.0
 11
25.918495946438707
 21
121.0
 31
0.0
  0
LINE
  5
1A4
330
17
100
AcDbEntity
  8
隐藏线
100
AcDbLine
 10
25.918495946438707
 20
121.0
 30
0.0
 11
25.999999999999993
 21
121.0
 31
0.0
  0
LINE
  5
1A5
330
17
100
AcDbEntity
  8
隐藏线
100
AcDbLine
 10
17.999999999999993
 20
121.0
 30
0.0
 11
17.999999999999993
 21
112.5
 31
0.0
  0
LINE
  5
1A6
330
17
100
AcDbEntity
  8
隐藏线
100
AcDbLine
 10
17.999999999999993
 20
112.5
 30
0.0
 11
17.999999999999993
 21
104.0
 31
0.0
  0
LINE
  5
1A7
330
17
100
AcDbEntity
  8
隐藏线
100
AcDbLine
 10
17.999999999999993
 20
104.0
 30
0.0
 11
18.08150405356128
 21
104.0
 31
0.0
  0
LINE
  5
1A8
330
17
100
AcDbEntity
  8
隐藏线
100
AcDbLine
 10
18.08150405356128
 20
104.0
 30
0.0
 11
18.31029560357842
 21
104.0
 31
0.0
  0
LINE
  5
1A9
330
17
100
AcDbEntity
  8
隐藏线
100
AcDbLine
 10
18.31029560357842
 20
104.0
 30
0.0
 11
18.677995919847113
 21
104.0
 31
0.0
  0
LINE
  5
1AA
330
17
100
AcDbEntity
  8
隐藏线
100
AcDbLine
 10
18.677995919847113
 20
104.0
 30
0.0
 11
19.171572875253805
 21
104.0
 31
0.0
  0
LINE
  5
1AB
330
17
100
AcDbEntity
  8
隐藏线
100
AcDbLine
 10
19.171572875253805
 20
104.0
 30
0.0
 11
19.78041396859525
 21
104.0
 31
0.0
  0
LINE
  5
1AC
330
17
100
AcDbEntity
  8
隐藏线
100
AcDbLine
 10
19.78041396859525
 20
104.0
 30
0.0
 11
20.471674397854542
 21
104.0
 31
0.0
  0
LINE
  5
1AD
330
17
100
AcDbEntity
  8
隐藏线
100
AcDbLine
 10
20.471674397854542
 20
104.0
 30
0.0
 11
21.220472722027743
 21
104.0
 31
0.0
  0
LINE
  5
1AE
330
17
100
AcDbEntity
  8
隐藏线
100
AcDbLine
 10
21.220472722027743
 20
104.0
 30
0.0
 11
21.999999999999993
 21
104.0
 31
0.0
  0
LINE
  5
1AF
330
17
100
AcDbEntity
  8
隐藏线
100
AcDbLine
 10
21.999999999999993
 20
104.0
 30
0.0
 11
22.779527277972246
 21
104.0
 31
0.0
  0
LINE
  5
1B0
330
17
100
AcDbEntity
  8
隐藏线
100
AcDbLine
 10
22.779527277972246
 20
104.0
 30
0.0
 11
23.528325602145443
 21
104.0
 31
0.0
  0
LINE
  5
1B1
330
17
100
AcDbEntity
  8
隐藏线
100
AcDbLine
 10
23.528325602145443
 20
104.0
 30
0.0
 11
24.219586031404734
 21
104.0
 31
0.0
  0
LINE
  5
1B2
330
17
100
AcDbEntity
  8
隐藏线
100
AcDbLine
 10
24.219586031404734
 20
104.0
 30
0.0
 11
24.828427124746185
 21
104.0
 31
0.0
  0
LINE
  5
1B3
330
17
100
AcDbEntity
  8
隐藏线
100
AcDbLine
 10
24.828427124746185
 20
104.0
 30
0.0
 11
25.322004080152876
 21
104.0
 31
0.0
  0
LINE
  5
1B4
330
17
100
AcDbEntity
  8
隐藏线
100
AcDbLine
 10
25.322004080152876
 20
104.0
 30
0.0
 11
25.689704396421565
 21
104.0
 31
0.0
  0
LINE
  5
1B5
330
17
100
AcDbEntity
  8
隐藏线
100
AcDbLine
 10
25.689704396421565
 20
104.0
 30
0.0
 11
25.918495946438707
 21
104.0
 31
0.0
  0
LINE
  5
1B6
330
17
100
AcDbEntity
  8
隐藏线
100
AcDbLine
 10
25.918495946438707
 20
104.0
 30
0.0
 11
25.999999999999993
 21
104.0
 31
0.0
  0
LINE
  5
1B7
330
17
100
AcDbEntity
  8
隐藏线
100
AcDbLine
 10
25.999999999999993
 20
104.0
 30
0.0
 11
25.999999999999993
 21
112.5
 31
0.0
  0
LINE
  5
1B8
330
17
100
AcDbEntity
  8
隐藏线
100
AcDbLine
 10
25.999999999999993
 20
112.5
 30
0.0
 11
25.999999999999993
 21
121.0
 31
0.0
  0
LINE
  5
1B9
330
17
100
AcDbEntity
  8
隐藏线
100
AcDbLine
 10
2.0
 20
121.0
 30
0.0
 11
2.0
 21
111.0
 31
0.0
  0
LINE
  5
1BA
330
17
100
AcDbEntity
  8
隐藏线
100
AcDbLine
 10
15.999999999999993
 20
121.0
 30
0.0
 11
3.999999999999993
 21
121.0
 31
0.0
  0
LINE
  5
1BB
330
17
100
AcDbEntity
  8
隐藏线
100
AcDbLine
 10
27.999999999999993
 20
104.0
 30
0.0
 11
22.0
 21
104.0
 31
0.0
  0
LINE
  5
1BC
330
17
100
AcDbEntity
  8
隐藏线
100
AcDbLine
 10
22.0
 20
104.0
 30
0.0
 11
15.999999999999993
 21
104.0
 31
0.0
  0
LINE
  5
1BD
330
17
100
AcDbEntity
  8
隐藏线
100
AcDbLine
 10
40.0
 20
121.0
 30
0.0
 11
27.999999999999993
 21
121.0
 31
0.0
  0
LINE
  5
1BE
330
17
100
AcDbEntity
  8
隐藏线
100
AcDbLine
 10
17.999999999999993
 20
121.0
 30
0.0
 11
17.989781722348766
 21
121.0
 31
0.0
  0
LINE
  5
1BF
330
17
100
AcDbEntity
  8
隐藏线
100
AcDbLine
 10
17.960798930700054
 20
121.0
 30
0.0
 11
17.91331764807183
 21
121.0
 31
0.0
  0
LINE
  5
1C0
330
17
100
AcDbEntity
  8
隐藏线
100
AcDbLine
 10
17.91331764807183
 20
121.0
 30
0.0
 11
17.84775906502257
 21
121.0
 31
0.0
  0
LINE
  5
1C1
330
17
100
AcDbEntity
  8
隐藏线
100
AcDbLine
 10
17.84775906502257
 20
121.0
 30
0.0
 11
17.763319566814335
 21
121.0
 31
0.0
  0
LINE
  5
1C2
330
17
100
AcDbEntity
  8
隐藏线
100
AcDbLine
 10
17.763319566814335
 20
121.0
 30
0.0
 11
17.66228506818754
 21
121.0
 31
0.0
  0
LINE
  5
1C3
330
17
100
AcDbEntity
  8
隐藏线
100
AcDbLine
 10
17.66228506818754
 20
121.0
 30
0.0
 11
17.545568306143622
 21
121.0
 31
0.0
  0
LINE
  5
1C4
330
17
100
AcDbEntity
  8
隐藏线
100
AcDbLine
 10
17.545568306143622
 20
121.0
 30
0.0
 11
17.41421356237309
 21
121.0
 31
0.0
  0
LINE
  5
1C5
330
17
100
AcDbEntity
  8
隐藏线
100
AcDbLine
 10
17.41421356237309
 20
121.0
 30
0.0
 11
17.268407991764096
 21
121.0
 31
0.0
  0
LINE
  5
1C6
330
17
100
AcDbEntity
  8
隐藏线
100
AcDbLine
 10
17.268407991764096
 20
121.0
 30
0.0
 11
17.110703372695134
 21
121.0
 31
0.0
  0
LINE
  5
1C7
330
17
100
AcDbEntity
  8
隐藏线
100
AcDbLine
 10
17.110703372695134
 20
121.0
 30
0.0
 11
16.942520200216634
 21
121.0
 31
0.0
  0
LINE
  5
1C8
330
17
100
AcDbEntity
  8
隐藏线
100
AcDbLine
 10
16.942520200216634
 20
121.0
 30
0.0
 11
16.765366864730172
 21
121.0
 31
0.0
  0
LINE
  5
1C9
330
17
100
AcDbEntity
  8
隐藏线
100
AcDbLine
 10
16.765366864730172
 20
121.0
 30
0.0
 11
16.58039279811485
 21
121.0
 31
0.0
  0
LINE
  5
1CA
330
17
100
AcDbEntity
  8
隐藏线
100
AcDbLine
 10
16.58039279811485
 20
121.0
 30
0.0
 11
16.390027157261045
 21
121.0
 31
0.0
  0
LINE
  5
1CB
330
17
100
AcDbEntity
  8
隐藏线
100
AcDbLine
 10
16.390027157261045
 20
121.0
 30
0.0
 11
16.195981937773553
 21
121.0
 31
0.0
  0
LINE
  5
1CC
330
17
100
AcDbEntity
  8
隐藏线
100
AcDbLine
 10
16.195981937773553
 20
121.0
 30
0.0
 11
15.999999999999993
 21
121.0
 31
0.0
  0
LINE
  5
1CD
330
17
100
AcDbEntity
  8
隐藏线
100
AcDbLine
 10
2.039201069299935
 20
121.0
 30
0.0
 11
2.010218277651223
 21
121.0
 31
0.0
  0
LINE
  5
1CE
330
17
100
AcDbEntity
  8
隐藏线
100
AcDbLine
 10
27.999999999999993
 20
121.0
 30
0.0
 11
27.804018062226433
 21
121.0
 31
0.0
  0
LINE
  5
1CF
330
17
100
AcDbEntity
  8
隐藏线
100
AcDbLine
 10
27.804018062226433
 20
121.0
 30
0.0
 11
27.60997284273894
 21
121.0
 31
0.0
  0
LINE
  5
1D0
330
17
100
AcDbEntity
  8
隐藏线
100
AcDbLine
 10
27.60997284273894
 20
121.0
 30
0.0
 11
27.419607201885135
 21
121.0
 31
0.0
  0
LINE
  5
1D1
330
17
100
AcDbEntity
  8
隐藏线
100
AcDbLine
 10
27.419607201885135
 20
121.0
 30
0.0
 11
27.234633135269814
 21
121.0
 31
0.0
  0
LINE
  5
1D2
330
17
100
AcDbEntity
  8
隐藏线
100
AcDbLine
 10
27.234633135269814
 20
121.0
 30
0.0
 11
27.05747979978335
 21
121.0
 31
0.0
  0
LINE
  5
1D3
330
17
100
AcDbEntity
  8
隐藏线
100
AcDbLine
 10
27.05747979978335
 20
121.0
 30
0.0
 11
26.88929662730485
 21
121.0
 31
0.0
  0
LINE
  5
1D4
330
17
100
AcDbEntity
  8
隐藏线
100
AcDbLine
 10
26.88929662730485
 20
121.0
 30
0.0
 11
26.73159200823589
 21
121.0
 31
0.0
  0
LINE
  5
1D5
330
17
100
AcDbEntity
  8
隐藏线
100
AcDbLine
 10
26.73159200823589
 20
121.0
 30
0.0
 11
26.585786437626897
 21
121.0
 31
0.0
  0
LINE
  5
1D6
330
17
100
AcDbEntity
  8
隐藏线
100
AcDbLine
 10
26.585786437626897
 20
121.0
 30
0.0
 11
26.454431693856364
 21
121.0
 31
0.0
  0
LINE
  5
1D7
330
17
100
AcDbEntity
  8
隐藏线
100
AcDbLine
 10
26.454431693856364
 20
121.0
 30
0.0
 11
26.337714931812446
 21
121.0
 31
0.0
  0
LINE
  5
1D8
330
17
100
AcDbEntity
  8
隐藏线
100
AcDbLine
 10
26.337714931812446
 20
121.0
 30
0.0
 11
26.23668043318565
 21
121.0
 31
0.0
  0
LINE
  5
1D9
330
17
100
AcDbEntity
  8
隐藏线
100
AcDbLine
 10
26.23668043318565
 20
121.0
 30
0.0
 11
26.15224093497742
 21
121.0
 31
0.0
  0
LINE
  5
1DA
330
17
100
AcDbEntity
  8
隐藏线
100
AcDbLine
 10
26.15224093497742
 20
121.0
 30
0.0
 11
26.086682351928157
 21
121.0
 31
0.0
  0
LINE
  5
1DB
330
17
100
AcDbEntity
  8
隐藏线
100
AcDbLine
 10
26.086682351928157
 20
121.0
 30
0.0
 11
26.03920106929993
 21
121.0
 31
0.0
  0
LINE
  5
1DC
330
17
100
AcDbEntity
  8
隐藏线
100
AcDbLine
 10
26.03920106929993
 20
121.0
 30
0.0
 11
26.01021827765122
 21
121.0
 31
0.0
  0
LINE
  5
1DD
330
17
100
AcDbEntity
  8
隐藏线
100
AcDbLine
 10
4.9999999999999964
 20
101.0
 30
0.0
 11
4.6784449978364435
 21
101.0
 31
0.0
  0
LINE
  5
1DE
330
17
100
AcDbEntity
  8
隐藏线
100
AcDbLine
 10
4.6784449978364435
 20
101.0
 30
0.0
 11
4.369565689114999
 21
101.0
 31
0.0
  0
LINE
  5
1DF
330
17
100
AcDbEntity
  8
隐藏线
100
AcDbLine
 10
4.369565689114999
 20
101.0
 30
0.0
 11
4.084420762045539
 21
101.0
 31
0.0
  0
LINE
  5
1E0
330
17
100
AcDbEntity
  8
隐藏线
100
AcDbLine
 10
4.084420762045539
 20
101.0
 30
0.0
 11
3.8332738110421936
 21
101.0
 31
0.0
  0
LINE
  5
1E1
330
17
100
AcDbEntity
  8
隐藏线
100
AcDbLine
 10
3.8332738110421936
 20
101.0
 30
0.0
 11
3.629673316936934
 21
101.0
 31
0.0
  0
LINE
  5
1E2
330
17
100
AcDbEntity
  8
隐藏线
100
AcDbLine
 10
3.629673316936934
 20
101.0
 30
0.0
 11
3.477996936476096
 21
101.0
 31
0.0
  0
LINE
  5
1E3
330
17
100
AcDbEntity
  8
隐藏线
100
AcDbLine
 10
3.477996936476096
 20
101.0
 30
0.0
 11
3.383620422094026
 21
101.0
 31
0.0
  0
LINE
  5
1E4
330
17
100
AcDbEntity
  8
隐藏线
100
AcDbLine
 10
3.383620422094026
 20
101.0
 30
0.0
 11
3.349999999999998
 21
101.0
 31
0.0
  0
LINE
  5
1E5
330
17
100
AcDbEntity
  8
隐藏线
100
AcDbLine
 10
3.999999999999993
 20
101.0
 30
0.0
 11
4.1101908885061675
 21
101.0
 31
0.0
  0
LINE
  5
1E6
330
17
100
AcDbEntity
  8
隐藏线
100
AcDbLine
 10
4.1101908885061675
 20
101.0
 30
0.0
 11
4.2261177429444245
 21
101.0
 31
0.0
  0
LINE
  5
1E7
330
17
100
AcDbEntity
  8
隐藏线
100
AcDbLine
 10
4.2261177429444245
 20
101.0
 30
0.0
 11
4.347063384102661
 21
101.0
 31
0.0
  0
LINE
  5
1E8
330
17
100
AcDbEntity
  8
隐藏线
100
AcDbLine
 10
4.347063384102661
 20
101.0
 30
0.0
 11
4.472281696113871
 21
101.0
 31
0.0
  0
LINE
  5
1E9
330
17
100
AcDbEntity
  8
隐藏线
100
AcDbLine
 10
4.472281696113871
 20
101.0
 30
0.0
 11
4.601207053361911
 21
101.0
 31
0.0
  0
LINE
  5
1EA
330
17
100
AcDbEntity
  8
隐藏线
100
AcDbLine
 10
4.601207053361911
 20
101.0
 30
0.0
 11
4.732678576238765
 21
101.0
 31
0.0
  0
LINE
  5
1EB
330
17
100
AcDbEntity
  8
隐藏线
100
AcDbLine
 10
4.732678576238765
 20
101.0
 30
0.0
 11
4.865883733915108
 21
101.0
 31
0.0
  0
LINE
  5
1EC
330
17
100
AcDbEntity
  8
隐藏线
100
AcDbLine
 10
4.865883733915108
 20
101.0
 30
0.0
 11
4.9999999999999964
 21
101.0
 31
0.0
  0
LINE
  5
1ED
330
17
100
AcDbEntity
  8
隐藏线
100
AcDbLine
 10
39.0
 20
101.0
 30
0.0
 11
38.67844499783644
 21
101.0
 31
0.0
  0
LINE
  5
1EE
330
17
100
AcDbEntity
  8
隐藏线
100
AcDbLine
 10
38.67844499783644
 20
101.0
 30
0.0
 11
38.369565689115
 21
101.0
 31
0.0
  0
LINE
  5
1EF
330
17
100
AcDbEntity
  8
隐藏线
100
AcDbLine
 10
38.369565689115
 20
101.0
 30
0.0
 11
38.08442076204554
 21
101.0
 31
0.0
  0
LINE
  5
1F0
330
17
100
AcDbEntity
  8
隐藏线
100
AcDbLine
 10
38.08442076204554
 20
101.0
 30
0.0
 11
37.83327381104219
 21
101.0
 31
0.0
  0
LINE
  5
1F1
330
17
100
AcDbEntity
  8
隐藏线
100
AcDbLine
 10
37.83327381104219
 20
101.0
 30
0.0
 11
37.62967331693693
 21
101.0
 31
0.0
  0
LINE
  5
1F2
330
17
100
AcDbEntity
  8
隐藏线
100
AcDbLine
 10
37.62967331693693
 20
101.0
 30
0.0
 11
37.4779969364761
 21
101.0
 31
0.0
  0
LINE
  5
1F3
330
17
100
AcDbEntity
  8
隐藏线
100
AcDbLine
 10
37.4779969364761
 20
101.0
 30
0.0
 11
37.383620422094026
 21
101.0
 31
0.0
  0
LINE
  5
1F4
330
17
100
AcDbEntity
  8
隐藏线
100
AcDbLine
 10
37.383620422094026
 20
101.0
 30
0.0
 11
37.349999999999994
 21
101.0
 31
0.0
  0
LINE
  5
1F5
330
17
100
AcDbEntity
  8
隐藏线
100
AcDbLine
 10
21.999999999999993
 20
101.0
 30
0.0
 11
21.67844499783644
 21
101.0
 31
0.0
  0
LINE
  5
1F6
330
17
100
AcDbEntity
  8
隐藏线
100
AcDbLine
 10
21.67844499783644
 20
101.0
 30
0.0
 11
21.369565689114996
 21
101.0
 31
0.0
  0
LINE
  5
1F7
330
17
100
AcDbEntity
  8
隐藏线
100
AcDbLine
 10
21.369565689114996
 20
101.0
 30
0.0
 11
21.08442076204554
 21
101.0
 31
0.0
  0
LINE
  5
1F8
330
17
100
AcDbEntity
  8
隐藏线
100
AcDbLine
 10
21.08442076204554
 20
101.0
 30
0.0
 11
20.83327381104219
 21
101.0
 31
0.0
  0
LINE
  5
1F9
330
17
100
AcDbEntity
  8
隐藏线
100
AcDbLine
 10
20.83327381104219
 20
101.0
 30
0.0
 11
20.62967331693693
 21
101.0
 31
0.0
  0
LINE
  5
1FA
330
17
100
AcDbEntity
  8
隐藏线
100
AcDbLine
 10
20.62967331693693
 20
101.0
 30
0.0
 11
20.477996936476096
 21
101.0
 31
0.0
  0
LINE
  5
1FB
330
17
100
AcDbEntity
  8
隐藏线
100
AcDbLine
 10
20.477996936476096
 20
101.0
 30
0.0
 11
20.383620422094026
 21
101.0
 31
0.0
  0
LINE
  5
1FC
330
17
100
AcDbEntity
  8
隐藏线
100
AcDbLine
 10
20.383620422094026
 20
101.0
 30
0.0
 11
20.349999999999994
 21
101.0
 31
0.0
  0
LINE
  5
1FD
330
17
100
AcDbEntity
  8
隐藏线
100
AcDbLine
 10
3.5892016975779164
 20
101.0
 30
0.0
 11
3.670497392935612
 21
101.0
 31
0.0
  0
LINE
  5
1FE
330
17
100
AcDbEntity
  8
隐藏线
100
AcDbLine
 10
3.670497392935612
 20
101.0
 30
0.0
 11
3.7523916330746445
 21
101.0
 31
0.0
  0
LINE
  5
1FF
330
17
100
AcDbEntity
  8
隐藏线
100
AcDbLine
 10
3.7523916330746445
 20
101.0
 30
0.0
 11
3.8346945218586406
 21
101.0
 31
0.0
  0
LINE
  5
200
330
17
100
AcDbEntity
  8
隐藏线
100
AcDbLine
 10
3.8346945218586406
 20
101.0
 30
0.0
 11
3.9172746012417754
 21
101.0
 31
0.0
  0
LINE
  5
201
330
17
100
AcDbEntity
  8
隐藏线
100
AcDbLine
 10
3.9172746012417754
 20
101.0
 30
0.0
 11
3.9999999999999964
 21
101.0
 31
0.0
  0
LINE
  5
202
330
17
100
AcDbEntity
  8
隐藏线
100
AcDbLine
 10
41.960798930700065
 20
101.0
 30
0.0
 11
41.98978172234878
 21
101.0
 31
0.0
  0
LINE
  5
203
330
17
100
AcDbEntity
  8
隐藏线
100
AcDbLine
 10
21.999999999999993
 20
104.0
 30
0.0
 11
21.67844499783644
 21
104.0
 31
0.0
  0
LINE
  5
204
330
17
100
AcDbEntity
  8
隐藏线
100
AcDbLine
 10
21.67844499783644
 20
104.0
 30
0.0
 11
21.369565689114996
 21
104.0
 31
0.0
  0
LINE
  5
205
330
17
100
AcDbEntity
  8
隐藏线
100
AcDbLine
 10
21.369565689114996
 20
104.0
 30
0.0
 11
21.08442076204554
 21
104.0
 31
0.0
  0
LINE
  5
206
330
17
100
AcDbEntity
  8
隐藏线
100
AcDbLine
 10
21.08442076204554
 20
104.0
 30
0.0
 11
20.83327381104219
 21
104.0
 31
0.0
  0
LINE
  5
207
330
17
100
AcDbEntity
  8
隐藏线
100
AcDbLine
 10
20.83327381104219
 20
104.0
 30
0.0
 11
20.62967331693693
 21
104.0
 31
0.0
  0
LINE
  5
208
330
17
100
AcDbEntity
  8
隐藏线
100
AcDbLine
 10
20.62967331693693
 20
104.0
 30
0.0
 11
20.477996936476096
 21
104.0
 31
0.0
  0
LINE
  5
209
330
17
100
AcDbEntity
  8
隐藏线
100
AcDbLine
 10
20.477996936476096
 20
104.0
 30
0.0
 11
20.383620422094026
 21
104.0
 31
0.0
  0
LINE
  5
20A
330
17
100
AcDbEntity
  8
隐藏线
100
AcDbLine
 10
20.383620422094026
 20
104.0
 30
0.0
 11
20.349999999999994
 21
104.0
 31
0.0
  0
LINE
  5
20B
330
17
100
AcDbEntity
  8
隐藏线
100
AcDbLine
 10
20.355795350090876
 20
104.0
 30
0.0
 11
20.372250819522026
 21
104.0
 31
0.0
  0
LINE
  5
20C
330
17
100
AcDbEntity
  8
隐藏线
100
AcDbLine
 10
20.485051195838
 20
104.0
 30
0.0
 11
20.54324525387318
 21
104.0
 31
0.0
  0
LINE
  5
20D
330
17
100
AcDbEntity
  8
隐藏线
100
AcDbLine
 10
20.610886668153423
 20
104.0
 30
0.0
 11
20.68755952515933
 21
104.0
 31
0.0
  0
LINE
  5
20E
330
17
100
AcDbEntity
  8
隐藏线
100
AcDbLine
 10
20.68755952515933
 20
104.0
 30
0.0
 11
20.811418009402573
 21
104.0
 31
0.0
  0
LINE
  5
20F
330
17
100
AcDbEntity
  8
隐藏线
100
AcDbLine
 10
20.811418009402573
 20
104.0
 30
0.0
 11
20.95056851790741
 21
104.0
 31
0.0
  0
LINE
  5
210
330
17
100
AcDbEntity
  8
隐藏线
100
AcDbLine
 10
20.95056851790741
 20
104.0
 30
0.0
 11
21.10329093587499
 21
104.0
 31
0.0
  0
LINE
  5
211
330
17
100
AcDbEntity
  8
隐藏线
100
AcDbLine
 10
21.10329093587499
 20
104.0
 30
0.0
 11
21.267709074206156
 21
104.0
 31
0.0
  0
LINE
  5
212
330
17
100
AcDbEntity
  8
隐藏线
100
AcDbLine
 10
21.267709074206156
 20
104.0
 30
0.0
 11
21.44238402518188
 21
104.0
 31
0.0
  0
LINE
  5
213
330
17
100
AcDbEntity
  8
隐藏线
100
AcDbLine
 10
21.44238402518188
 20
104.0
 30
0.0
 11
21.62416131950616
 21
104.0
 31
0.0
  0
LINE
  5
214
330
17
100
AcDbEntity
  8
隐藏线
100
AcDbLine
 10
21.62416131950616
 20
104.0
 30
0.0
 11
21.810799196566236
 21
104.0
 31
0.0
  0
LINE
  5
215
330
17
100
AcDbEntity
  8
隐藏线
100
AcDbLine
 10
21.810799196566236
 20
104.0
 30
0.0
 11
21.999999999999993
 21
104.0
 31
0.0
  0
LINE
  5
216
330
17
100
AcDbEntity
  8
隐藏线
100
AcDbLine
 10
25.999999999999993
 20
104.0
 30
0.0
 11
26.01021827765122
 21
104.0
 31
0.0
  0
LINE
  5
217
330
17
100
AcDbEntity
  8
隐藏线
100
AcDbLine
 10
26.03920106929993
 20
104.0
 30
0.0
 11
26.086682351928157
 21
104.0
 31
0.0
  0
LINE
  5
218
330
17
100
AcDbEntity
  8
隐藏线
100
AcDbLine
 10
26.086682351928157
 20
104.0
 30
0.0
 11
26.152240934977417
 21
104.0
 31
0.0
  0
LINE
  5
219
330
17
100
AcDbEntity
  8
隐藏线
100
AcDbLine
 10
26.152240934977417
 20
104.0
 30
0.0
 11
26.23668043318565
 21
104.0
 31
0.0
  0
LINE
  5
21A
330
17
100
AcDbEntity
  8
隐藏线
100
AcDbLine
 10
26.23668043318565
 20
104.0
 30
0.0
 11
26.337714931812446
 21
104.0
 31
0.0
  0
LINE
  5
21B
330
17
100
AcDbEntity
  8
隐藏线
100
AcDbLine
 10
26.337714931812446
 20
104.0
 30
0.0
 11
26.454431693856364
 21
104.0
 31
0.0
  0
LINE
  5
21C
330
17
100
AcDbEntity
  8
隐藏线
100
AcDbLine
 10
26.454431693856364
 20
104.0
 30
0.0
 11
26.585786437626897
 21
104.0
 31
0.0
  0
LINE
  5
21D
330
17
100
AcDbEntity
  8
隐藏线
100
AcDbLine
 10
26.585786437626897
 20
104.0
 30
0.0
 11
26.73159200823589
 21
104.0
 31
0.0
  0
LINE
  5
21E
330
17
100
AcDbEntity
  8
隐藏线
100
AcDbLine
 10
26.73159200823589
 20
104.0
 30
0.0
 11
26.88929662730485
 21
104.0
 31
0.0
  0
LINE
  5
21F
330
17
100
AcDbEntity
  8
隐藏线
100
AcDbLine
 10
26.88929662730485
 20
104.0
 30
0.0
 11
27.05747979978335
 21
104.0
 31
0.0
  0
LINE
  5
220
330
17
100
AcDbEntity
  8
隐藏线
100
AcDbLine
 10
27.05747979978335
 20
104.0
 30
0.0
 11
27.23463313526981
 21
104.0
 31
0.0
  0
LINE
  5
221
330
17
100
AcDbEntity
  8
隐藏线
100
AcDbLine
 10
27.23463313526981
 20
104.0
 30
0.0
 11
27.419607201885135
 21
104.0
 31
0.0
  0
LINE
  5
222
330
17
100
AcDbEntity
  8
隐藏线
100
AcDbLine
 10
27.419607201885135
 20
104.0
 30
0.0
 11
27.60997284273894
 21
104.0
 31
0.0
  0
LINE
  5
223
330
17
100
AcDbEntity
  8
隐藏线
100
AcDbLine
 10
27.60997284273894
 20
104.0
 30
0.0
 11
27.804018062226433
 21
104.0
 31
0.0
  0
LINE
  5
224
330
17
100
AcDbEntity
  8
隐藏线
100
AcDbLine
 10
27.804018062226433
 20
104.0
 30
0.0
 11
27.999999999999993
 21
104.0
 31
0.0
  0
LINE
  5
225
330
17
100
AcDbEntity
  8
隐藏线
100
AcDbLine
 10
15.999999999999993
 20
104.0
 30
0.0
 11
16.195981937773553
 21
104.0
 31
0.0
  0
LINE
  5
226
330
17
100
AcDbEntity
  8
隐藏线
100
AcDbLine
 10
16.195981937773553
 20
104.0
 30
0.0
 11
16.390027157261045
 21
104.0
 31
0.0
  0
LINE
  5
227
330
17
100
AcDbEntity
  8
隐藏线
100
AcDbLine
 10
16.390027157261045
 20
104.0
 30
0.0
 11
16.58039279811485
 21
104.0
 31
0.0
  0
LINE
  5
228
330
17
100
AcDbEntity
  8
隐藏线
100
AcDbLine
 10
16.58039279811485
 20
104.0
 30
0.0
 11
16.765366864730172
 21
104.0
 31
0.0
  0
LINE
  5
229
330
17
100
AcDbEntity
  8
隐藏线
100
AcDbLine
 10
16.765366864730172
 20
104.0
 30
0.0
 11
16.942520200216634
 21
104.0
 31
0.0
  0
LINE
  5
22A
330
17
100
AcDbEntity
  8
隐藏线
100
AcDbLine
 10
16.942520200216634
 20
104.0
 30
0.0
 11
17.110703372695138
 21
104.0
 31
0.0
  0
LINE
  5
22B
330
17
100
AcDbEntity
  8
隐藏线
100
AcDbLine
 10
17.110703372695138
 20
104.0
 30
0.0
 11
17.268407991764096
 21
104.0
 31
0.0
  0
LINE
  5
22C
330
17
100
AcDbEntity
  8
隐藏线
100
AcDbLine
 10
17.268407991764096
 20
104.0
 30
0.0
 11
17.41421356237309
 21
104.0
 31
0.0
  0
LINE
  5
22D
330
17
100
AcDbEntity
  8
隐藏线
100
AcDbLine
 10
17.41421356237309
 20
104.0
 30
0.0
 11
17.545568306143622
 21
104.0
 31
0.0
  0
LINE
  5
22E
330
17
100
AcDbEntity
  8
隐藏线
100
AcDbLine
 10
17.545568306143622
 20
104.0
 30
0.0
 11
17.66228506818754
 21
104.0
 31
0.0
  0
LINE
  5
22F
330
17
100
AcDbEntity
  8
隐藏线
100
AcDbLine
 10
17.66228506818754
 20
104.0
 30
0.0
 11
17.763319566814335
 21
104.0
 31
0.0
  0
LINE
  5
230
330
17
100
AcDbEntity
  8
隐藏线
100
AcDbLine
 10
17.763319566814335
 20
104.0
 30
0.0
 11
17.84775906502257
 21
104.0
 31
0.0
  0
LINE
  5
231
330
17
100
AcDbEntity
  8
隐藏线
100
AcDbLine
 10
17.84775906502257
 20
104.0
 30
0.0
 11
17.91331764807183
 21
104.0
 31
0.0
  0
LINE
  5
232
330
17
100
AcDbEntity
  8
隐藏线
100
AcDbLine
 10
17.91331764807183
 20
104.0
 30
0.0
 11
17.960798930700054
 21
104.0
 31
0.0
  0
LINE
  5
233
330
17
100
AcDbEntity
  8
隐藏线
100
AcDbLine
 10
17.960798930700054
 20
104.0
 30
0.0
 11
17.989781722348766
 21
104.0
 31
0.0
  0
LINE
  5
234
330
17
100
AcDbEntity
  8
隐藏线
100
AcDbLine
 10
9.999999999999996
 20
104.0
 30
0.0
 11
6.9999999999999964
 21
104.0
 31
0.0
  0
LINE
  5
235
330
17
100
AcDbEntity
  8
隐藏线
100
AcDbLine
 10
4.9999999999999964
 20
104.0
 30
0.0
 11
4.6784449978364435
 21
104.0
 31
0.0
  0
LINE
  5
236
330
17
100
AcDbEntity
  8
隐藏线
100
AcDbLine
 10
4.6784449978364435
 20
104.0
 30
0.0
 11
4.369565689114999
 21
104.0
 31
0.0
  0
LINE
  5
237
330
17
100
AcDbEntity
  8
隐藏线
100
AcDbLine
 10
4.369565689114999
 20
104.0
 30
0.0
 11
4.084420762045539
 21
104.0
 31
0.0
  0
LINE
  5
238
330
17
100
AcDbEntity
  8
隐藏线
100
AcDbLine
 10
4.084420762045539
 20
104.0
 30
0.0
 11
3.8332738110421936
 21
104.0
 31
0.0
  0
LINE
  5
239
330
17
100
AcDbEntity
  8
隐藏线
100
AcDbLine
 10
3.8332738110421936
 20
104.0
 30
0.0
 11
3.629673316936934
 21
104.0
 31
0.0
  0
LINE
  5
23A
330
17
100
AcDbEntity
  8
隐藏线
100
AcDbLine
 10
3.629673316936934
 20
104.0
 30
0.0
 11
3.477996936476096
 21
104.0
 31
0.0
  0
LINE
  5
23B
330
17
100
AcDbEntity
  8
隐藏线
100
AcDbLine
 10
3.477996936476096
 20
104.0
 30
0.0
 11
3.383620422094026
 21
104.0
 31
0.0
  0
LINE
  5
23C
330
17
100
AcDbEntity
  8
隐藏线
100
AcDbLine
 10
3.383620422094026
 20
104.0
 30
0.0
 11
3.349999999999998
 21
104.0
 31
0.0
  0
LINE
  5
23D
330
17
100
AcDbEntity
  8
隐藏线
100
AcDbLine
 10
3.999999999999993
 20
104.0
 30
0.0
 11
4.1101908885061675
 21
104.0
 31
0.0
  0
LINE
  5
23E
330
17
100
AcDbEntity
  8
隐藏线
100
AcDbLine
 10
4.1101908885061675
 20
104.0
 30
0.0
 11
4.2261177429444245
 21
104.0
 31
0.0
  0
LINE
  5
23F
330
17
100
AcDbEntity
  8
隐藏线
100
AcDbLine
 10
4.2261177429444245
 20
104.0
 30
0.0
 11
4.347063384102661
 21
104.0
 31
0.0
  0
LINE
  5
240
330
17
100
AcDbEntity
  8
隐藏线
100
AcDbLine
 10
4.347063384102661
 20
104.0
 30
0.0
 11
4.472281696113871
 21
104.0
 31
0.0
  0
LINE
  5
241
330
17
100
AcDbEntity
  8
隐藏线
100
AcDbLine
 10
4.472281696113871
 20
104.0
 30
0.0
 11
4.601207053361911
 21
104.0
 31
0.0
  0
LINE
  5
242
330
17
100
AcDbEntity
  8
隐藏线
100
AcDbLine
 10
4.601207053361911
 20
104.0
 30
0.0
 11
4.732678576238765
 21
104.0
 31
0.0
  0
LINE
  5
243
330
17
100
AcDbEntity
  8
隐藏线
100
AcDbLine
 10
4.732678576238765
 20
104.0
 30
0.0
 11
4.865883733915108
 21
104.0
 31
0.0
  0
LINE
  5
244
330
17
100
AcDbEntity
  8
隐藏线
100
AcDbLine
 10
4.865883733915108
 20
104.0
 30
0.0
 11
4.9999999999999964
 21
104.0
 31
0.0
  0
LINE
  5
245
330
17
100
AcDbEntity
  8
隐藏线
100
AcDbLine
 10
11.999999999999995
 20
104.0
 30
0.0
 11
11.804018062226438
 21
104.0
 31
0.0
  0
LINE
  5
246
330
17
100
AcDbEntity
  8
隐藏线
100
AcDbLine
 10
11.804018062226438
 20
104.0
 30
0.0
 11
11.609972842738943
 21
104.0
 31
0.0
  0
LINE
  5
247
330
17
100
AcDbEntity
  8
隐藏线
100
AcDbLine
 10
11.609972842738943
 20
104.0
 30
0.0
 11
11.419607201885137
 21
104.0
 31
0.0
  0
LINE
  5
248
330
17
100
AcDbEntity
  8
隐藏线
100
AcDbLine
 10
11.419607201885137
 20
104.0
 30
0.0
 11
11.234633135269815
 21
104.0
 31
0.0
  0
LINE
  5
249
330
17
100
AcDbEntity
  8
隐藏线
100
AcDbLine
 10
11.234633135269815
 20
104.0
 30
0.0
 11
11.057479799783355
 21
104.0
 31
0.0
  0
LINE
  5
24A
330
17
100
AcDbEntity
  8
隐藏线
100
AcDbLine
 10
11.057479799783355
 20
104.0
 30
0.0
 11
10.889296627304851
 21
104.0
 31
0.0
  0
LINE
  5
24B
330
17
100
AcDbEntity
  8
隐藏线
100
AcDbLine
 10
10.889296627304851
 20
104.0
 30
0.0
 11
10.731592008235891
 21
104.0
 31
0.0
  0
LINE
  5
24C
330
17
100
AcDbEntity
  8
隐藏线
100
AcDbLine
 10
10.731592008235891
 20
104.0
 30
0.0
 11
10.585786437626899
 21
104.0
 31
0.0
  0
LINE
  5
24D
330
17
100
AcDbEntity
  8
隐藏线
100
AcDbLine
 10
10.585786437626899
 20
104.0
 30
0.0
 11
10.454431693856366
 21
104.0
 31
0.0
  0
LINE
  5
24E
330
17
100
AcDbEntity
  8
隐藏线
100
AcDbLine
 10
10.454431693856366
 20
104.0
 30
0.0
 11
10.337714931812448
 21
104.0
 31
0.0
  0
LINE
  5
24F
330
17
100
AcDbEntity
  8
隐藏线
100
AcDbLine
 10
10.337714931812448
 20
104.0
 30
0.0
 11
10.236680433185652
 21
104.0
 31
0.0
  0
LINE
  5
250
330
17
100
AcDbEntity
  8
隐藏线
100
AcDbLine
 10
10.236680433185652
 20
104.0
 30
0.0
 11
10.152240934977419
 21
104.0
 31
0.0
  0
LINE
  5
251
330
17
100
AcDbEntity
  8
隐藏线
100
AcDbLine
 10
10.152240934977419
 20
104.0
 30
0.0
 11
10.08668235192816
 21
104.0
 31
0.0
  0
LINE
  5
252
330
17
100
AcDbEntity
  8
隐藏线
100
AcDbLine
 10
10.08668235192816
 20
104.0
 30
0.0
 11
10.039201069299933
 21
104.0
 31
0.0
  0
LINE
  5
253
330
17
100
AcDbEntity
  8
隐藏线
100
AcDbLine
 10
10.039201069299933
 20
104.0
 30
0.0
 11
10.010218277651221
 21
104.0
 31
0.0
  0
LINE
  5
254
330
17
100
AcDbEntity
  8
隐藏线
100
AcDbLine
 10
3.9999999999999964
 20
104.0
 30
0.0
 11
3.917274601241779
 21
104.0
 31
0.0
  0
LINE
  5
255
330
17
100
AcDbEntity
  8
隐藏线
100
AcDbLine
 10
3.917274601241779
 20
104.0
 30
0.0
 11
3.8346945218586406
 21
104.0
 31
0.0
  0
LINE
  5
256
330
17
100
AcDbEntity
  8
隐藏线
100
AcDbLine
 10
3.8346945218586406
 20
104.0
 30
0.0
 11
3.752391633074648
 21
104.0
 31
0.0
  0
LINE
  5
257
330
17
100
AcDbEntity
  8
隐藏线
100
AcDbLine
 10
3.752391633074648
 20
104.0
 30
0.0
 11
3.670497392935612
 21
104.0
 31
0.0
  0
LINE
  5
258
330
17
100
AcDbEntity
  8
隐藏线
100
AcDbLine
 10
3.670497392935612
 20
104.0
 30
0.0
 11
3.5892016975779164
 21
104.0
 31
0.0
  0
LINE
  5
259
330
17
100
AcDbEntity
  8
隐藏线
100
AcDbLine
 10
37.0
 20
104.0
 30
0.0
 11
34.0
 21
104.0
 31
0.0
  0
LINE
  5
25A
330
17
100
AcDbEntity
  8
隐藏线
100
AcDbLine
 10
39.0
 20
104.0
 30
0.0
 11
38.67844499783644
 21
104.0
 31
0.0
  0
LINE
  5
25B
330
17
100
AcDbEntity
  8
隐藏线
100
AcDbLine
 10
38.67844499783644
 20
104.0
 30
0.0
 11
38.369565689115
 21
104.0
 31
0.0
  0
LINE
  5
25C
330
17
100
AcDbEntity
  8
隐藏线
100
AcDbLine
 10
38.369565689115
 20
104.0
 30
0.0
 11
38.08442076204554
 21
104.0
 31
0.0
  0
LINE
  5
25D
330
17
100
AcDbEntity
  8
隐藏线
100
AcDbLine
 10
38.08442076204554
 20
104.0
 30
0.0
 11
37.83327381104219
 21
104.0
 31
0.0
  0
LINE
  5
25E
330
17
100
AcDbEntity
  8
隐藏线
100
AcDbLine
 10
37.83327381104219
 20
104.0
 30
0.0
 11
37.62967331693693
 21
104.0
 31
0.0
  0
LINE
  5
25F
330
17
100
AcDbEntity
  8
隐藏线
100
AcDbLine
 10
37.62967331693693
 20
104.0
 30
0.0
 11
37.4779969364761
 21
104.0
 31
0.0
  0
LINE
  5
260
330
17
100
AcDbEntity
  8
隐藏线
100
AcDbLine
 10
37.4779969364761
 20
104.0
 30
0.0
 11
37.383620422094026
 21
104.0
 31
0.0
  0
LINE
  5
261
330
17
100
AcDbEntity
  8
隐藏线
100
AcDbLine
 10
37.383620422094026
 20
104.0
 30
0.0
 11
37.349999999999994
 21
104.0
 31
0.0
  0
LINE
  5
262
330
17
100
AcDbEntity
  8
隐藏线
100
AcDbLine
 10
42.0
 20
104.0
 30
0.0
 11
41.98978172234878
 21
104.0
 31
0.0
  0
LINE
  5
263
330
17
100
AcDbEntity
  8
隐藏线
100
AcDbLine
 10
34.0
 20
104.0
 30
0.0
 11
33.98978172234877
 21
104.0
 31
0.0
  0
LINE
  5
264
330
17
100
AcDbEntity
  8
隐藏线
100
AcDbLine
 10
33.960798930700065
 20
104.0
 30
0.0
 11
33.91331764807184
 21
104.0
 31
0.0
  0
LINE
  5
265
330
17
100
AcDbEntity
  8
隐藏线
100
AcDbLine
 10
33.91331764807184
 20
104.0
 30
0.0
 11
33.84775906502258
 21
104.0
 31
0.0
  0
LINE
  5
266
330
17
100
AcDbEntity
  8
隐藏线
100
AcDbLine
 10
33.84775906502258
 20
104.0
 30
0.0
 11
33.763319566814346
 21
104.0
 31
0.0
  0
LINE
  5
267
330
17
100
AcDbEntity
  8
隐藏线
100
AcDbLine
 10
33.763319566814346
 20
104.0
 30
0.0
 11
33.66228506818754
 21
104.0
 31
0.0
  0
LINE
  5
268
330
17
100
AcDbEntity
  8
隐藏线
100
AcDbLine
 10
33.66228506818754
 20
104.0
 30
0.0
 11
33.54556830614363
 21
104.0
 31
0.0
  0
LINE
  5
269
330
17
100
AcDbEntity
  8
隐藏线
100
AcDbLine
 10
33.54556830614363
 20
104.0
 30
0.0
 11
33.4142135623731
 21
104.0
 31
0.0
  0
LINE
  5
26A
330
17
100
AcDbEntity
  8
隐藏线
100
AcDbLine
 10
33.4142135623731
 20
104.0
 30
0.0
 11
33.26840799176411
 21
104.0
 31
0.0
  0
LINE
  5
26B
330
17
100
AcDbEntity
  8
隐藏线
100
AcDbLine
 10
33.26840799176411
 20
104.0
 30
0.0
 11
33.11070337269514
 21
104.0
 31
0.0
  0
LINE
  5
26C
330
17
100
AcDbEntity
  8
隐藏线
100
AcDbLine
 10
33.11070337269514
 20
104.0
 30
0.0
 11
32.94252020021664
 21
104.0
 31
0.0
  0
LINE
  5
26D
330
17
100
AcDbEntity
  8
隐藏线
100
AcDbLine
 10
32.94252020021664
 20
104.0
 30
0.0
 11
32.76536686473018
 21
104.0
 31
0.0
  0
LINE
  5
26E
330
17
100
AcDbEntity
  8
隐藏线
100
AcDbLine
 10
32.76536686473018
 20
104.0
 30
0.0
 11
32.58039279811486
 21
104.0
 31
0.0
  0
LINE
  5
26F
330
17
100
AcDbEntity
  8
隐藏线
100
AcDbLine
 10
32.58039279811486
 20
104.0
 30
0.0
 11
32.39002715726105
 21
104.0
 31
0.0
  0
LINE
  5
270
330
17
100
AcDbEntity
  8
隐藏线
100
AcDbLine
 10
32.39002715726105
 20
104.0
 30
0.0
 11
32.19598193777356
 21
104.0
 31
0.0
  0
LINE
  5
271
330
17
100
AcDbEntity
  8
隐藏线
100
AcDbLine
 10
32.19598193777356
 20
104.0
 30
0.0
 11
32.0
 21
104.0
 31
0.0
  0
LINE
  5
272
330
17
100
AcDbEntity
  8
隐藏线
100
AcDbLine
 10
23.64999999999999
 20
101.0
 30
0.0
 11
23.64999999999999
 21
102.5
 31
0.0
  0
LINE
  5
273
330
17
100
AcDbEntity
  8
隐藏线
100
AcDbLine
 10
23.64999999999999
 20
102.5
 30
0.0
 11
23.64999999999999
 21
104.0
 31
0.0
  0
LINE
  5
274
330
17
100
AcDbEntity
  8
隐藏线
100
AcDbLine
 10
6.649999999999995
 20
101.0
 30
0.0
 11
6.649999999999995
 21
102.5
 31
0.0
  0
LINE
  5
275
330
17
100
AcDbEntity
  8
隐藏线
100
AcDbLine
 10
6.649999999999995
 20
102.5
 30
0.0
 11
6.649999999999995
 21
104.0
 31
0.0
  0
LINE
  5
276
330
17
100
AcDbEntity
  8
隐藏线
100
AcDbLine
 10
40.64999999999999
 20
101.0
 30
0.0
 11
40.64999999999999
 21
102.5
 31
0.0
  0
LINE
  5
277
330
17
100
AcDbEntity
  8
隐藏线
100
AcDbLine
 10
40.64999999999999
 20
102.5
 30
0.0
 11
40.64999999999999
 21
104.0
 31
0.0
  0
LINE
  5
278
330
17
100
AcDbEntity
  8
隐藏线
100
AcDbLine
 10
37.349999999999994
 20
101.0
 30
0.0
 11
37.349999999999994
 21
102.5
 31
0.0
  0
LINE
  5
279
330
17
100
AcDbEntity
  8
隐藏线
100
AcDbLine
 10
37.349999999999994
 20
102.5
 30
0.0
 11
37.349999999999994
 21
104.0
 31
0.0
  0
LINE
  5
27A
330
17
100
AcDbEntity
  8
隐藏线
100
AcDbLine
 10
20.349999999999994
 20
101.0
 30
0.0
 11
20.349999999999994
 21
102.5
 31
0.0
  0
LINE
  5
27B
330
17
100
AcDbEntity
  8
隐藏线
100
AcDbLine
 10
20.349999999999994
 20
102.5
 30
0.0
 11
20.349999999999994
 21
104.0
 31
0.0
  0
LINE
  5
27C
330
17
100
AcDbEntity
  8
可见轮廓
100
AcDbLine
 10
96.0
 20
45.650000000000006
 30
0.0
 11
97.5
 21
45.650000000000006
 31
0.0
  0
LINE
  5
27D
330
17
100
AcDbEntity
  8
可见轮廓
100
AcDbLine
 10
97.5
 20
45.650000000000006
 30
0.0
 11
99.0
 21
45.650000000000006
 31
0.0
  0
LINE
  5
27E
330
17
100
AcDbEntity
  8
可见轮廓
100
AcDbLine
 10
99.0
 20
45.0
 30
0.0
 11
99.0
 21
45.143490577311944
 31
0.0
  0
LINE
  5
27F
330
17
100
AcDbEntity
  8
可见轮廓
100
AcDbLine
 10
99.0
 20
45.143490577311944
 30
0.0
 11
99.0
 21
45.272107449376016
 31
0.0
  0
LINE
  5
280
330
17
100
AcDbEntity
  8
可见轮廓
100
AcDbLine
 10
99.0
 20
45.272107449376016
 30
0.0
 11
99.0
 21
45.38427262599887
 31
0.0
  0
LINE
  5
281
330
17
100
AcDbEntity
  8
可见轮廓
100
AcDbLine
 10
99.0
 20
45.38427262599887
 30
0.0
 11
99.0
 21
45.478597308262124
 31
0.0
  0
LINE
  5
282
330
17
100
AcDbEntity
  8
可见轮廓
100
AcDbLine
 10
99.0
 20
45.478597308262124
 30
0.0
 11
99.0
 21
45.5522120581291
 31
0.0
  0
LINE
  5
283
330
17
100
AcDbEntity
  8
可见轮廓
100
AcDbLine
 10
99.0
 20
45.5522120581291
 30
0.0
 11
99.0
 21
45.60571139517961
 31
0.0
  0
LINE
  5
284
330
17
100
AcDbEntity
  8
可见轮廓
100
AcDbLine
 10
99.0
 20
45.638444660265876
 30
0.0
 11
99.0
 21
45.650000000000006
 31
0.0
  0
LINE
  5
285
330
17
100
AcDbEntity
  8
可见轮廓
100
AcDbLine
 10
96.0
 20
45.0
 30
0.0
 11
96.0
 21
45.143490577311944
 31
0.0
  0
LINE
  5
286
330
17
100
AcDbEntity
  8
可见轮廓
100
AcDbLine
 10
96.0
 20
45.143490577311944
 30
0.0
 11
96.0
 21
45.272107449376016
 31
0.0
  0
LINE
  5
287
330
17
100
AcDbEntity
  8
可见轮廓
100
AcDbLine
 10
96.0
 20
45.272107449376016
 30
0.0
 11
96.0
 21
45.38427262599887
 31
0.0
  0
LINE
  5
288
330
17
100
AcDbEntity
  8
可见轮廓
100
AcDbLine
 10
96.0
 20
45.38427262599887
 30
0.0
 11
96.0
 21
45.478597308262124
 31
0.0
  0
LINE
  5
289
330
17
100
AcDbEntity
  8
可见轮廓
100
AcDbLine
 10
96.0
 20
45.478597308262124
 30
0.0
 11
96.0
 21
45.5522120581291
 31
0.0
  0
LINE
  5
28A
330
17
100
AcDbEntity
  8
可见轮廓
100
AcDbLine
 10
96.0
 20
45.5522120581291
 30
0.0
 11
96.0
 21
45.60571139517961
 31
0.0
  0
LINE
  5
28B
330
17
100
AcDbEntity
  8
可见轮廓
100
AcDbLine
 10
96.0
 20
45.638444660265876
 30
0.0
 11
96.0
 21
45.650000000000006
 31
0.0
  0
LINE
  5
28C
330
17
100
AcDbEntity
  8
可见轮廓
100
AcDbLine
 10
116.0
 20
45.0
 30
0.0
 11
116.0
 21
24.5
 31
0.0
  0
LINE
  5
28D
330
17
100
AcDbEntity
  8
可见轮廓
100
AcDbLine
 10
116.0
 20
24.5
 30
0.0
 11
116.0
 21
12.000000000000007
 31
0.0
  0
LINE
  5
28E
330
17
100
AcDbEntity
  8
可见轮廓
100
AcDbLine
 10
96.0
 20
45.0
 30
0.0
 11
96.0
 21
24.5
 31
0.0
  0
LINE
  5
28F
330
17
100
AcDbEntity
  8
可见轮廓
100
AcDbLine
 10
96.0
 20
24.5
 30
0.0
 11
96.0
 21
4.000000000000014
 31
0.0
  0
LINE
  5
290
330
17
100
AcDbEntity
  8
可见轮廓
100
AcDbLine
 10
99.0
 20
11.999999999999996
 30
0.0
 11
99.0
 21
6.9999999999999964
 31
0.0
  0
LINE
  5
291
330
17
100
AcDbEntity
  8
可见轮廓
100
AcDbLine
 10
99.0
 20
6.9999999999999964
 30
0.0
 11
99.0
 21
4.0000000000000036
 31
0.0
  0
LINE
  5
292
330
17
100
AcDbEntity
  8
可见轮廓
100
AcDbLine
 10
99.0
 20
2.0
 30
0.0
 11
106.0
 21
2.0
 31
0.0
  0
LINE
  5
293
330
17
100
AcDbEntity
  8
可见轮廓
100
AcDbLine
 10
106.0
 20
2.0
 30
0.0
 11
107.5
 21
2.0
 31
0.0
  0
LINE
  5
294
330
17
100
AcDbEntity
  8
可见轮廓
100
AcDbLine
 10
107.5
 20
2.0
 30
0.0
 11
116.0
 21
2.0
 31
0.0
  0
LINE
  5
295
330
17
100
AcDbEntity
  8
可见轮廓
100
AcDbLine
 10
99.0
 20
2.0
 30
0.0
 11
97.5
 21
2.0
 31
0.0
  0
LINE
  5
296
330
17
100
AcDbEntity
  8
可见轮廓
100
AcDbLine
 10
97.5
 20
2.0
 30
0.0
 11
96.0
 21
2.0
 31
0.0
  0
LINE
  5
297
330
17
100
AcDbEntity
  8
可见轮廓
100
AcDbLine
 10
116.0
 20
47.0
 30
0.0
 11
107.5
 21
47.0
 31
0.0
  0
LINE
  5
298
330
17
100
AcDbEntity
  8
可见轮廓
100
AcDbLine
 10
107.5
 20
47.0
 30
0.0
 11
106.0
 21
47.0
 31
0.0
  0
LINE
  5
299
330
17
100
AcDbEntity
  8
可见轮廓
100
AcDbLine
 10
106.0
 20
47.0
 30
0.0
 11
99.0
 21
47.0
 31
0.0
  0
LINE
  5
29A
330
17
100
AcDbEntity
  8
可见轮廓
100
AcDbLine
 10
99.0
 20
47.0
 30
0.0
 11
96.0
 21
47.0
 31
0.0
  0
LINE
  5
29B
330
17
100
AcDbEntity
  8
可见轮廓
100
AcDbLine
 10
96.0
 20
47.0
 30
0.0
 11
106.0
 21
47.0
 31
0.0
  0
LINE
  5
29C
330
17
100
AcDbEntity
  8
可见轮廓
100
AcDbLine
 10
106.0
 20
47.0
 30
0.0
 11
116.0
 21
47.0
 31
0.0
  0
LINE
  5
29D
330
17
100
AcDbEntity
  8
可见轮廓
100
AcDbLine
 10
116.0
 20
45.0
 30
0.0
 11
116.0
 21
45.19598193777355
 31
0.0
  0
LINE
  5
29E
330
17
100
AcDbEntity
  8
可见轮廓
100
AcDbLine
 10
116.0
 20
45.19598193777355
 30
0.0
 11
116.0
 21
45.390027157261045
 31
0.0
  0
LINE
  5
29F
330
17
100
AcDbEntity
  8
可见轮廓
100
AcDbLine
 10
116.0
 20
45.390027157261045
 30
0.0
 11
116.0
 21
45.58039279811486
 31
0.0
  0
LINE
  5
2A0
330
17
100
AcDbEntity
  8
可见轮廓
100
AcDbLine
 10
116.0
 20
45.58039279811486
 30
0.0
 11
116.0
 21
45.765366864730176
 31
0.0
  0
LINE
  5
2A1
330
17
100
AcDbEntity
  8
可见轮廓
100
AcDbLine
 10
116.0
 20
45.765366864730176
 30
0.0
 11
116.0
 21
45.942520200216634
 31
0.0
  0
LINE
  5
2A2
330
17
100
AcDbEntity
  8
可见轮廓
100
AcDbLine
 10
116.0
 20
45.942520200216634
 30
0.0
 11
116.0
 21
46.11070337269514
 31
0.0
  0
LINE
  5
2A3
330
17
100
AcDbEntity
  8
可见轮廓
100
AcDbLine
 10
116.0
 20
46.11070337269514
 30
0.0
 11
116.0
 21
46.2684079917641
 31
0.0
  0
LINE
  5
2A4
330
17
100
AcDbEntity
  8
可见轮廓
100
AcDbLine
 10
116.0
 20
46.2684079917641
 30
0.0
 11
116.0
 21
46.41421356237309
 31
0.0
  0
LINE
  5
2A5
330
17
100
AcDbEntity
  8
可见轮廓
100
AcDbLine
 10
116.0
 20
46.41421356237309
 30
0.0
 11
116.0
 21
46.54556830614362
 31
0.0
  0
LINE
  5
2A6
330
17
100
AcDbEntity
  8
可见轮廓
100
AcDbLine
 10
116.0
 20
46.54556830614362
 30
0.0
 11
116.0
 21
46.66228506818754
 31
0.0
  0
LINE
  5
2A7
330
17
100
AcDbEntity
  8
可见轮廓
100
AcDbLine
 10
116.0
 20
46.66228506818754
 30
0.0
 11
116.0
 21
46.76331956681434
 31
0.0
  0
LINE
  5
2A8
330
17
100
AcDbEntity
  8
可见轮廓
100
AcDbLine
 10
116.0
 20
46.76331956681434
 30
0.0
 11
116.0
 21
46.84775906502257
 31
0.0
  0
LINE
  5
2A9
330
17
100
AcDbEntity
  8
可见轮廓
100
AcDbLine
 10
116.0
 20
46.84775906502257
 30
0.0
 11
116.0
 21
46.91331764807183
 31
0.0
  0
LINE
  5
2AA
330
17
100
AcDbEntity
  8
可见轮廓
100
AcDbLine
 10
116.0
 20
46.91331764807183
 30
0.0
 11
116.0
 21
46.96079893070006
 31
0.0
  0
LINE
  5
2AB
330
17
100
AcDbEntity
  8
可见轮廓
100
AcDbLine
 10
116.0
 20
46.96079893070006
 30
0.0
 11
116.0
 21
46.989781722348766
 31
0.0
  0
LINE
  5
2AC
330
17
100
AcDbEntity
  8
可见轮廓
100
AcDbLine
 10
116.0
 20
12.000000000000009
 30
0.0
 11
116.0
 21
11.80401806222645
 31
0.0
  0
LINE
  5
2AD
330
17
100
AcDbEntity
  8
可见轮廓
100
AcDbLine
 10
116.0
 20
11.80401806222645
 30
0.0
 11
116.0
 21
11.609972842738955
 31
0.0
  0
LINE
  5
2AE
330
17
100
AcDbEntity
  8
可见轮廓
100
AcDbLine
 10
116.0
 20
11.609972842738955
 30
0.0
 11
116.0
 21
11.419607201885148
 31
0.0
  0
LINE
  5
2AF
330
17
100
AcDbEntity
  8
可见轮廓
100
AcDbLine
 10
116.0
 20
11.419607201885148
 30
0.0
 11
116.0
 21
11.234633135269826
 31
0.0
  0
LINE
  5
2B0
330
17
100
AcDbEntity
  8
可见轮廓
100
AcDbLine
 10
116.0
 20
11.234633135269826
 30
0.0
 11
116.0
 21
11.057479799783366
 31
0.0
  0
LINE
  5
2B1
330
17
100
AcDbEntity
  8
可见轮廓
100
AcDbLine
 10
116.0
 20
11.057479799783366
 30
0.0
 11
116.0
 21
10.889296627304862
 31
0.0
  0
LINE
  5
2B2
330
17
100
AcDbEntity
  8
可见轮廓
100
AcDbLine
 10
116.0
 20
10.889296627304862
 30
0.0
 11
116.0
 21
10.7315920082359
 31
0.0
  0
LINE
  5
2B3
330
17
100
AcDbEntity
  8
可见轮廓
100
AcDbLine
 10
116.0
 20
10.7315920082359
 30
0.0
 11
116.0
 21
10.585786437626906
 31
0.0
  0
LINE
  5
2B4
330
17
100
AcDbEntity
  8
可见轮廓
100
AcDbLine
 10
116.0
 20
10.585786437626906
 30
0.0
 11
116.0
 21
10.454431693856371
 31
0.0
  0
LINE
  5
2B5
330
17
100
AcDbEntity
  8
可见轮廓
100
AcDbLine
 10
116.0
 20
10.454431693856371
 30
0.0
 11
116.0
 21
10.337714931812453
 31
0.0
  0
LINE
  5
2B6
330
17
100
AcDbEntity
  8
可见轮廓
100
AcDbLine
 10
116.0
 20
10.337714931812453
 30
0.0
 11
116.0
 21
10.236680433185658
 31
0.0
  0
LINE
  5
2B7
330
17
100
AcDbEntity
  8
可见轮廓
100
AcDbLine
 10
116.0
 20
10.236680433185658
 30
0.0
 11
116.0
 21
10.152240934977424
 31
0.0
  0
LINE
  5
2B8
330
17
100
AcDbEntity
  8
可见轮廓
100
AcDbLine
 10
116.0
 20
10.152240934977424
 30
0.0
 11
116.0
 21
10.086682351928163
 31
0.0
  0
LINE
  5
2B9
330
17
100
AcDbEntity
  8
可见轮廓
100
AcDbLine
 10
116.0
 20
10.086682351928163
 30
0.0
 11
116.0
 21
10.039201069299937
 31
0.0
  0
LINE
  5
2BA
330
17
100
AcDbEntity
  8
可见轮廓
100
AcDbLine
 10
116.0
 20
10.039201069299937
 30
0.0
 11
116.0
 21
10.010218277651225
 31
0.0
  0
LINE
  5
2BB
330
17
100
AcDbEntity
  8
可见轮廓
100
AcDbLine
 10
116.0
 20
4.0000000000000036
 30
0.0
 11
116.0
 21
7.0
 31
0.0
  0
LINE
  5
2BC
330
17
100
AcDbEntity
  8
可见轮廓
100
AcDbLine
 10
116.0
 20
7.0
 30
0.0
 11
116.0
 21
9.999999999999998
 31
0.0
  0
LINE
  5
2BD
330
17
100
AcDbEntity
  8
可见轮廓
100
AcDbLine
 10
116.0
 20
4.0000000000000036
 30
0.0
 11
116.0
 21
3.8040180622264472
 31
0.0
  0
LINE
  5
2BE
330
17
100
AcDbEntity
  8
可见轮廓
100
AcDbLine
 10
116.0
 20
3.8040180622264472
 30
0.0
 11
116.0
 21
3.609972842738955
 31
0.0
  0
LINE
  5
2BF
330
17
100
AcDbEntity
  8
可见轮廓
100
AcDbLine
 10
116.0
 20
3.609972842738955
 30
0.0
 11
116.0
 21
3.419607201885146
 31
0.0
  0
LINE
  5
2C0
330
17
100
AcDbEntity
  8
可见轮廓
100
AcDbLine
 10
116.0
 20
3.419607201885146
 30
0.0
 11
116.0
 21
3.2346331352698208
 31
0.0
  0
LINE
  5
2C1
330
17
100
AcDbEntity
  8
可见轮廓
100
AcDbLine
 10
116.0
 20
3.2346331352698208
 30
0.0
 11
116.0
 21
3.0574797997833656
 31
0.0
  0
LINE
  5
2C2
330
17
100
AcDbEntity
  8
可见轮廓
100
AcDbLine
 10
116.0
 20
3.0574797997833656
 30
0.0
 11
116.0
 21
2.8892966273048586
 31
0.0
  0
LINE
  5
2C3
330
17
100
AcDbEntity
  8
可见轮廓
100
AcDbLine
 10
116.0
 20
2.8892966273048586
 30
0.0
 11
116.0
 21
2.7315920082359
 31
0.0
  0
LINE
  5
2C4
330
17
100
AcDbEntity
  8
可见轮廓
100
AcDbLine
 10
116.0
 20
2.7315920082359
 30
0.0
 11
116.0
 21
2.5857864376269077
 31
0.0
  0
LINE
  5
2C5
330
17
100
AcDbEntity
  8
可见轮廓
100
AcDbLine
 10
116.0
 20
2.5857864376269077
 30
0.0
 11
116.0
 21
2.4544316938563746
 31
0.0
  0
LINE
  5
2C6
330
17
100
AcDbEntity
  8
可见轮廓
100
AcDbLine
 10
116.0
 20
2.4544316938563746
 30
0.0
 11
116.0
 21
2.3377149318124566
 31
0.0
  0
LINE
  5
2C7
330
17
100
AcDbEntity
  8
可见轮廓
100
AcDbLine
 10
116.0
 20
2.3377149318124566
 30
0.0
 11
116.0
 21
2.2366804331856613
 31
0.0
  0
LINE
  5
2C8
330
17
100
AcDbEntity
  8
可见轮廓
100
AcDbLine
 10
116.0
 20
2.2366804331856613
 30
0.0
 11
116.0
 21
2.1522409349774314
 31
0.0
  0
LINE
  5
2C9
330
17
100
AcDbEntity
  8
可见轮廓
100
AcDbLine
 10
116.0
 20
2.1522409349774314
 30
0.0
 11
116.0
 21
2.086682351928168
 31
0.0
  0
LINE
  5
2CA
330
17
100
AcDbEntity
  8
可见轮廓
100
AcDbLine
 10
116.0
 20
2.086682351928168
 30
0.0
 11
116.0
 21
2.039201069299942
 31
0.0
  0
LINE
  5
2CB
330
17
100
AcDbEntity
  8
可见轮廓
100
AcDbLine
 10
116.0
 20
2.039201069299942
 30
0.0
 11
116.0
 21
2.01021827765123
 31
0.0
  0
LINE
  5
2CC
330
17
100
AcDbEntity
  8
可见轮廓
100
AcDbLine
 10
96.0
 20
45.0
 30
0.0
 11
96.0
 21
45.19598193777355
 31
0.0
  0
LINE
  5
2CD
330
17
100
AcDbEntity
  8
可见轮廓
100
AcDbLine
 10
96.0
 20
45.19598193777355
 30
0.0
 11
96.0
 21
45.390027157261045
 31
0.0
  0
LINE
  5
2CE
330
17
100
AcDbEntity
  8
可见轮廓
100
AcDbLine
 10
96.0
 20
45.390027157261045
 30
0.0
 11
96.0
 21
45.58039279811486
 31
0.0
  0
LINE
  5
2CF
330
17
100
AcDbEntity
  8
可见轮廓
100
AcDbLine
 10
96.0
 20
45.58039279811486
 30
0.0
 11
96.0
 21
45.765366864730176
 31
0.0
  0
LINE
  5
2D0
330
17
100
AcDbEntity
  8
可见轮廓
100
AcDbLine
 10
96.0
 20
45.765366864730176
 30
0.0
 11
96.0
 21
45.942520200216634
 31
0.0
  0
LINE
  5
2D1
330
17
100
AcDbEntity
  8
可见轮廓
100
AcDbLine
 10
96.0
 20
45.942520200216634
 30
0.0
 11
96.0
 21
46.11070337269514
 31
0.0
  0
LINE
  5
2D2
330
17
100
AcDbEntity
  8
可见轮廓
100
AcDbLine
 10
96.0
 20
46.11070337269514
 30
0.0
 11
96.0
 21
46.2684079917641
 31
0.0
  0
LINE
  5
2D3
330
17
100
AcDbEntity
  8
可见轮廓
100
AcDbLine
 10
96.0
 20
46.2684079917641
 30
0.0
 11
96.0
 21
46.41421356237309
 31
0.0
  0
LINE
  5
2D4
330
17
100
AcDbEntity
  8
可见轮廓
100
AcDbLine
 10
96.0
 20
46.41421356237309
 30
0.0
 11
96.0
 21
46.54556830614362
 31
0.0
  0
LINE
  5
2D5
330
17
100
AcDbEntity
  8
可见轮廓
100
AcDbLine
 10
96.0
 20
46.54556830614362
 30
0.0
 11
96.0
 21
46.66228506818754
 31
0.0
  0
LINE
  5
2D6
330
17
100
AcDbEntity
  8
可见轮廓
100
AcDbLine
 10
96.0
 20
46.66228506818754
 30
0.0
 11
96.0
 21
46.76331956681434
 31
0.0
  0
LINE
  5
2D7
330
17
100
AcDbEntity
  8
可见轮廓
100
AcDbLine
 10
96.0
 20
46.76331956681434
 30
0.0
 11
96.0
 21
46.84775906502257
 31
0.0
  0
LINE
  5
2D8
330
17
100
AcDbEntity
  8
可见轮廓
100
AcDbLine
 10
96.0
 20
46.84775906502257
 30
0.0
 11
96.0
 21
46.91331764807183
 31
0.0
  0
LINE
  5
2D9
330
17
100
AcDbEntity
  8
可见轮廓
100
AcDbLine
 10
96.0
 20
46.91331764807183
 30
0.0
 11
96.0
 21
46.96079893070006
 31
0.0
  0
LINE
  5
2DA
330
17
100
AcDbEntity
  8
可见轮廓
100
AcDbLine
 10
96.0
 20
46.96079893070006
 30
0.0
 11
96.0
 21
46.989781722348766
 31
0.0
  0
LINE
  5
2DB
330
17
100
AcDbEntity
  8
可见轮廓
100
AcDbLine
 10
96.0
 20
46.33151896350452
 30
0.0
 11
96.0
 21
46.24463024690857
 31
0.0
  0
LINE
  5
2DC
330
17
100
AcDbEntity
  8
可见轮廓
100
AcDbLine
 10
96.0
 20
46.24463024690857
 30
0.0
 11
96.0
 21
46.15380927345758
 31
0.0
  0
LINE
  5
2DD
330
17
100
AcDbEntity
  8
可见轮廓
100
AcDbLine
 10
96.0
 20
46.15380927345758
 30
0.0
 11
96.0
 21
46.059328948090126
 31
0.0
  0
LINE
  5
2DE
330
17
100
AcDbEntity
  8
可见轮廓
100
AcDbLine
 10
96.0
 20
46.059328948090126
 30
0.0
 11
96.0
 21
45.96122314580741
 31
0.0
  0
LINE
  5
2DF
330
17
100
AcDbEntity
  8
可见轮廓
100
AcDbLine
 10
96.0
 20
45.96122314580741
 30
0.0
 11
96.0
 21
45.86009539019848
 31
0.0
  0
LINE
  5
2E0
330
17
100
AcDbEntity
  8
可见轮廓
100
AcDbLine
 10
96.0
 20
45.756250268526415
 30
0.0
 11
96.0
 21
45.650000000000006
 31
0.0
  0
LINE
  5
2E1
330
17
100
AcDbEntity
  8
可见轮廓
100
AcDbLine
 10
96.0
 20
2.0
 30
0.0
 11
96.0
 21
2.01021827765123
 31
0.0
  0
LINE
  5
2E2
330
17
100
AcDbEntity
  8
可见轮廓
100
AcDbLine
 10
96.0
 20
2.039201069299942
 30
0.0
 11
96.0
 21
2.086682351928168
 31
0.0
  0
LINE
  5
2E3
330
17
100
AcDbEntity
  8
可见轮廓
100
AcDbLine
 10
96.0
 20
2.086682351928168
 30
0.0
 11
96.0
 21
2.1522409349774314
 31
0.0
  0
LINE
  5
2E4
330
17
100
AcDbEntity
  8
可见轮廓
100
AcDbLine
 10
96.0
 20
2.1522409349774314
 30
0.0
 11
96.0
 21
2.236680433185665
 31
0.0
  0
LINE
  5
2E5
330
17
100
AcDbEntity
  8
可见轮廓
100
AcDbLine
 10
96.0
 20
2.236680433185665
 30
0.0
 11
96.0
 21
2.33771493181246
 31
0.0
  0
LINE
  5
2E6
330
17
100
AcDbEntity
  8
可见轮廓
100
AcDbLine
 10
96.0
 20
2.33771493181246
 30
0.0
 11
96.0
 21
2.454431693856378
 31
0.0
  0
LINE
  5
2E7
330
17
100
AcDbEntity
  8
可见轮廓
100
AcDbLine
 10
96.0
 20
2.454431693856378
 30
0.0
 11
96.0
 21
2.5857864376269113
 31
0.0
  0
LINE
  5
2E8
330
17
100
AcDbEntity
  8
可见轮廓
100
AcDbLine
 10
96.0
 20
2.5857864376269113
 30
0.0
 11
96.0
 21
2.731592008235907
 31
0.0
  0
LINE
  5
2E9
330
17
100
AcDbEntity
  8
可见轮廓
100
AcDbLine
 10
96.0
 20
2.731592008235907
 30
0.0
 11
96.0
 21
2.8892966273048692
 31
0.0
  0
LINE
  5
2EA
330
17
100
AcDbEntity
  8
可见轮廓
100
AcDbLine
 10
96.0
 20
2.8892966273048692
 30
0.0
 11
96.0
 21
3.0574797997833727
 31
0.0
  0
LINE
  5
2EB
330
17
100
AcDbEntity
  8
可见轮廓
100
AcDbLine
 10
96.0
 20
3.0574797997833727
 30
0.0
 11
96.0
 21
3.2346331352698314
 31
0.0
  0
LINE
  5
2EC
330
17
100
AcDbEntity
  8
可见轮廓
100
AcDbLine
 10
96.0
 20
3.2346331352698314
 30
0.0
 11
96.0
 21
3.4196072018851567
 31
0.0
  0
LINE
  5
2ED
330
17
100
AcDbEntity
  8
可见轮廓
100
AcDbLine
 10
96.0
 20
3.4196072018851567
 30
0.0
 11
96.0
 21
3.6099728427389657
 31
0.0
  0
LINE
  5
2EE
330
17
100
AcDbEntity
  8
可见轮廓
100
AcDbLine
 10
96.0
 20
3.6099728427389657
 30
0.0
 11
96.0
 21
3.804018062226458
 31
0.0
  0
LINE
  5
2EF
330
17
100
AcDbEntity
  8
可见轮廓
100
AcDbLine
 10
96.0
 20
3.804018062226458
 30
0.0
 11
96.0
 21
4.000000000000018
 31
0.0
  0
LINE
  5
2F0
330
17
100
AcDbEntity
  8
可见轮廓
100
AcDbLine
 10
99.0
 20
45.650000000000006
 30
0.0
 11
99.0
 21
45.756250268526415
 31
0.0
  0
LINE
  5
2F1
330
17
100
AcDbEntity
  8
可见轮廓
100
AcDbLine
 10
99.0
 20
45.756250268526415
 30
0.0
 11
99.0
 21
45.86009539019848
 31
0.0
  0
LINE
  5
2F2
330
17
100
AcDbEntity
  8
可见轮廓
100
AcDbLine
 10
99.0
 20
45.86009539019848
 30
0.0
 11
99.0
 21
45.96122314580741
 31
0.0
  0
LINE
  5
2F3
330
17
100
AcDbEntity
  8
可见轮廓
100
AcDbLine
 10
99.0
 20
45.96122314580741
 30
0.0
 11
99.0
 21
46.059328948090126
 31
0.0
  0
LINE
  5
2F4
330
17
100
AcDbEntity
  8
可见轮廓
100
AcDbLine
 10
99.0
 20
46.059328948090126
 30
0.0
 11
99.0
 21
46.15380927345758
 31
0.0
  0
LINE
  5
2F5
330
17
100
AcDbEntity
  8
可见轮廓
100
AcDbLine
 10
99.0
 20
46.15380927345758
 30
0.0
 11
99.0
 21
46.24463024690857
 31
0.0
  0
LINE
  5
2F6
330
17
100
AcDbEntity
  8
可见轮廓
100
AcDbLine
 10
99.0
 20
46.24463024690857
 30
0.0
 11
99.0
 21
46.33151896350452
 31
0.0
  0
LINE
  5
2F7
330
17
100
AcDbEntity
  8
可见轮廓
100
AcDbLine
 10
99.0
 20
46.33151896350452
 30
0.0
 11
99.0
 21
46.41421356237309
 31
0.0
  0
LINE
  5
2F8
330
17
100
AcDbEntity
  8
可见轮廓
100
AcDbLine
 10
99.0
 20
46.41421356237309
 30
0.0
 11
99.0
 21
46.54556830614362
 31
0.0
  0
LINE
  5
2F9
330
17
100
AcDbEntity
  8
可见轮廓
100
AcDbLine
 10
99.0
 20
46.54556830614362
 30
0.0
 11
99.0
 21
46.66228506818754
 31
0.0
  0
LINE
  5
2FA
330
17
100
AcDbEntity
  8
可见轮廓
100
AcDbLine
 10
99.0
 20
46.66228506818754
 30
0.0
 11
99.0
 21
46.76331956681434
 31
0.0
  0
LINE
  5
2FB
330
17
100
AcDbEntity
  8
可见轮廓
100
AcDbLine
 10
99.0
 20
46.76331956681434
 30
0.0
 11
99.0
 21
46.84775906502257
 31
0.0
  0
LINE
  5
2FC
330
17
100
AcDbEntity
  8
可见轮廓
100
AcDbLine
 10
99.0
 20
46.84775906502257
 30
0.0
 11
99.0
 21
46.91331764807183
 31
0.0
  0
LINE
  5
2FD
330
17
100
AcDbEntity
  8
可见轮廓
100
AcDbLine
 10
99.0
 20
46.91331764807183
 30
0.0
 11
99.0
 21
46.96079893070006
 31
0.0
  0
LINE
  5
2FE
330
17
100
AcDbEntity
  8
可见轮廓
100
AcDbLine
 10
99.0
 20
46.96079893070006
 30
0.0
 11
99.0
 21
46.989781722348766
 31
0.0
  0
LINE
  5
2FF
330
17
100
AcDbEntity
  8
可见轮廓
100
AcDbLine
 10
99.0
 20
46.2684079917641
 30
0.0
 11
99.0
 21
46.11070337269514
 31
0.0
  0
LINE
  5
300
330
17
100
AcDbEntity
  8
可见轮廓
100
AcDbLine
 10
99.0
 20
46.11070337269514
 30
0.0
 11
99.0
 21
45.942520200216634
 31
0.0
  0
LINE
  5
301
330
17
100
AcDbEntity
  8
可见轮廓
100
AcDbLine
 10
99.0
 20
45.765366864730176
 30
0.0
 11
99.0
 21
45.58039279811486
 31
0.0
  0
LINE
  5
302
330
17
100
AcDbEntity
  8
可见轮廓
100
AcDbLine
 10
99.0
 20
45.58039279811486
 30
0.0
 11
99.0
 21
45.390027157261045
 31
0.0
  0
LINE
  5
303
330
17
100
AcDbEntity
  8
可见轮廓
100
AcDbLine
 10
99.0
 20
45.390027157261045
 30
0.0
 11
99.0
 21
45.19598193777355
 31
0.0
  0
LINE
  5
304
330
17
100
AcDbEntity
  8
可见轮廓
100
AcDbLine
 10
99.0
 20
45.19598193777355
 30
0.0
 11
99.0
 21
45.0
 31
0.0
  0
LINE
  5
305
330
17
100
AcDbEntity
  8
可见轮廓
100
AcDbLine
 10
116.0
 20
9.999999999999996
 30
0.0
 11
107.5
 21
9.999999999999996
 31
0.0
  0
LINE
  5
306
330
17
100
AcDbEntity
  8
可见轮廓
100
AcDbLine
 10
107.5
 20
9.999999999999996
 30
0.0
 11
99.0
 21
9.999999999999996
 31
0.0
  0
LINE
  5
307
330
17
100
AcDbEntity
  8
可见轮廓
100
AcDbLine
 10
99.0
 20
4.0000000000000036
 30
0.0
 11
99.0
 21
3.8040180622264437
 31
0.0
  0
LINE
  5
308
330
17
100
AcDbEntity
  8
可见轮廓
100
AcDbLine
 10
99.0
 20
3.8040180622264437
 30
0.0
 11
99.0
 21
3.609972842738955
 31
0.0
  0
LINE
  5
309
330
17
100
AcDbEntity
  8
可见轮廓
100
AcDbLine
 10
99.0
 20
3.609972842738955
 30
0.0
 11
99.0
 21
3.419607201885146
 31
0.0
  0
LINE
  5
30A
330
17
100
AcDbEntity
  8
可见轮廓
100
AcDbLine
 10
99.0
 20
3.419607201885146
 30
0.0
 11
99.0
 21
3.234633135269828
 31
0.0
  0
LINE
  5
30B
330
17
100
AcDbEntity
  8
可见轮廓
100
AcDbLine
 10
99.0
 20
3.234633135269828
 30
0.0
 11
99.0
 21
3.057479799783369
 31
0.0
  0
LINE
  5
30C
330
17
100
AcDbEntity
  8
可见轮廓
100
AcDbLine
 10
99.0
 20
3.057479799783369
 30
0.0
 11
99.0
 21
2.8892966273048657
 31
0.0
  0
LINE
  5
30D
330
17
100
AcDbEntity
  8
可见轮廓
100
AcDbLine
 10
99.0
 20
2.8892966273048657
 30
0.0
 11
99.0
 21
2.7315920082359035
 31
0.0
  0
LINE
  5
30E
330
17
100
AcDbEntity
  8
可见轮廓
100
AcDbLine
 10
99.0
 20
2.7315920082359035
 30
0.0
 11
99.0
 21
2.5857864376269113
 31
0.0
  0
LINE
  5
30F
330
17
100
AcDbEntity
  8
可见轮廓
100
AcDbLine
 10
99.0
 20
2.5857864376269113
 30
0.0
 11
99.0
 21
2.454431693856378
 31
0.0
  0
LINE
  5
310
330
17
100
AcDbEntity
  8
可见轮廓
100
AcDbLine
 10
99.0
 20
2.454431693856378
 30
0.0
 11
99.0
 21
2.33771493181246
 31
0.0
  0
LINE
  5
311
330
17
100
AcDbEntity
  8
可见轮廓
100
AcDbLine
 10
99.0
 20
2.33771493181246
 30
0.0
 11
99.0
 21
2.236680433185665
 31
0.0
  0
LINE
  5
312
330
17
100
AcDbEntity
  8
可见轮廓
100
AcDbLine
 10
99.0
 20
2.236680433185665
 30
0.0
 11
99.0
 21
2.152240934977428
 31
0.0
  0
LINE
  5
313
330
17
100
AcDbEntity
  8
可见轮廓
100
AcDbLine
 10
99.0
 20
2.152240934977428
 30
0.0
 11
99.0
 21
2.0866823519281716
 31
0.0
  0
LINE
  5
314
330
17
100
AcDbEntity
  8
可见轮廓
100
AcDbLine
 10
99.0
 20
2.0866823519281716
 30
0.0
 11
99.0
 21
2.039201069299942
 31
0.0
  0
LINE
  5
315
330
17
100
AcDbEntity
  8
可见轮廓
100
AcDbLine
 10
99.0
 20
2.039201069299942
 30
0.0
 11
99.0
 21
2.01021827765123
 31
0.0
  0
LINE
  5
316
330
17
100
AcDbEntity
  8
可见轮廓
100
AcDbLine
 10
99.0
 20
12.000000000000002
 30
0.0
 11
99.0
 21
11.804018062226445
 31
0.0
  0
LINE
  5
317
330
17
100
AcDbEntity
  8
可见轮廓
100
AcDbLine
 10
99.0
 20
11.804018062226445
 30
0.0
 11
99.0
 21
11.609972842738953
 31
0.0
  0
LINE
  5
318
330
17
100
AcDbEntity
  8
可见轮廓
100
AcDbLine
 10
99.0
 20
11.609972842738953
 30
0.0
 11
99.0
 21
11.419607201885148
 31
0.0
  0
LINE
  5
319
330
17
100
AcDbEntity
  8
可见轮廓
100
AcDbLine
 10
99.0
 20
11.419607201885148
 30
0.0
 11
99.0
 21
11.234633135269824
 31
0.0
  0
LINE
  5
31A
330
17
100
AcDbEntity
  8
可见轮廓
100
AcDbLine
 10
99.0
 20
11.234633135269824
 30
0.0
 11
99.0
 21
11.057479799783367
 31
0.0
  0
LINE
  5
31B
330
17
100
AcDbEntity
  8
可见轮廓
100
AcDbLine
 10
99.0
 20
11.057479799783367
 30
0.0
 11
99.0
 21
10.889296627304864
 31
0.0
  0
LINE
  5
31C
330
17
100
AcDbEntity
  8
可见轮廓
100
AcDbLine
 10
99.0
 20
10.889296627304864
 30
0.0
 11
99.0
 21
10.731592008235905
 31
0.0
  0
LINE
  5
31D
330
17
100
AcDbEntity
  8
可见轮廓
100
AcDbLine
 10
99.0
 20
10.731592008235905
 30
0.0
 11
99.0
 21
10.585786437626911
 31
0.0
  0
LINE
  5
31E
330
17
100
AcDbEntity
  8
可见轮廓
100
AcDbLine
 10
116.0
 20
45.0
 30
0.0
 11
106.0
 21
45.0
 31
0.0
  0
LINE
  5
31F
330
17
100
AcDbEntity
  8
可见轮廓
100
AcDbLine
 10
106.0
 20
45.0
 30
0.0
 11
96.0
 21
45.0
 31
0.0
  0
LINE
  5
320
330
17
100
AcDbEntity
  8
可见轮廓
100
AcDbLine
 10
96.0
 20
4.0000000000000036
 30
0.0
 11
97.5
 21
4.0000000000000036
 31
0.0
  0
LINE
  5
321
330
17
100
AcDbEntity
  8
可见轮廓
100
AcDbLine
 10
97.5
 20
4.0000000000000036
 30
0.0
 11
99.0
 21
4.0000000000000036
 31
0.0
  0
LINE
  5
322
330
17
100
AcDbEntity
  8
可见轮廓
100
AcDbLine
 10
99.0
 20
11.999999999999996
 30
0.0
 11
106.0
 21
11.999999999999996
 31
0.0
  0
LINE
  5
323
330
17
100
AcDbEntity
  8
可见轮廓
100
AcDbLine
 10
106.0
 20
11.999999999999996
 30
0.0
 11
107.5
 21
11.999999999999996
 31
0.0
  0
LINE
  5
324
330
17
100
AcDbEntity
  8
可见轮廓
100
AcDbLine
 10
107.5
 20
11.999999999999996
 30
0.0
 11
116.0
 21
11.999999999999996
 31
0.0
  0
LINE
  5
325
330
17
100
AcDbEntity
  8
可见轮廓
100
AcDbLine
 10
99.0
 20
4.0000000000000036
 30
0.0
 11
107.5
 21
4.0000000000000036
 31
0.0
  0
LINE
  5
326
330
17
100
AcDbEntity
  8
可见轮廓
100
AcDbLine
 10
107.5
 20
4.0000000000000036
 30
0.0
 11
116.0
 21
4.0000000000000036
 31
0.0
  0
LINE
  5
327
330
17
100
AcDbEntity
  8
可见轮廓
100
AcDbLine
 10
96.0
 20
45.650000000000006
 30
0.0
 11
96.0
 21
42.35000000000001
 31
0.0
  0
LINE
  5
328
330
17
100
AcDbEntity
  8
可见轮廓
100
AcDbLine
 10
96.0
 20
6.649999999999995
 30
0.0
 11
96.0
 21
3.349999999999998
 31
0.0
  0
LINE
  5
329
330
17
100
AcDbEntity
  8
可见轮廓
100
AcDbLine
 10
99.0
 20
6.649999999999999
 30
0.0
 11
99.0
 21
3.3500000000000014
 31
0.0
  0
LINE
  5
32A
330
17
100
AcDbEntity
  8
可见轮廓
100
AcDbLine
 10
96.0
 20
6.649999999999999
 30
0.0
 11
96.0
 21
3.3500000000000014
 31
0.0
  0
LINE
  5
32B
330
17
100
AcDbEntity
  8
可见轮廓
100
AcDbLine
 10
116.0
 20
43.0
 30
0.0
 11
116.0
 21
39.0
 31
0.0
  0
LINE
  5
32C
330
17
100
AcDbEntity
  8
可见轮廓
100
AcDbLine
 10
116.0
 20
47.0
 30
0.0
 11
116.0
 21
45.0
 31
0.0
  0
LINE
  5
32D
330
17
100
AcDbEntity
  8
可见轮廓
100
AcDbLine
 10
116.0
 20
12.000000000000009
 30
0.0
 11
116.0
 21
9.999999999999996
 31
0.0
  0
LINE
  5
32E
330
17
100
AcDbEntity
  8
可见轮廓
100
AcDbLine
 10
116.0
 20
4.0000000000000036
 30
0.0
 11
116.0
 21
2.0
 31
0.0
  0
LINE
  5
32F
330
17
100
AcDbEntity
  8
可见轮廓
100
AcDbLine
 10
96.0
 20
45.0
 30
0.0
 11
96.0
 21
47.0
 31
0.0
  0
LINE
  5
330
330
17
100
AcDbEntity
  8
可见轮廓
100
AcDbLine
 10
96.0
 20
2.0
 30
0.0
 11
96.0
 21
4.000000000000018
 31
0.0
  0
LINE
  5
331
330
17
100
AcDbEntity
  8
可见轮廓
100
AcDbLine
 10
99.0
 20
4.0000000000000036
 30
0.0
 11
99.0
 21
2.0
 31
0.0
  0
LINE
  5
332
330
17
100
AcDbEntity
  8
可见轮廓
100
AcDbLine
 10
99.0
 20
10.000000000000002
 30
0.0
 11
99.0
 21
12.000000000000002
 31
0.0
  0
LINE
  5
333
330
17
100
AcDbEntity
  8
可见轮廓
100
AcDbLine
 10
96.0
 20
42.35000000000001
 30
0.0
 11
96.1875
 21
42.35000000000001
 31
0.0
  0
LINE
  5
334
330
17
100
AcDbEntity
  8
可见轮廓
100
AcDbLine
 10
96.0
 20
3.349999999999998
 30
0.0
 11
96.1875
 21
3.349999999999998
 31
0.0
  0
LINE
  5
335
330
17
100
AcDbEntity
  8
可见轮廓
100
AcDbLine
 10
96.0
 20
3.3500000000000014
 30
0.0
 11
96.1875
 21
3.3500000000000014
 31
0.0
  0
LINE
  5
336
330
17
100
AcDbEntity
  8
可见轮廓
100
AcDbLine
 10
98.8125
 20
3.3500000000000014
 30
0.0
 11
99.0
 21
3.3500000000000014
 31
0.0
  0
LINE
  5
337
330
17
100
AcDbEntity
  8
可见轮廓
100
AcDbLine
 10
114.9375
 20
39.0
 30
0.0
 11
116.0
 21
39.0
 31
0.0
  0
LINE
  5
338
330
17
100
AcDbEntity
  8
可见轮廓
100
AcDbLine
 10
114.9375
 20
43.0
 30
0.0
 11
116.0
 21
43.0
 31
0.0
  0
LINE
  5
339
330
17
100
AcDbEntity
  8
可见轮廓
100
AcDbLine
 10
99.0
 20
45.0
 30
0.0
 11
116.0
 21
45.0
 31
0.0
  0
LINE
  5
33A
330
17
100
AcDbEntity
  8
可见轮廓
100
AcDbLine
 10
116.0
 20
45.0
 30
0.0
 11
96.0
 21
45.0
 31
0.0
  0
LINE
  5
33B
330
17
100
AcDbEntity
  8
可见轮廓
100
AcDbLine
 10
116.0
 20
47.0
 30
0.0
 11
96.0
 21
47.0
 31
0.0
  0
LINE
  5
33C
330
17
100
AcDbEntity
  8
可见轮廓
100
AcDbLine
 10
99.0
 20
4.000000000000018
 30
0.0
 11
96.0
 21
4.000000000000018
 31
0.0
  0
LINE
  5
33D
330
17
100
AcDbEntity
  8
可见轮廓
100
AcDbLine
 10
99.0
 20
2.0
 30
0.0
 11
96.0
 21
2.0
 31
0.0
  0
LINE
  5
33E
330
17
100
AcDbEntity
  8
可见轮廓
100
AcDbLine
 10
99.0
 20
10.000000000000002
 30
0.0
 11
116.0
 21
10.000000000000002
 31
0.0
  0
LINE
  5
33F
330
17
100
AcDbEntity
  8
可见轮廓
100
AcDbLine
 10
99.0
 20
2.0
 30
0.0
 11
116.0
 21
2.0
 31
0.0
  0
LINE
  5
340
330
17
100
AcDbEntity
  8
可见轮廓
100
AcDbLine
 10
99.0
 20
4.0000000000000036
 30
0.0
 11
116.0
 21
4.0000000000000036
 31
0.0
  0
LINE
  5
341
330
17
100
AcDbEntity
  8
可见轮廓
100
AcDbLine
 10
99.0
 20
12.000000000000009
 30
0.0
 11
116.0
 21
12.000000000000009
 31
0.0
  0
LINE
  5
342
330
17
100
AcDbEntity
  8
可见轮廓
100
AcDbLine
 10
99.0
 20
47.0
 30
0.0
 11
116.0
 21
47.0
 31
0.0
  0
LINE
  5
343
330
17
100
AcDbEntity
  8
可见轮廓
100
AcDbLine
 10
96.0
 20
6.649999999999999
 30
0.0
 11
96.1875
 21
6.649999999999999
 31
0.0
  0
LINE
  5
344
330
17
100
AcDbEntity
  8
可见轮廓
100
AcDbLine
 10
98.8125
 20
6.649999999999999
 30
0.0
 11
99.0
 21
6.649999999999999
 31
0.0
  0
LINE
  5
345
330
17
100
AcDbEntity
  8
可见轮廓
100
AcDbLine
 10
96.0
 20
45.650000000000006
 30
0.0
 11
96.1875
 21
45.650000000000006
 31
0.0
  0
LINE
  5
346
330
17
100
AcDbEntity
  8
隐藏线
100
AcDbLine
 10
99.0
 20
42.35000000000001
 30
0.0
 11
99.0
 21
42.361555339734124
 31
0.0
  0
LINE
  5
347
330
17
100
AcDbEntity
  8
隐藏线
100
AcDbLine
 10
99.0
 20
42.4477879418709
 30
0.0
 11
99.0
 21
42.521402691737876
 31
0.0
  0
LINE
  5
348
330
17
100
AcDbEntity
  8
隐藏线
100
AcDbLine
 10
99.0
 20
42.521402691737876
 30
0.0
 11
99.0
 21
42.61572737400113
 31
0.0
  0
LINE
  5
349
330
17
100
AcDbEntity
  8
隐藏线
100
AcDbLine
 10
99.0
 20
42.61572737400113
 30
0.0
 11
99.0
 21
42.727892550623984
 31
0.0
  0
LINE
  5
34A
330
17
100
AcDbEntity
  8
隐藏线
100
AcDbLine
 10
99.0
 20
42.727892550623984
 30
0.0
 11
99.0
 21
42.85650942268805
 31
0.0
  0
LINE
  5
34B
330
17
100
AcDbEntity
  8
隐藏线
100
AcDbLine
 10
99.0
 20
42.85650942268805
 30
0.0
 11
99.0
 21
43.0
 31
0.0
  0
LINE
  5
34C
330
17
100
AcDbEntity
  8
隐藏线
100
AcDbLine
 10
99.0
 20
43.0
 30
0.0
 11
99.0
 21
43.110190888506175
 31
0.0
  0
LINE
  5
34D
330
17
100
AcDbEntity
  8
隐藏线
100
AcDbLine
 10
99.0
 20
43.110190888506175
 30
0.0
 11
99.0
 21
43.226117742944425
 31
0.0
  0
LINE
  5
34E
330
17
100
AcDbEntity
  8
隐藏线
100
AcDbLine
 10
99.0
 20
43.226117742944425
 30
0.0
 11
99.0
 21
43.34706338410267
 31
0.0
  0
LINE
  5
34F
330
17
100
AcDbEntity
  8
隐藏线
100
AcDbLine
 10
99.0
 20
43.34706338410267
 30
0.0
 11
99.0
 21
43.47228169611388
 31
0.0
  0
LINE
  5
350
330
17
100
AcDbEntity
  8
隐藏线
100
AcDbLine
 10
99.0
 20
43.47228169611388
 30
0.0
 11
99.0
 21
43.60120705336192
 31
0.0
  0
LINE
  5
351
330
17
100
AcDbEntity
  8
隐藏线
100
AcDbLine
 10
99.0
 20
43.60120705336192
 30
0.0
 11
99.0
 21
43.73267857623877
 31
0.0
  0
LINE
  5
352
330
17
100
AcDbEntity
  8
隐藏线
100
AcDbLine
 10
99.0
 20
43.73267857623877
 30
0.0
 11
99.0
 21
43.86588373391511
 31
0.0
  0
LINE
  5
353
330
17
100
AcDbEntity
  8
隐藏线
100
AcDbLine
 10
99.0
 20
43.86588373391511
 30
0.0
 11
99.0
 21
44.0
 31
0.0
  0
LINE
  5
354
330
17
100
AcDbEntity
  8
隐藏线
100
AcDbLine
 10
99.0
 20
44.0
 30
0.0
 11
99.0
 21
44.13411626608489
 31
0.0
  0
LINE
  5
355
330
17
100
AcDbEntity
  8
隐藏线
100
AcDbLine
 10
99.0
 20
44.13411626608489
 30
0.0
 11
99.0
 21
44.26732142376123
 31
0.0
  0
LINE
  5
356
330
17
100
AcDbEntity
  8
隐藏线
100
AcDbLine
 10
99.0
 20
44.26732142376123
 30
0.0
 11
99.0
 21
44.39879294663808
 31
0.0
  0
LINE
  5
357
330
17
100
AcDbEntity
  8
隐藏线
100
AcDbLine
 10
99.0
 20
44.39879294663808
 30
0.0
 11
99.0
 21
44.527718303886125
 31
0.0
  0
LINE
  5
358
330
17
100
AcDbEntity
  8
隐藏线
100
AcDbLine
 10
99.0
 20
44.527718303886125
 30
0.0
 11
99.0
 21
44.65293661589733
 31
0.0
  0
LINE
  5
359
330
17
100
AcDbEntity
  8
隐藏线
100
AcDbLine
 10
99.0
 20
44.65293661589733
 30
0.0
 11
99.0
 21
44.77388225705557
 31
0.0
  0
LINE
  5
35A
330
17
100
AcDbEntity
  8
隐藏线
100
AcDbLine
 10
99.0
 20
44.77388225705557
 30
0.0
 11
99.0
 21
44.889809111493825
 31
0.0
  0
LINE
  5
35B
330
17
100
AcDbEntity
  8
隐藏线
100
AcDbLine
 10
99.0
 20
44.889809111493825
 30
0.0
 11
99.0
 21
45.0
 31
0.0
  0
LINE
  5
35C
330
17
100
AcDbEntity
  8
隐藏线
100
AcDbLine
 10
96.0
 20
42.35000000000001
 30
0.0
 11
97.5
 21
42.35000000000001
 31
0.0
  0
LINE
  5
35D
330
17
100
AcDbEntity
  8
隐藏线
100
AcDbLine
 10
97.5
 20
42.35000000000001
 30
0.0
 11
99.0
 21
42.35000000000001
 31
0.0
  0
LINE
  5
35E
330
17
100
AcDbEntity
  8
隐藏线
100
AcDbLine
 10
96.0
 20
42.35000000000001
 30
0.0
 11
96.0
 21
42.38362042209404
 31
0.0
  0
LINE
  5
35F
330
17
100
AcDbEntity
  8
隐藏线
100
AcDbLine
 10
96.0
 20
42.38362042209404
 30
0.0
 11
96.0
 21
42.4779969364761
 31
0.0
  0
LINE
  5
360
330
17
100
AcDbEntity
  8
隐藏线
100
AcDbLine
 10
96.0
 20
42.4779969364761
 30
0.0
 11
96.0
 21
42.629673316936945
 31
0.0
  0
LINE
  5
361
330
17
100
AcDbEntity
  8
隐藏线
100
AcDbLine
 10
96.0
 20
42.629673316936945
 30
0.0
 11
96.0
 21
42.833273811042204
 31
0.0
  0
LINE
  5
362
330
17
100
AcDbEntity
  8
隐藏线
100
AcDbLine
 10
96.0
 20
42.833273811042204
 30
0.0
 11
96.0
 21
43.084420762045546
 31
0.0
  0
LINE
  5
363
330
17
100
AcDbEntity
  8
隐藏线
100
AcDbLine
 10
96.0
 20
43.084420762045546
 30
0.0
 11
96.0
 21
43.36956568911501
 31
0.0
  0
LINE
  5
364
330
17
100
AcDbEntity
  8
隐藏线
100
AcDbLine
 10
96.0
 20
43.36956568911501
 30
0.0
 11
96.0
 21
43.67844499783645
 31
0.0
  0
LINE
  5
365
330
17
100
AcDbEntity
  8
隐藏线
100
AcDbLine
 10
96.0
 20
43.67844499783645
 30
0.0
 11
96.0
 21
44.0
 31
0.0
  0
LINE
  5
366
330
17
100
AcDbEntity
  8
隐藏线
100
AcDbLine
 10
96.0
 20
44.0
 30
0.0
 11
96.0
 21
44.13411626608489
 31
0.0
  0
LINE
  5
367
330
17
100
AcDbEntity
  8
隐藏线
100
AcDbLine
 10
96.0
 20
44.13411626608489
 30
0.0
 11
96.0
 21
44.26732142376123
 31
0.0
  0
LINE
  5
368
330
17
100
AcDbEntity
  8
隐藏线
100
AcDbLine
 10
96.0
 20
44.26732142376123
 30
0.0
 11
96.0
 21
44.39879294663808
 31
0.0
  0
LINE
  5
369
330
17
100
AcDbEntity
  8
隐藏线
100
AcDbLine
 10
96.0
 20
44.39879294663808
 30
0.0
 11
96.0
 21
44.527718303886125
 31
0.0
  0
LINE
  5
36A
330
17
100
AcDbEntity
  8
隐藏线
100
AcDbLine
 10
96.0
 20
44.527718303886125
 30
0.0
 11
96.0
 21
44.65293661589733
 31
0.0
  0
LINE
  5
36B
330
17
100
AcDbEntity
  8
隐藏线
100
AcDbLine
 10
96.0
 20
44.65293661589733
 30
0.0
 11
96.0
 21
44.77388225705557
 31
0.0
  0
LINE
  5
36C
330
17
100
AcDbEntity
  8
隐藏线
100
AcDbLine
 10
96.0
 20
44.77388225705557
 30
0.0
 11
96.0
 21
44.889809111493825
 31
0.0
  0
LINE
  5
36D
330
17
100
AcDbEntity
  8
隐藏线
100
AcDbLine
 10
96.0
 20
44.889809111493825
 30
0.0
 11
96.0
 21
45.0
 31
0.0
  0
LINE
  5
36E
330
17
100
AcDbEntity
  8
隐藏线
100
AcDbLine
 10
96.0
 20
6.649999999999995
 30
0.0
 11
97.5
 21
6.649999999999995
 31
0.0
  0
LINE
  5
36F
330
17
100
AcDbEntity
  8
隐藏线
100
AcDbLine
 10
97.5
 20
6.649999999999995
 30
0.0
 11
99.0
 21
6.649999999999995
 31
0.0
  0
LINE
  5
370
330
17
100
AcDbEntity
  8
隐藏线
100
AcDbLine
 10
99.0
 20
3.349999999999998
 30
0.0
 11
99.0
 21
3.3836204220940296
 31
0.0
  0
LINE
  5
371
330
17
100
AcDbEntity
  8
隐藏线
100
AcDbLine
 10
99.0
 20
3.3836204220940296
 30
0.0
 11
99.0
 21
3.4779969364760994
 31
0.0
  0
LINE
  5
372
330
17
100
AcDbEntity
  8
隐藏线
100
AcDbLine
 10
99.0
 20
3.4779969364760994
 30
0.0
 11
99.0
 21
3.629673316936934
 31
0.0
  0
LINE
  5
373
330
17
100
AcDbEntity
  8
隐藏线
100
AcDbLine
 10
99.0
 20
3.629673316936934
 30
0.0
 11
99.0
 21
3.8332738110421936
 31
0.0
  0
LINE
  5
374
330
17
100
AcDbEntity
  8
隐藏线
100
AcDbLine
 10
99.0
 20
3.8332738110421936
 30
0.0
 11
99.0
 21
4.084420762045539
 31
0.0
  0
LINE
  5
375
330
17
100
AcDbEntity
  8
隐藏线
100
AcDbLine
 10
99.0
 20
4.084420762045539
 30
0.0
 11
99.0
 21
4.369565689114999
 31
0.0
  0
LINE
  5
376
330
17
100
AcDbEntity
  8
隐藏线
100
AcDbLine
 10
99.0
 20
4.369565689114999
 30
0.0
 11
99.0
 21
4.67844499783644
 31
0.0
  0
LINE
  5
377
330
17
100
AcDbEntity
  8
隐藏线
100
AcDbLine
 10
99.0
 20
4.67844499783644
 30
0.0
 11
99.0
 21
4.9999999999999964
 31
0.0
  0
LINE
  5
378
330
17
100
AcDbEntity
  8
隐藏线
100
AcDbLine
 10
99.0
 20
4.9999999999999964
 30
0.0
 11
99.0
 21
5.321555002163549
 31
0.0
  0
LINE
  5
379
330
17
100
AcDbEntity
  8
隐藏线
100
AcDbLine
 10
99.0
 20
5.321555002163549
 30
0.0
 11
99.0
 21
5.6304343108849935
 31
0.0
  0
LINE
  5
37A
330
17
100
AcDbEntity
  8
隐藏线
100
AcDbLine
 10
99.0
 20
5.6304343108849935
 30
0.0
 11
99.0
 21
5.915579237954454
 31
0.0
  0
LINE
  5
37B
330
17
100
AcDbEntity
  8
隐藏线
100
AcDbLine
 10
99.0
 20
5.915579237954454
 30
0.0
 11
99.0
 21
6.166726188957799
 31
0.0
  0
LINE
  5
37C
330
17
100
AcDbEntity
  8
隐藏线
100
AcDbLine
 10
99.0
 20
6.166726188957799
 30
0.0
 11
99.0
 21
6.370326683063059
 31
0.0
  0
LINE
  5
37D
330
17
100
AcDbEntity
  8
隐藏线
100
AcDbLine
 10
99.0
 20
6.370326683063059
 30
0.0
 11
99.0
 21
6.5220030635238935
 31
0.0
  0
LINE
  5
37E
330
17
100
AcDbEntity
  8
隐藏线
100
AcDbLine
 10
99.0
 20
6.5220030635238935
 30
0.0
 11
99.0
 21
6.616379577905963
 31
0.0
  0
LINE
  5
37F
330
17
100
AcDbEntity
  8
隐藏线
100
AcDbLine
 10
99.0
 20
6.616379577905963
 30
0.0
 11
99.0
 21
6.649999999999995
 31
0.0
  0
LINE
  5
380
330
17
100
AcDbEntity
  8
隐藏线
100
AcDbLine
 10
96.0
 20
3.349999999999998
 30
0.0
 11
97.5
 21
3.349999999999998
 31
0.0
  0
LINE
  5
381
330
17
100
AcDbEntity
  8
隐藏线
100
AcDbLine
 10
97.5
 20
3.349999999999998
 30
0.0
 11
99.0
 21
3.349999999999998
 31
0.0
  0
LINE
  5
382
330
17
100
AcDbEntity
  8
隐藏线
100
AcDbLine
 10
96.0
 20
3.349999999999998
 30
0.0
 11
96.0
 21
3.3836204220940296
 31
0.0
  0
LINE
  5
383
330
17
100
AcDbEntity
  8
隐藏线
100
AcDbLine
 10
96.0
 20
3.3836204220940296
 30
0.0
 11
96.0
 21
3.4779969364760994
 31
0.0
  0
LINE
  5
384
330
17
100
AcDbEntity
  8
隐藏线
100
AcDbLine
 10
96.0
 20
3.4779969364760994
 30
0.0
 11
96.0
 21
3.629673316936934
 31
0.0
  0
LINE
  5
385
330
17
100
AcDbEntity
  8
隐藏线
100
AcDbLine
 10
96.0
 20
3.629673316936934
 30
0.0
 11
96.0
 21
3.8332738110421936
 31
0.0
  0
LINE
  5
386
330
17
100
AcDbEntity
  8
隐藏线
100
AcDbLine
 10
96.0
 20
3.8332738110421936
 30
0.0
 11
96.0
 21
4.084420762045539
 31
0.0
  0
LINE
  5
387
330
17
100
AcDbEntity
  8
隐藏线
100
AcDbLine
 10
96.0
 20
4.084420762045539
 30
0.0
 11
96.0
 21
4.369565689114999
 31
0.0
  0
LINE
  5
388
330
17
100
AcDbEntity
  8
隐藏线
100
AcDbLine
 10
96.0
 20
4.369565689114999
 30
0.0
 11
96.0
 21
4.67844499783644
 31
0.0
  0
LINE
  5
389
330
17
100
AcDbEntity
  8
隐藏线
100
AcDbLine
 10
96.0
 20
4.67844499783644
 30
0.0
 11
96.0
 21
4.9999999999999964
 31
0.0
  0
LINE
  5
38A
330
17
100
AcDbEntity
  8
隐藏线
100
AcDbLine
 10
96.0
 20
4.9999999999999964
 30
0.0
 11
96.0
 21
5.321555002163549
 31
0.0
  0
LINE
  5
38B
330
17
100
AcDbEntity
  8
隐藏线
100
AcDbLine
 10
96.0
 20
5.321555002163549
 30
0.0
 11
96.0
 21
5.6304343108849935
 31
0.0
  0
LINE
  5
38C
330
17
100
AcDbEntity
  8
隐藏线
100
AcDbLine
 10
96.0
 20
5.6304343108849935
 30
0.0
 11
96.0
 21
5.915579237954454
 31
0.0
  0
LINE
  5
38D
330
17
100
AcDbEntity
  8
隐藏线
100
AcDbLine
 10
96.0
 20
5.915579237954454
 30
0.0
 11
96.0
 21
6.166726188957799
 31
0.0
  0
LINE
  5
38E
330
17
100
AcDbEntity
  8
隐藏线
100
AcDbLine
 10
96.0
 20
6.166726188957799
 30
0.0
 11
96.0
 21
6.370326683063059
 31
0.0
  0
LINE
  5
38F
330
17
100
AcDbEntity
  8
隐藏线
100
AcDbLine
 10
96.0
 20
6.370326683063059
 30
0.0
 11
96.0
 21
6.5220030635238935
 31
0.0
  0
LINE
  5
390
330
17
100
AcDbEntity
  8
隐藏线
100
AcDbLine
 10
96.0
 20
6.5220030635238935
 30
0.0
 11
96.0
 21
6.616379577905963
 31
0.0
  0
LINE
  5
391
330
17
100
AcDbEntity
  8
隐藏线
100
AcDbLine
 10
96.0
 20
6.616379577905963
 30
0.0
 11
96.0
 21
6.649999999999995
 31
0.0
  0
LINE
  5
392
330
17
100
AcDbEntity
  8
隐藏线
100
AcDbLine
 10
99.0
 20
3.3500000000000014
 30
0.0
 11
99.0
 21
3.383620422094033
 31
0.0
  0
LINE
  5
393
330
17
100
AcDbEntity
  8
隐藏线
100
AcDbLine
 10
96.0
 20
3.3500000000000014
 30
0.0
 11
97.5
 21
3.3500000000000014
 31
0.0
  0
LINE
  5
394
330
17
100
AcDbEntity
  8
隐藏线
100
AcDbLine
 10
97.5
 20
3.3500000000000014
 30
0.0
 11
99.0
 21
3.3500000000000014
 31
0.0
  0
LINE
  5
395
330
17
100
AcDbEntity
  8
隐藏线
100
AcDbLine
 10
96.0
 20
3.3500000000000014
 30
0.0
 11
96.0
 21
3.383620422094033
 31
0.0
  0
LINE
  5
396
330
17
100
AcDbEntity
  8
隐藏线
100
AcDbLine
 10
116.0
 20
43.0
 30
0.0
 11
116.0
 21
42.22047272202774
 31
0.0
  0
LINE
  5
397
330
17
100
AcDbEntity
  8
隐藏线
100
AcDbLine
 10
116.0
 20
42.22047272202774
 30
0.0
 11
116.0
 21
41.47167439785454
 31
0.0
  0
LINE
  5
398
330
17
100
AcDbEntity
  8
隐藏线
100
AcDbLine
 10
116.0
 20
41.47167439785454
 30
0.0
 11
116.0
 21
40.780413968595255
 31
0.0
  0
LINE
  5
399
330
17
100
AcDbEntity
  8
隐藏线
100
AcDbLine
 10
116.0
 20
40.780413968595255
 30
0.0
 11
116.0
 21
40.17157287525381
 31
0.0
  0
LINE
  5
39A
330
17
100
AcDbEntity
  8
隐藏线
100
AcDbLine
 10
116.0
 20
40.17157287525381
 30
0.0
 11
116.0
 21
39.67799591984712
 31
0.0
  0
LINE
  5
39B
330
17
100
AcDbEntity
  8
隐藏线
100
AcDbLine
 10
116.0
 20
39.67799591984712
 30
0.0
 11
116.0
 21
39.310295603578425
 31
0.0
  0
LINE
  5
39C
330
17
100
AcDbEntity
  8
隐藏线
100
AcDbLine
 10
116.0
 20
39.310295603578425
 30
0.0
 11
116.0
 21
39.08150405356129
 31
0.0
  0
LINE
  5
39D
330
17
100
AcDbEntity
  8
隐藏线
100
AcDbLine
 10
116.0
 20
39.08150405356129
 30
0.0
 11
116.0
 21
39.0
 31
0.0
  0
LINE
  5
39E
330
17
100
AcDbEntity
  8
隐藏线
100
AcDbLine
 10
99.0
 20
43.0
 30
0.0
 11
99.0
 21
42.22047272202775
 31
0.0
  0
LINE
  5
39F
330
17
100
AcDbEntity
  8
隐藏线
100
AcDbLine
 10
99.0
 20
42.22047272202775
 30
0.0
 11
99.0
 21
41.47167439785454
 31
0.0
  0
LINE
  5
3A0
330
17
100
AcDbEntity
  8
隐藏线
100
AcDbLine
 10
99.0
 20
41.47167439785454
 30
0.0
 11
99.0
 21
40.780413968595255
 31
0.0
  0
LINE
  5
3A1
330
17
100
AcDbEntity
  8
隐藏线
100
AcDbLine
 10
99.0
 20
40.780413968595255
 30
0.0
 11
99.0
 21
40.17157287525381
 31
0.0
  0
LINE
  5
3A2
330
17
100
AcDbEntity
  8
隐藏线
100
AcDbLine
 10
99.0
 20
40.17157287525381
 30
0.0
 11
99.0
 21
39.67799591984712
 31
0.0
  0
LINE
  5
3A3
330
17
100
AcDbEntity
  8
隐藏线
100
AcDbLine
 10
99.0
 20
39.67799591984712
 30
0.0
 11
99.0
 21
39.310295603578425
 31
0.0
  0
LINE
  5
3A4
330
17
100
AcDbEntity
  8
隐藏线
100
AcDbLine
 10
99.0
 20
39.310295603578425
 30
0.0
 11
99.0
 21
39.08150405356129
 31
0.0
  0
LINE
  5
3A5
330
17
100
AcDbEntity
  8
隐藏线
100
AcDbLine
 10
99.0
 20
39.08150405356129
 30
0.0
 11
99.0
 21
39.0
 31
0.0
  0
LINE
  5
3A6
330
17
100
AcDbEntity
  8
隐藏线
100
AcDbLine
 10
116.0
 20
45.0
 30
0.0
 11
116.0
 21
44.0
 31
0.0
  0
LINE
  5
3A7
330
17
100
AcDbEntity
  8
隐藏线
100
AcDbLine
 10
116.0
 20
44.0
 30
0.0
 11
116.0
 21
43.0
 31
0.0
  0
LINE
  5
3A8
330
17
100
AcDbEntity
  8
隐藏线
100
AcDbLine
 10
96.0
 20
45.650000000000006
 30
0.0
 11
96.0
 21
45.57117506516717
 31
0.0
  0
LINE
  5
3A9
330
17
100
AcDbEntity
  8
隐藏线
100
AcDbLine
 10
96.0
 20
45.57117506516717
 30
0.0
 11
96.0
 21
45.49139868192256
 31
0.0
  0
LINE
  5
3AA
330
17
100
AcDbEntity
  8
隐藏线
100
AcDbLine
 10
96.0
 20
45.49139868192256
 30
0.0
 11
96.0
 21
45.41079830242208
 31
0.0
  0
LINE
  5
3AB
330
17
100
AcDbEntity
  8
隐藏线
100
AcDbLine
 10
96.0
 20
45.41079830242208
 30
0.0
 11
96.0
 21
45.329502607064384
 31
0.0
  0
LINE
  5
3AC
330
17
100
AcDbEntity
  8
隐藏线
100
AcDbLine
 10
96.0
 20
45.329502607064384
 30
0.0
 11
96.0
 21
45.24760836692535
 31
0.0
  0
LINE
  5
3AD
330
17
100
AcDbEntity
  8
隐藏线
100
AcDbLine
 10
96.0
 20
45.24760836692535
 30
0.0
 11
96.0
 21
45.165305478141356
 31
0.0
  0
LINE
  5
3AE
330
17
100
AcDbEntity
  8
隐藏线
100
AcDbLine
 10
96.0
 20
45.165305478141356
 30
0.0
 11
96.0
 21
45.082725398758214
 31
0.0
  0
LINE
  5
3AF
330
17
100
AcDbEntity
  8
隐藏线
100
AcDbLine
 10
96.0
 20
45.082725398758214
 30
0.0
 11
96.0
 21
45.0
 31
0.0
  0
LINE
  5
3B0
330
17
100
AcDbEntity
  8
隐藏线
100
AcDbLine
 10
96.0
 20
2.039201069299942
 30
0.0
 11
96.0
 21
2.01021827765123
 31
0.0
  0
LINE
  5
3B1
330
17
100
AcDbEntity
  8
隐藏线
100
AcDbLine
 10
99.0
 20
45.0
 30
0.0
 11
99.0
 21
44.0
 31
0.0
  0
LINE
  5
3B2
330
17
100
AcDbEntity
  8
隐藏线
100
AcDbLine
 10
99.0
 20
44.0
 30
0.0
 11
99.0
 21
43.0
 31
0.0
  0
LINE
  5
3B3
330
17
100
AcDbEntity
  8
隐藏线
100
AcDbLine
 10
99.0
 20
45.0
 30
0.0
 11
99.0
 21
45.082725398758214
 31
0.0
  0
LINE
  5
3B4
330
17
100
AcDbEntity
  8
隐藏线
100
AcDbLine
 10
99.0
 20
45.082725398758214
 30
0.0
 11
99.0
 21
45.165305478141356
 31
0.0
  0
LINE
  5
3B5
330
17
100
AcDbEntity
  8
隐藏线
100
AcDbLine
 10
99.0
 20
45.165305478141356
 30
0.0
 11
99.0
 21
45.24760836692535
 31
0.0
  0
LINE
  5
3B6
330
17
100
AcDbEntity
  8
隐藏线
100
AcDbLine
 10
99.0
 20
45.24760836692535
 30
0.0
 11
99.0
 21
45.329502607064384
 31
0.0
  0
LINE
  5
3B7
330
17
100
AcDbEntity
  8
隐藏线
100
AcDbLine
 10
99.0
 20
45.329502607064384
 30
0.0
 11
99.0
 21
45.41079830242208
 31
0.0
  0
LINE
  5
3B8
330
17
100
AcDbEntity
  8
隐藏线
100
AcDbLine
 10
99.0
 20
45.41079830242208
 30
0.0
 11
99.0
 21
45.49139868192256
 31
0.0
  0
LINE
  5
3B9
330
17
100
AcDbEntity
  8
隐藏线
100
AcDbLine
 10
99.0
 20
45.49139868192256
 30
0.0
 11
99.0
 21
45.57117506516717
 31
0.0
  0
LINE
  5
3BA
330
17
100
AcDbEntity
  8
隐藏线
100
AcDbLine
 10
99.0
 20
45.57117506516717
 30
0.0
 11
99.0
 21
45.650000000000006
 31
0.0
  0
LINE
  5
3BB
330
17
100
AcDbEntity
  8
隐藏线
100
AcDbLine
 10
99.0
 20
7.0
 30
0.0
 11
99.0
 21
9.999999999999998
 31
0.0
  0
LINE
  5
3BC
330
17
100
AcDbEntity
  8
隐藏线
100
AcDbLine
 10
99.0
 20
2.0
 30
0.0
 11
99.0
 21
2.01021827765123
 31
0.0
  0
LINE
  5
3BD
330
17
100
AcDbEntity
  8
隐藏线
100
AcDbLine
 10
99.0
 20
9.999999999999996
 30
0.0
 11
99.0
 21
10.010218277651225
 31
0.0
  0
LINE
  5
3BE
330
17
100
AcDbEntity
  8
隐藏线
100
AcDbLine
 10
99.0
 20
10.039201069299937
 30
0.0
 11
99.0
 21
10.086682351928163
 31
0.0
  0
LINE
  5
3BF
330
17
100
AcDbEntity
  8
隐藏线
100
AcDbLine
 10
99.0
 20
10.086682351928163
 30
0.0
 11
99.0
 21
10.152240934977423
 31
0.0
  0
LINE
  5
3C0
330
17
100
AcDbEntity
  8
隐藏线
100
AcDbLine
 10
99.0
 20
10.152240934977423
 30
0.0
 11
99.0
 21
10.236680433185658
 31
0.0
  0
LINE
  5
3C1
330
17
100
AcDbEntity
  8
隐藏线
100
AcDbLine
 10
99.0
 20
10.236680433185658
 30
0.0
 11
99.0
 21
10.337714931812455
 31
0.0
  0
LINE
  5
3C2
330
17
100
AcDbEntity
  8
隐藏线
100
AcDbLine
 10
99.0
 20
10.337714931812455
 30
0.0
 11
99.0
 21
10.454431693856373
 31
0.0
  0
LINE
  5
3C3
330
17
100
AcDbEntity
  8
隐藏线
100
AcDbLine
 10
99.0
 20
10.454431693856373
 30
0.0
 11
99.0
 21
10.585786437626906
 31
0.0
  0
LINE
  5
3C4
330
17
100
AcDbEntity
  8
隐藏线
100
AcDbLine
 10
99.0
 20
39.0
 30
0.0
 11
107.5
 21
39.0
 31
0.0
  0
LINE
  5
3C5
330
17
100
AcDbEntity
  8
隐藏线
100
AcDbLine
 10
107.5
 20
39.0
 30
0.0
 11
116.0
 21
39.0
 31
0.0
  0
ENDSEC
  0
SECTION
  2
OBJECTS
  0
DICTIONARY
  5
A
330
0
100
AcDbDictionary
281
1
  3
ACAD_COLOR
350
B
  3
ACAD_GROUP
350
C
  3
ACAD_LAYOUT
350
D
  3
ACAD_MATERIAL
350
E
  3
ACAD_MLEADERSTYLE
350
F
  3
ACAD_MLINESTYLE
350
10
  3
ACAD_PLOTSETTINGS
350
11
  3
ACAD_PLOTSTYLENAME
350
12
  3
ACAD_SCALELIST
350
14
  3
ACAD_TABLESTYLE
350
15
  3
ACAD_VISUALSTYLE
350
16
  3
EZDXF_META
350
2D
  0
DICTIONARY
  5
B
330
A
100
AcDbDictionary
281
1
  0
DICTIONARY
  5
C
330
A
100
AcDbDictionary
281
1
  0
DICTIONARY
  5
D
330
A
100
AcDbDictionary
281
1
  3
Model
350
1A
  3
Layout1
350
1E
  0
DICTIONARY
  5
E
330
A
100
AcDbDictionary
281
1
  3
ByBlock
350
1F
  3
ByLayer
350
20
  3
Global
350
21
  0
DICTIONARY
  5
F
330
A
100
AcDbDictionary
281
1
  3
Standard
350
2C
  0
DICTIONARY
  5
10
330
A
100
AcDbDictionary
281
1
  3
Standard
350
22
  0
DICTIONARY
  5
11
330
A
100
AcDbDictionary
281
1
  0
ACDBDICTIONARYWDFLT
  5
12
330
A
100
AcDbDictionary
281
1
  3
Normal
350
13
100
AcDbDictionaryWithDefault
340
13
  0
ACDBPLACEHOLDER
  5
13
330
12
  0
DICTIONARY
  5
14
330
A
100
AcDbDictionary
281
1
  0
DICTIONARY
  5
15
330
A
100
AcDbDictionary
281
1
  0
DICTIONARY
  5
16
330
A
100
AcDbDictionary
281
1
  0
LAYOUT
  5
1A
330
D
100
AcDbPlotSettings
  1

  4
A3
  6

 40
7.5
 41
20.0
 42
7.5
 43
20.0
 44
420.0
 45
297.0
 46
0.0
 47
0.0
 48
0.0
 49
0.0
140
0.0
141
0.0
142
1.0
143
1.0
 70
1024
 72
1
 73
0
 74
5
  7

 75
16
 76
0
 77
2
 78
300
147
1.0
148
0.0
149
0.0
100
AcDbLayout
  1
Model
 70
1
 71
0
 10
0.0
 20
0.0
 11
420.0
 21
297.0
 12
0.0
 22
0.0
 32
0.0
 14
1e+20
 24
1e+20
 34
1e+20
 15
-1e+20
 25
-1e+20
 35
-1e+20
146
0.0
 13
0.0
 23
0.0
 33
0.0
 16
1.0
 26
0.0
 36
0.0
 17
0.0
 27
1.0
 37
0.0
 76
1
330
17
  0
LAYOUT
  5
1E
330
D
100
AcDbPlotSettings
  1

  4
A3
  6

 40
7.5
 41
20.0
 42
7.5
 43
20.0
 44
420.0
 45
297.0
 46
0.0
 47
0.0
 48
0.0
 49
0.0
140
0.0
141
0.0
142
1.0
143
1.0
 70
0
 72
1
 73
0
 74
5
  7

 75
16
 76
0
 77
2
 78
300
147
1.0
148
0.0
149
0.0
100
AcDbLayout
  1
Layout1
 70
1
 71
1
 10
0.0
 20
0.0
 11
420.0
 21
297.0
 12
0.0
 22
0.0
 32
0.0
 14
1e+20
 24
1e+20
 34
1e+20
 15
-1e+20
 25
-1e+20
 35
-1e+20
146
0.0
 13
0.0
 23
0.0
 33
0.0
 16
1.0
 26
0.0
 36
0.0
 17
0.0
 27
1.0
 37
0.0
 76
1
330
1B
  0
MATERIAL
  5
1F
102
{ACAD_REACTORS
330
E
102
}
330
E
100
AcDbMaterial
  1
ByBlock
  2

 70
0
 40
1.0
 71
1
 41
1.0
 91
-1023410177
 42
1.0
 72
1
  3

 73
1
 74
1
 75
1
 44
0.5
 73
0
 45
1.0
 46
1.0
 77
1
  4

 78
1
 79
1
170
1
 48
1.0
171
1
  6

172
1
173
1
174
1
140
1.0
141
1.0
175
1
  7

176
1
177
1
178
1
143
1.0
179
1
  8

270
1
271
1
272
1
145
1.0
146
1.0
273
1
  9

274
1
275
1
276
1
 42
1.0
 72
1
  3

 73
1
 74
1
 75
1
 94
63
  0
MATERIAL
  5
20
102
{ACAD_REACTORS
330
E
102
}
330
E
100
AcDbMaterial
  1
ByLayer
  2

 70
0
 40
1.0
 71
1
 41
1.0
 91
-1023410177
 42
1.0
 72
1
  3

 73
1
 74
1
 75
1
 44
0.5
 73
0
 45
1.0
 46
1.0
 77
1
  4

 78
1
 79
1
170
1
 48
1.0
171
1
  6

172
1
173
1
174
1
140
1.0
141
1.0
175
1
  7

176
1
177
1
178
1
143
1.0
179
1
  8

270
1
271
1
272
1
145
1.0
146
1.0
273
1
  9

274
1
275
1
276
1
 42
1.0
 72
1
  3

 73
1
 74
1
 75
1
 94
63
  0
MATERIAL
  5
21
102
{ACAD_REACTORS
330
E
102
}
330
E
100
AcDbMaterial
  1
Global
  2

 70
0
 40
1.0
 71
1
 41
1.0
 91
-1023410177
 42
1.0
 72
1
  3

 73
1
 74
1
 75
1
 44
0.5
 73
0
 45
1.0
 46
1.0
 77
1
  4

 78
1
 79
1
170
1
 48
1.0
171
1
  6

172
1
173
1
174
1
140
1.0
141
1.0
175
1
  7

176
1
177
1
178
1
143
1.0
179
1
  8

270
1
271
1
272
1
145
1.0
146
1.0
273
1
  9

274
1
275
1
276
1
 42
1.0
 72
1
  3

 73
1
 74
1
 75
1
 94
63
  0
MLINESTYLE
  5
22
102
{ACAD_REACTORS
330
10
102
}
330
10
100
AcDbMlineStyle
  2
Standard
 70
0
  3

 62
256
 51
90.0
 52
90.0
 71
2
 49
0.5
 62
256
  6
BYLAYER
 49
-0.5
 62
256
  6
BYLAYER
  0
MLEADERSTYLE
  5
2C
102
{ACAD_REACTORS
330
F
102
}
330
F
100
AcDbMLeaderStyle
179
2
170
2
171
1
172
0
 90
2
 40
0.0
 41
0.0
173
1
 91
-1056964608
 92
-2
290
1
 42
2.0
291
1
 43
8.0
  3
Standard
 44
4.0
300

342
29
174
1
175
1
176
0
178
1
 93
-1056964608
 45
4.0
292
0
297
0
 46
4.0
 94
-1056964608
 47
1.0
 49
1.0
140
1.0
294
1
141
0.0
177
0
142
1.0
295
0
296
0
143
3.75
271
0
272
9
273
9
  0
DICTIONARY
  5
2D
330
A
100
AcDbDictionary
280
1
281
1
  3
CREATED_BY_EZDXF
350
2E
  3
WRITTEN_BY_EZDXF
350
3C8
  0
DICTIONARYVAR
  5
2E
330
2D
100
DictionaryVariables
280
0
  1
1.4.2 @ 2026-10-01T11:29:19.444864+00:00
  0
DICTIONARYVAR
  5
3C8
330
2D
100
DictionaryVariables
280
0
  1
1.4.2 @ 2026-10-01T11:29:19.463813+00:00
  0
ENDSEC
  0
EOF
