999
LibreDWG 
  0
SECTION
  2
HEADER
  9
$ACADVER
  1
AC1032
  9
$ACADMAINTVER
 90
        0
  9
$DWGCODEPAGE
  3
ANSI_936
  9
$LASTSAVEDBY
  1
yaoshuo
  9
$REQUIREDVERSIONS
160
           0
  9
$INSBASE
 10
0.0
 20
0.0
 30
0.0
  9
$EXTMIN
 10
15.0
 20
5.0
 30
-1.549976604602952E-12
  9
$EXTMAX
 10
221.8445709489346
 20
292.0
 30
0.0
  9
$LIMMIN
 10
0.0
 20
0.0
  9
$LIMMAX
 10
210.0
 20
297.0
  9
$ORTHOMODE
 70
     0
  9
$REGENMODE
 70
     1
  9
$FILLMODE
 70
     1
  9
$QTEXTMODE
 70
     0
  9
$MIRRTEXT
 70
     1
  9
$LTSCALE
 40
1.0
  9
$ATTMODE
 70
     1
  9
$TEXTSIZE
 40
3.5
  9
$TRACEWID
 40
1.0
  9
$TEXTSTYLE
  7
Standard
  9
$CLAYER
  8
0
  9
$CELTYPE
  6
ByLayer
  9
$CECOLOR
 62
     0
  9
$CELTSCALE
 40
1.0
  9
$DISPSILH
 70
     0
  9
$DIMSCALE
 40
1.0
  9
$DIMASZ
 40
3.556
  9
$DIMEXO
 40
1.0
  9
$DIMDLI
 40
3.75
  9
$DIMRND
 40
0.0
  9
$DIMDLE
 40
0.0
  9
$DIMEXE
 40
1.0
  9
$DIMTP
 40
0.0
  9
$DIMTM
 40
0.0
  9
$DIMTXT
 40
3.5
  9
$DIMCEN
 40
2.5
  9
$DIMTSZ
 40
0.0
  9
$DIMTOL
 70
     0
  9
$DIMLIM
 70
     0
  9
$DIMTIH
 70
     1
  9
$DIMTOH
 70
     1
  9
$DIMSE1
 70
     0
  9
$DIMSE2
 70
     0
  9
$DIMTAD
 70
     1
  9
$DIMZIN
 70
     1
  9
$DIMBLK
  1

  9
$DIMASO
 70
     1
  9
$DIMSHO
 70
     1
  9
$DIMPOST
  1

  9
$DIMAPOST
  1

  9
$DIMALT
 70
     0
  9
$DIMALTD
 70
     3
  9
$DIMALTF
 40
0.03937007874015748
  9
$DIMLFAC
 40
2.0
  9
$DIMTOFL
 70
     1
  9
$DIMTVP
 40
0.0
  9
$DIMTIX
 70
     0
  9
$DIMSOXD
 70
     0
  9
$DIMSAH
 70
     0
  9
$DIMBLK1
  1

  9
$DIMBLK2
  1

  9
$DIMSTYLE
  2
ISO-25
  9
$DIMCLRD
 70
     0
  9
$DIMCLRE
 70
     0
  9
$DIMCLRT
 70
     0
  9
$DIMTFAC
 40
1.0
  9
$DIMGAP
 40
1.524
  9
$DIMJUST
 70
     0
  9
$DIMSD1
 70
     0
  9
$DIMSD2
 70
     0
  9
$DIMTOLJ
 70
     0
  9
$DIMTZIN
 70
     1
  9
$DIMALTZ
 70
     0
  9
$DIMALTTZ
 70
     0
  9
$DIMUPT
 70
     0
  9
$DIMDEC
 70
     2
  9
$DIMTDEC
 70
     2
  9
$DIMALTU
 70
     2
  9
$DIMALTTD
 70
     3
  9
$DIMTXSTY
  7
Standard
  9
$DIMAUNIT
 70
     0
  9
$DIMADEC
 70
     2
  9
$DIMALTRND
 40
0.0
  9
$DIMAZIN
 70
     0
  9
$DIMDSEP
 70
    44
  9
$DIMATFIT
 70
     3
  9
$DIMFRAC
 70
     0
  9
$DIMLDRBLK
  1

  9
$DIMLUNIT
 70
     2
  9
$DIMLWD
 70
    -2
  9
$DIMLWE
 70
    -2
  9
$DIMTMOVE
 70
     0
  9
$DIMFXL
 40
1.0
  9
$DIMFXLON
 70
     0
  9
$DIMJOGANG
 40
0.7853981633974483
  9
$DIMTFILL
 70
     0
  9
$DIMTFILLCLR
 70
     0
  9
$DIMARCSYM
 70
     0
  9
$DIMLTYPE
  6

  9
$DIMLTEX1
  6

  9
$DIMLTEX2
  6

  9
$DIMTXTDIRECTION
 70
     0
  9
$LUNITS
 70
     2
  9
$LUPREC
 70
     2
  9
$AXISMODE
 70
     0
  9
$AXISUNIT
 10
0.0
 20
0.0
  9
$SKETCHINC
 40
1.0
  9
$FILLETRAD
 40
0.0
  9
$AUNITS
 70
     0
  9
$AUPREC
 70
     2
  9
$MENU
  1
.
  9
$ELEVATION
 40
0.0
  9
$PELEVATION
 40
0.0
  9
$THICKNESS
 40
0.0
  9
$LIMCHECK
 70
     0
  9
$CHAMFERA
 40
0.0
  9
$CHAMFERB
 40
0.0
  9
$CHAMFERC
 40
0.0
  9
$CHAMFERD
 40
0.0
  9
$SKPOLY
 70
     0
  9
$TDCREATE
 40
2461217.802250940
  9
$TDUCREATE
 40
2461217.514250940
  9
$TDUPDATE
 40
2461217.802490000
  9
$TDUUPDATE
 40
2461217.514490000
  9
$TDINDWG
 40
0.000110010
  9
$TDUSRTIMER
 40
0.000110010
  9
$USRTIMER
 70
     1
  9
$ANGBASE
 50
0.0
  9
$ANGDIR
 70
     0
  9
$PDMODE
 70
     0
  9
$PDSIZE
 40
-1.0
  9
$PLINEWID
 40
0.0
  9
$SPLFRAME
 70
     0
  9
$SPLINETYPE
 70
     6
  9
$SPLINESEGS
 70
     8
  9
$HANDSEED
  5
1F1
  9
$SURFTAB1
 70
     6
  9
$SURFTAB2
 70
     6
  9
$SURFTYPE
 70
     6
  9
$SURFU
 70
     6
  9
$SURFV
 70
     6
  9
$UCSBASE
  2

  9
$UCSORG
 10
0.0
 20
0.0
 30
0.0
  9
$UCSXDIR
 10
1.0
 20
0.0
 30
0.0
  9
$UCSYDIR
 10
0.0
 20
1.0
 30
0.0
  9
$UCSORTHOREF
  2

  9
$UCSORTHOVIEW
 70
     0
  9
$UCSORGTOP
 10
0.0
 20
0.0
 30
0.0
  9
$UCSORGBOTTOM
 10
0.0
 20
0.0
 30
0.0
  9
$UCSORGLEFT
 10
0.0
 20
0.0
 30
0.0
  9
$UCSORGRIGHT
 10
0.0
 20
0.0
 30
0.0
  9
$UCSORGFRONT
 10
0.0
 20
0.0
 30
0.0
  9
$UCSORGBACK
 10
0.0
 20
0.0
 30
0.0
  9
$PUCSBASE
  2

  9
$PUCSORG
 10
0.0
 20
0.0
 30
0.0
  9
$PUCSXDIR
 10
1.0
 20
0.0
 30
0.0
  9
$PUCSYDIR
 10
0.0
 20
1.0
 30
0.0
  9
$PUCSORTHOREF
  2

  9
$PUCSORTHOVIEW
 70
     0
  9
$PUCSORGTOP
 10
0.0
 20
0.0
 30
0.0
  9
$PUCSORGBOTTOM
 10
0.0
 20
0.0
 30
0.0
  9
$PUCSORGLEFT
 10
0.0
 20
0.0
 30
0.0
  9
$PUCSORGRIGHT
 10
0.0
 20
0.0
 30
0.0
  9
$PUCSORGFRONT
 10
0.0
 20
0.0
 30
0.0
  9
$PUCSORGBACK
 10
0.0
 20
0.0
 30
0.0
  9
$USERI1
 70
     0
  9
$USERI2
 70
     0
  9
$USERI3
 70
     0
  9
$USERI4
 70
     0
  9
$USERI5
 70
     0
  9
$USERR1
 40
0.0
  9
$USERR2
 40
0.0
  9
$USERR3
 40
0.0
  9
$USERR4
 40
0.0
  9
$USERR5
 40
0.0
  9
$WORLDVIEW
 70
     1
  9
$SHADEDGE
 70
     3
  9
$SHADEDIF
 70
    70
  9
$TILEMODE
 70
     1
  9
$MAXACTVP
 70
    64
  9
$PINSBASE
 10
0.0
 20
0.0
 30
0.0
  9
$PLIMCHECK
 70
     0
  9
$PEXTMIN
 10
1E+20
 20
1E+20
 30
1E+20
  9
$PEXTMAX
 10
-1E+20
 20
-1E+20
 30
-1E+20
  9
$PLIMMIN
 10
0.0
 20
0.0
  9
$PLIMMAX
 10
420.0
 20
297.0
  9
$UNITMODE
 70
     0
  9
$VISRETAIN
 70
     1
  9
$PLINEGEN
 70
     0
  9
$PSLTSCALE
 70
     1
  9
$TREEDEPTH
 70
  3020
  9
$CMLSTYLE
  2
S
  9
$CMLJUST
 70
     0
  9
$CMLSCALE
 40
20.0
  9
$PROXYGRAPHICS
 70
     1
  9
$MEASUREMENT
 70
     1
  9
$CELWEIGHT
370
    -1
  9
$ENDCAPS
280
     0
  9
$JOINSTYLE
280
     0
  9
$LWDISPLAY
290
     1
  9
$INSUNITS
 70
     4
  9
$HYPERLINKBASE
  1

  9
$STYLESHEET
  1

  9
$XEDIT
290
     1
  9
$CEPSNTYPE
380
     0
  9
$PSTYLEMODE
290
     1
  9
$FINGERPRINTGUID
  2
{7fe0f5c9-085f-4283-bae8-a6c1b058a82e}
  9
$VERSIONGUID
  2
{25CDD5BA-074C-8C47-B9A3-BD28536C3BD1}
  9
$EXTNAMES
290
     1
  9
$PSVPSCALE
 40
0.0
  9
$OLESTARTUP
290
     0
  9
$SORTENTS
280
   127
  9
$INDEXCTL
280
     0
  9
$HIDETEXT
280
     0
  9
$XCLIPFRAME
280
     2
  9
$HALOGAP
280
     0
  9
$OBSCOLOR
 70
   257
  9
$OBSLTYPE
280
     0
  9
$INTERSECTIONDISPLAY
280
     0
  9
$INTERSECTIONCOLOR
 70
   257
  9
$DIMASSOC
280
     1
  9
$PROJECTNAME
  1

  9
$CAMERADISPLAY
290
     0
  9
$LENSLENGTH
 40
50.0
  9
$CAMERAHEIGHT
 40
0.0
  9
$STEPSPERSEC
 40
2.0
  9
$STEPSIZE
 40
6.0
  9
$3DDWFPREC
 40
2.0
  9
$PSOLWIDTH
 40
0.25
  9
$PSOLHEIGHT
 40
4.0
  9
$LOFTANG1
 40
1.570796326794897
  9
$LOFTANG2
 40
1.570796326794897
  9
$LOFTMAG1
 40
0.0
  9
$LOFTMAG2
 40
0.0
  9
$LOFTPARAM
 70
     7
  9
$LOFTNORMALS
280
     1
  9
$LATITUDE
 40
37.795
  9
$LONGITUDE
 40
-122.394
  9
$NORTHDIRECTION
 40
0.0
  9
$TIMEZONE
 70
 -8000
  9
$LIGHTGLYPHDISPLAY
280
     1
  9
$TILEMODELIGHTSYNCH
280
     1
  9
$CMATERIAL
347
187
  9
$SOLIDHIST
280
     0
  9
$SHOWHIST
280
     1
  9
$DWFFRAME
280
     2
  9
$DGNFRAME
280
     0
  9
$REALWORLDSCALE
290
     1
  9
$INTERFERECOLOR
 62
   256
  9
$CSHADOW
280
     0
  9
$SHADOWPLANELOCATION
 40
0.0
  0
ENDSEC
  0
SECTION
  2
CLASSES
  0
CLASS
  1
ACDBDICTIONARYWDFLT
  2
AcDbDictionaryWithDefault
  3
ObjectDBX Classes
 90
        0
 91
        1
280
     0
281
     0
  0
CLASS
  1
VISUALSTYLE
  2
AcDbVisualStyle
  3
ObjectDBX Classes
 90
     4095
 91
       24
280
     0
281
     0
  0
CLASS
  1
MATERIAL
  2
AcDbMaterial
  3
ObjectDBX Classes
 90
     1153
 91
        3
280
     0
281
     0
  0
CLASS
  1
SCALE
  2
AcDbScale
  3
ObjectDBX Classes
 90
     1153
 91
       17
280
     0
281
     0
  0
CLASS
  1
TABLESTYLE
  2
AcDbTableStyle
  3
ObjectDBX Classes
 90
     4095
 91
        1
280
     0
281
     0
  0
CLASS
  1
MLEADERSTYLE
  2
AcDbMLeaderStyle
  3
ACDB_MLEADERSTYLE_CLASS
 90
     4095
 91
        1
280
     0
281
     0
  0
CLASS
  1
SUN
  2
AcDbSun
  3
SCENEOE
 90
        0
 91
  1085511
280
     0
281
     0
  0
CLASS
  1
ACDBSECTIONVIEWSTYLE
  2
AcDbSectionViewStyle
  3
ObjectDBX Classes
 90
       81
 91
      256
280
     1
281
     0
  0
CLASS
  1
ACDBDETAILVIEWSTYLE
  2
AcDbDetailViewStyle
  3
ObjectDBX Classes
 90
      254
 91
        0
280
     0
281
     0
  0
CLASS
  1
DICTIONARYVAR
  2
AcDbDictionaryVar
  3
ObjectDBX Classes
 90
      198
 91
        0
280
     1
281
     0
  0
ENDSEC
  0
SECTION
  2
TABLES
  0
TABLE
  2
VPORT
  5
8
330
0
100
AcDbSymbolTable
 70
     1
  0
VPORT
  5
29
330
8
100
AcDbSymbolTableRecord
100
AcDbViewportTableRecord
  2
*Active
 70
     0
 10
0.0
 20
0.0
 11
1.0
 21
1.0
 12
111.2025984852347
 22
190.4001483236443
 13
0.0
 23
0.0
 14
10.0
 24
10.0
 15
10.0
 25
10.0
 16
0.0
 26
0.0
 36
1.0
 17
0.0
 27
0.0
 37
0.0
 40
186.0299197105045
 41
2.043261231281198
 42
50.0
 43
0.0
 44
0.0
 50
0.0
 51
0.0
 71
     0
 72
  2000
 73
     1
 74
     3
 75
     0
 76
     0
 77
     0
 78
     0
281
     0
 65
     1
110
0.0
120
0.0
130
0.0
111
1.0
121
0.0
131
0.0
112
0.0
122
1.0
132
0.0
 79
     0
146
0.0
348
1A5
 60
     3
 61
     5
292
     1
282
     1
141
0.0
142
0.0
 63
   250
421
-1036831949
1001
ACAD_NAV_VCDISPLAY
1070
     3
  0
ENDTAB
  0
TABLE
  2
LTYPE
  5
5
330
0
100
AcDbSymbolTable
 70
     6
  0
LTYPE
  5
14
330
5
100
AcDbSymbolTableRecord
100
AcDbLinetypeTableRecord
  2
ByBlock
 70
     0
  3

 72
    65
 73
     0
 40
0.0
  0
LTYPE
  5
15
330
5
100
AcDbSymbolTableRecord
100
AcDbLinetypeTableRecord
  2
ByLayer
 70
     0
  3

 72
    65
 73
     0
 40
0.0
  0
LTYPE
  5
16
330
5
100
AcDbSymbolTableRecord
100
AcDbLinetypeTableRecord
  2
Continuous
 70
     0
  3
Solid line
 72
    65
 73
     0
 40
0.0
  0
LTYPE
  5
5E
330
5
100
AcDbSymbolTableRecord
100
AcDbLinetypeTableRecord
  2
HIDDEN
 70
     0
  3
Hidden __ __ __ __ __ __ __ __ __ __ __ __ __ __
 72
    65
 73
     2
 40
1.905
 49
1.27
 74
     0
 49
-0.635
 74
     0
  0
LTYPE
  5
5F
330
5
100
AcDbSymbolTableRecord
100
AcDbLinetypeTableRecord
  2
PHANTOM
 70
     0
  3
Phantom ______  __  __  ______  __  __  ______
 72
    65
 73
     6
 40
12.7
 49
6.35
 74
     0
 49
-1.27
 74
     0
 49
1.27
 74
     0
 49
-1.27
 74
     0
 49
1.27
 74
     0
 49
-1.27
 74
     0
  0
LTYPE
  5
60
330
5
100
AcDbSymbolTableRecord
100
AcDbLinetypeTableRecord
  2
CENTER
 70
     0
  3
Center ____ _ ____ _ ____ _ ____ _ ____ _ ____
 72
    65
 73
     4
 40
10.16
 49
6.35
 74
     0
 49
-1.27
 74
     0
 49
1.27
 74
     0
 49
-1.27
 74
     0
  0
LTYPE
  5
61
330
5
100
AcDbSymbolTableRecord
100
AcDbLinetypeTableRecord
  2
CENTERX2
 70
     0
  3
Center (2x) ________  __  ________  __  _____
 72
    65
 73
     4
 40
20.32
 49
12.7
 74
     0
 49
-2.54
 74
     0
 49
2.54
 74
     0
 49
-2.54
 74
     0
  0
LTYPE
  5
62
330
5
100
AcDbSymbolTableRecord
100
AcDbLinetypeTableRecord
  2
DOT2
 70
     0
  3
Dot (.5x) ........................................
 72
    65
 73
     2
 40
0.635
 49
0.0
 74
     0
 49
-0.635
 74
     0
  0
ENDTAB
  0
TABLE
  2
LAYER
  5
2
102
{ACAD_XDICTIONARY
360
1CF
102
}
330
0
100
AcDbSymbolTable
 70
     2
  0
LAYER
  5
10
102
{ACAD_XDICTIONARY
360
1C8
102
}
330
2
100
AcDbSymbolTableRecord
100
AcDbLayerTableRecord
  2
0
 70
     0
 62
    -7
  6
Continuous
370
    -3
390
F
347
197
348
0
  0
LAYER
  5
63
102
{ACAD_XDICTIONARY
360
1CA
102
}
330
2
100
AcDbSymbolTableRecord
100
AcDbLayerTableRecord
  2
FORMAT
 70
     0
 62
    -7
  6
Continuous
370
    -3
390
F
347
197
348
0
  0
ENDTAB
  0
TABLE
  2
STYLE
  5
3
330
0
100
AcDbSymbolTable
 70
     5
  0
STYLE
  5
11
330
3
100
AcDbSymbolTableRecord
100
AcDbTextStyleTableRecord
  2
Standard
 70
     0
 40
0.0
 41
1.0
 50
0.0
 71
     0
 42
3.5
  3
txt
  4

  0
STYLE
  5
99
330
3
100
AcDbSymbolTableRecord
100
AcDbTextStyleTableRecord
  2
SLDTEXTSTYLE0
 70
     0
 40
0.0
 41
0.75
 50
0.0
 71
     0
 42
3.5
  3
TXT
  4

  0
STYLE
  5
AE
330
3
100
AcDbSymbolTableRecord
100
AcDbTextStyleTableRecord
  2
SLDTEXTSTYLE1
 70
     0
 40
0.0
 41
0.75
 50
0.0
 71
     0
 42
3.5
  3
TXT
  4
bigfont
  0
STYLE
  5
C6
330
3
100
AcDbSymbolTableRecord
100
AcDbTextStyleTableRecord
  2
SLDTEXTSTYLE2
 70
     0
 40
0.0
 41
0.6944444444444444
 50
0.0
 71
     0
 42
3.5
  3
TXT
  4
bigfont
  0
STYLE
  5
182
330
3
100
AcDbSymbolTableRecord
100
AcDbTextStyleTableRecord
  2
SLDTEXTSTYLE3
 70
     0
 40
0.0
 41
0.7
 50
0.0
 71
     0
 42
3.5
  3
TXT
  4

  0
ENDTAB
  0
TABLE
  2
VIEW
  5
6
330
0
100
AcDbSymbolTable
 70
     0
  0
ENDTAB
  0
TABLE
  2
UCS
  5
7
330
0
100
AcDbSymbolTable
 70
     0
  0
ENDTAB
  0
TABLE
  2
APPID
  5
9
330
0
100
AcDbSymbolTable
 70
     2
  0
APPID
  5
12
330
9
100
AcDbSymbolTableRecord
100
AcDbRegAppTableRecord
  2
ACAD
 70
     0
  0
APPID
  5
1D5
330
9
100
AcDbSymbolTableRecord
100
AcDbRegAppTableRecord
  2
ACAD_NAV_VCDISPLAY
 70
     0
  0
ENDTAB
  0
TABLE
  2
DIMSTYLE
  5
A
330
0
100
AcDbSymbolTable
 70
     1
100
AcDbDimStyleTable
 71
     0
  0
DIMSTYLE
105
27
330
A
100
AcDbSymbolTableRecord
100
AcDbDimStyleTableRecord
  2
ISO-25
 70
     0
 41
2.5
 42
0.625
 43
3.75
 44
1.25
 49
1.0
 50
45.0
 70
     0
 73
     0
 74
     0
 77
     1
 78
     8
140
2.5
141
2.5
143
0.03937007874016
144
1.0
146
1.0
147
0.625
171
     3
172
     1
176
-1056964608
177
-1056964608
178
-1056964608
271
     2
272
     2
273
     2
274
     3
277
     2
278
    44
283
     0
284
     8
289
     3
340
11
294
     0
371
    -2
372
    -2
341
0
342
0
343
0
344
0
345
0
346
0
347
0
  0
ENDTAB
  0
TABLE
  2
BLOCK_RECORD
  5
1
330
0
100
AcDbSymbolTable
 70
     2
  0
BLOCK_RECORD
  5
1F
330
1
100
AcDbSymbolTableRecord
100
AcDbBlockTableRecord
  2
*Model_Space
340
22
 70
     0
280
     1
281
     0
  0
BLOCK_RECORD
  5
1B
330
1
100
AcDbSymbolTableRecord
100
AcDbBlockTableRecord
  2
*Paper_Space
340
1E
 70
     0
280
     1
281
     0
  0
BLOCK_RECORD
  5
23
330
1
100
AcDbSymbolTableRecord
100
AcDbBlockTableRecord
  2
*Paper_Space0
340
26
 70
     0
280
     1
281
     0
  0
BLOCK_RECORD
  5
11B
330
1
100
AcDbSymbolTableRecord
100
AcDbBlockTableRecord
  2
_Closed
340
0
102
{BLKREFS
331
122
331
124
102
}
 70
     0
280
     1
281
     0
  0
ENDTAB
  0
ENDSEC
  0
SECTION
  2
BLOCKS
  0
BLOCK
  5
1C
330
1B
100
AcDbEntity
 67
     1
  8
0
100
AcDbBlockBegin
  2
*Paper_Space
 70
     0
 10
0.0
 20
0.0
 30
0.0
  3
*Paper_Space
  1

  0
ENDBLK
  5
1D
330
1B
100
AcDbEntity
 67
     1
  8
0
100
AcDbBlockEnd
  0
BLOCK
  5
20
330
1F
100
AcDbEntity
  8
0
100
AcDbBlockBegin
  2
*Model_Space
 70
     0
 10
0.0
 20
0.0
 30
0.0
  3
*Model_Space
  1

  0
ENDBLK
  5
21
330
1F
100
AcDbEntity
  8
0
100
AcDbBlockEnd
  0
BLOCK
  5
24
330
23
100
AcDbEntity
  8
0
100
AcDbBlockBegin
  2
*Paper_Space0
 70
     0
 10
0.0
 20
0.0
 30
0.0
  3
*Paper_Space0
  1

  0
ENDBLK
  5
25
330
23
100
AcDbEntity
  8
0
100
AcDbBlockEnd
  0
BLOCK
  5
11C
330
11B
100
AcDbEntity
  8
0
100
AcDbBlockBegin
  2
_Closed
 70
     0
 10
0.0
 20
0.0
 30
0.0
  3
_Closed
  1

  0
LINE
  5
11E
330
11B
100
AcDbEntity
  8
0
  6
ByBlock
370
    -2
 62
     0
100
AcDbLine
 10
-1.0
 20
0.166667
 30
0.0
 11
0.0
 21
0.0
 31
0.0
  0
LINE
  5
11F
330
11B
100
AcDbEntity
  8
0
  6
ByBlock
370
    -2
 62
     0
100
AcDbLine
 10
0.0
 20
0.0
 30
0.0
 11
-1.0
 21
-0.166667
 31
0.0
  0
LINE
  5
120
330
11B
100
AcDbEntity
  8
0
  6
ByBlock
370
    -2
 62
     0
100
AcDbLine
 10
-1.0
 20
0.166667
 30
0.0
 11
-1.0
 21
-0.166667
 31
0.0
  0
LINE
  5
121
330
11B
100
AcDbEntity
  8
0
  6
ByBlock
370
    -2
 62
     0
100
AcDbLine
 10
0.0
 20
0.0
 30
0.0
 11
-1.0
 21
0.0
 31
0.0
  0
ENDBLK
  5
11D
330
11B
100
AcDbEntity
  8
0
100
AcDbBlockEnd
  0
ENDSEC
  0
SECTION
  2
ENTITIES
  0
LINE
  5
64
330
1F
100
AcDbEntity
  8
0
  6
Continuous
370
    50
 62
     7
100
AcDbLine
 10
20.00000000000002
 20
14.25
 30
0.0
 11
200.0
 21
14.25
 31
0.0
  0
LINE
  5
65
330
1F
100
AcDbEntity
  8
0
  6
Continuous
370
    50
 62
     7
100
AcDbLine
 10
200.0
 20
48.25
 30
0.0
 11
20.00000000000002
 21
48.25
 31
0.0
  0
LINE
  5
66
330
1F
100
AcDbEntity
  8
0
  6
Continuous
370
    50
 62
     7
100
AcDbLine
 10
20.00000000000002
 20
65.25
 30
0.0
 11
200.0
 21
65.25
 31
0.0
  0
LINE
  5
67
330
1F
100
AcDbEntity
  8
0
  6
Continuous
370
    50
 62
     7
100
AcDbLine
 10
46.99095243379237
 20
48.25
 30
0.0
 11
46.99095243379237
 21
9.999999999999947
 31
0.0
  0
LINE
  5
68
330
1F
100
AcDbEntity
  8
0
  6
Continuous
370
    50
 62
     7
100
AcDbLine
 10
118.8
 20
31.24999999999999
 30
0.0
 11
20.00000000000002
 21
31.24999999999999
 31
0.0
  0
LINE
  5
69
330
1F
100
AcDbEntity
  8
0
  6
Continuous
370
    50
 62
     7
100
AcDbLine
 10
118.8
 20
35.5
 30
0.0
 11
20.00000000000002
 21
35.5
 31
0.0
  0
LINE
  5
6A
330
1F
100
AcDbEntity
  8
0
  6
Continuous
370
    50
 62
     7
100
AcDbLine
 10
118.8
 20
39.75
 30
0.0
 11
20.00000000000002
 21
39.75
 31
0.0
  0
LINE
  5
6B
330
1F
100
AcDbEntity
  8
0
  6
Continuous
370
    50
 62
     7
100
AcDbLine
 10
118.8
 20
44.0
 30
0.0
 11
20.00000000000002
 21
44.0
 31
0.0
  0
LINE
  5
6C
330
1F
100
AcDbEntity
  8
0
  6
Continuous
370
    50
 62
     7
100
AcDbLine
 10
74.59999999999999
 20
10.0
 30
0.0
 11
74.59999999999999
 21
48.25
 31
0.0
  0
LINE
  5
6D
330
1F
100
AcDbEntity
  8
0
  6
Continuous
370
    50
 62
     7
100
AcDbLine
 10
20.00000000000002
 20
65.25
 30
0.0
 11
20.00000000000002
 21
10.0
 31
0.0
  0
LINE
  5
6E
330
1F
100
AcDbEntity
  8
0
  6
Continuous
370
    50
 62
     7
100
AcDbLine
 10
27.80000000000005
 20
48.25
 30
0.0
 11
27.80000000000005
 21
10.0
 31
0.0
  0
LINE
  5
6F
330
1F
100
AcDbEntity
  8
0
  6
Continuous
370
    50
 62
     7
100
AcDbLine
 10
53.80000000000007
 20
48.25
 30
0.0
 11
53.80000000000007
 21
65.25
 31
0.0
  0
LINE
  5
70
330
1F
100
AcDbEntity
  8
0
  6
Continuous
370
    50
 62
     7
100
AcDbLine
 10
64.39892616354004
 20
48.25
 30
0.0
 11
64.39892616354004
 21
10.0
 31
0.0
  0
LINE
  5
71
330
1F
100
AcDbEntity
  8
0
  6
Continuous
370
    50
 62
     7
100
AcDbLine
 10
84.99999999999997
 20
31.24999999999999
 30
0.0
 11
84.99999999999997
 21
48.25
 31
0.0
  0
LINE
  5
72
330
1F
100
AcDbEntity
  8
0
  6
Continuous
370
    50
 62
     7
100
AcDbLine
 10
74.59999999999999
 20
18.5
 30
0.0
 11
20.00000000000002
 21
18.5
 31
0.0
  0
LINE
  5
73
330
1F
100
AcDbEntity
  8
0
  6
Continuous
370
    50
 62
     7
100
AcDbLine
 10
100.6
 20
65.25
 30
0.0
 11
100.6
 21
27.0
 31
0.0
  0
LINE
  5
74
330
1F
100
AcDbEntity
  8
0
  6
Continuous
370
    50
 62
     7
100
AcDbLine
 10
74.59999999999999
 20
22.749928
 30
0.0
 11
20.00000000000002
 21
22.749928
 31
0.0
  0
LINE
  5
75
330
1F
100
AcDbEntity
  8
0
  6
Continuous
370
    50
 62
     7
100
AcDbLine
 10
74.59999999999999
 20
27.0
 30
0.0
 11
20.00000000000002
 21
27.0
 31
0.0
  0
LINE
  5
76
330
1F
100
AcDbEntity
  8
0
  6
Continuous
370
    50
 62
     7
100
AcDbLine
 10
74.59999999999999
 20
27.0
 30
0.0
 11
200.0
 21
27.0
 31
0.0
  0
LINE
  5
77
330
1F
100
AcDbEntity
  8
0
  6
Continuous
370
    50
 62
     7
100
AcDbLine
 10
118.8
 20
65.25
 30
0.0
 11
118.8
 21
10.0
 31
0.0
  0
LINE
  5
78
330
1F
100
AcDbEntity
  8
0
  6
Continuous
370
    50
 62
     7
100
AcDbLine
 10
163.0
 20
10.0
 30
0.0
 11
163.0
 21
14.25
 31
0.0
  0
LINE
  5
79
330
1F
100
AcDbEntity
  8
0
  6
Continuous
370
    50
 62
     7
100
AcDbLine
 10
170.8000000000001
 20
58.875
 30
0.0
 11
170.8000000000001
 21
65.25
 31
0.0
  0
LINE
  5
7A
330
1F
100
AcDbEntity
  8
0
  6
Continuous
370
    50
 62
     7
100
AcDbLine
 10
187.0
 20
14.25
 30
0.0
 11
187.0
 21
27.0
 31
0.0
  0
LINE
  5
7B
330
1F
100
AcDbEntity
  8
0
  6
Continuous
370
    50
 62
     7
100
AcDbLine
 10
200.0
 20
58.875
 30
0.0
 11
118.8
 21
58.875
 31
0.0
  0
LINE
  5
7C
330
1F
100
AcDbEntity
  8
0
  6
Continuous
370
    50
 62
     7
100
AcDbLine
 10
200.0
 20
18.5
 30
0.0
 11
187.0
 21
18.5
 31
0.0
  0
LINE
  5
7D
330
1F
100
AcDbEntity
  8
0
  6
Continuous
370
    70
 62
     7
100
AcDbLine
 10
20.0
 20
10.0
 30
0.0
 11
20.0
 21
287.0
 31
0.0
  0
LINE
  5
7E
330
1F
100
AcDbEntity
  8
0
  6
Continuous
370
    70
 62
     7
100
AcDbLine
 10
20.0
 20
287.0
 30
0.0
 11
200.0
 21
287.0
 31
0.0
  0
LINE
  5
7F
330
1F
100
AcDbEntity
  8
0
  6
Continuous
370
    70
 62
     7
100
AcDbLine
 10
200.0
 20
287.0
 30
0.0
 11
200.0
 21
10.0
 31
0.0
  0
LINE
  5
80
330
1F
100
AcDbEntity
  8
0
  6
Continuous
370
    70
 62
     7
100
AcDbLine
 10
200.0
 20
10.0
 30
0.0
 11
20.0
 21
10.0
 31
0.0
  0
LINE
  5
81
330
1F
100
AcDbEntity
  8
0
  6
Continuous
370
    70
 62
     7
100
AcDbLine
 10
15.0
 20
5.0
 30
0.0
 11
15.0
 21
292.0
 31
0.0
  0
LINE
  5
82
330
1F
100
AcDbEntity
  8
0
  6
Continuous
370
    70
 62
     7
100
AcDbLine
 10
15.0
 20
292.0
 30
0.0
 11
205.0
 21
292.0
 31
0.0
  0
LINE
  5
83
330
1F
100
AcDbEntity
  8
0
  6
Continuous
370
    70
 62
     7
100
AcDbLine
 10
205.0
 20
292.0
 30
0.0
 11
205.0
 21
5.0
 31
0.0
  0
LINE
  5
84
330
1F
100
AcDbEntity
  8
0
  6
Continuous
370
    70
 62
     7
100
AcDbLine
 10
205.0
 20
5.0
 30
0.0
 11
15.0
 21
5.0
 31
0.0
  0
LINE
  5
85
330
1F
100
AcDbEntity
  8
0
  6
Continuous
370
    35
 62
     7
100
AcDbLine
 10
15.0
 20
148.5
 30
0.0
 11
25.0
 21
148.5
 31
0.0
  0
LINE
  5
86
330
1F
100
AcDbEntity
  8
0
  6
Continuous
370
    35
 62
     7
100
AcDbLine
 10
110.0
 20
292.0
 30
0.0
 11
110.0
 21
282.0
 31
0.0
  0
LINE
  5
87
330
1F
100
AcDbEntity
  8
0
  6
Continuous
370
    35
 62
     7
100
AcDbLine
 10
205.0
 20
148.5
 30
0.0
 11
195.0
 21
148.5
 31
0.0
  0
LINE
  5
88
330
1F
100
AcDbEntity
  8
0
  6
Continuous
370
    35
 62
     7
100
AcDbLine
 10
110.0
 20
5.0
 30
0.0
 11
110.0
 21
15.0
 31
0.0
  0
LINE
  5
89
330
1F
100
AcDbEntity
  8
0
  6
Continuous
370
    35
 62
     7
100
AcDbLine
 10
20.0
 20
48.49999999999999
 30
0.0
 11
15.0
 21
48.49999999999999
 31
0.0
  0
LINE
  5
8A
330
1F
100
AcDbEntity
  8
0
  6
Continuous
370
    35
 62
     7
100
AcDbLine
 10
200.0
 20
48.49999999999999
 30
0.0
 11
205.0
 21
48.49999999999999
 31
0.0
  0
LINE
  5
8B
330
1F
100
AcDbEntity
  8
0
  6
Continuous
370
    35
 62
     7
100
AcDbLine
 10
20.0
 20
98.49999999999999
 30
0.0
 11
15.0
 21
98.49999999999999
 31
0.0
  0
LINE
  5
8C
330
1F
100
AcDbEntity
  8
0
  6
Continuous
370
    35
 62
     7
100
AcDbLine
 10
200.0
 20
98.49999999999999
 30
0.0
 11
205.0
 21
98.49999999999999
 31
0.0
  0
LINE
  5
8D
330
1F
100
AcDbEntity
  8
0
  6
Continuous
370
    35
 62
     7
100
AcDbLine
 10
20.0
 20
148.5
 30
0.0
 11
15.0
 21
148.5
 31
0.0
  0
LINE
  5
8E
330
1F
100
AcDbEntity
  8
0
  6
Continuous
370
    35
 62
     7
100
AcDbLine
 10
200.0
 20
148.5
 30
0.0
 11
205.0
 21
148.5
 31
0.0
  0
LINE
  5
8F
330
1F
100
AcDbEntity
  8
0
  6
Continuous
370
    35
 62
     7
100
AcDbLine
 10
20.0
 20
198.5
 30
0.0
 11
15.0
 21
198.5
 31
0.0
  0
LINE
  5
90
330
1F
100
AcDbEntity
  8
0
  6
Continuous
370
    35
 62
     7
100
AcDbLine
 10
200.0
 20
198.5
 30
0.0
 11
205.0
 21
198.5
 31
0.0
  0
LINE
  5
91
330
1F
100
AcDbEntity
  8
0
  6
Continuous
370
    35
 62
     7
100
AcDbLine
 10
20.0
 20
248.5
 30
0.0
 11
15.0
 21
248.5
 31
0.0
  0
LINE
  5
92
330
1F
100
AcDbEntity
  8
0
  6
Continuous
370
    35
 62
     7
100
AcDbLine
 10
200.0
 20
248.5
 30
0.0
 11
205.0
 21
248.5
 31
0.0
  0
LINE
  5
93
330
1F
100
AcDbEntity
  8
0
  6
Continuous
370
    35
 62
     7
100
AcDbLine
 10
60.0
 20
287.0
 30
0.0
 11
60.0
 21
292.0
 31
0.0
  0
LINE
  5
94
330
1F
100
AcDbEntity
  8
0
  6
Continuous
370
    35
 62
     7
100
AcDbLine
 10
60.0
 20
10.0
 30
0.0
 11
60.0
 21
5.0
 31
0.0
  0
LINE
  5
95
330
1F
100
AcDbEntity
  8
0
  6
Continuous
370
    35
 62
     7
100
AcDbLine
 10
110.0
 20
287.0
 30
0.0
 11
110.0
 21
292.0
 31
0.0
  0
LINE
  5
96
330
1F
100
AcDbEntity
  8
0
  6
Continuous
370
    35
 62
     7
100
AcDbLine
 10
110.0
 20
10.0
 30
0.0
 11
110.0
 21
5.0
 31
0.0
  0
LINE
  5
97
330
1F
100
AcDbEntity
  8
0
  6
Continuous
370
    35
 62
     7
100
AcDbLine
 10
160.0
 20
287.0
 30
0.0
 11
160.0
 21
292.0
 31
0.0
  0
LINE
  5
98
330
1F
100
AcDbEntity
  8
0
  6
Continuous
370
    35
 62
     7
100
AcDbLine
 10
160.0
 20
10.0
 30
0.0
 11
160.0
 21
5.0
 31
0.0
  0
MTEXT
  5
9A
330
1F
100
AcDbEntity
  8
0
  6
Continuous
370
     0
 62
     7
100
AcDbMText
 10
17.33968814276159
 20
31.21897514647231
 30
0.0
210
0.0
220
0.0
230
1.0
 11
1.0
 21
0.0
 31
0.0
 40
3.968749999999999
 41
0.0
 46
0.0
 71
     2
 72
     1
  1
A
  7
SLDTEXTSTYLE0
 73
     1
 44
1.0
101
Embedded Object
 70
     1
 10
17.33968814276159
 20
31.21897514647231
 30
0.0
 11
1.0
 21
0.0
 31
0.0
 40
0.0
 41
0.0
 42
3.968749999999999
 43
1.984374999999999
 71
     0
  0
MTEXT
  5
9B
330
1F
100
AcDbEntity
  8
0
  6
Continuous
370
     0
 62
     7
100
AcDbMText
 10
202.3396881427616
 20
31.21897514647232
 30
0.0
210
0.0
220
0.0
230
1.0
 11
1.0
 21
0.0
 31
0.0
 40
3.968749999999999
 41
0.0
 46
0.0
 71
     2
 72
     1
  1
A
  7
SLDTEXTSTYLE0
 73
     1
 44
1.0
101
Embedded Object
 70
     1
 10
202.3396881427616
 20
31.21897514647232
 30
0.0
 11
1.0
 21
0.0
 31
0.0
 40
0.0
 41
0.0
 42
3.968749999999999
 43
1.984374999999999
 71
     0
  0
MTEXT
  5
9C
330
1F
100
AcDbEntity
  8
0
  6
Continuous
370
     0
 62
     7
100
AcDbMText
 10
17.47060182411224
 20
75.4689751464723
 30
0.0
210
0.0
220
0.0
230
1.0
 11
1.0
 21
0.0
 31
0.0
 40
3.968749999999999
 41
0.0
 46
0.0
 71
     2
 72
     1
  1
B
  7
SLDTEXTSTYLE0
 73
     1
 44
1.0
101
Embedded Object
 70
     1
 10
17.47060182411224
 20
75.4689751464723
 30
0.0
 11
1.0
 21
0.0
 31
0.0
 40
0.0
 41
0.0
 42
3.96875
 43
1.984374999999999
 71
     0
  0
MTEXT
  5
9D
330
1F
100
AcDbEntity
  8
0
  6
Continuous
370
     0
 62
     7
100
AcDbMText
 10
202.4706018241122
 20
75.4689751464723
 30
0.0
210
0.0
220
0.0
230
1.0
 11
1.0
 21
0.0
 31
0.0
 40
3.968749999999999
 41
0.0
 46
0.0
 71
     2
 72
     1
  1
B
  7
SLDTEXTSTYLE0
 73
     1
 44
1.0
101
Embedded Object
 70
     1
 10
202.4706018241122
 20
75.4689751464723
 30
0.0
 11
1.0
 21
0.0
 31
0.0
 40
0.0
 41
0.0
 42
3.96875
 43
1.984374999999999
 71
     0
  0
MTEXT
  5
9E
330
1F
100
AcDbEntity
  8
0
  6
Continuous
370
     0
 62
     7
100
AcDbMText
 10
17.45865890197456
 20
125.4689751464723
 30
0.0
210
0.0
220
0.0
230
1.0
 11
1.0
 21
0.0
 31
0.0
 40
3.968749999999999
 41
0.0
 46
0.0
 71
     2
 72
     1
  1
C
  7
SLDTEXTSTYLE0
 73
     1
 44
1.0
101
Embedded Object
 70
     1
 10
17.45865890197456
 20
125.4689751464723
 30
0.0
 11
1.0
 21
0.0
 31
0.0
 40
0.0
 41
0.0
 42
3.968749999999999
 43
1.984374999999999
 71
     0
  0
MTEXT
  5
9F
330
1F
100
AcDbEntity
  8
0
  6
Continuous
370
     0
 62
     7
100
AcDbMText
 10
202.4586589019745
 20
125.4689751464723
 30
0.0
210
0.0
220
0.0
230
1.0
 11
1.0
 21
0.0
 31
0.0
 40
3.968749999999999
 41
0.0
 46
0.0
 71
     2
 72
     1
  1
C
  7
SLDTEXTSTYLE0
 73
     1
 44
1.0
101
Embedded Object
 70
     1
 10
202.4586589019745
 20
125.4689751464723
 30
0.0
 11
1.0
 21
0.0
 31
0.0
 40
0.0
 41
0.0
 42
3.968749999999999
 43
1.984374999999999
 71
     0
  0
MTEXT
  5
A0
330
1F
100
AcDbEntity
  8
0
  6
Continuous
370
     0
 62
     7
100
AcDbMText
 10
17.45268728211522
 20
175.4689751464723
 30
0.0
210
0.0
220
0.0
230
1.0
 11
1.0
 21
0.0
 31
0.0
 40
3.968749999999999
 41
0.0
 46
0.0
 71
     2
 72
     1
  1
D
  7
SLDTEXTSTYLE0
 73
     1
 44
1.0
101
Embedded Object
 70
     1
 10
17.45268728211522
 20
175.4689751464723
 30
0.0
 11
1.0
 21
0.0
 31
0.0
 40
0.0
 41
0.0
 42
3.96875
 43
1.984374999999999
 71
     0
  0
MTEXT
  5
A1
330
1F
100
AcDbEntity
  8
0
  6
Continuous
370
     0
 62
     7
100
AcDbMText
 10
202.4526872821152
 20
175.4689751464723
 30
0.0
210
0.0
220
0.0
230
1.0
 11
1.0
 21
0.0
 31
0.0
 40
3.968749999999999
 41
0.0
 46
0.0
 71
     2
 72
     1
  1
D
  7
SLDTEXTSTYLE0
 73
     1
 44
1.0
101
Embedded Object
 70
     1
 10
202.4526872821152
 20
175.4689751464723
 30
0.0
 11
1.0
 21
0.0
 31
0.0
 40
0.0
 41
0.0
 42
3.96875
 43
1.984374999999999
 71
     0
  0
MTEXT
  5
A2
330
1F
100
AcDbEntity
  8
0
  6
Continuous
370
     0
 62
     7
100
AcDbMText
 10
17.50780890509486
 20
225.4689751464723
 30
0.0
210
0.0
220
0.0
230
1.0
 11
1.0
 21
0.0
 31
0.0
 40
3.968749999999999
 41
0.0
 46
0.0
 71
     2
 72
     1
  1
E
  7
SLDTEXTSTYLE0
 73
     1
 44
1.0
101
Embedded Object
 70
     1
 10
17.50780890509486
 20
225.4689751464723
 30
0.0
 11
1.0
 21
0.0
 31
0.0
 40
0.0
 41
0.0
 42
3.968749999999999
 43
1.984374999999999
 71
     0
  0
MTEXT
  5
A3
330
1F
100
AcDbEntity
  8
0
  6
Continuous
370
     0
 62
     7
100
AcDbMText
 10
202.5078089050948
 20
225.4689751464723
 30
0.0
210
0.0
220
0.0
230
1.0
 11
1.0
 21
0.0
 31
0.0
 40
3.968749999999999
 41
0.0
 46
0.0
 71
     2
 72
     1
  1
E
  7
SLDTEXTSTYLE0
 73
     1
 44
1.0
101
Embedded Object
 70
     1
 10
202.5078089050948
 20
225.4689751464723
 30
0.0
 11
1.0
 21
0.0
 31
0.0
 40
0.0
 41
0.0
 42
3.968749999999999
 43
1.984374999999999
 71
     0
  0
MTEXT
  5
A4
330
1F
100
AcDbEntity
  8
0
  6
Continuous
370
     0
 62
     7
100
AcDbMText
 10
17.45774020906537
 20
269.7189751464723
 30
0.0
210
0.0
220
0.0
230
1.0
 11
1.0
 21
0.0
 31
0.0
 40
3.968749999999999
 41
0.0
 46
0.0
 71
     2
 72
     1
  1
F
  7
SLDTEXTSTYLE0
 73
     1
 44
1.0
101
Embedded Object
 70
     1
 10
17.45774020906537
 20
269.7189751464723
 30
0.0
 11
1.0
 21
0.0
 31
0.0
 40
0.0
 41
0.0
 42
3.968749999999999
 43
1.984374999999999
 71
     0
  0
MTEXT
  5
A5
330
1F
100
AcDbEntity
  8
0
  6
Continuous
370
     0
 62
     7
100
AcDbMText
 10
202.4577402090653
 20
269.7189751464723
 30
0.0
210
0.0
220
0.0
230
1.0
 11
1.0
 21
0.0
 31
0.0
 40
3.968749999999999
 41
0.0
 46
0.0
 71
     2
 72
     1
  1
F
  7
SLDTEXTSTYLE0
 73
     1
 44
1.0
101
Embedded Object
 70
     1
 10
202.4577402090653
 20
269.7189751464723
 30
0.0
 11
1.0
 21
0.0
 31
0.0
 40
0.0
 41
0.0
 42
3.968749999999999
 43
1.984374999999999
 71
     0
  0
MTEXT
  5
A6
330
1F
100
AcDbEntity
  8
0
  6
Continuous
370
     0
 62
     7
100
AcDbMText
 10
39.96003694646061
 20
9.468975146472317
 30
0.0
210
0.0
220
0.0
230
1.0
 11
1.0
 21
0.0
 31
0.0
 40
3.968749999999999
 41
0.0
 46
0.0
 71
     2
 72
     1
  1
4
  7
SLDTEXTSTYLE0
 73
     1
 44
1.0
101
Embedded Object
 70
     1
 10
39.96003694646061
 20
9.468975146472317
 30
0.0
 11
1.0
 21
0.0
 31
0.0
 40
0.0
 41
0.0
 42
3.968749999999999
 43
1.984374999999999
 71
     0
  0
MTEXT
  5
A7
330
1F
100
AcDbEntity
  8
0
  6
Continuous
370
     0
 62
     7
100
AcDbMText
 10
39.96003694646061
 20
291.4689751464723
 30
0.0
210
0.0
220
0.0
230
1.0
 11
1.0
 21
0.0
 31
0.0
 40
3.968749999999999
 41
0.0
 46
0.0
 71
     2
 72
     1
  1
4
  7
SLDTEXTSTYLE0
 73
     1
 44
1.0
101
Embedded Object
 70
     1
 10
39.96003694646061
 20
291.4689751464723
 30
0.0
 11
1.0
 21
0.0
 31
0.0
 40
0.0
 41
0.0
 42
3.968749999999999
 43
1.984374999999999
 71
     0
  0
MTEXT
  5
A8
330
1F
100
AcDbEntity
  8
0
  6
Continuous
370
     0
 62
     7
100
AcDbMText
 10
84.96003694646059
 20
9.468975146472317
 30
0.0
210
0.0
220
0.0
230
1.0
 11
1.0
 21
0.0
 31
0.0
 40
3.968749999999999
 41
0.0
 46
0.0
 71
     2
 72
     1
  1
3
  7
SLDTEXTSTYLE0
 73
     1
 44
1.0
101
Embedded Object
 70
     1
 10
84.96003694646059
 20
9.468975146472317
 30
0.0
 11
1.0
 21
0.0
 31
0.0
 40
0.0
 41
0.0
 42
3.968749999999999
 43
1.984374999999999
 71
     0
  0
MTEXT
  5
A9
330
1F
100
AcDbEntity
  8
0
  6
Continuous
370
     0
 62
     7
100
AcDbMText
 10
84.96003694646058
 20
291.4689751464723
 30
0.0
210
0.0
220
0.0
230
1.0
 11
1.0
 21
0.0
 31
0.0
 40
3.968749999999999
 41
0.0
 46
0.0
 71
     2
 72
     1
  1
3
  7
SLDTEXTSTYLE0
 73
     1
 44
1.0
101
Embedded Object
 70
     1
 10
84.96003694646058
 20
291.4689751464723
 30
0.0
 11
1.0
 21
0.0
 31
0.0
 40
0.0
 41
0.0
 42
3.968749999999999
 43
1.984374999999999
 71
     0
  0
MTEXT
  5
AA
330
1F
100
AcDbEntity
  8
0
  6
Continuous
370
     0
 62
     7
100
AcDbMText
 10
134.9600369464606
 20
9.468975146472317
 30
0.0
210
0.0
220
0.0
230
1.0
 11
1.0
 21
0.0
 31
0.0
 40
3.968749999999999
 41
0.0
 46
0.0
 71
     2
 72
     1
  1
2
  7
SLDTEXTSTYLE0
 73
     1
 44
1.0
101
Embedded Object
 70
     1
 10
134.9600369464606
 20
9.468975146472317
 30
0.0
 11
1.0
 21
0.0
 31
0.0
 40
0.0
 41
0.0
 42
3.968749999999999
 43
1.984374999999999
 71
     0
  0
MTEXT
  5
AB
330
1F
100
AcDbEntity
  8
0
  6
Continuous
370
     0
 62
     7
100
AcDbMText
 10
134.9600369464606
 20
291.4689751464723
 30
0.0
210
0.0
220
0.0
230
1.0
 11
1.0
 21
0.0
 31
0.0
 40
3.968749999999999
 41
0.0
 46
0.0
 71
     2
 72
     1
  1
2
  7
SLDTEXTSTYLE0
 73
     1
 44
1.0
101
Embedded Object
 70
     1
 10
134.9600369464606
 20
291.4689751464723
 30
0.0
 11
1.0
 21
0.0
 31
0.0
 40
0.0
 41
0.0
 42
3.968749999999999
 43
1.984374999999999
 71
     0
  0
MTEXT
  5
AC
330
1F
100
AcDbEntity
  8
0
  6
Continuous
370
     0
 62
     7
100
AcDbMText
 10
179.9600369464606
 20
9.468975146472317
 30
0.0
210
0.0
220
0.0
230
1.0
 11
1.0
 21
0.0
 31
0.0
 40
3.968749999999999
 41
0.0
 46
0.0
 71
     2
 72
     1
  1
1
  7
SLDTEXTSTYLE0
 73
     1
 44
1.0
101
Embedded Object
 70
     1
 10
179.9600369464606
 20
9.468975146472317
 30
0.0
 11
1.0
 21
0.0
 31
0.0
 40
0.0
 41
0.0
 42
3.96875
 43
0.9921874999999997
 71
     0
  0
MTEXT
  5
AD
330
1F
100
AcDbEntity
  8
0
  6
Continuous
370
     0
 62
     7
100
AcDbMText
 10
179.9600369464606
 20
291.4689751464723
 30
0.0
210
0.0
220
0.0
230
1.0
 11
1.0
 21
0.0
 31
0.0
 40
3.968749999999999
 41
0.0
 46
0.0
 71
     2
 72
     1
  1
1
  7
SLDTEXTSTYLE0
 73
     1
 44
1.0
101
Embedded Object
 70
     1
 10
179.9600369464606
 20
291.4689751464723
 30
0.0
 11
1.0
 21
0.0
 31
0.0
 40
0.0
 41
0.0
 42
3.96875
 43
0.9921874999999997
 71
     0
  0
MTEXT
  5
AF
330
1F
100
AcDbEntity
  8
0
  6
Continuous
370
     0
 62
     7
100
AcDbMText
 10
20.6846681266758
 20
42.42971488591169
 30
0.0
210
0.0
220
0.0
230
1.0
 11
1.0
 21
0.0
 31
0.0
 40
1.5
 41
0.0
 46
0.0
 71
     1
 72
     1
  1
绘制
  7
SLDTEXTSTYLE1
 73
     1
 44
1.0
101
Embedded Object
 70
     1
 10
20.6846681266758
 20
42.42971488591169
 30
0.0
 11
1.0
 21
0.0
 31
0.0
 40
0.0
 41
0.0
 42
1.927374301675978
 43
2.502234636871508
 71
     0
  0
MTEXT
  5
B0
330
1F
100
AcDbEntity
  8
0
  6
Continuous
370
     0
 62
     7
100
AcDbMText
 10
20.62358332007086
 20
38.15440715998797
 30
0.0
210
0.0
220
0.0
230
1.0
 11
1.0
 21
0.0
 31
0.0
 40
1.5
 41
0.0
 46
0.0
 71
     1
 72
     1
  1
检查
  7
SLDTEXTSTYLE1
 73
     1
 44
1.0
101
Embedded Object
 70
     1
 10
20.62358332007086
 20
38.15440715998797
 30
0.0
 11
1.0
 21
0.0
 31
0.0
 40
0.0
 41
0.0
 42
1.986033519553073
 43
3.073324022346369
 71
     0
  0
MTEXT
  5
B1
330
1F
100
AcDbEntity
  8
0
  6
Continuous
370
     0
 62
     7
100
AcDbMText
 10
20.62163033663195
 20
34.17683015296752
 30
0.0
210
0.0
220
0.0
230
1.0
 11
1.0
 21
0.0
 31
0.0
 40
1.5
 41
0.0
 46
0.0
 71
     1
 72
     1
  1
批准
  7
SLDTEXTSTYLE1
 73
     1
 44
1.0
101
Embedded Object
 70
     1
 10
20.62163033663195
 20
34.17683015296752
 30
0.0
 11
1.0
 21
0.0
 31
0.0
 40
0.0
 41
0.0
 42
1.5
 43
2.4
 71
     0
  0
MTEXT
  5
B2
330
1F
100
AcDbEntity
  8
0
  6
Continuous
370
     0
 62
     7
100
AcDbMText
 10
20.68219406825633
 20
29.73370465059665
 30
0.0
210
0.0
220
0.0
230
1.0
 11
1.0
 21
0.0
 31
0.0
 40
1.5
 41
0.0
 46
0.0
 71
     1
 72
     1
  1
制造
  7
SLDTEXTSTYLE1
 73
     1
 44
1.0
101
Embedded Object
 70
     1
 10
20.68219406825633
 20
29.73370465059665
 30
0.0
 11
1.0
 21
0.0
 31
0.0
 40
0.0
 41
0.0
 42
1.5
 43
2.4
 71
     0
  0
MTEXT
  5
B3
330
1F
100
AcDbEntity
  8
0
  6
Continuous
370
     0
 62
     7
100
AcDbMText
 10
20.67685549442799
 20
25.34964920730686
 30
0.0
210
0.0
220
0.0
230
1.0
 11
1.0
 21
0.0
 31
0.0
 40
1.5
 41
0.0
 46
0.0
 71
     1
 72
     1
  1
验检
  7
SLDTEXTSTYLE1
 73
     1
 44
1.0
101
Embedded Object
 70
     1
 10
20.67685549442799
 20
25.34964920730686
 30
0.0
 11
1.0
 21
0.0
 31
0.0
 40
0.0
 41
0.0
 42
1.986033519553073
 43
3.092178770949721
 71
     0
  0
MTEXT
  5
B4
330
1F
100
AcDbEntity
  8
0
  6
Continuous
370
     0
 62
     7
100
AcDbMText
 10
20.59366874563928
 20
63.92097148393691
 30
0.0
210
0.0
220
0.0
230
1.0
 11
1.0
 21
0.0
 31
0.0
 40
1.5
 41
0.0
 46
0.0
 71
     1
 72
     1
  1
除非另外指定:
  7
SLDTEXTSTYLE1
 73
     1
 44
1.0
101
Embedded Object
 70
     1
 10
20.59366874563928
 20
63.92097148393691
 30
0.0
 11
1.0
 21
0.0
 31
0.0
 40
0.0
 41
0.0
 42
1.892045454545454
 43
8.386363636363637
 71
     0
  0
MTEXT
  5
B5
330
1F
100
AcDbEntity
  8
0
  6
Continuous
370
     0
 62
     7
100
AcDbMText
 10
20.59366874563928
 20
61.42097153981627
 30
0.0
210
0.0
220
0.0
230
1.0
 11
1.0
 21
0.0
 31
0.0
 40
1.5
 41
0.0
 46
0.0
 71
     1
 72
     1
  1
尺寸使用毫米
  7
SLDTEXTSTYLE1
 73
     1
 44
1.0
101
Embedded Object
 70
     1
 10
20.59366874563928
 20
61.42097153981627
 30
0.0
 11
1.0
 21
0.0
 31
0.0
 40
0.0
 41
0.0
 42
1.96875
 43
8.086363636363636
 71
     0
  0
MTEXT
  5
B6
330
1F
100
AcDbEntity
  8
0
  6
Continuous
370
     0
 62
     7
100
AcDbMText
 10
20.59366874563928
 20
58.92097159569563
 30
0.0
210
0.0
220
0.0
230
1.0
 11
1.0
 21
0.0
 31
0.0
 40
1.5
 41
0.0
 46
0.0
 71
     1
 72
     1
  1
表面粗糙度:
  7
SLDTEXTSTYLE1
 73
     1
 44
1.0
101
Embedded Object
 70
     1
 10
20.59366874563928
 20
58.92097159569563
 30
0.0
 11
1.0
 21
0.0
 31
0.0
 40
0.0
 41
0.0
 42
1.96875
 43
7.036363636363637
 71
     0
  0
MTEXT
  5
B7
330
1F
100
AcDbEntity
  8
0
  6
Continuous
370
     0
 62
     7
100
AcDbMText
 10
20.59366874563928
 20
56.42097165157498
 30
0.0
210
0.0
220
0.0
230
1.0
 11
1.0
 21
0.0
 31
0.0
 40
1.5
 41
0.0
 46
0.0
 71
     1
 72
     1
  1
公差:
  7
SLDTEXTSTYLE1
 73
     1
 44
1.0
101
Embedded Object
 70
     1
 10
20.59366874563928
 20
56.42097165157498
 30
0.0
 11
1.0
 21
0.0
 31
0.0
 40
0.0
 41
0.0
 42
1.5
 43
2.7
 71
     0
  0
MTEXT
  5
B8
330
1F
100
AcDbEntity
  8
0
  6
Continuous
370
     0
 62
     7
100
AcDbMText
 10
22.28116874563928
 20
53.92097170745433
 30
0.0
210
0.0
220
0.0
230
1.0
 11
1.0
 21
0.0
 31
0.0
 40
1.5
 41
0.0
 46
0.0
 71
     1
 72
     1
  1
线性:
  7
SLDTEXTSTYLE1
 73
     1
 44
1.0
101
Embedded Object
 70
     1
 10
22.28116874563928
 20
53.92097170745433
 30
0.0
 11
1.0
 21
0.0
 31
0.0
 40
0.0
 41
0.0
 42
1.96927374301676
 43
2.877234636871508
 71
     0
  0
MTEXT
  5
B9
330
1F
100
AcDbEntity
  8
0
  6
Continuous
370
     0
 62
     7
100
AcDbMText
 10
22.28116874563928
 20
51.42097176333369
 30
0.0
210
0.0
220
0.0
230
1.0
 11
1.0
 21
0.0
 31
0.0
 40
1.5
 41
0.0
 46
0.0
 71
     1
 72
     1
  1
角度:
  7
SLDTEXTSTYLE1
 73
     1
 44
1.0
101
Embedded Object
 70
     1
 10
22.28116874563928
 20
51.42097176333369
 30
0.0
 11
1.0
 21
0.0
 31
0.0
 40
0.0
 41
0.0
 42
1.5
 43
2.625
 71
     0
  0
MTEXT
  5
BA
330
1F
100
AcDbEntity
  8
0
  6
Continuous
370
     0
 62
     7
100
AcDbMText
 10
54.37129216683034
 20
63.91927199513625
 30
0.0
210
0.0
220
0.0
230
1.0
 11
1.0
 21
0.0
 31
0.0
 40
1.5
 41
0.0
 46
0.0
 71
     1
 72
     1
  1
表面粗糙度:
  7
SLDTEXTSTYLE1
 73
     1
 44
1.0
101
Embedded Object
 70
     1
 10
54.37129216683034
 20
63.91927199513625
 30
0.0
 11
1.0
 21
0.0
 31
0.0
 40
0.0
 41
0.0
 42
1.96875
 43
7.036363636363637
 71
     0
  0
MTEXT
  5
BB
330
1F
100
AcDbEntity
  8
0
  6
Continuous
370
     0
 62
     7
100
AcDbMText
 10
101.3092156862747
 20
64.00309125268677
 30
0.0
210
0.0
220
0.0
230
1.0
 11
1.0
 21
0.0
 31
0.0
 40
1.5
 41
0.0
 46
0.0
 71
     1
 72
     1
  1
将锐边清除
  7
SLDTEXTSTYLE1
 73
     1
 44
1.0
101
Embedded Object
 70
     1
 10
101.3092156862747
 20
64.00309125268677
 30
0.0
 11
1.0
 21
0.0
 31
0.0
 40
0.0
 41
0.0
 42
1.960893854748603
 43
6.967877094972067
 71
     0
  0
MTEXT
  5
BC
330
1F
100
AcDbEntity
  8
0
  6
Continuous
370
     0
 62
     7
100
AcDbMText
 10
101.3092156862747
 20
61.50309130856613
 30
0.0
210
0.0
220
0.0
230
1.0
 11
1.0
 21
0.0
 31
0.0
 40
1.5
 41
0.0
 46
0.0
 71
     1
 72
     1
  1
毛刺并折断
  7
SLDTEXTSTYLE1
 73
     1
 44
1.0
101
Embedded Object
 70
     1
 10
101.3092156862747
 20
61.50309130856613
 30
0.0
 11
1.0
 21
0.0
 31
0.0
 40
0.0
 41
0.0
 42
1.951704545454545
 43
6.736363636363636
 71
     0
  0
MTEXT
  5
BD
330
1F
100
AcDbEntity
  8
0
  6
Continuous
370
     0
 62
     7
100
AcDbMText
 10
34.32223921768329
 20
46.50148263347074
 30
0.0
210
0.0
220
0.0
230
1.0
 11
1.0
 21
0.0
 31
0.0
 40
1.5
 41
0.0
 46
0.0
 71
     1
 72
     1
  1
名称
  7
SLDTEXTSTYLE1
 73
     1
 44
1.0
101
Embedded Object
 70
     1
 10
34.32223921768329
 20
46.50148263347074
 30
0.0
 11
1.0
 21
0.0
 31
0.0
 40
0.0
 41
0.0
 42
1.5
 43
2.400000000000001
 71
     0
  0
MTEXT
  5
BE
330
1F
100
AcDbEntity
  8
0
  6
Continuous
370
     0
 62
     7
100
AcDbMText
 10
50.03358756317689
 20
46.56175637954665
 30
0.0
210
0.0
220
0.0
230
1.0
 11
1.0
 21
0.0
 31
0.0
 40
1.5
 41
0.0
 46
0.0
 71
     1
 72
     1
  1
签名
  7
SLDTEXTSTYLE1
 73
     1
 44
1.0
101
Embedded Object
 70
     1
 10
50.03358756317689
 20
46.56175637954665
 30
0.0
 11
1.0
 21
0.0
 31
0.0
 40
0.0
 41
0.0
 42
1.877094972067039
 43
2.52108938547486
 71
     0
  0
MTEXT
  5
BF
330
1F
100
AcDbEntity
  8
0
  6
Continuous
370
     0
 62
     7
100
AcDbMText
 10
67.21470196571933
 20
46.57617922121972
 30
0.0
210
0.0
220
0.0
230
1.0
 11
1.0
 21
0.0
 31
0.0
 40
1.5
 41
0.0
 46
0.0
 71
     1
 72
     1
  1
日期
  7
SLDTEXTSTYLE1
 73
     1
 44
1.0
101
Embedded Object
 70
     1
 10
67.21470196571933
 20
46.57617922121972
 30
0.0
 11
1.0
 21
0.0
 31
0.0
 40
0.0
 41
0.0
 42
1.5
 43
2.25
 71
     0
  0
MTEXT
  5
C0
330
1F
100
AcDbEntity
  8
0
  6
Continuous
370
     0
 62
     7
100
AcDbMText
 10
75.64586230876225
 20
25.9860562892453
 30
0.0
210
0.0
220
0.0
230
1.0
 11
1.0
 21
0.0
 31
0.0
 40
1.5
 41
0.0
 46
0.0
 71
     1
 72
     1
  1
材料:
  7
SLDTEXTSTYLE1
 73
     1
 44
1.0
101
Embedded Object
 70
     1
 10
75.64586230876225
 20
25.9860562892453
 30
0.0
 11
1.0
 21
0.0
 31
0.0
 40
0.0
 41
0.0
 42
1.5
 43
2.7
 71
     0
  0
MTEXT
  5
C1
330
1F
100
AcDbEntity
  8
0
  6
Continuous
370
     0
 62
     7
100
AcDbMText
 10
132.614640522876
 20
62.53299357505441
 30
0.0
210
0.0
220
0.0
230
1.0
 11
1.0
 21
0.0
 31
0.0
 40
1.5
 41
0.0
 46
0.0
 71
     1
 72
     1
  1
不调整工程图比例
  7
SLDTEXTSTYLE1
 73
     1
 44
1.0
101
Embedded Object
 70
     1
 10
132.614640522876
 20
62.53299357505441
 30
0.0
 11
1.0
 21
0.0
 31
0.0
 40
0.0
 41
0.0
 42
1.935754189944134
 43
11.01787709497207
 71
     0
  0
MTEXT
  5
C2
330
1F
100
AcDbEntity
  8
0
  6
Continuous
370
     0
 62
     7
100
AcDbMText
 10
173.3275816993464
 20
62.33490868045678
 30
0.0
210
0.0
220
0.0
230
1.0
 11
1.0
 21
0.0
 31
0.0
 40
1.5
 41
0.0
 46
0.0
 71
     1
 72
     1
  1
修订
  7
SLDTEXTSTYLE1
 73
     1
 44
1.0
101
Embedded Object
 70
     1
 10
173.3275816993464
 20
62.33490868045678
 30
0.0
 11
1.0
 21
0.0
 31
0.0
 40
0.0
 41
0.0
 42
1.877094972067039
 43
2.877234636871508
 71
     0
  0
MTEXT
  5
C3
330
1F
100
AcDbEntity
  8
0
  6
Continuous
370
     0
 62
     7
100
AcDbMText
 10
119.9561869366485
 20
46.57617922121974
 30
0.0
210
0.0
220
0.0
230
1.0
 11
1.0
 21
0.0
 31
0.0
 40
1.5
 41
0.0
 46
0.0
 71
     1
 72
     1
  1
标题:
  7
SLDTEXTSTYLE1
 73
     1
 44
1.0
101
Embedded Object
 70
     1
 10
119.9561869366485
 20
46.57617922121974
 30
0.0
 11
1.0
 21
0.0
 31
0.0
 40
0.0
 41
0.0
 42
1.977653631284916
 43
3.217877094972067
 71
     0
  0
MTEXT
  5
C4
330
1F
100
AcDbEntity
  8
0
  6
Continuous
370
     0
 62
     7
100
AcDbMText
 10
119.6286535299477
 20
25.98605628924533
 30
0.0
210
0.0
220
0.0
230
1.0
 11
1.0
 21
0.0
 31
0.0
 40
1.5
 41
0.0
 46
0.0
 71
     1
 72
     1
  1
工程图号
  7
SLDTEXTSTYLE1
 73
     1
 44
1.0
101
Embedded Object
 70
     1
 10
119.6286535299477
 20
25.98605628924533
 30
0.0
 11
1.0
 21
0.0
 31
0.0
 40
0.0
 41
0.0
 42
1.935754189944134
 43
5.358938547486034
 71
     0
  0
MTEXT
  5
C5
330
1F
100
AcDbEntity
  8
0
  6
Continuous
370
     0
 62
     7
100
AcDbMText
 10
120.0739661174923
 20
12.90008727453223
 30
0.0
210
0.0
220
0.0
230
1.0
 11
1.0
 21
0.0
 31
0.0
 40
1.5
 41
0.0
 46
0.0
 71
     1
 72
     1
  1
比例:1:2
  7
SLDTEXTSTYLE1
 73
     1
 44
1.0
101
Embedded Object
 70
     1
 10
120.0739661174923
 20
12.90008727453223
 30
0.0
 11
1.0
 21
0.0
 31
0.0
 40
0.0
 41
0.0
 42
1.5
 43
4.950000000000001
 71
     0
  0
MTEXT
  5
C7
330
1F
100
AcDbEntity
  8
0
  6
Continuous
370
     0
 62
     7
100
AcDbMText
 10
164.478294427816
 20
12.90008727453221
 30
0.0
210
0.0
220
0.0
230
1.0
 11
1.0
 21
0.0
 31
0.0
 40
1.5
 41
0.0
 46
0.0
 71
     1
 72
     1
  1
图纸 1 (共1)
  7
SLDTEXTSTYLE2
 73
     1
 44
1.0
101
Embedded Object
 70
     1
 10
164.478294427816
 20
12.90008727453221
 30
0.0
 11
1.0
 21
0.0
 31
0.0
 40
0.0
 41
0.0
 42
1.935754189944134
 43
8.029950341402856
 71
     0
  0
MTEXT
  5
C8
330
1F
100
AcDbEntity
  8
0
  6
Continuous
370
     0
 62
     7
100
AcDbMText
 10
190.8711564346467
 20
24.40638856899683
 30
0.0
210
0.0
220
0.0
230
1.0
 11
1.0
 21
0.0
 31
0.0
 40
2.910416666666666
 41
0.0
 46
0.0
 71
     1
 72
     1
  1
A4
  7
SLDTEXTSTYLE0
 73
     1
 44
1.0
101
Embedded Object
 70
     1
 10
190.8711564346467
 20
24.40638856899683
 30
0.0
 11
1.0
 21
0.0
 31
0.0
 40
0.0
 41
0.0
 42
2.910416666666666
 43
3.638020833333332
 71
     0
  0
MTEXT
  5
C9
330
1F
100
AcDbEntity
  8
0
  6
Continuous
370
     0
 62
     7
100
AcDbMText
 10
75.61781112812149
 20
12.94931190358806
 30
0.0
210
0.0
220
0.0
230
1.0
 11
1.0
 21
0.0
 31
0.0
 40
1.4986
 41
0.0
 46
0.0
 71
     1
 72
     1
  1
重量:
  7
SLDTEXTSTYLE1
 73
     1
 44
1.0
101
Embedded Object
 70
     1
 10
75.61781112812149
 20
12.94931190358806
 30
0.0
 11
1.0
 21
0.0
 31
0.0
 40
0.0
 41
0.0
 42
1.4986
 43
2.69748
 71
     0
  0
MTEXT
  5
CA
330
1F
100
AcDbEntity
  8
0
  6
Continuous
370
     0
 62
     7
100
AcDbMText
 10
154.5280000373041
 20
23.60691096725083
 30
0.0
210
0.0
220
0.0
230
1.0
 11
1.0
 21
0.0
 31
0.0
 40
6.35
 41
0.0
 46
0.0
 71
     2
 72
     1
  1
麒浚传动_PF60K-14-50-70-M4-L2-12
  7
SLDTEXTSTYLE1
 73
     1
 44
1.0
101
Embedded Object
 70
     1
 10
154.5280000373041
 20
23.60691096725083
 30
0.0
 11
1.0
 21
0.0
 31
0.0
 40
0.0
 41
0.0
 42
8.562878787878788
 43
134.6331418232606
 71
     0
  0
LINE
  5
CB
330
1F
100
AcDbEntity
  8
0
  6
Continuous
370
    25
 62
     7
100
AcDbLine
 10
98.1928128537736
 20
203.9954716981168
 30
0.0
 11
126.4428128537736
 21
203.9954716981168
 31
0.0
  0
LINE
  5
CC
330
1F
100
AcDbEntity
  8
0
  6
Continuous
370
    25
 62
     7
100
AcDbLine
 10
126.4428128537736
 20
233.9954716981168
 30
0.0
 11
98.1928128537736
 21
233.9954716981168
 31
0.0
  0
LINE
  5
CD
330
1F
100
AcDbEntity
  8
0
  6
Continuous
370
    25
 62
     7
100
AcDbLine
 10
132.9428128537736
 20
231.4954716981168
 30
0.0
 11
131.4428128537736
 21
231.4954716981168
 31
0.0
  0
LINE
  5
CE
330
1F
100
AcDbEntity
  8
0
  6
Continuous
370
    25
 62
     7
100
AcDbLine
 10
131.4428128537736
 20
206.4954716981168
 30
0.0
 11
132.9428128537736
 21
206.4954716981168
 31
0.0
  0
LINE
  5
CF
330
1F
100
AcDbEntity
  8
0
  6
Continuous
370
    25
 62
     7
100
AcDbLine
 10
132.9428128537736
 20
214.7454716981168
 30
0.0
 11
133.3928128537736
 21
214.7454716981168
 31
0.0
  0
LINE
  5
D0
330
1F
100
AcDbEntity
  8
0
  6
Continuous
370
    25
 62
     7
100
AcDbLine
 10
133.3928128537736
 20
223.2454716981168
 30
0.0
 11
132.9428128537736
 21
223.2454716981168
 31
0.0
  0
LINE
  5
D1
330
1F
100
AcDbEntity
  8
0
  6
Continuous
370
    25
 62
     7
100
AcDbLine
 10
98.1928128537736
 20
233.9954716981168
 30
0.0
 11
95.69281285377359
 21
233.9954716981168
 31
0.0
  0
LINE
  5
D2
330
1F
100
AcDbEntity
  8
0
  6
Continuous
370
    25
 62
     7
100
AcDbLine
 10
95.69281285377359
 20
203.9954716981168
 30
0.0
 11
98.1928128537736
 21
203.9954716981168
 31
0.0
  0
LINE
  5
D3
330
1F
100
AcDbEntity
  8
0
  6
Continuous
370
    25
 62
     7
100
AcDbLine
 10
98.1928128537736
 20
203.9954716981168
 30
0.0
 11
98.1928128537736
 21
218.9954716981168
 31
0.0
  0
LINE
  5
D4
330
1F
100
AcDbEntity
  8
0
  6
Continuous
370
    25
 62
     7
100
AcDbLine
 10
126.4428128537736
 20
218.9954716981168
 30
0.0
 11
98.1928128537736
 21
218.9954716981168
 31
0.0
  0
LINE
  5
D5
330
1F
100
AcDbEntity
  8
0
  6
Continuous
370
    25
 62
     7
100
AcDbLine
 10
98.1928128537736
 20
218.9954716981168
 30
0.0
 11
98.1928128537736
 21
233.9954716981168
 31
0.0
  0
LINE
  5
D6
330
1F
100
AcDbEntity
  8
0
  6
Continuous
370
    25
 62
     7
100
AcDbLine
 10
131.4428128537736
 20
232.2242282534397
 30
0.0
 11
126.4428128537736
 21
232.2242282534397
 31
0.0
  0
LINE
  5
D7
330
1F
100
AcDbEntity
  8
0
  6
Continuous
370
    25
 62
     7
100
AcDbLine
 10
131.4428128537736
 20
232.2242282534397
 30
0.0
 11
131.4428128537736
 21
205.7667151427939
 31
0.0
  0
LINE
  5
D8
330
1F
100
AcDbEntity
  8
0
  6
Continuous
370
    25
 62
     7
100
AcDbLine
 10
131.4428128537736
 20
205.7667151427939
 30
0.0
 11
126.4428128537736
 21
205.7667151427939
 31
0.0
  0
LINE
  5
D9
330
1F
100
AcDbEntity
  8
0
  6
Continuous
370
    25
 62
     7
100
AcDbLine
 10
126.4428128537736
 20
218.9954716981168
 30
0.0
 11
126.4428128537736
 21
205.7667151427939
 31
0.0
  0
LINE
  5
DA
330
1F
100
AcDbEntity
  8
0
  6
Continuous
370
    25
 62
     7
100
AcDbLine
 10
126.4428128537736
 20
232.2242282534397
 30
0.0
 11
126.4428128537736
 21
218.9954716981168
 31
0.0
  0
LINE
  5
DB
330
1F
100
AcDbEntity
  8
0
  6
Continuous
370
    25
 62
     7
100
AcDbLine
 10
131.4428128537736
 20
205.7667151427939
 30
0.0
 11
131.4428128537736
 21
203.9954716981168
 31
0.0
  0
LINE
  5
DC
330
1F
100
AcDbEntity
  8
0
  6
Continuous
370
    25
 62
     7
100
AcDbLine
 10
131.4428128537736
 20
203.9954716981168
 30
0.0
 11
126.4428128537736
 21
203.9954716981168
 31
0.0
  0
LINE
  5
DD
330
1F
100
AcDbEntity
  8
0
  6
Continuous
370
    25
 62
     7
100
AcDbLine
 10
126.4428128537736
 20
205.7667151427939
 30
0.0
 11
126.4428128537736
 21
203.9954716981168
 31
0.0
  0
LINE
  5
DE
330
1F
100
AcDbEntity
  8
0
  6
Continuous
370
    25
 62
     7
100
AcDbLine
 10
131.4428128537736
 20
233.9954716981168
 30
0.0
 11
126.4428128537736
 21
233.9954716981168
 31
0.0
  0
LINE
  5
DF
330
1F
100
AcDbEntity
  8
0
  6
Continuous
370
    25
 62
     7
100
AcDbLine
 10
131.4428128537736
 20
233.9954716981168
 30
0.0
 11
131.4428128537736
 21
232.2242282534397
 31
0.0
  0
LINE
  5
E0
330
1F
100
AcDbEntity
  8
0
  6
Continuous
370
    25
 62
     7
100
AcDbLine
 10
126.4428128537736
 20
233.9954716981168
 30
0.0
 11
126.4428128537736
 21
232.2242282534397
 31
0.0
  0
LINE
  5
E1
330
1F
100
AcDbEntity
  8
0
  6
Continuous
370
    25
 62
     7
100
AcDbLine
 10
132.9428128537736
 20
218.9954716981168
 30
0.0
 11
131.4428128537736
 21
218.9954716981168
 31
0.0
  0
LINE
  5
E2
330
1F
100
AcDbEntity
  8
0
  6
Continuous
370
    25
 62
     7
100
AcDbLine
 10
132.9428128537736
 20
231.4954716981168
 30
0.0
 11
132.9428128537736
 21
218.9954716981168
 31
0.0
  0
LINE
  5
E3
330
1F
100
AcDbEntity
  8
0
  6
Continuous
370
    25
 62
     7
100
AcDbLine
 10
132.9428128537736
 20
218.9954716981168
 30
0.0
 11
132.9428128537736
 21
206.4954716981168
 31
0.0
  0
LINE
  5
E4
330
1F
100
AcDbEntity
  8
0
  6
Continuous
370
    25
 62
     7
100
AcDbLine
 10
133.3928128537736
 20
218.9954716981168
 30
0.0
 11
132.9428128537736
 21
218.9954716981168
 31
0.0
  0
LINE
  5
E5
330
1F
100
AcDbEntity
  8
0
  6
Continuous
370
    25
 62
     7
100
AcDbLine
 10
133.3928128537736
 20
218.9954716981168
 30
0.0
 11
133.3928128537736
 21
214.7454716981168
 31
0.0
  0
LINE
  5
E6
330
1F
100
AcDbEntity
  8
0
  6
Continuous
370
    25
 62
     7
100
AcDbLine
 10
133.3928128537736
 20
223.2454716981168
 30
0.0
 11
133.3928128537736
 21
218.9954716981168
 31
0.0
  0
LINE
  5
E7
330
1F
100
AcDbEntity
  8
0
  6
Continuous
370
    25
 62
     7
100
AcDbLine
 10
84.94281285377359
 20
205.7667151427939
 30
0.0
 11
94.81117795023127
 21
205.7667151427939
 31
0.0
  0
LINE
  5
E8
330
1F
100
AcDbEntity
  8
0
  6
Continuous
370
    25
 62
     7
100
AcDbLine
 10
84.94281285377359
 20
205.7667151427939
 30
0.0
 11
84.94281285377359
 21
232.2242282534397
 31
0.0
  0
LINE
  5
E9
330
1F
100
AcDbEntity
  8
0
  6
Continuous
370
    25
 62
     7
100
AcDbLine
 10
84.94281285377359
 20
232.2242282534397
 30
0.0
 11
94.81117795023127
 21
232.2242282534397
 31
0.0
  0
SPLINE
  5
EA
330
1F
100
AcDbEntity
  8
0
  6
Continuous
370
    25
 62
     7
100
AcDbSpline
210
0.0
220
0.0
230
1.0
 70
     8
 71
     3
 72
    18
 73
    14
 74
     0
 42
1E-08
 43
1E-10
 40
0.0
 40
0.0
 40
0.0
 40
0.0
 40
0.04953081232522053
 40
0.09930836145662221
 40
0.1493355883946897
 40
0.199615390326953
 40
0.250150621000547
 40
0.3729643413910036
 40
0.5000319440013016
 40
0.62220869185018
 40
0.7499346798851199
 40
0.8712279800653332
 40
1.0
 40
1.0
 40
1.0
 40
1.0
 10
95.69281285377359
 20
218.9954716981168
 30
0.0
 10
95.69231817345847
 20
219.2144927443263
 30
0.0
 10
95.69132634858759
 20
219.6536258859507
 30
0.0
 10
95.68335012597682
 20
220.3139353742873
 30
0.0
 10
95.67063218057302
 20
220.9774779431438
 30
0.0
 10
95.65270045867416
 20
221.6442540862512
 30
0.0
 10
95.61874527707243
 20
222.6325430582223
 30
0.0
 10
95.5562751767351
 20
223.9595596935486
 30
0.0
 10
95.45175575619407
 20
225.6015087794198
 30
0.0
 10
95.3213054573251
 20
227.2633759252188
 30
0.0
 10
95.17157284586628
 20
228.8979627912561
 30
0.0
 10
95.00132124284964
 20
230.5598603549483
 30
0.0
 10
94.87581026937988
 20
231.6584867239086
 30
0.0
 10
94.81117795023127
 20
232.2242282534397
 30
0.0
  0
SPLINE
  5
EB
330
1F
100
AcDbEntity
  8
0
  6
Continuous
370
    25
 62
     7
100
AcDbSpline
210
0.0
220
0.0
230
1.0
 70
     8
 71
     3
 72
    18
 73
    14
 74
     0
 42
1E-08
 43
1E-10
 40
0.0
 40
0.0
 40
0.0
 40
0.0
 40
0.06529574414241117
 40
0.1287377556567587
 40
0.1903273868305189
 40
0.2500661157466151
 40
0.377730944999217
 40
0.4999689398745958
 40
0.626976897902655
 40
0.7498503508358636
 40
0.8339075185651347
 40
0.9172862597125017
 40
1.0
 40
1.0
 40
1.0
 40
1.0
 10
94.81117795023127
 20
205.7667151427939
 30
0.0
 10
94.84428120143451
 20
206.0535431087304
 30
0.0
 10
94.90954790940788
 20
206.6190560541641
 30
0.0
 10
95.00135893472041
 20
207.4556466800943
 30
0.0
 10
95.08687247854795
 20
208.2681988956807
 30
0.0
 10
95.19650127361886
 20
209.363754905027
 30
0.0
 10
95.32123893988336
 20
210.7273032299069
 30
0.0
 10
95.45173478756814
 20
212.3888996722805
 30
0.0
 10
95.55623655776778
 20
214.0311214114827
 30
0.0
 10
95.62577029857385
 20
215.5062085850989
 30
0.0
 10
95.66648581074298
 20
216.7893063996428
 30
0.0
 10
95.68866509069541
 20
217.8952675372099
 30
0.0
 10
95.69143396141452
 20
218.6297171739795
 30
0.0
 10
95.69281285377359
 20
218.9954716981168
 30
0.0
  0
LINE
  5
EC
330
1F
100
AcDbEntity
  8
0
  6
Continuous
370
    25
 62
     7
100
AcDbLine
 10
84.94281285377359
 20
232.2242282534397
 30
0.0
 11
84.94281285377359
 21
233.9954716981168
 31
0.0
  0
LINE
  5
ED
330
1F
100
AcDbEntity
  8
0
  6
Continuous
370
    25
 62
     7
100
AcDbLine
 10
84.94281285377359
 20
233.9954716981168
 30
0.0
 11
94.81117795023127
 21
233.9954716981168
 31
0.0
  0
LINE
  5
EE
330
1F
100
AcDbEntity
  8
0
  6
Continuous
370
    25
 62
     7
100
AcDbLine
 10
94.81117795023127
 20
232.2242282534397
 30
0.0
 11
94.81117795023127
 21
233.9954716981168
 31
0.0
  0
SPLINE
  5
EF
330
1F
100
AcDbEntity
  8
0
  6
Continuous
370
    25
 62
     7
100
AcDbSpline
210
0.0
220
0.0
230
1.0
 70
     8
 71
     3
 72
    18
 73
    14
 74
     0
 42
1E-08
 43
1E-10
 40
0.0
 40
0.0
 40
0.0
 40
0.0
 40
0.06529574414841391
 40
0.1287377556647689
 40
0.190327386836541
 40
0.2500661157466539
 40
0.3777309450090465
 40
0.4999689398746378
 40
0.6269768979046025
 40
0.7498503508358839
 40
0.8339075185644956
 40
0.9172862597118556
 40
1.0
 40
1.0
 40
1.0
 40
1.0
 10
94.81117795023127
 20
233.9954716981168
 30
0.0
 10
94.8442812014376
 20
233.9954716981168
 30
0.0
 10
94.90954790941514
 20
233.9954716981168
 30
0.0
 10
95.00135893473086
 20
233.9954716981168
 30
0.0
 10
95.08687247855565
 20
233.9954716981168
 30
0.0
 10
95.19650127362488
 20
233.9954716981168
 30
0.0
 10
95.32123893988623
 20
233.9954716981168
 30
0.0
 10
95.45173478757218
 20
233.9954716981168
 30
0.0
 10
95.55623655776688
 20
233.9954716981168
 30
0.0
 10
95.6257702985741
 20
233.9954716981168
 30
0.0
 10
95.6664858107431
 20
233.9954716981168
 30
0.0
 10
95.68866509069545
 20
233.9954716981168
 30
0.0
 10
95.69143396141453
 20
233.9954716981168
 30
0.0
 10
95.69281285377359
 20
233.9954716981168
 30
0.0
  0
LINE
  5
F0
330
1F
100
AcDbEntity
  8
0
  6
Continuous
370
    25
 62
     7
100
AcDbLine
 10
95.69281285377359
 20
218.9954716981168
 30
0.0
 11
95.69281285377359
 21
233.9954716981168
 31
0.0
  0
LINE
  5
F1
330
1F
100
AcDbEntity
  8
0
  6
Continuous
370
    25
 62
     7
100
AcDbLine
 10
94.81117795023127
 20
203.9954716981168
 30
0.0
 11
94.81117795023127
 21
205.7667151427939
 31
0.0
  0
LINE
  5
F2
330
1F
100
AcDbEntity
  8
0
  6
Continuous
370
    25
 62
     7
100
AcDbLine
 10
95.69281285377359
 20
203.9954716981168
 30
0.0
 11
95.69281285377359
 21
218.9954716981168
 31
0.0
  0
SPLINE
  5
F3
330
1F
100
AcDbEntity
  8
0
  6
Continuous
370
    25
 62
     7
100
AcDbSpline
210
0.0
220
0.0
230
1.0
 70
     8
 71
     3
 72
    18
 73
    14
 74
     0
 42
1E-08
 43
1E-10
 40
0.0
 40
0.0
 40
0.0
 40
0.0
 40
0.04953081232193806
 40
0.0993083614516977
 40
0.1493355883897638
 40
0.1996153903236662
 40
0.250150621000538
 40
0.372964341379033
 40
0.5000319440012875
 40
0.6222086918153733
 40
0.7499346798850829
 40
0.8712279800320781
 40
0.9999999999999999
 40
0.9999999999999999
 40
0.9999999999999999
 40
0.9999999999999999
 10
95.69281285377359
 20
203.9954716981168
 30
0.0
 10
95.69231817345846
 20
203.9954716981168
 30
0.0
 10
95.69132634858752
 20
203.9954716981168
 30
0.0
 10
95.68335012597663
 20
203.9954716981168
 30
0.0
 10
95.67063218057281
 20
203.9954716981168
 30
0.0
 10
95.65270045867368
 20
203.9954716981168
 30
0.0
 10
95.61874527707621
 20
203.9954716981168
 30
0.0
 10
95.55627517673676
 20
203.9954716981168
 30
0.0
 10
95.45175575620992
 20
203.9954716981168
 30
0.0
 10
95.3213054573324
 20
203.9954716981168
 30
0.0
 10
95.17157284589531
 20
203.9954716981168
 30
0.0
 10
95.0013212428714
 20
203.9954716981168
 30
0.0
 10
94.87581026939829
 20
203.9954716981168
 30
0.0
 10
94.81117795023127
 20
203.9954716981168
 30
0.0
  0
LINE
  5
F4
330
1F
100
AcDbEntity
  8
0
  6
Continuous
370
    25
 62
     7
100
AcDbLine
 10
98.1928128537736
 20
218.9954716981168
 30
0.0
 11
95.69281285377359
 21
218.9954716981168
 31
0.0
  0
LINE
  5
F5
330
1F
100
AcDbEntity
  8
0
  6
Continuous
370
    25
 62
     7
100
AcDbLine
 10
98.1928128537736
 20
233.9954716981168
 30
0.0
 11
98.1928128537736
 21
218.9954716981168
 31
0.0
  0
LINE
  5
F6
330
1F
100
AcDbEntity
  8
0
  6
Continuous
370
    25
 62
     7
100
AcDbLine
 10
98.1928128537736
 20
218.9954716981168
 30
0.0
 11
98.1928128537736
 21
203.9954716981168
 31
0.0
  0
LINE
  5
F7
330
1F
100
AcDbEntity
  8
0
  6
Continuous
370
    25
 62
     7
100
AcDbLine
 10
84.94281285377359
 20
203.9954716981168
 30
0.0
 11
84.94281285377359
 21
205.7667151427939
 31
0.0
  0
LINE
  5
F8
330
1F
100
AcDbEntity
  8
0
  6
Continuous
370
    25
 62
     7
100
AcDbLine
 10
84.94281285377359
 20
203.9954716981168
 30
0.0
 11
94.81117795023127
 21
203.9954716981168
 31
0.0
  0
ARC
  5
F9
330
1F
100
AcDbEntity
  8
0
  6
Continuous
370
    25
 62
     7
100
AcDbCircle
 10
40.11126812169103
 20
231.3698403688815
 30
0.0
 40
0.8250000000000028
100
AcDbArc
 50
180.0
 51
0.0
  0
ARC
  5
FA
330
1F
100
AcDbEntity
  8
0
  6
Continuous
370
    25
 62
     7
100
AcDbCircle
 10
40.11126812169103
 20
231.3698403688815
 30
0.0
 40
0.8250000000000028
100
AcDbArc
 50
0.0
 51
180.0
  0
ARC
  5
FB
330
1F
100
AcDbEntity
  8
0
  6
Continuous
370
    25
 62
     7
100
AcDbCircle
 10
40.11126812169093
 20
206.6211030273522
 30
0.0
 40
0.8250000000000028
100
AcDbArc
 50
180.0
 51
0.0
  0
ARC
  5
FC
330
1F
100
AcDbEntity
  8
0
  6
Continuous
370
    25
 62
     7
100
AcDbCircle
 10
40.11126812169093
 20
206.6211030273522
 30
0.0
 40
0.8250000000000028
100
AcDbArc
 50
0.0
 51
180.0
  0
ARC
  5
FD
330
1F
100
AcDbEntity
  8
0
  6
Continuous
370
    25
 62
     7
100
AcDbCircle
 10
64.86000546322009
 20
206.6211030273522
 30
0.0
 40
0.8250000000000171
100
AcDbArc
 50
180.0
 51
0.0
  0
ARC
  5
FE
330
1F
100
AcDbEntity
  8
0
  6
Continuous
370
    25
 62
     7
100
AcDbCircle
 10
64.86000546322009
 20
206.6211030273522
 30
0.0
 40
0.8250000000000171
100
AcDbArc
 50
0.0
 51
180.0
  0
ARC
  5
FF
330
1F
100
AcDbEntity
  8
0
  6
Continuous
370
    25
 62
     7
100
AcDbCircle
 10
64.86000546322009
 20
231.3698403688814
 30
0.0
 40
0.8250000000000171
100
AcDbArc
 50
180.0
 51
0.0
  0
ARC
  5
100
330
1F
100
AcDbEntity
  8
0
  6
Continuous
370
    25
 62
     7
100
AcDbCircle
 10
64.86000546322009
 20
231.3698403688814
 30
0.0
 40
0.8250000000000171
100
AcDbArc
 50
0.0
 51
180.0
  0
ARC
  5
101
330
1F
100
AcDbEntity
  8
0
  6
Continuous
370
    25
 62
     7
100
AcDbCircle
 10
52.48563679245551
 20
218.9954716981168
 30
0.0
 40
12.5
100
AcDbArc
 50
180.0
 51
0.0
  0
ARC
  5
102
330
1F
100
AcDbEntity
  8
0
  6
Continuous
370
    25
 62
     7
100
AcDbCircle
 10
52.48563679245551
 20
218.9954716981168
 30
0.0
 40
12.5
100
AcDbArc
 50
0.0
 51
180.0
  0
LINE
  5
103
330
1F
100
AcDbEntity
  8
0
  6
Continuous
370
    25
 62
     7
100
AcDbLine
 10
67.48563679245551
 20
205.7667151427939
 30
0.0
 11
67.48563679245551
 21
232.2242282534397
 31
0.0
  0
ARC
  5
104
330
1F
100
AcDbEntity
  8
0
  6
Continuous
370
    25
 62
     7
100
AcDbCircle
 10
52.48563679245551
 20
218.9954716981168
 30
0.0
 40
19.99999999999999
100
AcDbArc
 50
41.40962210927085
 51
48.59037789072917
  0
ARC
  5
105
330
1F
100
AcDbEntity
  8
0
  6
Continuous
370
    25
 62
     7
100
AcDbCircle
 10
52.48563679245551
 20
218.9954716981168
 30
0.0
 40
19.99999999999999
100
AcDbArc
 50
311.4096221092717
 51
318.59037789073
  0
LINE
  5
106
330
1F
100
AcDbEntity
  8
0
  6
Continuous
370
    25
 62
     7
100
AcDbLine
 10
39.25688023713256
 20
203.9954716981168
 30
0.0
 11
65.71439334777845
 21
203.9954716981168
 31
0.0
  0
LINE
  5
107
330
1F
100
AcDbEntity
  8
0
  6
Continuous
370
    25
 62
     7
100
AcDbLine
 10
65.71439334777845
 20
233.9954716981168
 30
0.0
 11
39.25688023713256
 21
233.9954716981168
 31
0.0
  0
ARC
  5
108
330
1F
100
AcDbEntity
  8
0
  6
Continuous
370
    25
 62
     7
100
AcDbCircle
 10
52.48563679245551
 20
218.9954716981168
 30
0.0
 40
20.0
100
AcDbArc
 50
131.4096221092709
 51
138.5903778907292
  0
LINE
  5
109
330
1F
100
AcDbEntity
  8
0
  6
Continuous
370
    25
 62
     7
100
AcDbLine
 10
37.48563679245551
 20
232.2242282534397
 30
0.0
 11
37.48563679245551
 21
205.7667151427939
 31
0.0
  0
ARC
  5
10A
330
1F
100
AcDbEntity
  8
0
  6
Continuous
370
    25
 62
     7
100
AcDbCircle
 10
52.48563679245551
 20
218.9954716981168
 30
0.0
 40
20.0
100
AcDbArc
 50
221.4096221092716
 51
228.59037789073
  0
ARC
  5
10B
330
1F
100
AcDbEntity
  8
0
  6
Continuous
370
    25
 62
     7
100
AcDbCircle
 10
52.48563679245551
 20
218.9954716981168
 30
0.0
 40
10.5
100
AcDbArc
 50
0.0
 51
180.0
  0
ARC
  5
10C
330
1F
100
AcDbEntity
  8
0
  6
Continuous
370
    25
 62
     7
100
AcDbCircle
 10
52.48563679245551
 20
218.9954716981168
 30
0.0
 40
10.5
100
AcDbArc
 50
180.0
 51
0.0
  0
ARC
  5
10D
330
1F
100
AcDbEntity
  8
0
  6
Continuous
370
    25
 62
     7
100
AcDbCircle
 10
52.48563679245551
 20
218.9954716981168
 30
0.0
 40
3.5
100
AcDbArc
 50
180.0
 51
0.0
  0
ARC
  5
10E
330
1F
100
AcDbEntity
  8
0
  6
Continuous
370
    25
 62
     7
100
AcDbCircle
 10
52.48563679245551
 20
218.9954716981168
 30
0.0
 40
3.5
100
AcDbArc
 50
0.0
 51
180.0
  0
ARC
  5
10F
330
1F
100
AcDbEntity
  8
0
  6
Continuous
370
    25
 62
     7
100
AcDbCircle
 10
52.48563679245551
 20
218.9954716981168
 30
0.0
 40
8.0
100
AcDbArc
 50
180.0
 51
0.0
  0
ARC
  5
110
330
1F
100
AcDbEntity
  8
0
  6
Continuous
370
    25
 62
     7
100
AcDbCircle
 10
52.48563679245551
 20
218.9954716981168
 30
0.0
 40
8.0
100
AcDbArc
 50
0.0
 51
180.0
  0
LINE
  5
111
330
1F
100
AcDbEntity
  8
0
  6
Continuous
370
    25
 62
     7
100
AcDbLine
 10
40.11126812169103
 20
231.3698403688815
 30
0.0
 11
40.93626812169103
 21
231.3698403688815
 31
0.0
  0
LINE
  5
112
330
1F
100
AcDbEntity
  8
0
  6
Continuous
370
    25
 62
     7
100
AcDbLine
 10
40.11126812169103
 20
231.3698403688815
 30
0.0
 11
39.28626812169103
 21
231.3698403688815
 31
0.0
  0
LINE
  5
113
330
1F
100
AcDbEntity
  8
0
  6
Continuous
370
    25
 62
     7
100
AcDbLine
 10
40.11126812169093
 20
206.6211030273522
 30
0.0
 11
40.93626812169093
 21
206.6211030273522
 31
0.0
  0
LINE
  5
114
330
1F
100
AcDbEntity
  8
0
  6
Continuous
370
    25
 62
     7
100
AcDbLine
 10
40.11126812169093
 20
206.6211030273522
 30
0.0
 11
39.28626812169093
 21
206.6211030273522
 31
0.0
  0
LINE
  5
115
330
1F
100
AcDbEntity
  8
0
  6
Continuous
370
    25
 62
     7
100
AcDbLine
 10
64.86000546322009
 20
231.3698403688814
 30
0.0
 11
64.03500546322007
 21
231.3698403688814
 31
0.0
  0
LINE
  5
116
330
1F
100
AcDbEntity
  8
0
  6
Continuous
370
    25
 62
     7
100
AcDbLine
 10
64.86000546322009
 20
231.3698403688814
 30
0.0
 11
65.68500546322008
 21
231.3698403688814
 31
0.0
  0
LINE
  5
117
330
1F
100
AcDbEntity
  8
0
  6
Continuous
370
    25
 62
     7
100
AcDbLine
 10
64.86000546322009
 20
206.6211030273522
 30
0.0
 11
65.68500546322008
 21
206.6211030273522
 31
0.0
  0
LINE
  5
118
330
1F
100
AcDbEntity
  8
0
  6
Continuous
370
    25
 62
     7
100
AcDbLine
 10
64.86000546322009
 20
206.6211030273522
 30
0.0
 11
64.03500546322007
 21
206.6211030273522
 31
0.0
  0
LINE
  5
119
330
1F
100
AcDbEntity
  8
0
  6
PHANTOM
370
    35
 62
     7
100
AcDbLine
 10
52.48563679245557
 20
237.5984761078265
 30
0.0
 11
52.48563679245557
 21
200.3924672883998
 31
0.0
  0
LINE
  5
11A
330
1F
100
AcDbEntity
  8
0
  6
Continuous
370
    35
 62
     7
100
AcDbLine
 10
64.48563679245557
 20
235.5984761078265
 30
0.0
 11
52.48563679245557
 21
235.5984761078265
 31
0.0
  0
INSERT
  5
122
330
1F
100
AcDbEntity
  8
0
  6
Continuous
370
    35
 62
     7
100
AcDbBlockReference
  2
_Closed
 10
52.48563679245557
 20
235.5984761078265
 30
-1.549976604602952E-12
 41
6.0
 42
6.0
 43
1.0
 50
180.0000000000004
  0
LINE
  5
123
330
1F
100
AcDbEntity
  8
0
  6
Continuous
370
    35
 62
     7
100
AcDbLine
 10
64.48563679245557
 20
202.3924672883998
 30
0.0
 11
52.48563679245557
 21
202.3924672883998
 31
0.0
  0
INSERT
  5
124
330
1F
100
AcDbEntity
  8
0
  6
Continuous
370
    35
 62
     7
100
AcDbBlockReference
  2
_Closed
 10
52.48563679245557
 20
202.3924672883998
 30
-1.549976604602952E-12
 41
6.0
 42
6.0
 43
1.0
 50
180.0000000000004
  0
MTEXT
  5
125
330
1F
100
AcDbEntity
  8
0
  6
Continuous
 62
     7
100
AcDbMText
 10
59.67250054107912
 20
245.5851575941392
 30
0.0
210
0.0
220
0.0
230
1.0
 11
1.0
 21
0.0
 31
0.0
 40
6.35
 41
0.0
 46
0.0
 71
     1
 72
     1
  1
B
  7
SLDTEXTSTYLE0
 73
     1
 44
1.0
101
Embedded Object
 70
     1
 10
59.67250054107912
 20
245.5851575941392
 30
0.0
 11
1.0
 21
0.0
 31
0.0
 40
0.0
 41
0.0
 42
6.35
 43
3.174999999999999
 71
     0
  0
MTEXT
  5
126
330
1F
100
AcDbEntity
  8
0
  6
Continuous
 62
     7
100
AcDbMText
 10
59.67250054107912
 20
199.0669023534577
 30
0.0
210
0.0
220
0.0
230
1.0
 11
1.0
 21
0.0
 31
0.0
 40
6.35
 41
0.0
 46
0.0
 71
     1
 72
     1
  1
B
  7
SLDTEXTSTYLE0
 73
     1
 44
1.0
101
Embedded Object
 70
     1
 10
59.67250054107912
 20
199.0669023534577
 30
0.0
 11
1.0
 21
0.0
 31
0.0
 40
0.0
 41
0.0
 42
6.35
 43
3.174999999999999
 71
     0
  0
ARC
  5
127
330
1F
100
AcDbEntity
  8
0
  6
Continuous
370
    25
 62
     7
100
AcDbCircle
 10
170.85134433962
 20
218.9954716981168
 30
0.0
 40
3.000000000000028
100
AcDbArc
 50
180.0
 51
0.0
  0
ARC
  5
128
330
1F
100
AcDbEntity
  8
0
  6
Continuous
370
    25
 62
     7
100
AcDbCircle
 10
170.85134433962
 20
218.9954716981168
 30
0.0
 40
4.250000000000028
100
AcDbArc
 50
0.0
 51
180.0
  0
ARC
  5
129
330
1F
100
AcDbEntity
  8
0
  6
Continuous
370
    25
 62
     7
100
AcDbCircle
 10
170.85134433962
 20
218.9954716981168
 30
0.0
 40
4.250000000000028
100
AcDbArc
 50
180.0
 51
0.0
  0
ARC
  5
12A
330
1F
100
AcDbEntity
  8
0
  6
Continuous
370
    25
 62
     7
100
AcDbCircle
 10
170.85134433962
 20
218.9954716981168
 30
0.0
 40
3.000000000000028
100
AcDbArc
 50
109.4712206344907
 51
180.0
  0
LINE
  5
12B
330
1F
100
AcDbEntity
  8
0
  6
Continuous
370
    25
 62
     7
100
AcDbLine
 10
169.85134433962
 20
222.8954716981168
 30
0.0
 11
169.85134433962
 21
221.823898822863
 31
0.0
  0
ARC
  5
12C
330
1F
100
AcDbEntity
  8
0
  6
Continuous
370
    25
 62
     7
100
AcDbCircle
 10
170.85134433962
 20
218.9954716981168
 30
0.0
 40
3.0
100
AcDbArc
 50
0.0
 51
70.52877936550928
  0
LINE
  5
12D
330
1F
100
AcDbEntity
  8
0
  6
Continuous
370
    25
 62
     7
100
AcDbLine
 10
171.85134433962
 20
222.8954716981168
 30
0.0
 11
169.85134433962
 21
222.8954716981168
 31
0.0
  0
LINE
  5
12E
330
1F
100
AcDbEntity
  8
0
  6
Continuous
370
    25
 62
     7
100
AcDbLine
 10
171.85134433962
 20
221.823898822863
 30
0.0
 11
171.85134433962
 21
222.8954716981168
 31
0.0
  0
ARC
  5
12F
330
1F
100
AcDbEntity
  8
0
  6
Continuous
370
    25
 62
     7
100
AcDbCircle
 10
170.85134433962
 20
218.9954716981168
 30
0.0
 40
12.5
100
AcDbArc
 50
0.0
 51
180.0
  0
ARC
  5
130
330
1F
100
AcDbEntity
  8
0
  6
Continuous
370
    25
 62
     7
100
AcDbCircle
 10
170.85134433962
 20
218.9954716981168
 30
0.0
 40
12.5
100
AcDbArc
 50
180.0
 51
0.0
  0
LINE
  5
131
330
1F
100
AcDbEntity
  8
0
  6
Continuous
370
    25
 62
     7
100
AcDbLine
 10
155.85134433962
 20
232.2242282534397
 30
0.0
 11
155.85134433962
 21
205.7667151427939
 31
0.0
  0
ARC
  5
132
330
1F
100
AcDbEntity
  8
0
  6
Continuous
370
    25
 62
     7
100
AcDbCircle
 10
170.85134433962
 20
218.9954716981168
 30
0.0
 40
19.99999999999999
100
AcDbArc
 50
131.4096221092709
 51
138.5903778907292
  0
LINE
  5
133
330
1F
100
AcDbEntity
  8
0
  6
Continuous
370
    25
 62
     7
100
AcDbLine
 10
184.080100894943
 20
233.9954716981168
 30
0.0
 11
157.6225877842971
 21
233.9954716981168
 31
0.0
  0
ARC
  5
134
330
1F
100
AcDbEntity
  8
0
  6
Continuous
370
    25
 62
     7
100
AcDbCircle
 10
170.85134433962
 20
218.9954716981168
 30
0.0
 40
19.99999999999999
100
AcDbArc
 50
41.40962210927085
 51
48.59037789072917
  0
LINE
  5
135
330
1F
100
AcDbEntity
  8
0
  6
Continuous
370
    25
 62
     7
100
AcDbLine
 10
185.85134433962
 20
205.7667151427939
 30
0.0
 11
185.85134433962
 21
232.2242282534397
 31
0.0
  0
ARC
  5
136
330
1F
100
AcDbEntity
  8
0
  6
Continuous
370
    25
 62
     7
100
AcDbCircle
 10
170.85134433962
 20
218.9954716981168
 30
0.0
 40
19.99999999999999
100
AcDbArc
 50
311.4096221092717
 51
318.59037789073
  0
LINE
  5
137
330
1F
100
AcDbEntity
  8
0
  6
Continuous
370
    25
 62
     7
100
AcDbLine
 10
157.6225877842971
 20
203.9954716981168
 30
0.0
 11
184.080100894943
 21
203.9954716981168
 31
0.0
  0
ARC
  5
138
330
1F
100
AcDbEntity
  8
0
  6
Continuous
370
    25
 62
     7
100
AcDbCircle
 10
170.85134433962
 20
218.9954716981168
 30
0.0
 40
19.99999999999999
100
AcDbArc
 50
221.4096221092716
 51
228.59037789073
  0
ARC
  5
139
330
1F
100
AcDbEntity
  8
0
  6
Continuous
370
    25
 62
     7
100
AcDbCircle
 10
183.2257130103846
 20
206.6211030273522
 30
0.0
 40
1.375
100
AcDbArc
 50
180.0
 51
0.0
  0
ARC
  5
13A
330
1F
100
AcDbEntity
  8
0
  6
Continuous
370
    25
 62
     7
100
AcDbCircle
 10
183.2257130103846
 20
206.6211030273522
 30
0.0
 40
1.375
100
AcDbArc
 50
0.0
 51
180.0
  0
ARC
  5
13B
330
1F
100
AcDbEntity
  8
0
  6
Continuous
370
    25
 62
     7
100
AcDbCircle
 10
158.4769756688554
 20
206.6211030273522
 30
0.0
 40
1.375000000000057
100
AcDbArc
 50
180.0
 51
0.0
  0
ARC
  5
13C
330
1F
100
AcDbEntity
  8
0
  6
Continuous
370
    25
 62
     7
100
AcDbCircle
 10
158.4769756688554
 20
206.6211030273522
 30
0.0
 40
1.375000000000057
100
AcDbArc
 50
0.0
 51
180.0
  0
ARC
  5
13D
330
1F
100
AcDbEntity
  8
0
  6
Continuous
370
    25
 62
     7
100
AcDbCircle
 10
158.4769756688555
 20
231.3698403688815
 30
0.0
 40
1.375
100
AcDbArc
 50
180.0
 51
0.0
  0
ARC
  5
13E
330
1F
100
AcDbEntity
  8
0
  6
Continuous
370
    25
 62
     7
100
AcDbCircle
 10
158.4769756688555
 20
231.3698403688815
 30
0.0
 40
1.375
100
AcDbArc
 50
0.0
 51
180.0
  0
ARC
  5
13F
330
1F
100
AcDbEntity
  8
0
  6
Continuous
370
    25
 62
     7
100
AcDbCircle
 10
183.2257130103846
 20
231.3698403688814
 30
0.0
 40
1.375000000000028
100
AcDbArc
 50
180.0
 51
0.0
  0
ARC
  5
140
330
1F
100
AcDbEntity
  8
0
  6
Continuous
370
    25
 62
     7
100
AcDbCircle
 10
183.2257130103846
 20
231.3698403688814
 30
0.0
 40
1.375000000000028
100
AcDbArc
 50
0.0
 51
180.0
  0
LINE
  5
141
330
1F
100
AcDbEntity
  8
0
  6
Continuous
370
    25
 62
     7
100
AcDbLine
 10
132.4217563684827
 20
164.3647017095761
 30
0.0
 11
132.4217563684827
 21
164.0147017095761
 31
0.0
  0
LINE
  5
142
330
1F
100
AcDbEntity
  8
0
  6
Continuous
370
    25
 62
     7
100
AcDbLine
 10
118.4217563684827
 20
164.0147017095761
 30
0.0
 11
132.4217563684827
 21
164.0147017095761
 31
0.0
  0
LINE
  5
143
330
1F
100
AcDbEntity
  8
0
  6
Continuous
370
    25
 62
     7
100
AcDbLine
 10
118.4217563684827
 20
164.0147017095761
 30
0.0
 11
118.4217563684827
 21
157.1147017095761
 31
0.0
  0
LINE
  5
144
330
1F
100
AcDbEntity
  8
0
  6
Continuous
370
    25
 62
     7
100
AcDbLine
 10
132.4217563684827
 20
157.1147017095761
 30
0.0
 11
118.4217563684827
 21
157.1147017095761
 31
0.0
  0
LINE
  5
145
330
1F
100
AcDbEntity
  8
0
  6
Continuous
370
    25
 62
     7
100
AcDbLine
 10
132.4217563684827
 20
157.1147017095761
 30
0.0
 11
132.4217563684827
 21
155.8647017095761
 31
0.0
  0
LINE
  5
146
330
1F
100
AcDbEntity
  8
0
  6
Continuous
370
    25
 62
     7
100
AcDbLine
 10
132.4217563684827
 20
155.8647017095761
 30
0.0
 11
131.9717563684827
 21
155.8647017095761
 31
0.0
  0
LINE
  5
147
330
1F
100
AcDbEntity
  8
0
  6
Continuous
370
    25
 62
     7
100
AcDbLine
 10
131.9717563684827
 20
155.8647017095761
 30
0.0
 11
131.9717563684827
 21
147.6147017095761
 31
0.0
  0
LINE
  5
148
330
1F
100
AcDbEntity
  8
0
  6
Continuous
370
    25
 62
     7
100
AcDbLine
 10
131.9717563684827
 20
147.6147017095761
 30
0.0
 11
130.4717563684827
 21
147.6147017095761
 31
0.0
  0
LINE
  5
149
330
1F
100
AcDbEntity
  8
0
  6
Continuous
370
    25
 62
     7
100
AcDbLine
 10
130.4717563684827
 20
147.6147017095761
 30
0.0
 11
130.4717563684827
 21
145.1147017095761
 31
0.0
  0
LINE
  5
14A
330
1F
100
AcDbEntity
  8
0
  6
Continuous
370
    25
 62
     7
100
AcDbLine
 10
125.4717563684827
 20
145.1147017095761
 30
0.0
 11
130.4717563684827
 21
145.1147017095761
 31
0.0
  0
LINE
  5
14B
330
1F
100
AcDbEntity
  8
0
  6
Continuous
370
    25
 62
     7
100
AcDbLine
 10
125.4717563684827
 20
145.1147017095761
 30
0.0
 11
97.2217563684827
 21
145.1147017095761
 31
0.0
  0
LINE
  5
14C
330
1F
100
AcDbEntity
  8
0
  6
Continuous
370
    25
 62
     7
100
AcDbLine
 10
97.2217563684827
 20
145.1147017095761
 30
0.0
 11
97.2217563684827
 21
156.1147017095761
 31
0.0
  0
LINE
  5
14D
330
1F
100
AcDbEntity
  8
0
  6
Continuous
370
    25
 62
     7
100
AcDbLine
 10
99.7217563684827
 20
156.1147017095761
 30
0.0
 11
97.2217563684827
 21
156.1147017095761
 31
0.0
  0
LINE
  5
14E
330
1F
100
AcDbEntity
  8
0
  6
Continuous
370
    25
 62
     7
100
AcDbLine
 10
99.7217563684827
 20
156.1147017095761
 30
0.0
 11
99.7217563684827
 21
164.1147017095761
 31
0.0
  0
LINE
  5
14F
330
1F
100
AcDbEntity
  8
0
  6
Continuous
370
    25
 62
     7
100
AcDbLine
 10
97.2217563684827
 20
164.1147017095761
 30
0.0
 11
99.7217563684827
 21
164.1147017095761
 31
0.0
  0
LINE
  5
150
330
1F
100
AcDbEntity
  8
0
  6
Continuous
370
    25
 62
     7
100
AcDbLine
 10
97.2217563684827
 20
164.1147017095761
 30
0.0
 11
97.2217563684827
 21
175.1147017095761
 31
0.0
  0
LINE
  5
151
330
1F
100
AcDbEntity
  8
0
  6
Continuous
370
    25
 62
     7
100
AcDbLine
 10
97.2217563684827
 20
175.1147017095761
 30
0.0
 11
125.4717563684827
 21
175.1147017095761
 31
0.0
  0
LINE
  5
152
330
1F
100
AcDbEntity
  8
0
  6
Continuous
370
    25
 62
     7
100
AcDbLine
 10
130.4717563684827
 20
175.1147017095761
 30
0.0
 11
125.4717563684827
 21
175.1147017095761
 31
0.0
  0
LINE
  5
153
330
1F
100
AcDbEntity
  8
0
  6
Continuous
370
    25
 62
     7
100
AcDbLine
 10
130.4717563684827
 20
175.1147017095761
 30
0.0
 11
130.4717563684827
 21
172.6147017095761
 31
0.0
  0
LINE
  5
154
330
1F
100
AcDbEntity
  8
0
  6
Continuous
370
    25
 62
     7
100
AcDbLine
 10
130.4717563684827
 20
172.6147017095761
 30
0.0
 11
131.9717563684827
 21
172.6147017095761
 31
0.0
  0
LINE
  5
155
330
1F
100
AcDbEntity
  8
0
  6
Continuous
370
    25
 62
     7
100
AcDbLine
 10
131.9717563684827
 20
172.6147017095761
 30
0.0
 11
131.9717563684827
 21
164.3647017095761
 31
0.0
  0
LINE
  5
156
330
1F
100
AcDbEntity
  8
0
  6
Continuous
370
    25
 62
     7
100
AcDbLine
 10
131.9717563684827
 20
164.3647017095761
 30
0.0
 11
132.4217563684827
 21
164.3647017095761
 31
0.0
  0
LINE
  5
157
330
1F
100
AcDbEntity
  8
0
  6
Continuous
370
    25
 62
     7
100
AcDbLine
 10
118.4217563684827
 20
160.1147017095761
 30
0.0
 11
132.4217563684827
 21
160.1147017095761
 31
0.0
  0
LINE
  5
158
330
1F
100
AcDbEntity
  8
0
  6
Continuous
370
    25
 62
     7
100
AcDbLine
 10
132.4217563684827
 20
157.1147017095761
 30
0.0
 11
132.4217563684827
 21
160.1147017095761
 31
0.0
  0
LINE
  5
159
330
1F
100
AcDbEntity
  8
0
  6
Continuous
370
    25
 62
     7
100
AcDbLine
 10
99.7217563684827
 20
160.1147017095761
 30
0.0
 11
97.2217563684827
 21
160.1147017095761
 31
0.0
  0
LINE
  5
15A
330
1F
100
AcDbEntity
  8
0
  6
Continuous
370
    25
 62
     7
100
AcDbLine
 10
118.4217563684827
 20
162.9431288343223
 30
0.0
 11
132.4217563684827
 21
162.9431288343223
 31
0.0
  0
LINE
  5
15B
330
1F
100
AcDbEntity
  8
0
  6
Continuous
370
    25
 62
     7
100
AcDbLine
 10
132.4217563684827
 20
160.1147017095761
 30
0.0
 11
132.4217563684827
 21
162.9431288343223
 31
0.0
  0
LINE
  5
15C
330
1F
100
AcDbEntity
  8
0
  6
Continuous
370
    25
 62
     7
100
AcDbLine
 10
132.4217563684827
 20
162.9431288343223
 30
0.0
 11
132.4217563684827
 21
164.0147017095761
 31
0.0
  0
LINE
  5
15D
330
1F
100
AcDbEntity
  8
0
  6
Continuous
370
    25
 62
     7
100
AcDbLine
 10
97.2217563684827
 20
145.1147017095761
 30
0.0
 11
94.7217563684827
 21
145.1147017095761
 31
0.0
  0
LINE
  5
15E
330
1F
100
AcDbEntity
  8
0
  6
Continuous
370
    25
 62
     7
100
AcDbLine
 10
83.9717563684827
 20
145.1147017095761
 30
0.0
 11
94.7217563684827
 21
145.1147017095761
 31
0.0
  0
LINE
  5
15F
330
1F
100
AcDbEntity
  8
0
  6
Continuous
370
    25
 62
     7
100
AcDbLine
 10
83.9717563684827
 20
145.1147017095761
 30
0.0
 11
83.9717563684827
 21
147.6147017095761
 31
0.0
  0
LINE
  5
160
330
1F
100
AcDbEntity
  8
0
  6
Continuous
370
    25
 62
     7
100
AcDbLine
 10
86.4717563684827
 20
147.6147017095761
 30
0.0
 11
83.9717563684827
 21
147.6147017095761
 31
0.0
  0
LINE
  5
161
330
1F
100
AcDbEntity
  8
0
  6
Continuous
370
    25
 62
     7
100
AcDbLine
 10
86.4717563684827
 20
147.6147017095761
 30
0.0
 11
86.4717563684827
 21
149.6147017095761
 31
0.0
  0
LINE
  5
162
330
1F
100
AcDbEntity
  8
0
  6
Continuous
370
    25
 62
     7
100
AcDbLine
 10
95.7217563684827
 20
149.6147017095761
 30
0.0
 11
86.4717563684827
 21
149.6147017095761
 31
0.0
  0
LINE
  5
163
330
1F
100
AcDbEntity
  8
0
  6
Continuous
370
    25
 62
     7
100
AcDbLine
 10
95.7217563684827
 20
149.6147017095761
 30
0.0
 11
95.7217563684827
 21
152.1147017095761
 31
0.0
  0
LINE
  5
164
330
1F
100
AcDbEntity
  8
0
  6
Continuous
370
    25
 62
     7
100
AcDbLine
 10
95.7217563684827
 20
152.1147017095761
 30
0.0
 11
86.9717563684827
 21
152.1147017095761
 31
0.0
  0
LINE
  5
165
330
1F
100
AcDbEntity
  8
0
  6
Continuous
370
    25
 62
     7
100
AcDbLine
 10
86.9717563684827
 20
152.1147017095761
 30
0.0
 11
86.9717563684827
 21
156.6147017095761
 31
0.0
  0
LINE
  5
166
330
1F
100
AcDbEntity
  8
0
  6
Continuous
370
    25
 62
     7
100
AcDbLine
 10
97.2217563684827
 20
156.6147017095761
 30
0.0
 11
86.9717563684827
 21
156.6147017095761
 31
0.0
  0
LINE
  5
167
330
1F
100
AcDbEntity
  8
0
  6
Continuous
370
    25
 62
     7
100
AcDbLine
 10
97.2217563684827
 20
156.6147017095761
 30
0.0
 11
97.2217563684827
 21
145.1147017095761
 31
0.0
  0
LINE
  5
168
330
1F
100
AcDbEntity
  8
0
  6
Continuous
370
    25
 62
     7
100
AcDbLine
 10
94.7217563684827
 20
175.1147017095761
 30
0.0
 11
97.2217563684827
 21
175.1147017095761
 31
0.0
  0
LINE
  5
169
330
1F
100
AcDbEntity
  8
0
  6
Continuous
370
    25
 62
     7
100
AcDbLine
 10
97.2217563684827
 20
175.1147017095761
 30
0.0
 11
97.2217563684827
 21
163.6147017095761
 31
0.0
  0
LINE
  5
16A
330
1F
100
AcDbEntity
  8
0
  6
Continuous
370
    25
 62
     7
100
AcDbLine
 10
86.9717563684827
 20
163.6147017095761
 30
0.0
 11
97.2217563684827
 21
163.6147017095761
 31
0.0
  0
LINE
  5
16B
330
1F
100
AcDbEntity
  8
0
  6
Continuous
370
    25
 62
     7
100
AcDbLine
 10
86.9717563684827
 20
163.6147017095761
 30
0.0
 11
86.9717563684827
 21
168.1147017095761
 31
0.0
  0
LINE
  5
16C
330
1F
100
AcDbEntity
  8
0
  6
Continuous
370
    25
 62
     7
100
AcDbLine
 10
86.9717563684827
 20
168.1147017095761
 30
0.0
 11
95.7217563684827
 21
168.1147017095761
 31
0.0
  0
LINE
  5
16D
330
1F
100
AcDbEntity
  8
0
  6
Continuous
370
    25
 62
     7
100
AcDbLine
 10
95.7217563684827
 20
168.1147017095761
 30
0.0
 11
95.7217563684827
 21
170.6147017095761
 31
0.0
  0
LINE
  5
16E
330
1F
100
AcDbEntity
  8
0
  6
Continuous
370
    25
 62
     7
100
AcDbLine
 10
86.4717563684827
 20
170.6147017095761
 30
0.0
 11
95.7217563684827
 21
170.6147017095761
 31
0.0
  0
LINE
  5
16F
330
1F
100
AcDbEntity
  8
0
  6
Continuous
370
    25
 62
     7
100
AcDbLine
 10
86.4717563684827
 20
170.6147017095761
 30
0.0
 11
86.4717563684827
 21
172.6147017095761
 31
0.0
  0
LINE
  5
170
330
1F
100
AcDbEntity
  8
0
  6
Continuous
370
    25
 62
     7
100
AcDbLine
 10
83.9717563684827
 20
172.6147017095761
 30
0.0
 11
86.4717563684827
 21
172.6147017095761
 31
0.0
  0
LINE
  5
171
330
1F
100
AcDbEntity
  8
0
  6
Continuous
370
    25
 62
     7
100
AcDbLine
 10
83.9717563684827
 20
172.6147017095761
 30
0.0
 11
83.9717563684827
 21
175.1147017095761
 31
0.0
  0
LINE
  5
172
330
1F
100
AcDbEntity
  8
0
  6
Continuous
370
    25
 62
     7
100
AcDbLine
 10
94.7217563684827
 20
175.1147017095761
 30
0.0
 11
83.9717563684827
 21
175.1147017095761
 31
0.0
  0
LINE
  5
173
330
1F
100
AcDbEntity
  8
0
  6
Continuous
370
    25
 62
     7
100
AcDbLine
 10
97.2217563684827
 20
160.1147017095761
 30
0.0
 11
86.9717563684827
 21
160.1147017095761
 31
0.0
  0
LINE
  5
174
330
1F
100
AcDbEntity
  8
0
  6
Continuous
370
    25
 62
     7
100
AcDbLine
 10
86.9717563684827
 20
160.1147017095761
 30
0.0
 11
86.9717563684827
 21
156.6147017095761
 31
0.0
  0
LINE
  5
175
330
1F
100
AcDbEntity
  8
0
  6
Continuous
370
    25
 62
     7
100
AcDbLine
 10
97.2217563684827
 20
156.6147017095761
 30
0.0
 11
97.2217563684827
 21
160.1147017095761
 31
0.0
  0
LINE
  5
176
330
1F
100
AcDbEntity
  8
0
  6
Continuous
370
    25
 62
     7
100
AcDbLine
 10
86.9717563684827
 20
163.6147017095761
 30
0.0
 11
86.9717563684827
 21
160.1147017095761
 31
0.0
  0
LINE
  5
177
330
1F
100
AcDbEntity
  8
0
  6
Continuous
370
    25
 62
     7
100
AcDbLine
 10
97.2217563684827
 20
160.1147017095761
 30
0.0
 11
97.2217563684827
 21
163.6147017095761
 31
0.0
  0
LINE
  5
178
330
1F
100
AcDbEntity
  8
0
  6
Continuous
370
    25
 62
     7
100
AcDbLine
 10
86.4717563684827
 20
160.1147017095761
 30
0.0
 11
86.4717563684827
 21
170.6147017095761
 31
0.0
  0
LINE
  5
179
330
1F
100
AcDbEntity
  8
0
  6
Continuous
370
    25
 62
     7
100
AcDbLine
 10
86.4717563684827
 20
149.6147017095761
 30
0.0
 11
86.4717563684827
 21
160.1147017095761
 31
0.0
  0
LINE
  5
17A
330
1F
100
AcDbEntity
  8
0
  6
Continuous
370
    25
 62
     7
100
AcDbLine
 10
86.4717563684827
 20
160.1147017095761
 30
0.0
 11
83.9717563684827
 21
160.1147017095761
 31
0.0
  0
LINE
  5
17B
330
1F
100
AcDbEntity
  8
0
  6
Continuous
370
    25
 62
     7
100
AcDbLine
 10
83.9717563684827
 20
172.6147017095761
 30
0.0
 11
83.9717563684827
 21
160.1147017095761
 31
0.0
  0
LINE
  5
17C
330
1F
100
AcDbEntity
  8
0
  6
Continuous
370
    25
 62
     7
100
AcDbLine
 10
83.9717563684827
 20
160.1147017095761
 30
0.0
 11
83.9717563684827
 21
147.6147017095761
 31
0.0
  0
LINE
  5
17D
330
1F
100
AcDbEntity
  8
0
  6
Continuous
370
    25
 62
     7
100
AcDbLine
 10
86.97175636848273
 20
160.1147017095761
 30
0.0
 11
86.4717563684827
 21
160.1147017095761
 31
0.0
  0
HATCH
  5
17E
330
1F
100
AcDbEntity
  8
0
  6
Continuous
370
    18
 62
     7
100
AcDbHatch
 10
0.0
 20
0.0
 30
0.0
210
0.0
220
0.0
230
1.0
  2
ANSI31
 70
     0
 71
     0
 91
        1
 92
        0
 93
       11
 72
     1
 10
83.9717563684827
 20
175.1147017095761
 11
83.9717563684827
 21
172.6147017095761
 72
     1
 10
83.9717563684827
 20
172.6147017095761
 11
86.4717563684827
 21
172.6147017095761
 72
     1
 10
86.4717563684827
 20
172.6147017095761
 11
86.4717563684827
 21
170.6147017095761
 72
     1
 10
86.4717563684827
 20
170.6147017095761
 11
95.72175636848269
 21
170.6147017095761
 72
     1
 10
95.72175636848269
 20
170.6147017095761
 11
95.72175636848269
 21
168.1147017095761
 72
     1
 10
95.72175636848269
 20
168.1147017095761
 11
86.9717563684827
 21
168.1147017095761
 72
     1
 10
86.9717563684827
 20
168.1147017095761
 11
86.9717563684827
 21
163.6147017095761
 72
     1
 10
86.9717563684827
 20
163.6147017095761
 11
97.2217563684827
 21
163.6147017095761
 72
     1
 10
97.2217563684827
 20
163.6147017095761
 11
97.2217563684827
 21
175.1147017095761
 72
     1
 10
97.2217563684827
 20
175.1147017095761
 11
94.72175636848269
 21
175.1147017095761
 72
     1
 10
94.72175636848269
 20
175.1147017095761
 11
83.9717563684827
 21
175.1147017095761
 97
        0
 75
     0
 76
     1
 52
0.0
 41
1.0
 77
     0
 78
     1
 53
45.0
 43
0.0
 44
0.0
 45
-2.245064030267288
 46
2.245064030267288
 79
     0
 98
        1
 10
0.0
 20
0.0
  0
HATCH
  5
17F
330
1F
100
AcDbEntity
  8
0
  6
Continuous
370
    18
 62
     7
100
AcDbHatch
 10
0.0
 20
0.0
 30
0.0
210
0.0
220
0.0
230
1.0
  2
ANSI31
 70
     0
 71
     0
 91
        1
 92
        0
 93
       11
 72
     1
 10
97.2217563684827
 20
145.1147017095761
 11
97.2217563684827
 21
156.6147017095761
 72
     1
 10
97.2217563684827
 20
156.6147017095761
 11
86.9717563684827
 21
156.6147017095761
 72
     1
 10
86.9717563684827
 20
156.6147017095761
 11
86.9717563684827
 21
152.1147017095761
 72
     1
 10
86.9717563684827
 20
152.1147017095761
 11
95.72175636848269
 21
152.1147017095761
 72
     1
 10
95.72175636848269
 20
152.1147017095761
 11
95.72175636848269
 21
149.6147017095761
 72
     1
 10
95.72175636848269
 20
149.6147017095761
 11
86.4717563684827
 21
149.6147017095761
 72
     1
 10
86.4717563684827
 20
149.6147017095761
 11
86.4717563684827
 21
147.6147017095761
 72
     1
 10
86.4717563684827
 20
147.6147017095761
 11
83.9717563684827
 21
147.6147017095761
 72
     1
 10
83.9717563684827
 20
147.6147017095761
 11
83.9717563684827
 21
145.1147017095761
 72
     1
 10
83.9717563684827
 20
145.1147017095761
 11
94.72175636848269
 21
145.1147017095761
 72
     1
 10
94.72175636848269
 20
145.1147017095761
 11
97.2217563684827
 21
145.1147017095761
 97
        0
 75
     0
 76
     1
 52
0.0
 41
1.0
 77
     0
 78
     1
 53
45.0
 43
0.0
 44
0.0
 45
-2.245064030267288
 46
2.245064030267288
 79
     0
 98
        1
 10
0.0
 20
0.0
  0
HATCH
  5
180
330
1F
100
AcDbEntity
  8
0
  6
Continuous
370
    18
 62
     7
100
AcDbHatch
 10
0.0
 20
0.0
 30
0.0
210
0.0
220
0.0
230
1.0
  2
ANSI31
 70
     0
 71
     0
 91
        1
 92
        0
 93
       22
 72
     1
 10
132.4217563684827
 20
164.3647017095761
 11
131.9717563684827
 21
164.3647017095761
 72
     1
 10
131.9717563684827
 20
164.3647017095761
 11
131.9717563684827
 21
172.6147017095761
 72
     1
 10
131.9717563684827
 20
172.6147017095761
 11
130.4717563684827
 21
172.6147017095761
 72
     1
 10
130.4717563684827
 20
172.6147017095761
 11
130.4717563684827
 21
175.1147017095761
 72
     1
 10
130.4717563684827
 20
175.1147017095761
 11
125.4717563684827
 21
175.1147017095761
 72
     1
 10
125.4717563684827
 20
175.1147017095761
 11
97.2217563684827
 21
175.1147017095761
 72
     1
 10
97.2217563684827
 20
175.1147017095761
 11
97.2217563684827
 21
164.1147017095761
 72
     1
 10
97.2217563684827
 20
164.1147017095761
 11
99.7217563684827
 21
164.1147017095761
 72
     1
 10
99.7217563684827
 20
164.1147017095761
 11
99.7217563684827
 21
156.1147017095761
 72
     1
 10
99.7217563684827
 20
156.1147017095761
 11
97.2217563684827
 21
156.1147017095761
 72
     1
 10
97.2217563684827
 20
156.1147017095761
 11
97.2217563684827
 21
145.1147017095761
 72
     1
 10
97.2217563684827
 20
145.1147017095761
 11
125.4717563684827
 21
145.1147017095761
 72
     1
 10
125.4717563684827
 20
145.1147017095761
 11
130.4717563684827
 21
145.1147017095761
 72
     1
 10
130.4717563684827
 20
145.1147017095761
 11
130.4717563684827
 21
147.6147017095761
 72
     1
 10
130.4717563684827
 20
147.6147017095761
 11
131.9717563684827
 21
147.6147017095761
 72
     1
 10
131.9717563684827
 20
147.6147017095761
 11
131.9717563684827
 21
155.8647017095761
 72
     1
 10
131.9717563684827
 20
155.8647017095761
 11
132.4217563684827
 21
155.8647017095761
 72
     1
 10
132.4217563684827
 20
155.8647017095761
 11
132.4217563684827
 21
157.1147017095761
 72
     1
 10
132.4217563684827
 20
157.1147017095761
 11
118.4217563684827
 21
157.1147017095761
 72
     1
 10
118.4217563684827
 20
157.1147017095761
 11
118.4217563684827
 21
164.0147017095761
 72
     1
 10
118.4217563684827
 20
164.0147017095761
 11
132.4217563684827
 21
164.0147017095761
 72
     1
 10
132.4217563684827
 20
164.0147017095761
 11
132.4217563684827
 21
164.3647017095761
 97
        0
 75
     0
 76
     1
 52
0.0
 41
1.0
 77
     0
 78
     1
 53
45.0
 43
0.0
 44
0.0
 45
-2.245064030267288
 46
2.245064030267288
 79
     0
 98
        1
 10
0.0
 20
0.0
  0
MTEXT
  5
181
330
1F
100
AcDbEntity
  8
0
  6
Continuous
370
     0
 62
     7
100
AcDbMText
 10
103.8362643099314
 20
138.9114713302393
 30
0.0
210
0.0
220
0.0
230
1.0
 11
1.0
 21
0.0
 31
0.0
 40
6.35
 41
0.0
 46
0.0
 71
     2
 72
     1
  1
剖面
  7
SLDTEXTSTYLE1
 73
     1
 44
1.0
101
Embedded Object
 70
     1
 10
103.8362643099314
 20
138.9114713302393
 30
0.0
 11
1.0
 21
0.0
 31
0.0
 40
0.0
 41
0.0
 42
6.35
 43
10.16
 71
     0
  0
MTEXT
  5
183
330
1F
100
AcDbEntity
  8
0
  6
Continuous
370
     0
 62
     7
100
AcDbMText
 10
117.7343192017561
 20
136.5249204953129
 30
0.0
210
0.0
220
0.0
230
1.0
 11
1.0
 21
0.0
 31
0.0
 40
3.5
 41
0.0
 46
0.0
 71
     2
 72
     1
  1
B-B
  7
SLDTEXTSTYLE3
 73
     1
 44
1.0
101
Embedded Object
 70
     1
 10
117.7343192017561
 20
136.5249204953129
 30
0.0
 11
1.0
 21
0.0
 31
0.0
 40
0.0
 41
0.0
 42
3.500000000000002
 43
6.533333333333331
 71
     0
  0
ENDSEC
  0
SECTION
  2
OBJECTS
  0
DICTIONARY
  5
C
330
0
100
AcDbDictionary
281
     1
  3
ACAD_CIP_PREVIOUS_PRODUCT_INFO
350
1C6
  3
ACAD_COLOR
350
1B8
  3
ACAD_DETAILVIEWSTYLE
350
1BF
  3
ACAD_GROUP
350
D
  3
ACAD_LAST_SAVED_VERSION_INFO
350
1C7
  3
ACAD_LAYOUT
350
1A
  3
ACAD_MATERIAL
350
186
  3
ACAD_MLEADERSTYLE
350
1BB
  3
ACAD_MLINESTYLE
350
17
  3
ACAD_PLOTSETTINGS
350
19
  3
ACAD_PLOTSTYLENAME
350
E
  3
ACAD_SCALELIST
350
47
  3
ACAD_SECTIONVIEWSTYLE
350
1BD
  3
ACAD_TABLESTYLE
350
1B9
  3
ACAD_VISUALSTYLE
350
19F
  3
AcDbVariableDictionary
350
1E7
  0
DICTIONARY
  5
D
102
{ACAD_REACTORS
330
C
102
}
330
C
100
AcDbDictionary
281
     1
  0
ACDBDICTIONARYWDFLT
  5
E
102
{ACAD_REACTORS
330
C
102
}
330
C
100
AcDbDictionary
281
     1
  3
Normal
350
F
100
AcDbDictionaryWithDefault
340
F
  0
ACDBPLACEHOLDER
  5
F
102
{ACAD_REACTORS
330
E
102
}
330
E
  0
DICTIONARY
  5
17
102
{ACAD_REACTORS
330
C
102
}
330
C
100
AcDbDictionary
281
     1
  3
Standard
350
18
  0
MLINESTYLE
  5
18
102
{ACAD_REACTORS
330
17
102
}
330
17
100
AcDbMlineStyle
  2
STANDARD
 70
     0
  3

 62
     0
 51
90.0
 52
90.0
 71
     2
 49
0.5
 62
     0
  6
ByLayer
 49
-0.5
 62
     0
  6
ByLayer
  0
DICTIONARY
  5
19
102
{ACAD_REACTORS
330
C
102
}
330
C
100
AcDbDictionary
281
     1
  0
DICTIONARY
  5
1A
102
{ACAD_REACTORS
330
C
102
}
330
C
100
AcDbDictionary
281
     1
  3
Layout1
350
1E
  3
Layout2
350
26
  3
Model
350
22
  0
LAYOUT
  5
1E
102
{ACAD_REACTORS
330
1A
102
}
330
1A
100
AcDbPlotSettings
  1

  2
none_device
  4

  6

 40
0.0
 41
0.0
 42
0.0
 43
0.0
 44
0.0
 45
0.0
 46
0.0
 47
0.0
 48
0.0
 49
0.0
140
0.0
141
0.0
142
1.0
143
1.0
 70
   688
 72
     1
 73
     0
 74
     5
  7

 75
    16
147
1.0
148
0.0
149
0.0
 76
     0
 77
     2
 78
   300
333
0
100
AcDbLayout
  1
Layout1
 70
     1
 71
     1
 10
0.0
 20
0.0
 11
420.0
 21
297.0
 12
0.0
 22
0.0
 32
0.0
 14
1E+20
 24
1E+20
 34
1E+20
 15
-1E+20
 25
-1E+20
 35
-1E+20
146
0.0
 13
0.0
 23
0.0
 33
0.0
 16
1.0
 26
0.0
 36
0.0
 17
0.0
 27
1.0
 37
0.0
 76
     0
330
1B
  0
LAYOUT
  5
22
102
{ACAD_REACTORS
330
1A
102
}
330
1A
100
AcDbPlotSettings
  1

  2
none_device
  4
Letter_(8.50_x_11.00_Inches)
  6

 40
6.35
 41
6.35
 42
6.35000508
 43
6.35000508
 44
215.9
 45
279.4
 46
0.0
 47
0.0
 48
0.0
 49
0.0
140
0.0
141
0.0
142
1.0
143
1.0
 70
  1712
 72
     1
 73
     0
 74
     0
  7

 75
     0
147
1.0
148
0.0
149
0.0
 76
     0
 77
     2
 78
   300
333
0
100
AcDbLayout
  1
Model
 70
     1
 71
     0
 10
0.0
 20
0.0
 11
210.0
 21
297.0
 12
0.0
 22
0.0
 32
0.0
 14
0.0
 24
0.0
 34
0.0
 15
210.0
 25
297.0
 35
0.0
146
0.0
 13
0.0
 23
0.0
 33
0.0
 16
1.0
 26
0.0
 36
0.0
 17
0.0
 27
1.0
 37
0.0
 76
     0
330
1F
331
29
  0
LAYOUT
  5
26
102
{ACAD_REACTORS
330
1A
102
}
330
1A
100
AcDbPlotSettings
  1

  2
none_device
  4

  6

 40
0.0
 41
0.0
 42
0.0
 43
0.0
 44
0.0
 45
0.0
 46
0.0
 47
0.0
 48
0.0
 49
0.0
140
0.0
141
0.0
142
1.0
143
1.0
 70
   688
 72
     1
 73
     0
 74
     5
  7

 75
    16
147
1.0
148
0.0
149
0.0
 76
     0
 77
     2
 78
   300
333
0
100
AcDbLayout
  1
Layout2
 70
     1
 71
     2
 10
0.0
 20
0.0
 11
0.0
 21
0.0
 12
0.0
 22
0.0
 32
0.0
 14
0.0
 24
0.0
 34
0.0
 15
0.0
 25
0.0
 35
0.0
146
0.0
 13
0.0
 23
0.0
 33
0.0
 16
1.0
 26
0.0
 36
0.0
 17
0.0
 27
1.0
 37
0.0
 76
     0
330
23
  0
DICTIONARY
  5
47
102
{ACAD_REACTORS
330
C
102
}
330
C
100
AcDbDictionary
281
     1
  3
A0
350
48
  3
A1
350
49
  3
A2
350
4A
  3
A3
350
4B
  3
A4
350
4C
  3
A5
350
4D
  3
A6
350
4E
  3
A7
350
4F
  3
A8
350
50
  3
A9
350
51
  3
B0
350
52
  3
B1
350
53
  3
B2
350
54
  3
B3
350
55
  3
B4
350
56
  3
B5
350
57
  3
B6
350
58
  0
SCALE
  5
48
102
{ACAD_REACTORS
330
47
102
}
330
47
100
AcDbScale
 70
     0
300
1:1
140
1.0
141
1.0
290
     1
  0
SCALE
  5
49
102
{ACAD_REACTORS
330
47
102
}
330
47
100
AcDbScale
 70
     0
300
1:2
140
1.0
141
2.0
290
     0
  0
SCALE
  5
4A
102
{ACAD_REACTORS
330
47
102
}
330
47
100
AcDbScale
 70
     0
300
1:4
140
1.0
141
4.0
290
     0
  0
SCALE
  5
4B
102
{ACAD_REACTORS
330
47
102
}
330
47
100
AcDbScale
 70
     0
300
1:5
140
1.0
141
5.0
290
     0
  0
SCALE
  5
4C
102
{ACAD_REACTORS
330
47
102
}
330
47
100
AcDbScale
 70
     0
300
1:8
140
1.0
141
8.0
290
     0
  0
SCALE
  5
4D
102
{ACAD_REACTORS
330
47
102
}
330
47
100
AcDbScale
 70
     0
300
1:10
140
1.0
141
10.0
290
     0
  0
SCALE
  5
4E
102
{ACAD_REACTORS
330
47
102
}
330
47
100
AcDbScale
 70
     0
300
1:16
140
1.0
141
16.0
290
     0
  0
SCALE
  5
4F
102
{ACAD_REACTORS
330
47
102
}
330
47
100
AcDbScale
 70
     0
300
1:20
140
1.0
141
20.0
290
     0
  0
SCALE
  5
50
102
{ACAD_REACTORS
330
47
102
}
330
47
100
AcDbScale
 70
     0
300
1:30
140
1.0
141
30.0
290
     0
  0
SCALE
  5
51
102
{ACAD_REACTORS
330
47
102
}
330
47
100
AcDbScale
 70
     0
300
1:40
140
1.0
141
40.0
290
     0
  0
SCALE
  5
52
102
{ACAD_REACTORS
330
47
102
}
330
47
100
AcDbScale
 70
     0
300
1:50
140
1.0
141
50.0
290
     0
  0
SCALE
  5
53
102
{ACAD_REACTORS
330
47
102
}
330
47
100
AcDbScale
 70
     0
300
1:100
140
1.0
141
100.0
290
     0
  0
SCALE
  5
54
102
{ACAD_REACTORS
330
47
102
}
330
47
100
AcDbScale
 70
     0
300
2:1
140
2.0
141
1.0
290
     0
  0
SCALE
  5
55
102
{ACAD_REACTORS
330
47
102
}
330
47
100
AcDbScale
 70
     0
300
4:1
140
4.0
141
1.0
290
     0
  0
SCALE
  5
56
102
{ACAD_REACTORS
330
47
102
}
330
47
100
AcDbScale
 70
     0
300
8:1
140
8.0
141
1.0
290
     0
  0
SCALE
  5
57
102
{ACAD_REACTORS
330
47
102
}
330
47
100
AcDbScale
 70
     0
300
10:1
140
10.0
141
1.0
290
     0
  0
SCALE
  5
58
102
{ACAD_REACTORS
330
47
102
}
330
47
100
AcDbScale
 70
     0
300
100:1
140
100.0
141
1.0
290
     0
  0
DICTIONARY
  5
186
102
{ACAD_REACTORS
330
C
102
}
330
C
100
AcDbDictionary
281
     1
  3
ByBlock
350
18F
  3
ByLayer
350
187
  3
Global
350
197
  0
DICTIONARY
  5
188
330
187
100
AcDbDictionary
280
     1
281
     1
  3
BUMPTILE
360
18A
  3
DIFFUSETILE
360
189
  3
OPACITYTILE
360
18D
  3
REFLECTIONTILE
360
18C
  3
REFRACTIONTILE
360
18E
  3
SPECULARTILE
360
18B
  0
XRECORD
  5
189
102
{ACAD_REACTORS
330
188
102
}
330
188
100
AcDbXrecord
280
     1
270
     1
271
     1
  0
XRECORD
  5
18A
102
{ACAD_REACTORS
330
188
102
}
330
188
100
AcDbXrecord
280
     1
270
     1
271
     1
  0
XRECORD
  5
18B
102
{ACAD_REACTORS
330
188
102
}
330
188
100
AcDbXrecord
280
     1
270
     1
271
     1
  0
XRECORD
  5
18C
102
{ACAD_REACTORS
330
188
102
}
330
188
100
AcDbXrecord
280
     1
270
     1
271
     1
  0
XRECORD
  5
18D
102
{ACAD_REACTORS
330
188
102
}
330
188
100
AcDbXrecord
280
     1
270
     1
271
     1
  0
XRECORD
  5
18E
102
{ACAD_REACTORS
330
188
102
}
330
188
100
AcDbXrecord
280
     1
270
     1
271
     1
  0
DICTIONARY
  5
190
330
18F
100
AcDbDictionary
280
     1
281
     1
  3
BUMPTILE
360
192
  3
DIFFUSETILE
360
191
  3
OPACITYTILE
360
195
  3
REFLECTIONTILE
360
194
  3
REFRACTIONTILE
360
196
  3
SPECULARTILE
360
193
  0
XRECORD
  5
191
102
{ACAD_REACTORS
330
190
102
}
330
190
100
AcDbXrecord
280
     1
270
     1
271
     1
  0
XRECORD
  5
192
102
{ACAD_REACTORS
330
190
102
}
330
190
100
AcDbXrecord
280
     1
270
     1
271
     1
  0
XRECORD
  5
193
102
{ACAD_REACTORS
330
190
102
}
330
190
100
AcDbXrecord
280
     1
270
     1
271
     1
  0
XRECORD
  5
194
102
{ACAD_REACTORS
330
190
102
}
330
190
100
AcDbXrecord
280
     1
270
     1
271
     1
  0
XRECORD
  5
195
102
{ACAD_REACTORS
330
190
102
}
330
190
100
AcDbXrecord
280
     1
270
     1
271
     1
  0
XRECORD
  5
196
102
{ACAD_REACTORS
330
190
102
}
330
190
100
AcDbXrecord
280
     1
270
     1
271
     1
  0
DICTIONARY
  5
198
330
197
100
AcDbDictionary
280
     1
281
     1
  3
BUMPTILE
360
19A
  3
DIFFUSETILE
360
199
  3
OPACITYTILE
360
19D
  3
REFLECTIONTILE
360
19C
  3
REFRACTIONTILE
360
19E
  3
SPECULARTILE
360
19B
  0
XRECORD
  5
199
102
{ACAD_REACTORS
330
198
102
}
330
198
100
AcDbXrecord
280
     1
270
     1
271
     1
  0
XRECORD
  5
19A
102
{ACAD_REACTORS
330
198
102
}
330
198
100
AcDbXrecord
280
     1
270
     1
271
     1
  0
XRECORD
  5
19B
102
{ACAD_REACTORS
330
198
102
}
330
198
100
AcDbXrecord
280
     1
270
     1
271
     1
  0
XRECORD
  5
19C
102
{ACAD_REACTORS
330
198
102
}
330
198
100
AcDbXrecord
280
     1
270
     1
271
     1
  0
XRECORD
  5
19D
102
{ACAD_REACTORS
330
198
102
}
330
198
100
AcDbXrecord
280
     1
270
     1
271
     1
  0
XRECORD
  5
19E
102
{ACAD_REACTORS
330
198
102
}
330
198
100
AcDbXrecord
280
     1
270
     1
271
     1
  0
DICTIONARY
  5
19F
102
{ACAD_REACTORS
330
C
102
}
330
C
100
AcDbDictionary
281
     1
  3
2dWireframe
350
1A5
  3
Basic
350
1A4
  3
Brighten
350
1AB
  3
ColorChange
350
1AF
  3
Conceptual
350
1A8
  3
Dim
350
1AA
  3
EdgeColorOff
350
1B7
  3
Facepattern
350
1AE
  3
Flat
350
1A0
  3
FlatWithEdges
350
1A1
  3
Gouraud
350
1A2
  3
GouraudWithEdges
350
1A3
  3
Hidden
350
1A7
  3
JitterOff
350
1B5
  3
Linepattern
350
1AD
  3
OverhangOff
350
1B6
  3
Realistic
350
1A9
  3
Shaded
350
1B4
  3
Shaded with edges
350
1B3
  3
Shades of Gray
350
1B0
  3
Sketchy
350
1B1
  3
Thicken
350
1AC
  3
Wireframe
350
1A6
  3
X-Ray
350
1B2
  0
VISUALSTYLE
  5
1A0
102
{ACAD_REACTORS
330
19F
102
}
330
19F
100
AcDbVisualStyle
  2
Flat
 70
     0
177
     2
291
     1
 70
    58
 90
        2
176
     1
 90
        1
176
     1
 90
        1
176
     1
 90
        2
176
     1
 40
0.6
176
     1
 40
30.0
176
     1
 62
     7
420
-1023410177
176
     1
 90
        0
176
     1
 90
        0
176
     1
 62
     7
176
     1
 62
   257
176
     1
 90
        1
176
     1
 90
        1
176
     1
 40
1.0
176
     1
 90
        8
176
     1
 62
     7
176
     1
 40
1.0
176
     1
 90
        1
176
     1
 90
        6
176
     1
 90
        2
176
     1
 62
     7
176
     1
 90
        5
176
     1
 90
        0
176
     1
 90
        0
176
     1
290
     0
176
     1
 90
       13
176
     1
 40
0.0
176
     1
 90
        0
176
     1
290
     0
176
     1
290
     1
176
     1
290
     1
176
     1
290
     0
290
     0
176
     1
290
     0
290
     0
176
     1
290
     0
176
     1
290
     0
176
     1
 90
       50
176
     1
 40
0.0
176
     1
 40
1.0
176
     1
 90
        0
176
     1
 62
     0
420
-1040187392
176
     1
 90
       50
176
     1
 90
        3
176
     1
 62
     5
420
-1040187137
176
     1
290
     0
176
     1
 90
       50
176
     1
 90
       50
176
     1
 90
       50
176
     1
290
     0
176
     1
 90
       50
176
     1
 62
     0
176
     0
 40
1.0
176
     0
 90
        2
176
     1
  1
strokes_ogs.tif
176
     1
290
     0
176
     1
 40
1.0
176
     1
 40
1.0
176
     1
  0
VISUALSTYLE
  5
1A1
102
{ACAD_REACTORS
330
19F
102
}
330
19F
100
AcDbVisualStyle
  2
FlatWithEdges
 70
     1
177
     2
291
     1
 70
    58
 90
        2
176
     1
 90
        1
176
     1
 90
        1
176
     1
 90
        2
176
     1
 40
0.6
176
     1
 40
30.0
176
     1
 62
     7
420
-1023410177
176
     1
 90
        1
176
     1
 90
        0
176
     1
 62
     7
176
     1
 62
   257
176
     1
 90
        1
176
     1
 90
        1
176
     1
 40
1.0
176
     1
 90
        0
176
     1
 62
   257
176
     1
 40
1.0
176
     1
 90
        1
176
     1
 90
        6
176
     1
 90
        2
176
     1
 62
     7
176
     1
 90
        5
176
     1
 90
        0
176
     1
 90
        0
176
     1
290
     0
176
     1
 90
       13
176
     1
 40
0.0
176
     1
 90
        0
176
     1
290
     0
176
     1
290
     1
176
     1
290
     1
176
     1
290
     0
290
     0
176
     1
290
     0
290
     0
176
     1
290
     0
176
     1
290
     0
176
     1
 90
       50
176
     1
 40
0.0
176
     1
 40
1.0
176
     1
 90
        0
176
     1
 62
     0
420
-1040187392
176
     1
 90
       50
176
     1
 90
        3
176
     1
 62
     5
420
-1040187137
176
     1
290
     0
176
     1
 90
       50
176
     1
 90
       50
176
     1
 90
       50
176
     1
290
     0
176
     1
 90
       50
176
     1
 62
     0
176
     0
 40
1.0
176
     0
 90
        2
176
     1
  1
strokes_ogs.tif
176
     1
290
     0
176
     1
 40
1.0
176
     1
 40
1.0
176
     1
  0
VISUALSTYLE
  5
1A2
102
{ACAD_REACTORS
330
19F
102
}
330
19F
100
AcDbVisualStyle
  2
Gouraud
 70
     2
177
     2
291
     1
 70
    58
 90
        2
176
     1
 90
        2
176
     1
 90
        1
176
     1
 90
        2
176
     1
 40
0.6
176
     1
 40
30.0
176
     1
 62
     7
420
-1023410177
176
     1
 90
        0
176
     1
 90
        0
176
     1
 62
     7
176
     1
 62
   257
176
     1
 90
        1
176
     1
 90
        1
176
     1
 40
1.0
176
     1
 90
        0
176
     1
 62
     7
176
     1
 40
1.0
176
     1
 90
        1
176
     1
 90
        6
176
     1
 90
        2
176
     1
 62
     7
176
     1
 90
        5
176
     1
 90
        0
176
     1
 90
        0
176
     1
290
     0
176
     1
 90
       13
176
     1
 40
0.0
176
     1
 90
        0
176
     1
290
     0
176
     1
290
     1
176
     1
290
     1
176
     1
290
     0
290
     0
176
     1
290
     0
290
     0
176
     1
290
     0
176
     1
290
     0
176
     1
 90
       50
176
     1
 40
0.0
176
     1
 40
1.0
176
     1
 90
        0
176
     1
 62
     0
420
-1040187392
176
     1
 90
       50
176
     1
 90
        3
176
     1
 62
     5
420
-1040187137
176
     1
290
     0
176
     1
 90
       50
176
     1
 90
       50
176
     1
 90
       50
176
     1
290
     0
176
     1
 90
       50
176
     1
 62
     0
176
     0
 40
1.0
176
     0
 90
        2
176
     1
  1
strokes_ogs.tif
176
     1
290
     0
176
     1
 40
1.0
176
     1
 40
1.0
176
     1
  0
VISUALSTYLE
  5
1A3
102
{ACAD_REACTORS
330
19F
102
}
330
19F
100
AcDbVisualStyle
  2
GouraudWithEdges
 70
     3
177
     2
291
     1
 70
    58
 90
        2
176
     1
 90
        2
176
     1
 90
        1
176
     1
 90
        2
176
     1
 40
0.6
176
     1
 40
30.0
176
     1
 62
     7
420
-1023410177
176
     1
 90
        1
176
     1
 90
        0
176
     1
 62
     7
176
     1
 62
   257
176
     1
 90
        1
176
     1
 90
        1
176
     1
 40
1.0
176
     1
 90
        0
176
     1
 62
   257
176
     1
 40
1.0
176
     1
 90
        1
176
     1
 90
        6
176
     1
 90
        2
176
     1
 62
     7
176
     1
 90
        5
176
     1
 90
        0
176
     1
 90
        0
176
     1
290
     0
176
     1
 90
       13
176
     1
 40
0.0
176
     1
 90
        0
176
     1
290
     0
176
     1
290
     1
176
     1
290
     1
176
     1
290
     0
290
     0
176
     1
290
     0
290
     0
176
     1
290
     0
176
     1
290
     0
176
     1
 90
       50
176
     1
 40
0.0
176
     1
 40
1.0
176
     1
 90
        0
176
     1
 62
     0
420
-1040187392
176
     1
 90
       50
176
     1
 90
        3
176
     1
 62
     5
420
-1040187137
176
     1
290
     0
176
     1
 90
       50
176
     1
 90
       50
176
     1
 90
       50
176
     1
290
     0
176
     1
 90
       50
176
     1
 62
     0
176
     0
 40
1.0
176
     0
 90
        2
176
     1
  1
strokes_ogs.tif
176
     1
290
     0
176
     1
 40
1.0
176
     1
 40
1.0
176
     1
  0
VISUALSTYLE
  5
1A4
102
{ACAD_REACTORS
330
19F
102
}
330
19F
100
AcDbVisualStyle
  2
Basic
 70
     7
177
     2
291
     1
 70
    58
 90
        1
176
     1
 90
        0
176
     1
 90
        1
176
     1
 90
        0
176
     1
 40
0.6
176
     1
 40
30.0
176
     1
 62
     7
420
-1023410177
176
     1
 90
        0
176
     1
 90
        4
176
     1
 62
     7
176
     1
 62
   257
176
     1
 90
        1
176
     1
 90
        1
176
     1
 40
1.0
176
     1
 90
        8
176
     1
 62
     7
176
     1
 40
1.0
176
     1
 90
        1
176
     1
 90
        6
176
     1
 90
        2
176
     1
 62
     7
176
     1
 90
        5
176
     1
 90
        0
176
     1
 90
        0
176
     1
290
     0
176
     1
 90
        1
176
     1
 40
0.0
176
     1
 90
        0
176
     1
290
     0
176
     1
290
     1
176
     1
290
     1
176
     1
290
     0
290
     0
176
     1
290
     0
290
     0
176
     1
290
     0
176
     1
290
     0
176
     1
 90
       50
176
     1
 40
0.0
176
     1
 40
1.0
176
     1
 90
        0
176
     1
 62
     0
420
-1040187392
176
     1
 90
       50
176
     1
 90
        3
176
     1
 62
     5
420
-1040187137
176
     1
290
     0
176
     1
 90
       50
176
     1
 90
       50
176
     1
 90
       50
176
     1
290
     0
176
     1
 90
       50
176
     1
 62
     0
176
     0
 40
1.0
176
     0
 90
        2
176
     1
  1
strokes_ogs.tif
176
     1
290
     0
176
     1
 40
1.0
176
     1
 40
1.0
176
     1
  0
VISUALSTYLE
  5
1A5
102
{ACAD_REACTORS
330
19F
102
}
330
19F
100
AcDbVisualStyle
  2
2dWireframe
 70
     4
177
     2
291
     0
 70
    58
 90
        0
176
     1
 90
        2
176
     1
 90
        0
176
     1
 90
        0
176
     1
 40
0.6
176
     1
 40
30.0
176
     1
 62
     7
420
-1023410177
176
     1
 90
        1
176
     1
 90
        4
176
     1
 62
     7
176
     1
 62
   257
176
     1
 90
        1
176
     1
 90
        1
176
     1
 40
1.0
176
     1
 90
        0
176
     1
 62
   257
176
     1
 40
1.0
176
     1
 90
        1
176
     1
 90
        6
176
     1
 90
        2
176
     1
 62
     7
176
     1
 90
        5
176
     1
 90
        0
176
     1
 90
        0
176
     1
290
     0
176
     1
 90
        1
176
     1
 40
0.0
176
     1
 90
        0
176
     1
290
     1
176
     1
290
     1
176
     1
290
     0
176
     1
290
     0
290
     0
176
     1
290
     0
290
     0
176
     1
290
     0
176
     1
290
     0
176
     1
 90
       50
176
     1
 40
0.0
176
     1
 40
1.0
176
     1
 90
        0
176
     1
 62
     0
420
-1040187392
176
     1
 90
       50
176
     1
 90
        3
176
     1
 62
     5
420
-1040187137
176
     1
290
     0
176
     1
 90
       50
176
     1
 90
       50
176
     1
 90
       50
176
     1
290
     0
176
     1
 90
       50
176
     1
 62
     0
176
     0
 40
1.0
176
     0
 90
        2
176
     1
  1
strokes_ogs.tif
176
     1
290
     0
176
     1
 40
1.0
176
     1
 40
1.0
176
     1
  0
VISUALSTYLE
  5
1A6
102
{ACAD_REACTORS
330
19F
102
}
330
19F
100
AcDbVisualStyle
  2
Wireframe
 70
     5
177
     2
291
     0
 70
    58
 90
        0
176
     1
 90
        2
176
     1
 90
        0
176
     1
 90
        0
176
     1
 40
0.6
176
     1
 40
30.0
176
     1
 62
     7
420
-1023410177
176
     1
 90
        1
176
     1
 90
        4
176
     1
 62
     7
176
     1
 62
   257
176
     1
 90
        1
176
     1
 90
        1
176
     1
 40
1.0
176
     1
 90
        0
176
     1
 62
   257
176
     1
 40
1.0
176
     1
 90
        1
176
     1
 90
        6
176
     1
 90
        2
176
     1
 62
     7
176
     1
 90
        3
176
     1
 90
        0
176
     1
 90
        0
176
     1
290
     0
176
     1
 90
        1
176
     1
 40
0.0
176
     1
 90
        0
176
     1
290
     0
176
     1
290
     1
176
     1
290
     1
176
     1
290
     0
290
     0
176
     1
290
     0
290
     0
176
     1
290
     0
176
     1
290
     0
176
     1
 90
       50
176
     1
 40
0.0
176
     1
 40
1.0
176
     1
 90
        0
176
     1
 62
     0
420
-1040187392
176
     1
 90
       50
176
     1
 90
        3
176
     1
 62
     5
420
-1040187137
176
     1
290
     0
176
     1
 90
       50
176
     1
 90
       50
176
     1
 90
       50
176
     1
290
     0
176
     1
 90
       50
176
     1
 62
     0
176
     0
 40
1.0
176
     0
 90
        2
176
     1
  1
strokes_ogs.tif
176
     1
290
     0
176
     1
 40
1.0
176
     1
 40
1.0
176
     1
  0
VISUALSTYLE
  5
1A7
102
{ACAD_REACTORS
330
19F
102
}
330
19F
100
AcDbVisualStyle
  2
Hidden
 70
     6
177
     2
291
     0
 70
    58
 90
        1
176
     1
 90
        2
176
     1
 90
        2
176
     1
 90
        0
176
     1
 40
0.6
176
     1
 40
30.0
176
     1
 62
     7
420
-1023410177
176
     1
 90
        2
176
     1
 90
        2
176
     1
 62
     7
176
     1
 62
   257
176
     1
 90
        2
176
     1
 90
        1
176
     1
 40
40.0
176
     1
 90
        0
176
     1
 62
   257
176
     1
 40
1.0
176
     1
 90
        1
176
     1
 90
        6
176
     1
 90
        2
176
     1
 62
     7
176
     1
 90
        3
176
     1
 90
        0
176
     1
 90
        0
176
     1
290
     0
176
     1
 90
        1
176
     1
 40
0.0
176
     1
 90
        0
176
     1
290
     0
176
     1
290
     1
176
     1
290
     1
176
     1
290
     0
290
     0
176
     1
290
     0
290
     0
176
     1
290
     0
176
     1
290
     0
176
     1
 90
       50
176
     1
 40
0.0
176
     1
 40
1.0
176
     1
 90
        0
176
     1
 62
     0
420
-1040187392
176
     1
 90
       50
176
     1
 90
        3
176
     1
 62
     5
420
-1040187137
176
     1
290
     0
176
     1
 90
       50
176
     1
 90
       50
176
     1
 90
       50
176
     1
290
     0
176
     1
 90
       50
176
     1
 62
     0
176
     0
 40
1.0
176
     0
 90
        2
176
     1
  1
strokes_ogs.tif
176
     1
290
     0
176
     1
 40
1.0
176
     1
 40
1.0
176
     1
  0
VISUALSTYLE
  5
1A8
102
{ACAD_REACTORS
330
19F
102
}
330
19F
100
AcDbVisualStyle
  2
Conceptual
 70
     9
177
     2
291
     0
 70
    58
 90
        3
176
     1
 90
        2
176
     1
 90
        0
176
     1
 90
        0
176
     1
 40
0.6
176
     1
 40
30.0
176
     1
 62
     7
420
-1023410177
176
     1
 90
        2
176
     1
 90
        2
176
     1
 62
     7
176
     1
 62
   257
176
     1
 90
        1
176
     1
 90
        1
176
     1
 40
179.0
176
     1
 90
        8
176
     1
 62
     7
176
     1
 40
1.0
176
     1
 90
        1
176
     1
 90
        6
176
     1
 90
        2
176
     1
 62
     7
176
     1
 90
        3
176
     1
 90
        0
176
     1
 90
        0
176
     1
290
     0
176
     1
 90
        1
176
     1
 40
0.0
176
     1
 90
        0
176
     1
290
     0
176
     1
290
     1
176
     1
290
     1
176
     1
290
     0
290
     0
176
     1
290
     0
290
     0
176
     1
290
     0
176
     1
290
     0
176
     1
 90
       50
176
     1
 40
0.0
176
     1
 40
1.0
176
     1
 90
        0
176
     1
 62
     0
420
-1040187392
176
     1
 90
       50
176
     1
 90
        3
176
     1
 62
     5
420
-1040187137
176
     1
290
     0
176
     1
 90
       50
176
     1
 90
       50
176
     1
 90
       50
176
     1
290
     0
176
     1
 90
       50
176
     1
 62
     0
176
     0
 40
1.0
176
     0
 90
        2
176
     1
  1
strokes_ogs.tif
176
     1
290
     0
176
     1
 40
1.0
176
     1
 40
1.0
176
     1
  0
VISUALSTYLE
  5
1A9
102
{ACAD_REACTORS
330
19F
102
}
330
19F
100
AcDbVisualStyle
  2
Realistic
 70
     8
177
     2
291
     0
 70
    58
 90
        2
176
     1
 90
        3
176
     1
 90
        0
176
     1
 90
        2
176
     1
 40
0.6
176
     1
 40
30.0
176
     1
 62
     7
420
-1023410177
176
     1
 90
        0
176
     1
 90
        0
176
     1
 62
     7
176
     1
 62
   257
176
     1
 90
        1
176
     1
 90
        1
176
     1
 40
1.0
176
     1
 90
        8
176
     1
 62
   257
176
     1
 40
1.0
176
     1
 90
        1
176
     1
 90
        6
176
     1
 90
        2
176
     1
 62
     7
176
     1
 90
        3
176
     1
 90
        0
176
     1
 90
        0
176
     1
290
     0
176
     1
 90
       13
176
     1
 40
0.0
176
     1
 90
        0
176
     1
290
     0
176
     1
290
     1
176
     1
290
     1
176
     1
290
     0
290
     0
176
     1
290
     0
290
     0
176
     1
290
     0
176
     1
290
     0
176
     1
 90
       50
176
     1
 40
0.0
176
     1
 40
1.0
176
     1
 90
        0
176
     1
 62
     0
420
-1040187392
176
     1
 90
       50
176
     1
 90
        3
176
     1
 62
     5
420
-1040187137
176
     1
290
     0
176
     1
 90
       50
176
     1
 90
       50
176
     1
 90
       50
176
     1
290
     0
176
     1
 90
       50
176
     1
 62
     0
176
     0
 40
1.0
176
     0
 90
        2
176
     1
  1
strokes_ogs.tif
176
     1
290
     0
176
     1
 40
1.0
176
     1
 40
1.0
176
     1
  0
VISUALSTYLE
  5
1AA
102
{ACAD_REACTORS
330
19F
102
}
330
19F
100
AcDbVisualStyle
  2
Dim
 70
    11
177
     2
291
     1
 70
    58
 90
        2
176
     1
 90
        2
176
     1
 90
        0
176
     1
 90
        0
176
     1
 40
0.6
176
     1
 40
30.0
176
     1
 62
     7
420
-1023410177
176
     1
 90
        1
176
     1
 90
        4
176
     1
 62
     7
176
     1
 62
   257
176
     1
 90
        1
176
     1
 90
        1
176
     1
 40
1.0
176
     1
 90
        8
176
     1
 62
     7
176
     1
 40
1.0
176
     1
 90
        1
176
     1
 90
        6
176
     1
 90
        2
176
     1
 62
     7
176
     1
 90
        5
176
     1
 90
        0
176
     1
 90
        0
176
     1
290
     0
176
     1
 90
        1
176
     1
 40
-50.0
176
     1
 90
        0
176
     1
290
     0
176
     1
290
     1
176
     1
290
     1
176
     1
290
     0
290
     0
176
     1
290
     0
290
     0
176
     1
290
     0
176
     1
290
     0
176
     1
 90
       50
176
     1
 40
0.0
176
     1
 40
1.0
176
     1
 90
        0
176
     1
 62
     0
420
-1040187392
176
     1
 90
       50
176
     1
 90
        3
176
     1
 62
     5
420
-1040187137
176
     1
290
     0
176
     1
 90
       50
176
     1
 90
       50
176
     1
 90
       50
176
     1
290
     0
176
     1
 90
       50
176
     1
 62
     0
176
     0
 40
1.0
176
     0
 90
        2
176
     1
  1
strokes_ogs.tif
176
     1
290
     0
176
     1
 40
1.0
176
     1
 40
1.0
176
     1
  0
VISUALSTYLE
  5
1AB
102
{ACAD_REACTORS
330
19F
102
}
330
19F
100
AcDbVisualStyle
  2
Brighten
 70
    12
177
     2
291
     1
 70
    58
 90
        2
176
     1
 90
        2
176
     1
 90
        0
176
     1
 90
        0
176
     1
 40
0.6
176
     1
 40
30.0
176
     1
 62
     7
420
-1023410177
176
     1
 90
        1
176
     1
 90
        4
176
     1
 62
     7
176
     1
 62
   257
176
     1
 90
        1
176
     1
 90
        1
176
     1
 40
1.0
176
     1
 90
        8
176
     1
 62
     7
176
     1
 40
1.0
176
     1
 90
        1
176
     1
 90
        6
176
     1
 90
        2
176
     1
 62
     7
176
     1
 90
        5
176
     1
 90
        0
176
     1
 90
        0
176
     1
290
     0
176
     1
 90
        1
176
     1
 40
50.0
176
     1
 90
        0
176
     1
290
     0
176
     1
290
     1
176
     1
290
     1
176
     1
290
     0
290
     0
176
     1
290
     0
290
     0
176
     1
290
     0
176
     1
290
     0
176
     1
 90
       50
176
     1
 40
0.0
176
     1
 40
1.0
176
     1
 90
        0
176
     1
 62
     0
420
-1040187392
176
     1
 90
       50
176
     1
 90
        3
176
     1
 62
     5
420
-1040187137
176
     1
290
     0
176
     1
 90
       50
176
     1
 90
       50
176
     1
 90
       50
176
     1
290
     0
176
     1
 90
       50
176
     1
 62
     0
176
     0
 40
1.0
176
     0
 90
        2
176
     1
  1
strokes_ogs.tif
176
     1
290
     0
176
     1
 40
1.0
176
     1
 40
1.0
176
     1
  0
VISUALSTYLE
  5
1AC
102
{ACAD_REACTORS
330
19F
102
}
330
19F
100
AcDbVisualStyle
  2
Thicken
 70
    13
177
     2
291
     1
 70
    58
 90
        2
176
     1
 90
        2
176
     1
 90
        0
176
     1
 90
        0
176
     1
 40
0.6
176
     1
 40
30.0
176
     1
 62
     7
420
-1023410177
176
     1
 90
        1
176
     1
 90
        4
176
     1
 62
     7
176
     1
 62
   257
176
     1
 90
        1
176
     1
 90
        1
176
     1
 40
1.0
176
     1
 90
       12
176
     1
 62
     7
176
     1
 40
1.0
176
     1
 90
        1
176
     1
 90
        6
176
     1
 90
        2
176
     1
 62
     7
176
     1
 90
        5
176
     1
 90
        0
176
     1
 90
        0
176
     1
290
     0
176
     1
 90
        1
176
     1
 40
0.0
176
     1
 90
        0
176
     1
290
     0
176
     1
290
     1
176
     1
290
     1
176
     1
290
     0
290
     0
176
     1
290
     0
290
     0
176
     1
290
     0
176
     1
290
     0
176
     1
 90
       50
176
     1
 40
0.0
176
     1
 40
1.0
176
     1
 90
        0
176
     1
 62
     0
420
-1040187392
176
     1
 90
       50
176
     1
 90
        3
176
     1
 62
     5
420
-1040187137
176
     1
290
     0
176
     1
 90
       50
176
     1
 90
       50
176
     1
 90
       50
176
     1
290
     0
176
     1
 90
       50
176
     1
 62
     0
176
     0
 40
1.0
176
     0
 90
        2
176
     1
  1
strokes_ogs.tif
176
     1
290
     0
176
     1
 40
1.0
176
     1
 40
1.0
176
     1
  0
VISUALSTYLE
  5
1AD
102
{ACAD_REACTORS
330
19F
102
}
330
19F
100
AcDbVisualStyle
  2
Linepattern
 70
    14
177
     2
291
     1
 70
    58
 90
        2
176
     1
 90
        2
176
     1
 90
        0
176
     1
 90
        0
176
     1
 40
0.6
176
     1
 40
30.0
176
     1
 62
     7
420
-1023410177
176
     1
 90
        1
176
     1
 90
        4
176
     1
 62
     7
176
     1
 62
   257
176
     1
 90
        7
176
     1
 90
        7
176
     1
 40
1.0
176
     1
 90
        8
176
     1
 62
     7
176
     1
 40
1.0
176
     1
 90
        1
176
     1
 90
        6
176
     1
 90
        2
176
     1
 62
     7
176
     1
 90
        5
176
     1
 90
        0
176
     1
 90
        0
176
     1
290
     0
176
     1
 90
        1
176
     1
 40
0.0
176
     1
 90
        0
176
     1
290
     0
176
     1
290
     1
176
     1
290
     1
176
     1
290
     0
290
     0
176
     1
290
     0
290
     0
176
     1
290
     0
176
     1
290
     0
176
     1
 90
       50
176
     1
 40
0.0
176
     1
 40
1.0
176
     1
 90
        0
176
     1
 62
     0
420
-1040187392
176
     1
 90
       50
176
     1
 90
        3
176
     1
 62
     5
420
-1040187137
176
     1
290
     0
176
     1
 90
       50
176
     1
 90
       50
176
     1
 90
       50
176
     1
290
     0
176
     1
 90
       50
176
     1
 62
     0
176
     0
 40
1.0
176
     0
 90
        2
176
     1
  1
strokes_ogs.tif
176
     1
290
     0
176
     1
 40
1.0
176
     1
 40
1.0
176
     1
  0
VISUALSTYLE
  5
1AE
102
{ACAD_REACTORS
330
19F
102
}
330
19F
100
AcDbVisualStyle
  2
Facepattern
 70
    15
177
     2
291
     1
 70
    58
 90
        2
176
     1
 90
        2
176
     1
 90
        0
176
     1
 90
        0
176
     1
 40
0.6
176
     1
 40
30.0
176
     1
 62
     7
420
-1023410177
176
     1
 90
        1
176
     1
 90
        4
176
     1
 62
     7
176
     1
 62
   257
176
     1
 90
        1
176
     1
 90
        1
176
     1
 40
1.0
176
     1
 90
        8
176
     1
 62
     7
176
     1
 40
1.0
176
     1
 90
        1
176
     1
 90
        6
176
     1
 90
        2
176
     1
 62
     7
176
     1
 90
        5
176
     1
 90
        0
176
     1
 90
        0
176
     1
290
     0
176
     1
 90
        1
176
     1
 40
0.0
176
     1
 90
        0
176
     1
290
     0
176
     1
290
     1
176
     1
290
     1
176
     1
290
     0
290
     0
176
     1
290
     0
290
     0
176
     1
290
     0
176
     1
290
     0
176
     1
 90
       50
176
     1
 40
0.0
176
     1
 40
1.0
176
     1
 90
        0
176
     1
 62
     0
420
-1040187392
176
     1
 90
       50
176
     1
 90
        3
176
     1
 62
     5
420
-1040187137
176
     1
290
     0
176
     1
 90
       50
176
     1
 90
       50
176
     1
 90
       50
176
     1
290
     0
176
     1
 90
       50
176
     1
 62
     0
176
     0
 40
1.0
176
     0
 90
        2
176
     1
  1
strokes_ogs.tif
176
     1
290
     0
176
     1
 40
1.0
176
     1
 40
1.0
176
     1
  0
VISUALSTYLE
  5
1AF
102
{ACAD_REACTORS
330
19F
102
}
330
19F
100
AcDbVisualStyle
  2
ColorChange
 70
    16
177
     2
291
     1
 70
    58
 90
        2
176
     1
 90
        2
176
     1
 90
        3
176
     1
 90
        0
176
     1
 40
0.6
176
     1
 40
30.0
176
     1
 62
     9
420
-1031765888
176
     1
 90
        1
176
     1
 90
        4
176
     1
 62
     7
176
     1
 62
   257
176
     1
 90
        1
176
     1
 90
        1
176
     1
 40
1.0
176
     1
 90
        8
176
     1
 62
     9
420
-1031765888
176
     1
 40
1.0
176
     1
 90
        1
176
     1
 90
        6
176
     1
 90
        2
176
     1
 62
     7
176
     1
 90
        5
176
     1
 90
        0
176
     1
 90
        0
176
     1
290
     0
176
     1
 90
        1
176
     1
 40
0.0
176
     1
 90
        0
176
     1
290
     0
176
     1
290
     1
176
     1
290
     1
176
     1
290
     0
290
     0
176
     1
290
     0
290
     0
176
     1
290
     0
176
     1
290
     0
176
     1
 90
       50
176
     1
 40
0.0
176
     1
 40
1.0
176
     1
 90
        0
176
     1
 62
     0
420
-1040187392
176
     1
 90
       50
176
     1
 90
        3
176
     1
 62
     5
420
-1040187137
176
     1
290
     0
176
     1
 90
       50
176
     1
 90
       50
176
     1
 90
       50
176
     1
290
     0
176
     1
 90
       50
176
     1
 62
     0
176
     0
 40
1.0
176
     0
 90
        2
176
     1
  1
strokes_ogs.tif
176
     1
290
     0
176
     1
 40
1.0
176
     1
 40
1.0
176
     1
  0
VISUALSTYLE
  5
1B0
102
{ACAD_REACTORS
330
19F
102
}
330
19F
100
AcDbVisualStyle
  2
Shades of Gray
 70
    23
177
     2
291
     0
 70
    58
 90
        2
176
     1
 90
        2
176
     1
 90
        3
176
     1
 90
        0
176
     1
 40
0.6
176
     1
 40
30.0
176
     1
 62
     7
420
-1023410177
176
     1
 90
        2
176
     1
 90
        2
176
     1
 62
     7
176
     1
 62
     7
176
     1
 90
        1
176
     1
 90
        1
176
     1
 40
40.0
176
     1
 90
        8
176
     1
 62
     7
176
     1
 40
1.0
176
     1
 90
        1
176
     1
 90
        6
176
     1
 90
        2
176
     1
 62
     7
176
     1
 90
        3
176
     1
 90
        0
176
     1
 90
        0
176
     1
290
     0
176
     1
 90
        1
176
     1
 40
0.0
176
     1
 90
        0
176
     1
290
     0
176
     1
290
     1
176
     1
290
     1
176
     1
290
     0
290
     0
176
     1
290
     0
290
     0
176
     1
290
     0
176
     1
290
     0
176
     1
 90
       50
176
     1
 40
0.0
176
     1
 40
1.0
176
     1
 90
        0
176
     1
 62
     0
420
-1040187392
176
     1
 90
       50
176
     1
 90
        3
176
     1
 62
     5
420
-1040187137
176
     1
290
     0
176
     1
 90
       50
176
     1
 90
       50
176
     1
 90
       50
176
     1
290
     0
176
     1
 90
       50
176
     1
 62
     0
176
     0
 40
1.0
176
     0
 90
        2
176
     1
  1
strokes_ogs.tif
176
     1
290
     0
176
     1
 40
1.0
176
     1
 40
1.0
176
     1
  0
VISUALSTYLE
  5
1B1
102
{ACAD_REACTORS
330
19F
102
}
330
19F
100
AcDbVisualStyle
  2
Sketchy
 70
    24
177
     2
291
     0
 70
    58
 90
        1
176
     1
 90
        2
176
     1
 90
        2
176
     1
 90
        0
176
     1
 40
0.6
176
     1
 40
30.0
176
     1
 62
     7
420
-1023410177
176
     1
 90
        2
176
     1
 90
        2
176
     1
 62
     7
176
     1
 62
     7
176
     1
 90
        1
176
     1
 90
        1
176
     1
 40
40.0
176
     1
 90
       11
176
     1
 62
     7
176
     1
 40
1.0
176
     1
 90
        1
176
     1
 90
        6
176
     1
 90
        2
176
     1
 62
     7
176
     1
 90
        6
176
     1
 90
        0
176
     1
 90
        0
176
     1
290
     0
176
     1
 90
        1
176
     1
 40
0.0
176
     1
 90
        0
176
     1
290
     0
176
     1
290
     1
176
     1
290
     1
176
     1
290
     0
290
     0
176
     1
290
     0
290
     0
176
     1
290
     0
176
     1
290
     0
176
     1
 90
       50
176
     1
 40
0.0
176
     1
 40
1.0
176
     1
 90
        0
176
     1
 62
     0
420
-1040187392
176
     1
 90
       50
176
     1
 90
        3
176
     1
 62
     5
420
-1040187137
176
     1
290
     0
176
     1
 90
       50
176
     1
 90
       50
176
     1
 90
       50
176
     1
290
     0
176
     1
 90
       50
176
     1
 62
     0
176
     0
 40
1.0
176
     0
 90
        2
176
     1
  1
strokes_ogs.tif
176
     1
290
     0
176
     1
 40
1.0
176
     1
 40
1.0
176
     1
  0
VISUALSTYLE
  5
1B2
102
{ACAD_REACTORS
330
19F
102
}
330
19F
100
AcDbVisualStyle
  2
X-Ray
 70
    25
177
     2
291
     0
 70
    58
 90
        2
176
     1
 90
        2
176
     1
 90
        1
176
     1
 90
        1
176
     1
 40
0.5
176
     1
 40
30.0
176
     1
 62
     7
420
-1023410177
176
     1
 90
        1
176
     1
 90
        0
176
     1
 62
     7
176
     1
 62
   257
176
     1
 90
        1
176
     1
 90
        1
176
     1
 40
1.0
176
     1
 90
        8
176
     1
 62
     7
176
     1
 40
1.0
176
     1
 90
        1
176
     1
 90
        6
176
     1
 90
        2
176
     1
 62
     7
176
     1
 90
        3
176
     1
 90
        0
176
     1
 90
        0
176
     1
290
     0
176
     1
 90
       13
176
     1
 40
0.0
176
     1
 90
        0
176
     1
290
     0
176
     1
290
     1
176
     1
290
     1
176
     1
290
     0
290
     0
176
     1
290
     0
290
     0
176
     1
290
     0
176
     1
290
     0
176
     1
 90
       50
176
     1
 40
0.0
176
     1
 40
1.0
176
     1
 90
        0
176
     1
 62
     0
420
-1040187392
176
     1
 90
       50
176
     1
 90
        3
176
     1
 62
     5
420
-1040187137
176
     1
290
     0
176
     1
 90
       50
176
     1
 90
       50
176
     1
 90
       50
176
     1
290
     0
176
     1
 90
       50
176
     1
 62
     0
176
     0
 40
1.0
176
     0
 90
        2
176
     1
  1
strokes_ogs.tif
176
     1
290
     0
176
     1
 40
1.0
176
     1
 40
1.0
176
     1
  0
VISUALSTYLE
  5
1B3
102
{ACAD_REACTORS
330
19F
102
}
330
19F
100
AcDbVisualStyle
  2
Shaded with edges
 70
    26
177
     2
291
     0
 70
    58
 90
        2
176
     1
 90
        2
176
     1
 90
        1
176
     1
 90
        2
176
     1
 40
0.6
176
     1
 40
30.0
176
     1
 62
     7
420
-1023410177
176
     1
 90
        1
176
     1
 90
        2
176
     1
 62
     7
176
     1
 62
   257
176
     1
 90
        2
176
     1
 90
        1
176
     1
 40
1.0
176
     1
 90
        8
176
     1
 62
   257
176
     1
 40
1.0
176
     1
 90
        1
176
     1
 90
        6
176
     1
 90
        2
176
     1
 62
     7
176
     1
 90
        3
176
     1
 90
        0
176
     1
 90
        0
176
     1
290
     0
176
     1
 90
        5
176
     1
 40
0.0
176
     1
 90
        0
176
     1
290
     0
176
     1
290
     1
176
     1
290
     1
176
     1
290
     0
290
     0
176
     1
290
     0
290
     0
176
     1
290
     0
176
     1
290
     0
176
     1
 90
       50
176
     1
 40
0.0
176
     1
 40
1.0
176
     1
 90
        0
176
     1
 62
     0
420
-1040187392
176
     1
 90
       50
176
     1
 90
        3
176
     1
 62
     5
420
-1040187137
176
     1
290
     0
176
     1
 90
       50
176
     1
 90
       50
176
     1
 90
       50
176
     1
290
     0
176
     1
 90
       50
176
     1
 62
     0
176
     0
 40
1.0
176
     0
 90
        2
176
     1
  1
strokes_ogs.tif
176
     1
290
     0
176
     1
 40
1.0
176
     1
 40
1.0
176
     1
  0
VISUALSTYLE
  5
1B4
102
{ACAD_REACTORS
330
19F
102
}
330
19F
100
AcDbVisualStyle
  2
Shaded
 70
    27
177
     2
291
     0
 70
    58
 90
        2
176
     1
 90
        2
176
     1
 90
        1
176
     1
 90
        2
176
     1
 40
0.6
176
     1
 40
30.0
176
     1
 62
     7
420
-1023410177
176
     1
 90
        0
176
     1
 90
        4
176
     1
 62
     7
176
     1
 62
   257
176
     1
 90
        1
176
     1
 90
        1
176
     1
 40
1.0
176
     1
 90
        8
176
     1
 62
   257
176
     1
 40
1.0
176
     1
 90
        1
176
     1
 90
        6
176
     1
 90
        2
176
     1
 62
   256
420
-1032292232
176
     1
 90
        3
176
     1
 90
        0
176
     1
 90
        0
176
     1
290
     0
176
     1
 90
        5
176
     1
 40
0.0
176
     1
 90
        0
176
     1
290
     0
176
     1
290
     1
176
     1
290
     1
176
     1
290
     0
290
     0
176
     1
290
     0
290
     0
176
     1
290
     0
176
     1
290
     0
176
     1
 90
       50
176
     1
 40
0.0
176
     1
 40
1.0
176
     1
 90
        0
176
     1
 62
     0
420
-1040187392
176
     1
 90
       50
176
     1
 90
        3
176
     1
 62
     5
420
-1040187137
176
     1
290
     0
176
     1
 90
       50
176
     1
 90
       50
176
     1
 90
       50
176
     1
290
     0
176
     1
 90
       50
176
     1
 62
     0
176
     0
 40
1.0
176
     0
 90
        2
176
     1
  1
strokes_ogs.tif
176
     1
290
     0
176
     1
 40
1.0
176
     1
 40
1.0
176
     1
  0
VISUALSTYLE
  5
1B5
102
{ACAD_REACTORS
330
19F
102
}
330
19F
100
AcDbVisualStyle
  2
JitterOff
 70
    20
177
     2
291
     1
 70
    58
 90
        2
176
     0
 90
        2
176
     0
 90
        0
176
     0
 90
        0
176
     0
 40
0.6
176
     0
 40
30.0
176
     0
 62
     7
420
-1023410177
176
     0
 90
        1
176
     0
 90
        4
176
     0
 62
     7
176
     0
 62
   257
176
     0
 90
        1
176
     0
 90
        1
176
     0
 40
1.0
176
     0
 90
       10
176
     2
 62
     7
176
     0
 40
1.0
176
     0
 90
        1
176
     0
 90
        6
176
     0
 90
        2
176
     0
 62
     7
176
     0
 90
        5
176
     0
 90
        0
176
     0
 90
        0
176
     0
290
     0
176
     0
 90
        1
176
     0
 40
0.0
176
     0
 90
        0
176
     0
290
     0
176
     0
290
     1
176
     0
290
     1
176
     0
290
     0
290
     0
176
     0
290
     0
290
     0
176
     0
290
     0
176
     0
290
     0
176
     0
 90
       50
176
     0
 40
0.0
176
     0
 40
1.0
176
     0
 90
        0
176
     0
 62
     0
420
-1040187392
176
     0
 90
       50
176
     0
 90
        3
176
     0
 62
     5
420
-1040187137
176
     0
290
     0
176
     0
 90
       50
176
     0
 90
       50
176
     0
 90
       50
176
     0
290
     0
176
     0
 90
       50
176
     0
 62
     0
176
     0
 40
1.0
176
     0
 90
        2
176
     0
  1
strokes_ogs.tif
176
     0
290
     0
176
     0
 40
1.0
176
     0
 40
1.0
176
     0
  0
VISUALSTYLE
  5
1B6
102
{ACAD_REACTORS
330
19F
102
}
330
19F
100
AcDbVisualStyle
  2
OverhangOff
 70
    21
177
     2
291
     1
 70
    58
 90
        2
176
     0
 90
        2
176
     0
 90
        0
176
     0
 90
        0
176
     0
 40
0.6
176
     0
 40
30.0
176
     0
 62
     7
420
-1023410177
176
     0
 90
        1
176
     0
 90
        4
176
     0
 62
     7
176
     0
 62
   257
176
     0
 90
        1
176
     0
 90
        1
176
     0
 40
1.0
176
     0
 90
        9
176
     2
 62
     7
176
     0
 40
1.0
176
     0
 90
        1
176
     0
 90
        6
176
     0
 90
        2
176
     0
 62
     7
176
     0
 90
        5
176
     0
 90
        0
176
     0
 90
        0
176
     0
290
     0
176
     0
 90
        1
176
     0
 40
0.0
176
     0
 90
        0
176
     0
290
     0
176
     0
290
     1
176
     0
290
     1
176
     0
290
     0
290
     0
176
     0
290
     0
290
     0
176
     0
290
     0
176
     0
290
     0
176
     0
 90
       50
176
     0
 40
0.0
176
     0
 40
1.0
176
     0
 90
        0
176
     0
 62
     0
420
-1040187392
176
     0
 90
       50
176
     0
 90
        3
176
     0
 62
     5
420
-1040187137
176
     0
290
     0
176
     0
 90
       50
176
     0
 90
       50
176
     0
 90
       50
176
     0
290
     0
176
     0
 90
       50
176
     0
 62
     0
176
     0
 40
1.0
176
     0
 90
        2
176
     0
  1
strokes_ogs.tif
176
     0
290
     0
176
     0
 40
1.0
176
     0
 40
1.0
176
     0
  0
VISUALSTYLE
  5
1B7
102
{ACAD_REACTORS
330
19F
102
}
330
19F
100
AcDbVisualStyle
  2
EdgeColorOff
 70
    22
177
     2
291
     1
 70
    58
 90
        2
176
     0
 90
        2
176
     0
 90
        0
176
     0
 90
        0
176
     0
 40
0.6
176
     0
 40
30.0
176
     0
 62
     7
420
-1023410177
176
     0
 90
        1
176
     0
 90
        4
176
     0
 62
     7
176
     0
 62
   257
176
     0
 90
        1
176
     0
 90
        1
176
     0
 40
1.0
176
     0
 90
        8
176
     2
 62
     7
176
     0
 40
1.0
176
     0
 90
        1
176
     0
 90
        6
176
     0
 90
        2
176
     0
 62
     7
176
     0
 90
        5
176
     0
 90
        0
176
     0
 90
        0
176
     0
290
     0
176
     0
 90
        1
176
     0
 40
0.0
176
     0
 90
        0
176
     0
290
     0
176
     0
290
     1
176
     0
290
     1
176
     0
290
     0
290
     0
176
     0
290
     0
290
     0
176
     0
290
     0
176
     0
290
     0
176
     0
 90
       50
176
     0
 40
0.0
176
     0
 40
1.0
176
     0
 90
        0
176
     0
 62
     0
420
-1040187392
176
     0
 90
       50
176
     0
 90
        3
176
     0
 62
     5
420
-1040187137
176
     0
290
     0
176
     0
 90
       50
176
     0
 90
       50
176
     0
 90
       50
176
     0
290
     0
176
     0
 90
       50
176
     0
 62
     0
176
     0
 40
1.0
176
     0
 90
        2
176
     0
  1
strokes_ogs.tif
176
     0
290
     0
176
     0
 40
1.0
176
     0
 40
1.0
176
     0
  0
DICTIONARY
  5
1B8
102
{ACAD_REACTORS
330
C
102
}
330
C
100
AcDbDictionary
281
     1
  0
DICTIONARY
  5
1B9
102
{ACAD_REACTORS
330
C
102
}
330
C
100
AcDbDictionary
281
     1
  3
Standard
350
1BA
  0
DICTIONARY
  5
1BB
102
{ACAD_REACTORS
330
C
102
}
330
C
100
AcDbDictionary
281
     1
  3
Standard
350
1BC
  0
DICTIONARY
  5
1BD
102
{ACAD_REACTORS
330
C
102
}
330
C
100
AcDbDictionary
281
     1
  3
Metric50
350
1BE
  0
ACDBSECTIONVIEWSTYLE
  5
1BE
102
{ACAD_REACTORS
330
1BD
102
}
330
1BD
100
AcDbModelDocViewStyle
 70
     0
  3
Metric50
290
     1
300
Metric50
 90
        0
100
AcDbSectionViewStyle
 70
     0
 71
     0
 90
      102
 71
     1
340
11
 62
     0
 40
5.0
340
0
340
0
 62
     0
 40
5.0
300
I, O, Q, S, X, Z
 40
10.0
 90
        0
 40
2.5
 90
        0
 71
     2
340
16
 90
       25
 62
     0
340
16
 90
       50
 62
     0
 40
5.0
 40
2.5
 40
5.0
 71
     3
340
11
 62
     0
 40
5.0
 90
        0
 40
15.0
 90
        1
300
%<\AcVar ViewSectionStartId>%-%<\AcVar ViewSectionEndId>% (%<\AcVar ViewScale \f "%sn">%)
 71
     4
 62
     0
 62
   257
300
ANSI31
 40
1.0
 90
        0
290
     0
290
     0
 90
        6
 40
0.0
 40
1.570796326794897
 40
0.2617993877991494
 40
1.308996938995747
 40
-0.2617993877991494
 40
1.832595714594046
  0
DICTIONARY
  5
1BF
102
{ACAD_REACTORS
330
C
102
}
330
C
100
AcDbDictionary
281
     1
  3
Metric50
350
1C0
  0
ACDBDETAILVIEWSTYLE
  5
1C0
102
{ACAD_REACTORS
330
1BF
102
}
330
1BF
100
AcDbModelDocViewStyle
 70
     0
  3
Metric50
290
     1
300
Metric50
 90
        0
100
AcDbDetailViewStyle
 70
     0
 71
     0
 90
        3
 71
     1
340
11
 62
     0
 40
5.0
340
0
 62
     0
 40
5.0
300

 40
0.0
280
     1
 71
     2
340
16
 90
       25
 62
     0
 71
     3
340
11
 62
     0
 40
5.0
 90
        0
 40
15.0
 90
        1
300
%<\AcVar ViewDetailId>% (%<\AcVar ViewScale \f "%sn">%)
 71
     4
340
16
 90
       25
 62
     0
340
16
 90
       25
 62
     0
280
     0
  0
XRECORD
  5
1C6
102
{ACAD_REACTORS
330
C
102
}
330
C
100
AcDbXrecord
280
     1
300
ACD
300
2026
300

  0
XRECORD
  5
1C7
102
{ACAD_REACTORS
330
C
102
}
330
C
100
AcDbXrecord
280
     1
300
{25CDD5BA-074C-8C47-B9A3-BD28536C3BD1}
301
{28875491-776D-9148-8CD8-1D3EED289D4B}
302
{25CDD5BA-074C-8C47-B9A3-BD28536C3BD1}
303
C:\Users\yaoshuo\Downloads\减速器.DWG
  0
DICTIONARY
  5
1C8
330
10
100
AcDbDictionary
280
     1
281
     1
  3
ADSK_XREC_LAYER_RECONCILED
360
1C9
  0
XRECORD
  5
1C9
102
{ACAD_REACTORS
330
1C8
102
}
330
1C8
100
AcDbXrecord
280
     1
290
     1
  0
DICTIONARY
  5
1CA
330
63
100
AcDbDictionary
280
     1
281
     1
  3
ADSK_XREC_LAYER_RECONCILED
360
1CB
  0
XRECORD
  5
1CB
102
{ACAD_REACTORS
330
1CA
102
}
330
1CA
100
AcDbXrecord
280
     1
290
     1
  0
DICTIONARY
  5
1CF
330
2
100
AcDbDictionary
280
     1
281
     1
  3
ACAD_LAYERSTATES
360
1D0
  0
DICTIONARY
  5
1D0
102
{ACAD_REACTORS
330
1CF
102
}
330
1CF
100
AcDbDictionary
281
     1
  0
DICTIONARY
  5
1E7
102
{ACAD_REACTORS
330
C
102
}
330
C
100
AcDbDictionary
281
     1
  3
CANNOSCALE
350
1ED
  3
CMLEADERSTYLE
350
1E9
  3
CTABLESTYLE
350
1E8
  3
CVIEWDETAILSTYLE
350
1EA
  3
CVIEWSECTIONSTYLE
350
1EB
  3
LAYEREVAL
350
1EF
  3
LAYERNOTIFY
350
1F0
  3
LIGHTINGUNITS
350
1EE
  3
MSLTSCALE
350
1EC
  0
DICTIONARYVAR
  5
1E8
102
{ACAD_REACTORS
330
1E7
102
}
330
1E7
100
DictionaryVariables
280
     0
  1
STANDARD
  0
DICTIONARYVAR
  5
1E9
102
{ACAD_REACTORS
330
1E7
102
}
330
1E7
100
DictionaryVariables
280
     0
  1
STANDARD
  0
DICTIONARYVAR
  5
1EA
102
{ACAD_REACTORS
330
1E7
102
}
330
1E7
100
DictionaryVariables
280
     0
  1
Metric50
  0
DICTIONARYVAR
  5
1EB
102
{ACAD_REACTORS
330
1E7
102
}
330
1E7
100
DictionaryVariables
280
     0
  1
Metric50
  0
DICTIONARYVAR
  5
1EC
102
{ACAD_REACTORS
330
1E7
102
}
330
1E7
100
DictionaryVariables
280
     0
  1
0
  0
DICTIONARYVAR
  5
1ED
102
{ACAD_REACTORS
330
1E7
102
}
330
1E7
100
DictionaryVariables
280
     0
  1
1:1
  0
DICTIONARYVAR
  5
1EE
102
{ACAD_REACTORS
330
1E7
102
}
330
1E7
100
DictionaryVariables
280
     0
  1
0
  0
DICTIONARYVAR
  5
1EF
102
{ACAD_REACTORS
330
1E7
102
}
330
1E7
100
DictionaryVariables
280
     0
  1
1
  0
DICTIONARYVAR
  5
1F0
102
{ACAD_REACTORS
330
1E7
102
}
330
1E7
100
DictionaryVariables
280
     0
  1
15
  0
ENDSEC
  0
SECTION
  2
THUMBNAILIMAGE
 90
     1494
310
D20500000201E70100005000000006370200006F050000000000000000000000000000000000000000000000000000000000000000000000000000000000000000000000000000000000000000000000000000000000000000000000000000000000000000000089504E470D0A1A0A0000000D49484452000001000000007D
310
08030000007A674DFF00000300504C5445212830FFFFFF2128300000000000000000000000000000000000000000000000000000330000660000990000CC0000FF0033000033330033660033990033CC0033FF0066000066330066660066990066CC0066FF0099000099330099660099990099CC0099FF00CC0000CC3300CC
310
6600CC9900CCCC00CCFF00FF0000FF3300FF6600FF9900FFCC00FFFF3300003300333300663300993300CC3300FF3333003333333333663333993333CC3333FF3366003366333366663366993366CC3366FF3399003399333399663399993399CC3399FF33CC0033CC3333CC6633CC9933CCCC33CCFF33FF0033FF3333FF66
310
33FF9933FFCC33FFFF6600006600336600666600996600CC6600FF6633006633336633666633996633CC6633FF6666006666336666666666996666CC6666FF6699006699336699666699996699CC6699FF66CC0066CC3366CC6666CC9966CCCC66CCFF66FF0066FF3366FF6666FF9966FFCC66FFFF99000099003399006699
310
00999900CC9900FF9933009933339933669933999933CC9933FF9966009966339966669966999966CC9966FF9999009999339999669999999999CC9999FF99CC0099CC3399CC6699CC9999CCCC99CCFF99FF0099FF3399FF6699FF9999FFCC99FFFFCC0000CC0033CC0066CC0099CC00CCCC00FFCC3300CC3333CC3366CC33
310
99CC33CCCC33FFCC6600CC6633CC6666CC6699CC66CCCC66FFCC9900CC9933CC9966CC9999CC99CCCC99FFCCCC00CCCC33CCCC66CCCC99CCCCCCCCCCFFCCFF00CCFF33CCFF66CCFF99CCFFCCCCFFFFFF0000FF0033FF0066FF0099FF00CCFF00FFFF3300FF3333FF3366FF3399FF33CCFF33FFFF6600FF6633FF6666FF6699
310
FF66CCFF66FFFF9900FF9933FF9966FF9999FF99CCFF99FFFFCC00FFCC33FFCC66FFCC99FFCCCCFFCCFFFFFF00FFFF33FFFF66FFFF99FFFFCCFFFFFF0000000D0D0D1A1A1A2828283535354343435050505D5D5D6B6B6B787878868686939393A1A1A1AEAEAEBBBBBBC9C9C9D6D6D6E4E4E4F1F1F1FFFFFF00000000000000
310
00000000000000000000000000000000000000000000002E4550F10000022A4944415478DAEDDCDD7282301086E1BDFFBBF422BEF3CE08C60D36D818A859F6753CA89442F6E9E69FD16CE0A5295EF6BD1700E385D017EF3D05800100000000000000000000000000000000000000000000000000701980138B1704C0440690
310
0164404E00D9B9859B1DE0F4F2C501502E8037FBF7DD7BFDCD732605F0E55B3ED4252CE7EBF7ABBD6F441F87E605D04B39ABA6B1DD3DDEB5B637306DE2B6C901EE05F687EB587B0196F3D62B55D79B16608D426BFE9B8D015875D05D6F6680FB2F6E7A24F030C0E6C0EC00723540CB812100BD9C343BC012F54D8F16EB1080
310
D2BB8401505600958EC07FFC1CA0C4FFEC072300AC079B008D61601BE0990A01004A15382E03DC1033691B60A11A41D3F10081BAC1A5C5BAA51D07943650494782E6672E09E702D96783E9D703362B56E95684D2AF09B22AFC6FE50BB03364A7168FCD513647C900328087A40000000000000000000000002008C081DF8813
310
1460FFAD0C19E03750B7EF9E60A266807F18602805C202AC7FF812BCA96FF9247A0694987DFC29005C6DAFE34FD3066C62763F77ADA0856F04E5E2FF642410BB112C3561DBF85F1EC0FFAFE5FAFF8C19508F85B26480AF026EFC932903B437164C5205D49A0BE41808B9E74853CE05F6E642813340DD0017AB027F2C463517
310
18AA020A9A01CDE4EF9D0AB026C8AA300000C406187D7E2A3AC0F8F7F25F07407D8B815704504600230372B701748300000000000000000000000000000000000000000000000000007CE1DE3FEA726EBB7976A9610000000049454E44AE426082
  0
ENDSEC
  0
EOF
