  0
SECTION
  2
HEADER
  9
$ACADVER
  1
AC1027
  9
$ACADMAINTVER
 70
105
  9
$DWGCODEPAGE
  3
ANSI_1252
  9
$LASTSAVEDBY
  1
ezdxf
  9
$REQUIREDVERSIONS
160
0
  9
$INSBASE
 10
0.0
 20
0.0
 30
0.0
  9
$EXTMIN
 10
1e+20
 20
1e+20
 30
1e+20
  9
$EXTMAX
 10
-1e+20
 20
-1e+20
 30
-1e+20
  9
$LIMMIN
 10
0.0
 20
0.0
  9
$LIMMAX
 10
420.0
 20
297.0
  9
$ORTHOMODE
 70
0
  9
$REGENMODE
 70
1
  9
$FILLMODE
 70
1
  9
$QTEXTMODE
 70
0
  9
$MIRRTEXT
 70
1
  9
$LTSCALE
 40
1.0
  9
$ATTMODE
 70
1
  9
$TEXTSIZE
 40
2.5
  9
$TRACEWID
 40
1.0
  9
$TEXTSTYLE
  7
Standard
  9
$CLAYER
  8
0
  9
$CELTYPE
  6
ByLayer
  9
$CECOLOR
 62
256
  9
$CELTSCALE
 40
1.0
  9
$DISPSILH
 70
0
  9
$DIMSCALE
 40
1.0
  9
$DIMASZ
 40
2.5
  9
$DIMEXO
 40
0.625
  9
$DIMDLI
 40
3.75
  9
$DIMRND
 40
0.0
  9
$DIMDLE
 40
0.0
  9
$DIMEXE
 40
1.25
  9
$DIMTP
 40
0.0
  9
$DIMTM
 40
0.0
  9
$DIMTXT
 40
2.5
  9
$DIMCEN
 40
2.5
  9
$DIMTSZ
 40
0.0
  9
$DIMTOL
 70
0
  9
$DIMLIM
 70
0
  9
$DIMTIH
 70
0
  9
$DIMTOH
 70
0
  9
$DIMSE1
 70
0
  9
$DIMSE2
 70
0
  9
$DIMTAD
 70
1
  9
$DIMZIN
 70
8
  9
$DIMBLK
  1

  9
$DIMASO
 70
1
  9
$DIMSHO
 70
1
  9
$DIMPOST
  1

  9
$DIMAPOST
  1

  9
$DIMALT
 70
0
  9
$DIMALTD
 70
3
  9
$DIMALTF
 40
0.03937007874
  9
$DIMLFAC
 40
1.0
  9
$DIMTOFL
 70
1
  9
$DIMTVP
 40
0.0
  9
$DIMTIX
 70
0
  9
$DIMSOXD
 70
0
  9
$DIMSAH
 70
0
  9
$DIMBLK1
  1

  9
$DIMBLK2
  1

  9
$DIMSTYLE
  2
ISO-25
  9
$DIMCLRD
 70
0
  9
$DIMCLRE
 70
0
  9
$DIMCLRT
 70
0
  9
$DIMTFAC
 40
1.0
  9
$DIMGAP
 40
0.625
  9
$DIMJUST
 70
0
  9
$DIMSD1
 70
0
  9
$DIMSD2
 70
0
  9
$DIMTOLJ
 70
0
  9
$DIMTZIN
 70
8
  9
$DIMALTZ
 70
0
  9
$DIMALTTZ
 70
0
  9
$DIMUPT
 70
0
  9
$DIMDEC
 70
2
  9
$DIMTDEC
 70
2
  9
$DIMALTU
 70
2
  9
$DIMALTTD
 70
3
  9
$DIMTXSTY
  7
Standard
  9
$DIMAUNIT
 70
0
  9
$DIMADEC
 70
0
  9
$DIMALTRND
 40
0.0
  9
$DIMAZIN
 70
0
  9
$DIMDSEP
 70
44
  9
$DIMATFIT
 70
3
  9
$DIMFRAC
 70
0
  9
$DIMLDRBLK
  1

  9
$DIMLUNIT
 70
2
  9
$DIMLWD
 70
-2
  9
$DIMLWE
 70
-2
  9
$DIMTMOVE
 70
0
  9
$DIMFXL
 40
1.0
  9
$DIMFXLON
 70
0
  9
$DIMJOGANG
 40
0.785398163397
  9
$DIMTFILL
 70
0
  9
$DIMTFILLCLR
 70
0
  9
$DIMARCSYM
 70
0
  9
$DIMLTYPE
  6

  9
$DIMLTEX1
  6

  9
$DIMLTEX2
  6

  9
$DIMTXTDIRECTION
 70
0
  9
$LUNITS
 70
2
  9
$LUPREC
 70
4
  9
$SKETCHINC
 40
1.0
  9
$FILLETRAD
 40
10.0
  9
$AUNITS
 70
0
  9
$AUPREC
 70
2
  9
$MENU
  1
.
  9
$ELEVATION
 40
0.0
  9
$PELEVATION
 40
0.0
  9
$THICKNESS
 40
0.0
  9
$LIMCHECK
 70
0
  9
$CHAMFERA
 40
0.0
  9
$CHAMFERB
 40
0.0
  9
$CHAMFERC
 40
0.0
  9
$CHAMFERD
 40
0.0
  9
$SKPOLY
 70
0
  9
$TDCREATE
 40
2461315.659988426
  9
$TDUCREATE
 40
2458532.153996898
  9
$TDUPDATE
 40
2461315.659988426
  9
$TDUUPDATE
 40
2458532.1544311
  9
$TDINDWG
 40
0.0
  9
$TDUSRTIMER
 40
0.0
  9
$USRTIMER
 70
1
  9
$ANGBASE
 50
0.0
  9
$ANGDIR
 70
0
  9
$PDMODE
 70
0
  9
$PDSIZE
 40
0.0
  9
$PLINEWID
 40
0.0
  9
$SPLFRAME
 70
0
  9
$SPLINETYPE
 70
6
  9
$SPLINESEGS
 70
8
  9
$HANDSEED
  5
2B7
  9
$SURFTAB1
 70
6
  9
$SURFTAB2
 70
6
  9
$SURFTYPE
 70
6
  9
$SURFU
 70
6
  9
$SURFV
 70
6
  9
$UCSBASE
  2

  9
$UCSNAME
  2

  9
$UCSORG
 10
0.0
 20
0.0
 30
0.0
  9
$UCSXDIR
 10
1.0
 20
0.0
 30
0.0
  9
$UCSYDIR
 10
0.0
 20
1.0
 30
0.0
  9
$UCSORTHOREF
  2

  9
$UCSORTHOVIEW
 70
0
  9
$UCSORGTOP
 10
0.0
 20
0.0
 30
0.0
  9
$UCSORGBOTTOM
 10
0.0
 20
0.0
 30
0.0
  9
$UCSORGLEFT
 10
0.0
 20
0.0
 30
0.0
  9
$UCSORGRIGHT
 10
0.0
 20
0.0
 30
0.0
  9
$UCSORGFRONT
 10
0.0
 20
0.0
 30
0.0
  9
$UCSORGBACK
 10
0.0
 20
0.0
 30
0.0
  9
$PUCSBASE
  2

  9
$PUCSNAME
  2

  9
$PUCSORG
 10
0.0
 20
0.0
 30
0.0
  9
$PUCSXDIR
 10
1.0
 20
0.0
 30
0.0
  9
$PUCSYDIR
 10
0.0
 20
1.0
 30
0.0
  9
$PUCSORTHOREF
  2

  9
$PUCSORTHOVIEW
 70
0
  9
$PUCSORGTOP
 10
0.0
 20
0.0
 30
0.0
  9
$PUCSORGBOTTOM
 10
0.0
 20
0.0
 30
0.0
  9
$PUCSORGLEFT
 10
0.0
 20
0.0
 30
0.0
  9
$PUCSORGRIGHT
 10
0.0
 20
0.0
 30
0.0
  9
$PUCSORGFRONT
 10
0.0
 20
0.0
 30
0.0
  9
$PUCSORGBACK
 10
0.0
 20
0.0
 30
0.0
  9
$USERI1
 70
0
  9
$USERI2
 70
0
  9
$USERI3
 70
0
  9
$USERI4
 70
0
  9
$USERI5
 70
0
  9
$USERR1
 40
0.0
  9
$USERR2
 40
0.0
  9
$USERR3
 40
0.0
  9
$USERR4
 40
0.0
  9
$USERR5
 40
0.0
  9
$WORLDVIEW
 70
1
  9
$SHADEDGE
 70
3
  9
$SHADEDIF
 70
70
  9
$TILEMODE
 70
1
  9
$MAXACTVP
 70
64
  9
$PINSBASE
 10
0.0
 20
0.0
 30
0.0
  9
$PLIMCHECK
 70
0
  9
$PEXTMIN
 10
1e+20
 20
1e+20
 30
1e+20
  9
$PEXTMAX
 10
-1e+20
 20
-1e+20
 30
-1e+20
  9
$PLIMMIN
 10
0.0
 20
0.0
  9
$PLIMMAX
 10
420.0
 20
297.0
  9
$UNITMODE
 70
0
  9
$VISRETAIN
 70
1
  9
$PLINEGEN
 70
0
  9
$PSLTSCALE
 70
1
  9
$TREEDEPTH
 70
3020
  9
$CMLSTYLE
  2
Standard
  9
$CMLJUST
 70
0
  9
$CMLSCALE
 40
20.0
  9
$PROXYGRAPHICS
 70
1
  9
$MEASUREMENT
 70
1
  9
$CELWEIGHT
370
-1
  9
$ENDCAPS
280
0
  9
$JOINSTYLE
280
0
  9
$LWDISPLAY
290
0
  9
$INSUNITS
 70
4
  9
$HYPERLINKBASE
  1

  9
$STYLESHEET
  1

  9
$XEDIT
290
1
  9
$CEPSNTYPE
380
0
  9
$PSTYLEMODE
290
1
  9
$FINGERPRINTGUID
  2
{A653BA85-11E5-4127-94A1-8A47A13118F6}
  9
$VERSIONGUID
  2
{1435CD70-144A-472A-9EEE-462786FC9C43}
  9
$EXTNAMES
290
1
  9
$PSVPSCALE
 40
0.0
  9
$OLESTARTUP
290
0
  9
$SORTENTS
280
127
  9
$INDEXCTL
280
0
  9
$HIDETEXT
280
1
  9
$XCLIPFRAME
280
1
  9
$HALOGAP
280
0
  9
$OBSCOLOR
 70
257
  9
$OBSLTYPE
280
0
  9
$INTERSECTIONDISPLAY
280
0
  9
$INTERSECTIONCOLOR
 70
257
  9
$DIMASSOC
280
2
  9
$PROJECTNAME
  1

  9
$CAMERADISPLAY
290
0
  9
$LENSLENGTH
 40
50.0
  9
$CAMERAHEIGHT
 40
0.0
  9
$STEPSPERSEC
 40
24.0
  9
$STEPSIZE
 40
100.0
  9
$3DDWFPREC
 40
2.0
  9
$PSOLWIDTH
 40
0.005
  9
$PSOLHEIGHT
 40
0.08
  9
$LOFTANG1
 40
1.570796326795
  9
$LOFTANG2
 40
1.570796326795
  9
$LOFTMAG1
 40
0.0
  9
$LOFTMAG2
 40
0.0
  9
$LOFTPARAM
 70
7
  9
$LOFTNORMALS
280
1
  9
$LATITUDE
 40
37.795
  9
$LONGITUDE
 40
-122.394
  9
$NORTHDIRECTION
 40
0.0
  9
$TIMEZONE
 70
-8000
  9
$LIGHTGLYPHDISPLAY
280
1
  9
$TILEMODELIGHTSYNCH
280
1
  9
$CMATERIAL
347
20
  9
$SOLIDHIST
280
0
  9
$SHOWHIST
280
1
  9
$DWFFRAME
280
2
  9
$DGNFRAME
280
2
  9
$REALWORLDSCALE
290
1
  9
$INTERFERECOLOR
 62
256
  9
$CSHADOW
280
0
  9
$SHADOWPLANELOCATION
 40
0.0
  0
ENDSEC
  0
SECTION
  2
CLASSES
  0
CLASS
  1
ACDBDICTIONARYWDFLT
  2
AcDbDictionaryWithDefault
  3
ObjectDBX Classes
 90
0
 91
0
280
0
281
0
  0
CLASS
  1
SUN
  2
AcDbSun
  3
SCENEOE
 90
1153
 91
0
280
0
281
0
  0
CLASS
  1
VISUALSTYLE
  2
AcDbVisualStyle
  3
ObjectDBX Classes
 90
4095
 91
0
280
0
281
0
  0
CLASS
  1
MATERIAL
  2
AcDbMaterial
  3
ObjectDBX Classes
 90
1153
 91
0
280
0
281
0
  0
CLASS
  1
SCALE
  2
AcDbScale
  3
ObjectDBX Classes
 90
1153
 91
0
280
0
281
0
  0
CLASS
  1
TABLESTYLE
  2
AcDbTableStyle
  3
ObjectDBX Classes
 90
4095
 91
0
280
0
281
0
  0
CLASS
  1
MLEADERSTYLE
  2
AcDbMLeaderStyle
  3
ACDB_MLEADERSTYLE_CLASS
 90
4095
 91
0
280
0
281
0
  0
CLASS
  1
DICTIONARYVAR
  2
AcDbDictionaryVar
  3
ObjectDBX Classes
 90
0
 91
0
280
0
281
0
  0
CLASS
  1
CELLSTYLEMAP
  2
AcDbCellStyleMap
  3
ObjectDBX Classes
 90
1152
 91
0
280
0
281
0
  0
CLASS
  1
MENTALRAYRENDERSETTINGS
  2
AcDbMentalRayRenderSettings
  3
SCENEOE
 90
1024
 91
0
280
0
281
0
  0
CLASS
  1
ACDBDETAILVIEWSTYLE
  2
AcDbDetailViewStyle
  3
ObjectDBX Classes
 90
1025
 91
0
280
0
281
0
  0
CLASS
  1
ACDBSECTIONVIEWSTYLE
  2
AcDbSectionViewStyle
  3
ObjectDBX Classes
 90
1025
 91
0
280
0
281
0
  0
CLASS
  1
RASTERVARIABLES
  2
AcDbRasterVariables
  3
ISM
 90
0
 91
0
280
0
281
0
  0
CLASS
  1
ACDBPLACEHOLDER
  2
AcDbPlaceHolder
  3
ObjectDBX Classes
 90
0
 91
0
280
0
281
0
  0
CLASS
  1
LAYOUT
  2
AcDbLayout
  3
ObjectDBX Classes
 90
0
 91
0
280
0
281
0
  0
ENDSEC
  0
SECTION
  2
TABLES
  0
TABLE
  2
VPORT
  5
8
330
0
100
AcDbSymbolTable
 70
1
  0
VPORT
  5
23
330
8
100
AcDbSymbolTableRecord
100
AcDbViewportTableRecord
  2
*Active
 70
0
 10
0.0
 20
0.0
 11
1.0
 21
1.0
 12
0.0
 22
0.0
 13
0.0
 23
0.0
 14
0.5
 24
0.5
 15
0.5
 25
0.5
 16
0.0
 26
0.0
 36
1.0
 17
0.0
 27
0.0
 37
0.0
 40
1000.0
 41
1.34
 42
50.0
 43
0.0
 44
0.0
 50
0.0
 51
0.0
 71
0
 72
1000
 73
1
 74
3
 75
0
 76
0
 77
0
 78
0
281
0
 65
0
146
0.0
  0
ENDTAB
  0
TABLE
  2
LTYPE
  5
2
330
0
100
AcDbSymbolTable
 70
3
  0
LTYPE
  5
24
330
2
100
AcDbSymbolTableRecord
100
AcDbLinetypeTableRecord
  2
ByBlock
 70
0
  3

 72
65
 73
0
 40
0.0
  0
LTYPE
  5
25
330
2
100
AcDbSymbolTableRecord
100
AcDbLinetypeTableRecord
  2
ByLayer
 70
0
  3

 72
65
 73
0
 40
0.0
  0
LTYPE
  5
26
330
2
100
AcDbSymbolTableRecord
100
AcDbLinetypeTableRecord
  2
Continuous
 70
0
  3

 72
65
 73
0
 40
0.0
  0
ENDTAB
  0
TABLE
  2
LAYER
  5
1
330
0
100
AcDbSymbolTable
 70
7
  0
LAYER
  5
27
330
1
100
AcDbSymbolTableRecord
100
AcDbLayerTableRecord
  2
0
 70
0
 62
7
  6
Continuous
370
-3
390
13
347
21
  0
LAYER
  5
28
330
1
100
AcDbSymbolTableRecord
100
AcDbLayerTableRecord
  2
Defpoints
 70
0
 62
7
  6
Continuous
290
0
370
-3
390
13
347
21
  0
LAYER
  5
2F
330
1
100
AcDbSymbolTableRecord
100
AcDbLayerTableRecord
  2
可见轮廓
 70
0
 62
7
  6
Continuous
370
50
390
13
347
21
  0
LAYER
  5
30
330
1
100
AcDbSymbolTableRecord
100
AcDbLayerTableRecord
  2
隐藏线
 70
0
 62
5
  6
Continuous
370
25
390
13
347
21
  0
LAYER
  5
31
330
1
100
AcDbSymbolTableRecord
100
AcDbLayerTableRecord
  2
剖面线
 70
0
 62
3
  6
Continuous
370
18
390
13
347
21
  0
LAYER
  5
32
330
1
100
AcDbSymbolTableRecord
100
AcDbLayerTableRecord
  2
剖切线
 70
0
 62
1
  6
Continuous
370
70
390
13
347
21
  0
LAYER
  5
33
330
1
100
AcDbSymbolTableRecord
100
AcDbLayerTableRecord
  2
标注
 70
0
 62
2
  6
Continuous
370
25
390
13
347
21
  0
ENDTAB
  0
TABLE
  2
STYLE
  5
5
330
0
100
AcDbSymbolTable
 70
2
  0
STYLE
  5
29
330
5
100
AcDbSymbolTableRecord
100
AcDbTextStyleTableRecord
  2
Standard
 70
0
 40
0.0
 41
1.0
 50
0.0
 71
0
 42
2.5
  3
txt
  4

  0
STYLE
  5
34
330
5
100
AcDbSymbolTableRecord
100
AcDbTextStyleTableRecord
  2
中文字体
 70
0
 40
0.0
 41
1.0
 50
0.0
 71
0
 42
2.5
  3
simhei.ttf
  4

  0
ENDTAB
  0
TABLE
  2
VIEW
  5
7
330
0
100
AcDbSymbolTable
 70
0
  0
ENDTAB
  0
TABLE
  2
UCS
  5
6
330
0
100
AcDbSymbolTable
 70
0
  0
ENDTAB
  0
TABLE
  2
APPID
  5
3
330
0
100
AcDbSymbolTable
 70
3
  0
APPID
  5
2A
330
3
100
AcDbSymbolTableRecord
100
AcDbRegAppTableRecord
  2
ACAD
 70
0
  0
APPID
  5
2B4
330
3
100
AcDbSymbolTableRecord
100
AcDbRegAppTableRecord
  2
HATCHBACKGROUNDCOLOR
 70
0
  0
APPID
  5
2B5
330
3
100
AcDbSymbolTableRecord
100
AcDbRegAppTableRecord
  2
EZDXF
 70
0
  0
ENDTAB
  0
TABLE
  2
DIMSTYLE
  5
4
330
0
100
AcDbSymbolTable
 70
1
100
AcDbDimStyleTable
  0
DIMSTYLE
105
2B
330
4
100
AcDbSymbolTableRecord
100
AcDbDimStyleTableRecord
  2
Standard
 70
0
 40
1.0
 41
2.5
 42
0.625
 43
3.75
 44
1.25
 45
0.0
 46
0.0
 47
0.0
 48
0.0
 49
2.5
140
2.5
141
2.5
142
0.0
143
0.03937007874
144
1.0
145
0.0
146
1.0
147
0.625
148
0.0
 69
0
 70
0
 71
0
 72
0
 73
0
 74
0
 75
0
 76
0
 77
1
 78
8
 79
3
170
0
171
3
172
1
173
0
174
0
175
0
176
0
177
0
178
0
179
2
271
2
272
2
273
2
274
3
275
0
276
0
277
2
278
44
279
0
280
0
281
0
282
0
283
0
284
8
285
0
286
0
288
0
289
3
290
0
371
-2
372
-2
  0
ENDTAB
  0
TABLE
  2
BLOCK_RECORD
  5
9
330
0
100
AcDbSymbolTable
 70
2
  0
BLOCK_RECORD
  5
17
330
9
100
AcDbSymbolTableRecord
100
AcDbBlockTableRecord
  2
*Model_Space
340
1A
 70
0
280
1
281
0
  0
BLOCK_RECORD
  5
1B
330
9
100
AcDbSymbolTableRecord
100
AcDbBlockTableRecord
  2
*Paper_Space
340
1E
 70
0
280
1
281
0
  0
ENDTAB
  0
ENDSEC
  0
SECTION
  2
BLOCKS
  0
BLOCK
  5
18
330
17
100
AcDbEntity
  8
0
100
AcDbBlockBegin
  2
*Model_Space
 70
0
 10
0.0
 20
0.0
 30
0.0
  3
*Model_Space
  1

  0
ENDBLK
  5
19
330
17
100
AcDbEntity
  8
0
100
AcDbBlockEnd
  0
BLOCK
  5
1C
330
1B
100
AcDbEntity
  8
0
100
AcDbBlockBegin
  2
*Paper_Space
 70
0
 10
0.0
 20
0.0
 30
0.0
  3
*Paper_Space
  1

  0
ENDBLK
  5
1D
330
1B
100
AcDbEntity
  8
0
100
AcDbBlockEnd
  0
ENDSEC
  0
SECTION
  2
ENTITIES
  0
LINE
  5
35
330
17
100
AcDbEntity
  8
可见轮廓
100
AcDbLine
 10
42.0
 20
57.0
 30
0.0
 11
42.0
 21
62.0
 31
0.0
  0
LINE
  5
36
330
17
100
AcDbEntity
  8
可见轮廓
100
AcDbLine
 10
42.0
 20
51.99999999999999
 30
0.0
 11
42.0
 21
57.0
 31
0.0
  0
LINE
  5
37
330
17
100
AcDbEntity
  8
可见轮廓
100
AcDbLine
 10
42.0
 20
7.0
 30
0.0
 11
42.0
 21
12.000000000000007
 31
0.0
  0
LINE
  5
38
330
17
100
AcDbEntity
  8
可见轮廓
100
AcDbLine
 10
42.0
 20
2.0
 30
0.0
 11
42.0
 21
7.0
 31
0.0
  0
LINE
  5
39
330
17
100
AcDbEntity
  8
可见轮廓
100
AcDbLine
 10
2.0
 20
62.0
 30
0.0
 11
22.000000000000004
 21
62.0
 31
0.0
  0
LINE
  5
3A
330
17
100
AcDbEntity
  8
可见轮廓
100
AcDbLine
 10
22.000000000000004
 20
62.0
 30
0.0
 11
42.0
 21
62.0
 31
0.0
  0
LINE
  5
3B
330
17
100
AcDbEntity
  8
可见轮廓
100
AcDbLine
 10
2.0
 20
32.0
 30
0.0
 11
2.0
 21
62.0
 31
0.0
  0
LINE
  5
3C
330
17
100
AcDbEntity
  8
可见轮廓
100
AcDbLine
 10
2.0
 20
2.0
 30
0.0
 11
2.0
 21
32.0
 31
0.0
  0
LINE
  5
3D
330
17
100
AcDbEntity
  8
可见轮廓
100
AcDbLine
 10
2.0
 20
2.0
 30
0.0
 11
22.000000000000004
 21
2.0
 31
0.0
  0
LINE
  5
3E
330
17
100
AcDbEntity
  8
可见轮廓
100
AcDbLine
 10
22.000000000000004
 20
2.0
 30
0.0
 11
42.0
 21
2.0
 31
0.0
  0
ARC
  5
3F
330
17
100
AcDbEntity
  8
可见轮廓
100
AcDbCircle
 10
42.0
 20
32.0
 30
0.0
 40
20.0
100
AcDbArc
 50
-180.0
 51
-90.0
  0
ARC
  5
40
330
17
100
AcDbEntity
  8
可见轮廓
100
AcDbCircle
 10
42.0
 20
32.0
 30
0.0
 40
20.0
100
AcDbArc
 50
90.00000000000003
 51
-180.0
  0
LINE
  5
41
330
17
100
AcDbEntity
  8
隐藏线
100
AcDbLine
 10
14.000000000000002
 20
17.0
 30
0.0
 11
14.000000000000002
 21
32.0
 31
0.0
  0
LINE
  5
42
330
17
100
AcDbEntity
  8
隐藏线
100
AcDbLine
 10
14.000000000000002
 20
32.0
 30
0.0
 11
14.000000000000002
 21
47.0
 31
0.0
  0
LINE
  5
43
330
17
100
AcDbEntity
  8
隐藏线
100
AcDbLine
 10
14.0
 20
47.0
 30
0.0
 11
14.0
 21
62.0
 31
0.0
  0
LINE
  5
44
330
17
100
AcDbEntity
  8
隐藏线
100
AcDbLine
 10
14.000000000000004
 20
32.0
 30
0.0
 11
14.000000000000004
 21
62.0
 31
0.0
  0
LINE
  5
45
330
17
100
AcDbEntity
  8
隐藏线
100
AcDbLine
 10
14.000000000000004
 20
2.0
 30
0.0
 11
14.000000000000004
 21
32.0
 31
0.0
  0
LINE
  5
46
330
17
100
AcDbEntity
  8
隐藏线
100
AcDbLine
 10
14.0
 20
2.0
 30
0.0
 11
14.0
 21
17.0
 31
0.0
  0
LINE
  5
47
330
17
100
AcDbEntity
  8
隐藏线
100
AcDbLine
 10
10.0
 20
17.0
 30
0.0
 11
14.0
 21
17.0
 31
0.0
  0
LINE
  5
48
330
17
100
AcDbEntity
  8
隐藏线
100
AcDbLine
 10
8.0
 20
17.0
 30
0.0
 11
10.0
 21
17.0
 31
0.0
  0
LINE
  5
49
330
17
100
AcDbEntity
  8
隐藏线
100
AcDbLine
 10
6.0
 20
17.0
 30
0.0
 11
8.0
 21
17.0
 31
0.0
  0
LINE
  5
4A
330
17
100
AcDbEntity
  8
隐藏线
100
AcDbLine
 10
8.0
 20
2.0
 30
0.0
 11
14.0
 21
2.0
 31
0.0
  0
LINE
  5
4B
330
17
100
AcDbEntity
  8
隐藏线
100
AcDbLine
 10
2.0
 20
2.0
 30
0.0
 11
8.0
 21
2.0
 31
0.0
  0
LINE
  5
4C
330
17
100
AcDbEntity
  8
隐藏线
100
AcDbLine
 10
2.0
 20
32.0
 30
0.0
 11
2.0
 21
62.0
 31
0.0
  0
LINE
  5
4D
330
17
100
AcDbEntity
  8
隐藏线
100
AcDbLine
 10
2.0
 20
2.0
 30
0.0
 11
2.0
 21
32.0
 31
0.0
  0
LINE
  5
4E
330
17
100
AcDbEntity
  8
隐藏线
100
AcDbLine
 10
8.0
 20
62.0
 30
0.0
 11
14.0
 21
62.0
 31
0.0
  0
LINE
  5
4F
330
17
100
AcDbEntity
  8
隐藏线
100
AcDbLine
 10
2.0
 20
62.0
 30
0.0
 11
8.0
 21
62.0
 31
0.0
  0
LINE
  5
50
330
17
100
AcDbEntity
  8
隐藏线
100
AcDbLine
 10
10.0
 20
47.0
 30
0.0
 11
14.0
 21
47.0
 31
0.0
  0
LINE
  5
51
330
17
100
AcDbEntity
  8
隐藏线
100
AcDbLine
 10
8.0
 20
47.0
 30
0.0
 11
10.0
 21
47.0
 31
0.0
  0
LINE
  5
52
330
17
100
AcDbEntity
  8
隐藏线
100
AcDbLine
 10
6.0
 20
47.0
 30
0.0
 11
8.0
 21
47.0
 31
0.0
  0
LINE
  5
53
330
17
100
AcDbEntity
  8
隐藏线
100
AcDbLine
 10
6.0
 20
17.0
 30
0.0
 11
6.0
 21
32.0
 31
0.0
  0
LINE
  5
54
330
17
100
AcDbEntity
  8
隐藏线
100
AcDbLine
 10
6.0
 20
32.0
 30
0.0
 11
6.0
 21
47.0
 31
0.0
  0
LINE
  5
55
330
17
100
AcDbEntity
  8
隐藏线
100
AcDbLine
 10
42.0
 20
57.0
 30
0.0
 11
42.0
 21
62.0
 31
0.0
  0
LINE
  5
56
330
17
100
AcDbEntity
  8
隐藏线
100
AcDbLine
 10
42.0
 20
51.99999999999999
 30
0.0
 11
42.0
 21
57.0
 31
0.0
  0
LINE
  5
57
330
17
100
AcDbEntity
  8
隐藏线
100
AcDbLine
 10
42.0
 20
7.0
 30
0.0
 11
42.0
 21
12.000000000000007
 31
0.0
  0
LINE
  5
58
330
17
100
AcDbEntity
  8
隐藏线
100
AcDbLine
 10
42.0
 20
2.0
 30
0.0
 11
42.0
 21
7.0
 31
0.0
  0
LINE
  5
59
330
17
100
AcDbEntity
  8
隐藏线
100
AcDbLine
 10
28.000000000000004
 20
2.0
 30
0.0
 11
42.0
 21
2.0
 31
0.0
  0
LINE
  5
5A
330
17
100
AcDbEntity
  8
隐藏线
100
AcDbLine
 10
22.0
 20
2.0
 30
0.0
 11
28.000000000000004
 21
2.0
 31
0.0
  0
LINE
  5
5B
330
17
100
AcDbEntity
  8
隐藏线
100
AcDbLine
 10
14.000000000000004
 20
2.0
 30
0.0
 11
22.0
 21
2.0
 31
0.0
  0
LINE
  5
5C
330
17
100
AcDbEntity
  8
隐藏线
100
AcDbLine
 10
28.000000000000004
 20
62.0
 30
0.0
 11
42.0
 21
62.0
 31
0.0
  0
LINE
  5
5D
330
17
100
AcDbEntity
  8
隐藏线
100
AcDbLine
 10
22.0
 20
62.0
 30
0.0
 11
28.000000000000004
 21
62.0
 31
0.0
  0
LINE
  5
5E
330
17
100
AcDbEntity
  8
隐藏线
100
AcDbLine
 10
14.000000000000004
 20
62.0
 30
0.0
 11
22.0
 21
62.0
 31
0.0
  0
LINE
  5
5F
330
17
100
AcDbEntity
  8
隐藏线
100
AcDbLine
 10
6.0
 20
47.0
 30
0.0
 11
10.000000000000002
 21
47.0
 31
0.0
  0
LINE
  5
60
330
17
100
AcDbEntity
  8
隐藏线
100
AcDbLine
 10
6.0
 20
17.0
 30
0.0
 11
10.000000000000002
 21
17.0
 31
0.0
  0
ARC
  5
61
330
17
100
AcDbEntity
  8
隐藏线
100
AcDbCircle
 10
42.0
 20
32.0
 30
0.0
 40
20.0
100
AcDbArc
 50
90.0
 51
134.4270040008057
  0
ARC
  5
62
330
17
100
AcDbEntity
  8
隐藏线
100
AcDbCircle
 10
42.0
 20
32.0
 30
0.0
 40
20.0
100
AcDbArc
 50
134.4270040008057
 51
180.0
  0
ARC
  5
63
330
17
100
AcDbEntity
  8
隐藏线
100
AcDbCircle
 10
42.0
 20
32.0
 30
0.0
 40
20.0
100
AcDbArc
 50
180.0
 51
-134.42700400080574
  0
ARC
  5
64
330
17
100
AcDbEntity
  8
隐藏线
100
AcDbCircle
 10
42.0
 20
32.0
 30
0.0
 40
20.0
100
AcDbArc
 50
-134.42700400080574
 51
-90.00000000000003
  0
LINE
  5
65
330
17
100
AcDbEntity
  8
可见轮廓
100
AcDbLine
 10
29.999999999999996
 20
128.0
 30
0.0
 11
30.0
 21
138.0
 31
0.0
  0
LINE
  5
66
330
17
100
AcDbEntity
  8
可见轮廓
100
AcDbLine
 10
30.0
 20
138.0
 30
0.0
 11
30.0
 21
144.0
 31
0.0
  0
LINE
  5
67
330
17
100
AcDbEntity
  8
可见轮廓
100
AcDbLine
 10
30.0
 20
144.0
 30
0.0
 11
30.0
 21
160.0
 31
0.0
  0
LINE
  5
68
330
17
100
AcDbEntity
  8
可见轮廓
100
AcDbLine
 10
30.0
 20
160.0
 30
0.0
 11
36.0
 21
160.0
 31
0.0
  0
LINE
  5
69
330
17
100
AcDbEntity
  8
可见轮廓
100
AcDbLine
 10
36.0
 20
160.0
 30
0.0
 11
42.0
 21
160.0
 31
0.0
  0
LINE
  5
6A
330
17
100
AcDbEntity
  8
可见轮廓
100
AcDbLine
 10
21.999999999999996
 20
116.0
 30
0.0
 11
42.0
 21
116.0
 31
0.0
  0
LINE
  5
6B
330
17
100
AcDbEntity
  8
可见轮廓
100
AcDbLine
 10
2.0
 20
116.0
 30
0.0
 11
21.999999999999996
 21
116.0
 31
0.0
  0
LINE
  5
6C
330
17
100
AcDbEntity
  8
可见轮廓
100
AcDbLine
 10
2.0
 20
116.0
 30
0.0
 11
2.0
 21
122.0
 31
0.0
  0
LINE
  5
6D
330
17
100
AcDbEntity
  8
可见轮廓
100
AcDbLine
 10
2.0
 20
122.0
 30
0.0
 11
2.0
 21
128.0
 31
0.0
  0
LINE
  5
6E
330
17
100
AcDbEntity
  8
可见轮廓
100
AcDbLine
 10
2.0
 20
128.0
 30
0.0
 11
15.999999999999996
 21
128.0
 31
0.0
  0
LINE
  5
6F
330
17
100
AcDbEntity
  8
可见轮廓
100
AcDbLine
 10
15.999999999999996
 20
128.0
 30
0.0
 11
22.0
 21
128.0
 31
0.0
  0
LINE
  5
70
330
17
100
AcDbEntity
  8
可见轮廓
100
AcDbLine
 10
22.0
 20
128.0
 30
0.0
 11
29.999999999999996
 21
128.0
 31
0.0
  0
LINE
  5
71
330
17
100
AcDbEntity
  8
可见轮廓
100
AcDbLine
 10
42.0
 20
138.0
 30
0.0
 11
42.0
 21
160.0
 31
0.0
  0
LINE
  5
72
330
17
100
AcDbEntity
  8
可见轮廓
100
AcDbLine
 10
42.0
 20
116.0
 30
0.0
 11
42.0
 21
138.0
 31
0.0
  0
LINE
  5
73
330
17
100
AcDbEntity
  8
可见轮廓
100
AcDbLine
 10
2.0
 20
116.0
 30
0.0
 11
2.000000000000007
 21
116.0
 31
0.0
  0
LINE
  5
74
330
17
100
AcDbEntity
  8
可见轮廓
100
AcDbLine
 10
2.0
 20
128.0
 30
0.0
 11
2.000000000000007
 21
128.0
 31
0.0
  0
LINE
  5
75
330
17
100
AcDbEntity
  8
可见轮廓
100
AcDbLine
 10
21.999999999999993
 20
116.0
 30
0.0
 11
21.999999999999993
 21
116.75
 31
0.0
  0
LINE
  5
76
330
17
100
AcDbEntity
  8
可见轮廓
100
AcDbLine
 10
21.999999999999993
 20
127.25
 30
0.0
 11
21.999999999999993
 21
128.0
 31
0.0
  0
LINE
  5
77
330
17
100
AcDbEntity
  8
可见轮廓
100
AcDbLine
 10
2.0
 20
116.0
 30
0.0
 11
2.0
 21
128.0
 31
0.0
  0
LINE
  5
78
330
17
100
AcDbEntity
  8
隐藏线
100
AcDbLine
 10
30.0
 20
144.0
 30
0.0
 11
30.0
 21
152.0
 31
0.0
  0
LINE
  5
79
330
17
100
AcDbEntity
  8
隐藏线
100
AcDbLine
 10
30.0
 20
152.0
 30
0.0
 11
30.0
 21
160.0
 31
0.0
  0
LINE
  5
7A
330
17
100
AcDbEntity
  8
隐藏线
100
AcDbLine
 10
29.999999999999996
 20
128.0
 30
0.0
 11
30.0
 21
138.0
 31
0.0
  0
LINE
  5
7B
330
17
100
AcDbEntity
  8
隐藏线
100
AcDbLine
 10
30.0
 20
138.0
 30
0.0
 11
30.0
 21
144.0
 31
0.0
  0
LINE
  5
7C
330
17
100
AcDbEntity
  8
隐藏线
100
AcDbLine
 10
30.0
 20
144.0
 30
0.0
 11
30.0
 21
160.0
 31
0.0
  0
LINE
  5
7D
330
17
100
AcDbEntity
  8
隐藏线
100
AcDbLine
 10
30.0
 20
160.0
 30
0.0
 11
34.0
 21
160.0
 31
0.0
  0
LINE
  5
7E
330
17
100
AcDbEntity
  8
隐藏线
100
AcDbLine
 10
34.0
 20
160.0
 30
0.0
 11
36.0
 21
160.0
 31
0.0
  0
LINE
  5
7F
330
17
100
AcDbEntity
  8
隐藏线
100
AcDbLine
 10
36.0
 20
160.0
 30
0.0
 11
38.0
 21
160.0
 31
0.0
  0
LINE
  5
80
330
17
100
AcDbEntity
  8
隐藏线
100
AcDbLine
 10
30.0
 20
160.0
 30
0.0
 11
36.0
 21
160.0
 31
0.0
  0
LINE
  5
81
330
17
100
AcDbEntity
  8
隐藏线
100
AcDbLine
 10
36.0
 20
160.0
 30
0.0
 11
42.0
 21
160.0
 31
0.0
  0
LINE
  5
82
330
17
100
AcDbEntity
  8
隐藏线
100
AcDbLine
 10
2.0
 20
116.0
 30
0.0
 11
2.0
 21
122.0
 31
0.0
  0
LINE
  5
83
330
17
100
AcDbEntity
  8
隐藏线
100
AcDbLine
 10
2.0
 20
122.0
 30
0.0
 11
2.0
 21
128.0
 31
0.0
  0
LINE
  5
84
330
17
100
AcDbEntity
  8
隐藏线
100
AcDbLine
 10
2.0
 20
116.0
 30
0.0
 11
5.897636389861255
 21
116.0
 31
0.0
  0
LINE
  5
85
330
17
100
AcDbEntity
  8
隐藏线
100
AcDbLine
 10
5.897636389861255
 20
116.0
 30
0.0
 11
9.641628010727246
 21
116.0
 31
0.0
  0
LINE
  5
86
330
17
100
AcDbEntity
  8
隐藏线
100
AcDbLine
 10
9.641628010727246
 20
116.0
 30
0.0
 11
13.097930157023704
 21
116.0
 31
0.0
  0
LINE
  5
87
330
17
100
AcDbEntity
  8
隐藏线
100
AcDbLine
 10
13.097930157023704
 20
116.0
 30
0.0
 11
16.142135623730944
 21
116.0
 31
0.0
  0
LINE
  5
88
330
17
100
AcDbEntity
  8
隐藏线
100
AcDbLine
 10
16.142135623730944
 20
116.0
 30
0.0
 11
18.61002040076441
 21
116.0
 31
0.0
  0
LINE
  5
89
330
17
100
AcDbEntity
  8
隐藏线
100
AcDbLine
 10
18.61002040076441
 20
116.0
 30
0.0
 11
20.448521982107856
 21
116.0
 31
0.0
  0
LINE
  5
8A
330
17
100
AcDbEntity
  8
隐藏线
100
AcDbLine
 10
20.448521982107856
 20
116.0
 30
0.0
 11
21.59247973219356
 21
116.0
 31
0.0
  0
LINE
  5
8B
330
17
100
AcDbEntity
  8
隐藏线
100
AcDbLine
 10
21.59247973219356
 20
116.0
 30
0.0
 11
21.999999999999993
 21
116.0
 31
0.0
  0
LINE
  5
8C
330
17
100
AcDbEntity
  8
隐藏线
100
AcDbLine
 10
21.999999999999996
 20
116.0
 30
0.0
 11
42.0
 21
116.0
 31
0.0
  0
LINE
  5
8D
330
17
100
AcDbEntity
  8
隐藏线
100
AcDbLine
 10
2.0
 20
116.0
 30
0.0
 11
21.999999999999996
 21
116.0
 31
0.0
  0
LINE
  5
8E
330
17
100
AcDbEntity
  8
隐藏线
100
AcDbLine
 10
2.0
 20
128.0
 30
0.0
 11
3.9349562990541997
 21
128.0
 31
0.0
  0
LINE
  5
8F
330
17
100
AcDbEntity
  8
隐藏线
100
AcDbLine
 10
3.9349562990541997
 20
128.0
 30
0.0
 11
5.851274539951859
 21
128.0
 31
0.0
  0
LINE
  5
90
330
17
100
AcDbEntity
  8
隐藏线
100
AcDbLine
 10
5.851274539951859
 20
128.0
 30
0.0
 11
7.732177932013556
 21
128.0
 31
0.0
  0
LINE
  5
91
330
17
100
AcDbEntity
  8
隐藏线
100
AcDbLine
 10
7.732177932013556
 20
128.0
 30
0.0
 11
9.561179235353634
 21
128.0
 31
0.0
  0
LINE
  5
92
330
17
100
AcDbEntity
  8
隐藏线
100
AcDbLine
 10
9.561179235353634
 20
128.0
 30
0.0
 11
11.314871496543486
 21
128.0
 31
0.0
  0
LINE
  5
93
330
17
100
AcDbEntity
  8
隐藏线
100
AcDbLine
 10
11.314871496543486
 20
128.0
 30
0.0
 11
12.982152129418775
 21
128.0
 31
0.0
  0
LINE
  5
94
330
17
100
AcDbEntity
  8
隐藏线
100
AcDbLine
 10
12.982152129418775
 20
128.0
 30
0.0
 11
14.548445088337804
 21
128.0
 31
0.0
  0
LINE
  5
95
330
17
100
AcDbEntity
  8
隐藏线
100
AcDbLine
 10
14.548445088337804
 20
128.0
 30
0.0
 11
15.999999999999996
 21
128.0
 31
0.0
  0
LINE
  5
96
330
17
100
AcDbEntity
  8
隐藏线
100
AcDbLine
 10
15.999999999999996
 20
128.0
 30
0.0
 11
17.34398497391478
 21
128.0
 31
0.0
  0
LINE
  5
97
330
17
100
AcDbEntity
  8
隐藏线
100
AcDbLine
 10
17.34398497391478
 20
128.0
 30
0.0
 11
18.538908782539426
 21
128.0
 31
0.0
  0
LINE
  5
98
330
17
100
AcDbEntity
  8
隐藏线
100
AcDbLine
 10
18.538908782539426
 20
128.0
 30
0.0
 11
19.57380625273049
 21
128.0
 31
0.0
  0
LINE
  5
99
330
17
100
AcDbEntity
  8
隐藏线
100
AcDbLine
 10
19.57380625273049
 20
128.0
 30
0.0
 11
20.439088914585763
 21
128.0
 31
0.0
  0
LINE
  5
9A
330
17
100
AcDbEntity
  8
隐藏线
100
AcDbLine
 10
20.439088914585763
 20
128.0
 30
0.0
 11
21.111131906891153
 21
128.0
 31
0.0
  0
LINE
  5
9B
330
17
100
AcDbEntity
  8
隐藏线
100
AcDbLine
 10
21.111131906891153
 20
128.0
 30
0.0
 11
21.597979059035925
 21
128.0
 31
0.0
  0
LINE
  5
9C
330
17
100
AcDbEntity
  8
隐藏线
100
AcDbLine
 10
21.597979059035925
 20
128.0
 30
0.0
 11
21.895201075039534
 21
128.0
 31
0.0
  0
LINE
  5
9D
330
17
100
AcDbEntity
  8
隐藏线
100
AcDbLine
 10
21.895201075039534
 20
128.0
 30
0.0
 11
21.999999999999993
 21
128.0
 31
0.0
  0
LINE
  5
9E
330
17
100
AcDbEntity
  8
隐藏线
100
AcDbLine
 10
2.0
 20
128.0
 30
0.0
 11
15.999999999999996
 21
128.0
 31
0.0
  0
LINE
  5
9F
330
17
100
AcDbEntity
  8
隐藏线
100
AcDbLine
 10
15.999999999999996
 20
128.0
 30
0.0
 11
22.0
 21
128.0
 31
0.0
  0
LINE
  5
A0
330
17
100
AcDbEntity
  8
隐藏线
100
AcDbLine
 10
22.0
 20
128.0
 30
0.0
 11
29.999999999999996
 21
128.0
 31
0.0
  0
LINE
  5
A1
330
17
100
AcDbEntity
  8
隐藏线
100
AcDbLine
 10
42.0
 20
138.0
 30
0.0
 11
42.0
 21
160.0
 31
0.0
  0
LINE
  5
A2
330
17
100
AcDbEntity
  8
隐藏线
100
AcDbLine
 10
42.0
 20
116.0
 30
0.0
 11
42.0
 21
138.0
 31
0.0
  0
LINE
  5
A3
330
17
100
AcDbEntity
  8
隐藏线
100
AcDbLine
 10
34.0
 20
152.0
 30
0.0
 11
38.0
 21
160.0
 31
0.0
  0
LINE
  5
A4
330
17
100
AcDbEntity
  8
隐藏线
100
AcDbLine
 10
30.0
 20
144.0
 30
0.0
 11
34.0
 21
152.0
 31
0.0
  0
LINE
  5
A5
330
17
100
AcDbEntity
  8
隐藏线
100
AcDbLine
 10
21.999999999999993
 20
116.0
 30
0.0
 11
21.999999999999993
 21
122.0
 31
0.0
  0
LINE
  5
A6
330
17
100
AcDbEntity
  8
隐藏线
100
AcDbLine
 10
21.999999999999993
 20
122.0
 30
0.0
 11
21.999999999999993
 21
128.0
 31
0.0
  0
LINE
  5
A7
330
17
100
AcDbEntity
  8
可见轮廓
100
AcDbLine
 10
124.0
 20
17.0
 30
0.0
 11
132.0
 21
17.0
 31
0.0
  0
LINE
  5
A8
330
17
100
AcDbEntity
  8
可见轮廓
100
AcDbLine
 10
132.0
 20
17.0
 30
0.0
 11
140.0
 21
17.0
 31
0.0
  0
LINE
  5
A9
330
17
100
AcDbEntity
  8
可见轮廓
100
AcDbLine
 10
124.0
 20
17.0
 30
0.0
 11
124.0
 21
32.0
 31
0.0
  0
LINE
  5
AA
330
17
100
AcDbEntity
  8
可见轮廓
100
AcDbLine
 10
124.0
 20
32.0
 30
0.0
 11
124.0
 21
47.0
 31
0.0
  0
LINE
  5
AB
330
17
100
AcDbEntity
  8
可见轮廓
100
AcDbLine
 10
124.0
 20
47.0
 30
0.0
 11
132.0
 21
47.0
 31
0.0
  0
LINE
  5
AC
330
17
100
AcDbEntity
  8
可见轮廓
100
AcDbLine
 10
132.0
 20
47.0
 30
0.0
 11
140.0
 21
47.0
 31
0.0
  0
LINE
  5
AD
330
17
100
AcDbEntity
  8
可见轮廓
100
AcDbLine
 10
140.0
 20
47.0
 30
0.0
 11
140.0
 21
62.0
 31
0.0
  0
LINE
  5
AE
330
17
100
AcDbEntity
  8
可见轮廓
100
AcDbLine
 10
108.0
 20
62.0
 30
0.0
 11
118.0
 21
62.0
 31
0.0
  0
LINE
  5
AF
330
17
100
AcDbEntity
  8
可见轮廓
100
AcDbLine
 10
118.0
 20
62.0
 30
0.0
 11
124.0
 21
62.0
 31
0.0
  0
LINE
  5
B0
330
17
100
AcDbEntity
  8
可见轮廓
100
AcDbLine
 10
124.0
 20
62.0
 30
0.0
 11
140.0
 21
62.0
 31
0.0
  0
LINE
  5
B1
330
17
100
AcDbEntity
  8
可见轮廓
100
AcDbLine
 10
108.0
 20
2.0
 30
0.0
 11
118.0
 21
2.0
 31
0.0
  0
LINE
  5
B2
330
17
100
AcDbEntity
  8
可见轮廓
100
AcDbLine
 10
118.0
 20
2.0
 30
0.0
 11
124.0
 21
2.0
 31
0.0
  0
LINE
  5
B3
330
17
100
AcDbEntity
  8
可见轮廓
100
AcDbLine
 10
124.0
 20
2.0
 30
0.0
 11
140.0
 21
2.0
 31
0.0
  0
LINE
  5
B4
330
17
100
AcDbEntity
  8
可见轮廓
100
AcDbLine
 10
140.0
 20
2.0
 30
0.0
 11
140.0
 21
17.0
 31
0.0
  0
LINE
  5
B5
330
17
100
AcDbEntity
  8
可见轮廓
100
AcDbLine
 10
140.0
 20
17.0
 30
0.0
 11
140.0
 21
32.0
 31
0.0
  0
LINE
  5
B6
330
17
100
AcDbEntity
  8
可见轮廓
100
AcDbLine
 10
140.0
 20
32.0
 30
0.0
 11
140.0
 21
47.0
 31
0.0
  0
LINE
  5
B7
330
17
100
AcDbEntity
  8
可见轮廓
100
AcDbLine
 10
96.0
 20
57.0
 30
0.0
 11
96.0
 21
62.0
 31
0.0
  0
LINE
  5
B8
330
17
100
AcDbEntity
  8
可见轮廓
100
AcDbLine
 10
96.0
 20
51.99999999999999
 30
0.0
 11
96.0
 21
57.0
 31
0.0
  0
LINE
  5
B9
330
17
100
AcDbEntity
  8
可见轮廓
100
AcDbLine
 10
96.0
 20
51.99999999999999
 30
0.0
 11
102.0
 21
51.99999999999999
 31
0.0
  0
LINE
  5
BA
330
17
100
AcDbEntity
  8
可见轮廓
100
AcDbLine
 10
102.0
 20
51.99999999999999
 30
0.0
 11
108.0
 21
51.99999999999999
 31
0.0
  0
LINE
  5
BB
330
17
100
AcDbEntity
  8
可见轮廓
100
AcDbLine
 10
108.0
 20
57.0
 30
0.0
 11
108.0
 21
62.0
 31
0.0
  0
LINE
  5
BC
330
17
100
AcDbEntity
  8
可见轮廓
100
AcDbLine
 10
108.0
 20
51.99999999999999
 30
0.0
 11
108.0
 21
57.0
 31
0.0
  0
LINE
  5
BD
330
17
100
AcDbEntity
  8
可见轮廓
100
AcDbLine
 10
96.0
 20
62.0
 30
0.0
 11
102.0
 21
62.0
 31
0.0
  0
LINE
  5
BE
330
17
100
AcDbEntity
  8
可见轮廓
100
AcDbLine
 10
102.0
 20
62.0
 30
0.0
 11
108.0
 21
62.0
 31
0.0
  0
LINE
  5
BF
330
17
100
AcDbEntity
  8
可见轮廓
100
AcDbLine
 10
96.0
 20
7.0
 30
0.0
 11
96.0
 21
12.000000000000007
 31
0.0
  0
LINE
  5
C0
330
17
100
AcDbEntity
  8
可见轮廓
100
AcDbLine
 10
96.0
 20
2.0
 30
0.0
 11
96.0
 21
7.0
 31
0.0
  0
LINE
  5
C1
330
17
100
AcDbEntity
  8
可见轮廓
100
AcDbLine
 10
96.0
 20
12.000000000000007
 30
0.0
 11
96.0
 21
12.40752026780644
 31
0.0
  0
LINE
  5
C2
330
17
100
AcDbEntity
  8
可见轮廓
100
AcDbLine
 10
96.0
 20
12.40752026780644
 30
0.0
 11
96.0
 21
13.55147801789214
 31
0.0
  0
LINE
  5
C3
330
17
100
AcDbEntity
  8
可见轮廓
100
AcDbLine
 10
96.0
 20
13.55147801789214
 30
0.0
 11
96.0
 21
15.389979599235591
 31
0.0
  0
LINE
  5
C4
330
17
100
AcDbEntity
  8
可见轮廓
100
AcDbLine
 10
96.0
 20
15.389979599235591
 30
0.0
 11
96.0
 21
17.85786437626905
 31
0.0
  0
LINE
  5
C5
330
17
100
AcDbEntity
  8
可见轮廓
100
AcDbLine
 10
96.0
 20
17.85786437626905
 30
0.0
 11
96.0
 21
20.90206984297629
 31
0.0
  0
LINE
  5
C6
330
17
100
AcDbEntity
  8
可见轮廓
100
AcDbLine
 10
96.0
 20
20.90206984297629
 30
0.0
 11
96.0
 21
24.35837198927274
 31
0.0
  0
LINE
  5
C7
330
17
100
AcDbEntity
  8
可见轮廓
100
AcDbLine
 10
96.0
 20
24.35837198927274
 30
0.0
 11
96.0
 21
28.102363610138738
 31
0.0
  0
LINE
  5
C8
330
17
100
AcDbEntity
  8
可见轮廓
100
AcDbLine
 10
96.0
 20
28.102363610138738
 30
0.0
 11
96.0
 21
31.999999999999996
 31
0.0
  0
LINE
  5
C9
330
17
100
AcDbEntity
  8
可见轮廓
100
AcDbLine
 10
96.0
 20
31.999999999999996
 30
0.0
 11
96.0
 21
35.897636389861255
 31
0.0
  0
LINE
  5
CA
330
17
100
AcDbEntity
  8
可见轮廓
100
AcDbLine
 10
96.0
 20
35.897636389861255
 30
0.0
 11
96.0
 21
39.64162801072725
 31
0.0
  0
LINE
  5
CB
330
17
100
AcDbEntity
  8
可见轮廓
100
AcDbLine
 10
96.0
 20
39.64162801072725
 30
0.0
 11
96.0
 21
43.097930157023704
 31
0.0
  0
LINE
  5
CC
330
17
100
AcDbEntity
  8
可见轮廓
100
AcDbLine
 10
96.0
 20
43.097930157023704
 30
0.0
 11
96.0
 21
46.142135623730944
 31
0.0
  0
LINE
  5
CD
330
17
100
AcDbEntity
  8
可见轮廓
100
AcDbLine
 10
96.0
 20
46.142135623730944
 30
0.0
 11
96.0
 21
48.610020400764405
 31
0.0
  0
LINE
  5
CE
330
17
100
AcDbEntity
  8
可见轮廓
100
AcDbLine
 10
96.0
 20
48.610020400764405
 30
0.0
 11
96.0
 21
50.448521982107856
 31
0.0
  0
LINE
  5
CF
330
17
100
AcDbEntity
  8
可见轮廓
100
AcDbLine
 10
96.0
 20
50.448521982107856
 30
0.0
 11
96.0
 21
51.59247973219355
 31
0.0
  0
LINE
  5
D0
330
17
100
AcDbEntity
  8
可见轮廓
100
AcDbLine
 10
96.0
 20
51.59247973219355
 30
0.0
 11
96.0
 21
51.99999999999999
 31
0.0
  0
LINE
  5
D1
330
17
100
AcDbEntity
  8
可见轮廓
100
AcDbLine
 10
108.0
 20
7.0
 30
0.0
 11
108.0
 21
12.000000000000007
 31
0.0
  0
LINE
  5
D2
330
17
100
AcDbEntity
  8
可见轮廓
100
AcDbLine
 10
108.0
 20
2.0
 30
0.0
 11
108.0
 21
7.0
 31
0.0
  0
LINE
  5
D3
330
17
100
AcDbEntity
  8
可见轮廓
100
AcDbLine
 10
102.0
 20
12.000000000000007
 30
0.0
 11
108.0
 21
12.000000000000007
 31
0.0
  0
LINE
  5
D4
330
17
100
AcDbEntity
  8
可见轮廓
100
AcDbLine
 10
96.0
 20
12.000000000000007
 30
0.0
 11
102.0
 21
12.000000000000007
 31
0.0
  0
LINE
  5
D5
330
17
100
AcDbEntity
  8
可见轮廓
100
AcDbLine
 10
96.0
 20
2.0
 30
0.0
 11
102.0
 21
2.0
 31
0.0
  0
LINE
  5
D6
330
17
100
AcDbEntity
  8
可见轮廓
100
AcDbLine
 10
102.0
 20
2.0
 30
0.0
 11
108.0
 21
2.0
 31
0.0
  0
LINE
  5
D7
330
17
100
AcDbEntity
  8
可见轮廓
100
AcDbLine
 10
108.0
 20
51.900400400775965
 30
0.0
 11
108.0
 21
51.99999999999999
 31
0.0
  0
LINE
  5
D8
330
17
100
AcDbEntity
  8
可见轮廓
100
AcDbLine
 10
108.0
 20
51.61787468284618
 30
0.0
 11
108.0
 21
51.900400400775965
 31
0.0
  0
LINE
  5
D9
330
17
100
AcDbEntity
  8
可见轮廓
100
AcDbLine
 10
108.0
 20
51.15495048665463
 30
0.0
 11
108.0
 21
51.61787468284618
 31
0.0
  0
LINE
  5
DA
330
17
100
AcDbEntity
  8
可见轮廓
100
AcDbLine
 10
108.0
 20
50.51563038545695
 30
0.0
 11
108.0
 21
51.15495048665463
 31
0.0
  0
LINE
  5
DB
330
17
100
AcDbEntity
  8
可见轮廓
100
AcDbLine
 10
108.0
 20
49.69189534768209
 30
0.0
 11
108.0
 21
50.51563038545695
 31
0.0
  0
LINE
  5
DC
330
17
100
AcDbEntity
  8
可见轮廓
100
AcDbLine
 10
108.0
 20
48.705856974733166
 30
0.0
 11
108.0
 21
49.69189534768209
 31
0.0
  0
LINE
  5
DD
330
17
100
AcDbEntity
  8
可见轮廓
100
AcDbLine
 10
108.0
 20
47.566197925486634
 30
0.0
 11
108.0
 21
48.705856974733166
 31
0.0
  0
LINE
  5
DE
330
17
100
AcDbEntity
  8
可见轮廓
100
AcDbLine
 10
108.0
 20
46.28285685708569
 30
0.0
 11
108.0
 21
47.566197925486634
 31
0.0
  0
LINE
  5
DF
330
17
100
AcDbEntity
  8
可见轮廓
100
AcDbLine
 10
108.0
 20
44.81874023509197
 30
0.0
 11
108.0
 21
46.28285685708569
 31
0.0
  0
LINE
  5
E0
330
17
100
AcDbEntity
  8
可见轮廓
100
AcDbLine
 10
108.0
 20
43.23128655774387
 30
0.0
 11
108.0
 21
44.81874023509197
 31
0.0
  0
LINE
  5
E1
330
17
100
AcDbEntity
  8
可见轮廓
100
AcDbLine
 10
108.0
 20
41.535161765066135
 30
0.0
 11
108.0
 21
43.23128655774387
 31
0.0
  0
LINE
  5
E2
330
17
100
AcDbEntity
  8
可见轮廓
100
AcDbLine
 10
108.0
 20
39.74596669241484
 30
0.0
 11
108.0
 21
41.535161765066135
 31
0.0
  0
LINE
  5
E3
330
17
100
AcDbEntity
  8
可见轮廓
100
AcDbLine
 10
108.0
 20
37.87559472154907
 30
0.0
 11
108.0
 21
39.74596669241484
 31
0.0
  0
LINE
  5
E4
330
17
100
AcDbEntity
  8
可见轮廓
100
AcDbLine
 10
108.0
 20
35.9492427452497
 30
0.0
 11
108.0
 21
37.87559472154907
 31
0.0
  0
LINE
  5
E5
330
17
100
AcDbEntity
  8
可见轮廓
100
AcDbLine
 10
108.0
 20
33.98467888542055
 30
0.0
 11
108.0
 21
35.9492427452497
 31
0.0
  0
LINE
  5
E6
330
17
100
AcDbEntity
  8
可见轮廓
100
AcDbLine
 10
108.0
 20
32.00000000000001
 30
0.0
 11
108.0
 21
33.98467888542055
 31
0.0
  0
LINE
  5
E7
330
17
100
AcDbEntity
  8
可见轮廓
100
AcDbLine
 10
108.0
 20
30.015321114579454
 30
0.0
 11
108.0
 21
32.00000000000001
 31
0.0
  0
LINE
  5
E8
330
17
100
AcDbEntity
  8
可见轮廓
100
AcDbLine
 10
108.0
 20
28.05075725475031
 30
0.0
 11
108.0
 21
30.015321114579454
 31
0.0
  0
LINE
  5
E9
330
17
100
AcDbEntity
  8
可见轮廓
100
AcDbLine
 10
108.0
 20
26.124405278450936
 30
0.0
 11
108.0
 21
28.05075725475031
 31
0.0
  0
LINE
  5
EA
330
17
100
AcDbEntity
  8
可见轮廓
100
AcDbLine
 10
108.0
 20
24.254033307585168
 30
0.0
 11
108.0
 21
26.124405278450936
 31
0.0
  0
LINE
  5
EB
330
17
100
AcDbEntity
  8
可见轮廓
100
AcDbLine
 10
108.0
 20
22.46483823493387
 30
0.0
 11
108.0
 21
24.254033307585168
 31
0.0
  0
LINE
  5
EC
330
17
100
AcDbEntity
  8
可见轮廓
100
AcDbLine
 10
108.0
 20
20.768713442256136
 30
0.0
 11
108.0
 21
22.46483823493387
 31
0.0
  0
LINE
  5
ED
330
17
100
AcDbEntity
  8
可见轮廓
100
AcDbLine
 10
108.0
 20
19.18125976490803
 30
0.0
 11
108.0
 21
20.768713442256136
 31
0.0
  0
LINE
  5
EE
330
17
100
AcDbEntity
  8
可见轮廓
100
AcDbLine
 10
108.0
 20
17.71714314291431
 30
0.0
 11
108.0
 21
19.18125976490803
 31
0.0
  0
LINE
  5
EF
330
17
100
AcDbEntity
  8
可见轮廓
100
AcDbLine
 10
108.0
 20
16.433802074513373
 30
0.0
 11
108.0
 21
17.71714314291431
 31
0.0
  0
LINE
  5
F0
330
17
100
AcDbEntity
  8
可见轮廓
100
AcDbLine
 10
108.0
 20
15.294143025266834
 30
0.0
 11
108.0
 21
16.433802074513373
 31
0.0
  0
LINE
  5
F1
330
17
100
AcDbEntity
  8
可见轮廓
100
AcDbLine
 10
108.0
 20
14.308104652317908
 30
0.0
 11
108.0
 21
15.294143025266834
 31
0.0
  0
LINE
  5
F2
330
17
100
AcDbEntity
  8
可见轮廓
100
AcDbLine
 10
108.0
 20
13.484369614543056
 30
0.0
 11
108.0
 21
14.308104652317908
 31
0.0
  0
LINE
  5
F3
330
17
100
AcDbEntity
  8
可见轮廓
100
AcDbLine
 10
108.0
 20
12.845049513345373
 30
0.0
 11
108.0
 21
13.484369614543056
 31
0.0
  0
LINE
  5
F4
330
17
100
AcDbEntity
  8
可见轮廓
100
AcDbLine
 10
108.0
 20
12.382125317153829
 30
0.0
 11
108.0
 21
12.845049513345373
 31
0.0
  0
LINE
  5
F5
330
17
100
AcDbEntity
  8
可见轮廓
100
AcDbLine
 10
108.0
 20
12.099599599224035
 30
0.0
 11
108.0
 21
12.382125317153829
 31
0.0
  0
LINE
  5
F6
330
17
100
AcDbEntity
  8
可见轮廓
100
AcDbLine
 10
108.0
 20
12.000000000000007
 30
0.0
 11
108.0
 21
12.099599599224035
 31
0.0
  0
LINE
  5
F7
330
17
100
AcDbEntity
  8
可见轮廓
100
AcDbLine
 10
96.0
 20
12.000000000000007
 30
0.0
 11
96.0
 21
51.99999999999999
 31
0.0
  0
LINE
  5
F8
330
17
100
AcDbEntity
  8
可见轮廓
100
AcDbLine
 10
96.0
 20
12.000000000000007
 30
0.0
 11
96.75
 21
12.000000000000007
 31
0.0
  0
LINE
  5
F9
330
17
100
AcDbEntity
  8
可见轮廓
100
AcDbLine
 10
107.25
 20
12.000000000000007
 30
0.0
 11
108.0
 21
12.000000000000007
 31
0.0
  0
LINE
  5
FA
330
17
100
AcDbEntity
  8
隐藏线
100
AcDbLine
 10
108.0
 20
32.0
 30
0.0
 11
108.0
 21
62.0
 31
0.0
  0
LINE
  5
FB
330
17
100
AcDbEntity
  8
隐藏线
100
AcDbLine
 10
108.0
 20
2.0
 30
0.0
 11
108.0
 21
32.0
 31
0.0
  0
LINE
  5
FC
330
17
100
AcDbEntity
  8
隐藏线
100
AcDbLine
 10
140.0
 20
32.0
 30
0.0
 11
140.0
 21
62.0
 31
0.0
  0
LINE
  5
FD
330
17
100
AcDbEntity
  8
隐藏线
100
AcDbLine
 10
140.0
 20
2.0
 30
0.0
 11
140.0
 21
32.0
 31
0.0
  0
LINE
  5
FE
330
17
100
AcDbEntity
  8
隐藏线
100
AcDbLine
 10
96.0
 20
32.0
 30
0.0
 11
96.0
 21
62.0
 31
0.0
  0
LINE
  5
FF
330
17
100
AcDbEntity
  8
隐藏线
100
AcDbLine
 10
96.0
 20
2.0
 30
0.0
 11
96.0
 21
32.0
 31
0.0
  0
LINE
  5
100
330
17
100
AcDbEntity
  8
隐藏线
100
AcDbLine
 10
118.0
 20
2.0
 30
0.0
 11
140.0
 21
2.0
 31
0.0
  0
LINE
  5
101
330
17
100
AcDbEntity
  8
隐藏线
100
AcDbLine
 10
96.0
 20
2.0
 30
0.0
 11
118.0
 21
2.0
 31
0.0
  0
LINE
  5
102
330
17
100
AcDbEntity
  8
隐藏线
100
AcDbLine
 10
118.0
 20
62.0
 30
0.0
 11
140.0
 21
62.0
 31
0.0
  0
LINE
  5
103
330
17
100
AcDbEntity
  8
隐藏线
100
AcDbLine
 10
96.0
 20
62.0
 30
0.0
 11
118.0
 21
62.0
 31
0.0
  0
LINE
  5
104
330
17
100
AcDbEntity
  8
隐藏线
100
AcDbLine
 10
132.0
 20
47.0
 30
0.0
 11
140.0
 21
47.0
 31
0.0
  0
LINE
  5
105
330
17
100
AcDbEntity
  8
隐藏线
100
AcDbLine
 10
124.0
 20
47.0
 30
0.0
 11
132.0
 21
47.0
 31
0.0
  0
LINE
  5
106
330
17
100
AcDbEntity
  8
隐藏线
100
AcDbLine
 10
132.0
 20
17.0
 30
0.0
 11
140.0
 21
17.0
 31
0.0
  0
LINE
  5
107
330
17
100
AcDbEntity
  8
隐藏线
100
AcDbLine
 10
124.0
 20
17.0
 30
0.0
 11
132.0
 21
17.0
 31
0.0
  0
TEXT
  5
108
330
17
100
AcDbEntity
  8
标注
100
AcDbText
 10
22.0
 20
-14.0
 30
0.0
 40
6.0
  1
主视图
  7
中文字体
 72
1
 11
22.0
 21
-14.0
 31
0.0
100
AcDbText
 73
2
  0
TEXT
  5
109
330
17
100
AcDbEntity
  8
标注
100
AcDbText
 10
22.0
 20
100.0
 30
0.0
 40
6.0
  1
俯视图
  7
中文字体
 72
1
 11
22.0
 21
100.0
 31
0.0
100
AcDbText
 73
2
  0
TEXT
  5
10A
330
17
100
AcDbEntity
  8
标注
100
AcDbText
 10
118.0
 20
-14.0
 30
0.0
 40
6.0
  1
左视图
  7
中文字体
 72
1
 11
118.0
 21
-14.0
 31
0.0
100
AcDbText
 73
2
  0
LINE
  5
10B
330
17
100
AcDbEntity
  8
可见轮廓
100
AcDbLine
 10
42.0
 20
-62.0
 30
0.0
 11
42.0
 21
-72.0
 31
0.0
  0
LINE
  5
10C
330
17
100
AcDbEntity
  8
可见轮廓
100
AcDbLine
 10
41.501386165238785
 20
-72.00621635998368
 30
0.0
 11
42.0
 21
-72.0
 31
0.0
  0
LINE
  5
10D
330
17
100
AcDbEntity
  8
可见轮廓
100
AcDbLine
 10
41.003082286786295
 20
-72.02486157562154
 30
0.0
 11
41.501386165238785
 21
-72.00621635998368
 31
0.0
  0
LINE
  5
10E
330
17
100
AcDbEntity
  8
可见轮廓
100
AcDbLine
 10
40.50539812827175
 20
-72.05592405637638
 30
0.0
 11
41.003082286786295
 21
-72.02486157562154
 31
0.0
  0
LINE
  5
10F
330
17
100
AcDbEntity
  8
可见轮廓
100
AcDbLine
 10
40.0086430680839
 20
-72.09938449269195
 30
0.0
 11
40.50539812827175
 21
-72.05592405637638
 31
0.0
  0
LINE
  5
110
330
17
100
AcDbEntity
  8
可见轮廓
100
AcDbLine
 10
39.51312590705053
 20
-72.15521586799653
 30
0.0
 11
40.0086430680839
 21
-72.09938449269195
 31
0.0
  0
LINE
  5
111
330
17
100
AcDbEntity
  8
可见轮廓
100
AcDbLine
 10
39.019154676476745
 20
-72.2233834754974
 30
0.0
 11
39.51312590705053
 21
-72.15521586799653
 31
0.0
  0
LINE
  5
112
330
17
100
AcDbEntity
  8
可见轮廓
100
AcDbLine
 10
38.52703644666162
 20
-72.3038449397558
 30
0.0
 11
39.019154676476745
 21
-72.2233834754974
 31
0.0
  0
LINE
  5
113
330
17
100
AcDbEntity
  8
可见轮廓
100
AcDbLine
 10
38.03707713601227
 20
-72.39655024302908
 30
0.0
 11
38.52703644666162
 21
-72.3038449397558
 31
0.0
  0
LINE
  5
114
330
17
100
AcDbEntity
  8
可见轮廓
100
AcDbLine
 10
37.54958132087393
 20
-72.50144175636348
 30
0.0
 11
38.03707713601227
 21
-72.39655024302908
 31
0.0
  0
LINE
  5
115
330
17
100
AcDbEntity
  8
可见轮廓
100
AcDbLine
 10
37.064852046194346
 20
-72.6184542754184
 30
0.0
 11
37.54958132087393
 21
-72.50144175636348
 31
0.0
  0
LINE
  5
116
330
17
100
AcDbEntity
  8
可见轮廓
100
AcDbLine
 10
36.58319063714011
 20
-72.7475150609997
 30
0.0
 11
37.064852046194346
 21
-72.6184542754184
 31
0.0
  0
LINE
  5
117
330
17
100
AcDbEntity
  8
可见轮廓
100
AcDbLine
 10
36.10489651178213
 20
-72.88854388427713
 30
0.0
 11
36.58319063714011
 21
-72.7475150609997
 31
0.0
  0
LINE
  5
118
330
17
100
AcDbEntity
  8
可见轮廓
100
AcDbLine
 10
35.63026699496652
 20
-73.0414530766573
 30
0.0
 11
36.10489651178213
 21
-72.88854388427713
 31
0.0
  0
LINE
  5
119
330
17
100
AcDbEntity
  8
可见轮廓
100
AcDbLine
 10
35.159597133486834
 20
-73.20614758428177
 30
0.0
 11
35.63026699496652
 21
-73.0414530766573
 31
0.0
  0
LINE
  5
11A
330
17
100
AcDbEntity
  8
可见轮廓
100
AcDbLine
 10
34.6931795126723
 20
-73.38252502711585
 30
0.0
 11
35.159597133486834
 21
-73.20614758428177
 31
0.0
  0
LINE
  5
11B
330
17
100
AcDbEntity
  8
可见轮廓
100
AcDbLine
 10
34.231304074506305
 20
-73.57047576259177
 30
0.0
 11
34.6931795126723
 21
-73.38252502711585
 31
0.0
  0
LINE
  5
11C
330
17
100
AcDbEntity
  8
可见轮廓
100
AcDbLine
 10
33.774257937387965
 20
-73.76988295376646
 30
0.0
 11
34.231304074506305
 21
-73.57047576259177
 31
0.0
  0
LINE
  5
11D
330
17
100
AcDbEntity
  8
可见轮廓
100
AcDbLine
 10
33.32232521764903
 20
-73.98062264195153
 30
0.0
 11
33.774257937387965
 21
-73.76988295376646
 31
0.0
  0
LINE
  5
11E
330
17
100
AcDbEntity
  8
可见轮廓
100
AcDbLine
 10
32.875786852936926
 20
-74.20256382377053
 30
0.0
 11
33.32232521764903
 21
-73.98062264195153
 31
0.0
  0
LINE
  5
11F
330
17
100
AcDbEntity
  8
可见轮廓
100
AcDbLine
 10
32.43492042757382
 20
-74.43556853259534
 30
0.0
 11
32.875786852936926
 21
-74.20256382377053
 31
0.0
  0
LINE
  5
120
330
17
100
AcDbEntity
  8
可见轮廓
100
AcDbLine
 10
32.00000000000018
 20
-74.67949192431114
 30
0.0
 11
32.43492042757382
 21
-74.43556853259534
 31
0.0
  0
LINE
  5
121
330
17
100
AcDbEntity
  8
可见轮廓
100
AcDbLine
 10
31.571295932410216
 20
-74.93418236735678
 30
0.0
 11
32.00000000000018
 21
-74.67949192431114
 31
0.0
  0
LINE
  5
122
330
17
100
AcDbEntity
  8
可见轮廓
100
AcDbLine
 10
31.149074722684986
 20
-75.19948153698446
 30
0.0
 11
31.571295932410216
 21
-74.93418236735678
 31
0.0
  0
LINE
  5
123
330
17
100
AcDbEntity
  8
可见轮廓
100
AcDbLine
 10
30.73359883872773
 20
-75.47522451367999
 30
0.0
 11
31.149074722684986
 21
-75.19948153698446
 31
0.0
  0
LINE
  5
124
330
17
100
AcDbEntity
  8
可见轮廓
100
AcDbLine
 10
30.325126555304365
 20
-75.76123988568276
 30
0.0
 11
30.73359883872773
 21
-75.47522451367999
 31
0.0
  0
LINE
  5
125
330
17
100
AcDbEntity
  8
可见轮廓
100
AcDbLine
 10
29.92391179349061
 20
-76.05734985554145
 30
0.0
 11
30.325126555304365
 21
-75.76123988568276
 31
0.0
  0
LINE
  5
126
330
17
100
AcDbEntity
  8
可见轮廓
100
AcDbLine
 10
29.53020396282548
 20
-76.36337035063929
 30
0.0
 11
29.92391179349061
 21
-76.05734985554145
 31
0.0
  0
LINE
  5
127
330
17
100
AcDbEntity
  8
可见轮廓
100
AcDbLine
 10
29.144247806269362
 20
-76.67911113762032
 30
0.0
 11
29.53020396282548
 21
-76.36337035063929
 31
0.0
  0
LINE
  5
128
330
17
100
AcDbEntity
  8
可见轮廓
100
AcDbLine
 10
28.766283248062955
 20
-77.0043759406452
 30
0.0
 11
29.144247806269362
 21
-76.67911113762032
 31
0.0
  0
LINE
  5
129
330
17
100
AcDbEntity
  8
可见轮廓
100
AcDbLine
 10
28.396545244581752
 20
-77.33896256340336
 30
0.0
 11
28.766283248062955
 21
-77.0043759406452
 31
0.0
  0
LINE
  5
12A
330
17
100
AcDbEntity
  8
可见轮廓
100
AcDbLine
 10
28.03526363827868
 20
-77.68266301480551
 30
0.0
 11
28.396545244581752
 21
-77.33896256340336
 31
0.0
  0
LINE
  5
12B
330
17
100
AcDbEntity
  8
可见轮廓
100
AcDbLine
 10
27.68266301480576
 20
-78.03526363827842
 30
0.0
 11
28.03526363827868
 21
-77.68266301480551
 31
0.0
  0
LINE
  5
12C
330
17
100
AcDbEntity
  8
可见轮廓
100
AcDbLine
 10
27.338962563403598
 20
-78.39654524458149
 30
0.0
 11
27.68266301480576
 21
-78.03526363827842
 31
0.0
  0
LINE
  5
12D
330
17
100
AcDbEntity
  8
可见轮廓
100
AcDbLine
 10
27.00437594064544
 20
-78.76628324806268
 30
0.0
 11
27.338962563403598
 21
-78.39654524458149
 31
0.0
  0
LINE
  5
12E
330
17
100
AcDbEntity
  8
可见轮廓
100
AcDbLine
 10
26.67911113762056
 20
-79.14424780626908
 30
0.0
 11
27.00437594064544
 21
-78.76628324806268
 31
0.0
  0
LINE
  5
12F
330
17
100
AcDbEntity
  8
可见轮廓
100
AcDbLine
 10
26.36337035063952
 20
-79.5302039628252
 30
0.0
 11
26.67911113762056
 21
-79.14424780626908
 31
0.0
  0
LINE
  5
130
330
17
100
AcDbEntity
  8
可见轮廓
100
AcDbLine
 10
26.05734985554166
 20
-79.92391179349032
 30
0.0
 11
26.36337035063952
 21
-79.5302039628252
 31
0.0
  0
LINE
  5
131
330
17
100
AcDbEntity
  8
可见轮廓
100
AcDbLine
 10
25.761239885682976
 20
-80.32512655530407
 30
0.0
 11
26.05734985554166
 21
-79.92391179349032
 31
0.0
  0
LINE
  5
132
330
17
100
AcDbEntity
  8
可见轮廓
100
AcDbLine
 10
25.475224513680203
 20
-80.73359883872743
 30
0.0
 11
25.761239885682976
 21
-80.32512655530407
 31
0.0
  0
LINE
  5
133
330
17
100
AcDbEntity
  8
可见轮廓
100
AcDbLine
 10
25.199481536984667
 20
-81.14907472268467
 30
0.0
 11
25.475224513680203
 21
-80.73359883872743
 31
0.0
  0
LINE
  5
134
330
17
100
AcDbEntity
  8
可见轮廓
100
AcDbLine
 10
24.93418236735698
 20
-81.5712959324099
 30
0.0
 11
25.199481536984667
 21
-81.14907472268467
 31
0.0
  0
LINE
  5
135
330
17
100
AcDbEntity
  8
可见轮廓
100
AcDbLine
 10
24.679491924311314
 20
-81.99999999999986
 30
0.0
 11
24.93418236735698
 21
-81.5712959324099
 31
0.0
  0
LINE
  5
136
330
17
100
AcDbEntity
  8
可见轮廓
100
AcDbLine
 10
24.43556853259551
 20
-82.4349204275735
 30
0.0
 11
24.679491924311314
 21
-81.99999999999986
 31
0.0
  0
LINE
  5
137
330
17
100
AcDbEntity
  8
可见轮廓
100
AcDbLine
 10
24.202563823770706
 20
-82.8757868529366
 30
0.0
 11
24.43556853259551
 21
-82.4349204275735
 31
0.0
  0
LINE
  5
138
330
17
100
AcDbEntity
  8
可见轮廓
100
AcDbLine
 10
23.980622641951694
 20
-83.3223252176487
 30
0.0
 11
24.202563823770706
 21
-82.8757868529366
 31
0.0
  0
LINE
  5
139
330
17
100
AcDbEntity
  8
可见轮廓
100
AcDbLine
 10
23.769882953766604
 20
-83.77425793738763
 30
0.0
 11
23.980622641951694
 21
-83.3223252176487
 31
0.0
  0
LINE
  5
13A
330
17
100
AcDbEntity
  8
可见轮廓
100
AcDbLine
 10
23.57047576259191
 20
-84.23130407450597
 30
0.0
 11
23.769882953766604
 21
-83.77425793738763
 31
0.0
  0
LINE
  5
13B
330
17
100
AcDbEntity
  8
可见轮廓
100
AcDbLine
 10
23.382525027115978
 20
-84.69317951267196
 30
0.0
 11
23.57047576259191
 21
-84.23130407450597
 31
0.0
  0
LINE
  5
13C
330
17
100
AcDbEntity
  8
可见轮廓
100
AcDbLine
 10
23.20614758428189
 20
-85.15959713348649
 30
0.0
 11
23.382525027115978
 21
-84.69317951267196
 31
0.0
  0
LINE
  5
13D
330
17
100
AcDbEntity
  8
可见轮廓
100
AcDbLine
 10
23.04145307665742
 20
-85.63026699496618
 30
0.0
 11
23.20614758428189
 21
-85.15959713348649
 31
0.0
  0
LINE
  5
13E
330
17
100
AcDbEntity
  8
可见轮廓
100
AcDbLine
 10
22.888543884277237
 20
-86.10489651178177
 30
0.0
 11
23.04145307665742
 21
-85.63026699496618
 31
0.0
  0
LINE
  5
13F
330
17
100
AcDbEntity
  8
可见轮廓
100
AcDbLine
 10
22.747515060999802
 20
-86.58319063713977
 30
0.0
 11
22.888543884277237
 21
-86.10489651178177
 31
0.0
  0
LINE
  5
140
330
17
100
AcDbEntity
  8
可见轮廓
100
AcDbLine
 10
22.618454275418483
 20
-87.06485204619399
 30
0.0
 11
22.747515060999802
 21
-86.58319063713977
 31
0.0
  0
LINE
  5
141
330
17
100
AcDbEntity
  8
可见轮廓
100
AcDbLine
 10
22.501441756363565
 20
-87.54958132087359
 30
0.0
 11
22.618454275418483
 21
-87.06485204619399
 31
0.0
  0
LINE
  5
142
330
17
100
AcDbEntity
  8
可见轮廓
100
AcDbLine
 10
22.396550243029157
 20
-88.03707713601192
 30
0.0
 11
22.501441756363565
 21
-87.54958132087359
 31
0.0
  0
LINE
  5
143
330
17
100
AcDbEntity
  8
可见轮廓
100
AcDbLine
 10
22.30384493975587
 20
-88.52703644666126
 30
0.0
 11
22.396550243029157
 21
-88.03707713601192
 31
0.0
  0
LINE
  5
144
330
17
100
AcDbEntity
  8
可见轮廓
100
AcDbLine
 10
22.223383475497457
 20
-89.01915467647638
 30
0.0
 11
22.30384493975587
 21
-88.52703644666126
 31
0.0
  0
LINE
  5
145
330
17
100
AcDbEntity
  8
可见轮廓
100
AcDbLine
 10
22.15521586799658
 20
-89.51312590705017
 30
0.0
 11
22.223383475497457
 21
-89.01915467647638
 31
0.0
  0
LINE
  5
146
330
17
100
AcDbEntity
  8
可见轮廓
100
AcDbLine
 10
22.099384492691993
 20
-90.00864306808354
 30
0.0
 11
22.15521586799658
 21
-89.51312590705017
 31
0.0
  0
LINE
  5
147
330
17
100
AcDbEntity
  8
可见轮廓
100
AcDbLine
 10
22.055924056376412
 20
-90.5053981282714
 30
0.0
 11
22.099384492691993
 21
-90.00864306808354
 31
0.0
  0
LINE
  5
148
330
17
100
AcDbEntity
  8
可见轮廓
100
AcDbLine
 10
22.024861575621568
 20
-91.00308228678593
 30
0.0
 11
22.055924056376412
 21
-90.5053981282714
 31
0.0
  0
LINE
  5
149
330
17
100
AcDbEntity
  8
可见轮廓
100
AcDbLine
 10
22.006216359983686
 20
-91.50138616523842
 30
0.0
 11
22.024861575621568
 21
-91.00308228678593
 31
0.0
  0
LINE
  5
14A
330
17
100
AcDbEntity
  8
可见轮廓
100
AcDbLine
 10
22.000000000000007
 20
-91.99999999999989
 30
0.0
 11
22.006216359983686
 21
-91.50138616523842
 31
0.0
  0
LINE
  5
14B
330
17
100
AcDbEntity
  8
可见轮廓
100
AcDbLine
 10
22.00621635998368
 20
-92.49861383476134
 30
0.0
 11
22.000000000000007
 21
-91.99999999999989
 31
0.0
  0
LINE
  5
14C
330
17
100
AcDbEntity
  8
可见轮廓
100
AcDbLine
 10
22.024861575621554
 20
-92.99691771321383
 30
0.0
 11
22.00621635998368
 21
-92.49861383476134
 31
0.0
  0
LINE
  5
14D
330
17
100
AcDbEntity
  8
可见轮廓
100
AcDbLine
 10
22.055924056376394
 20
-93.49460187172836
 30
0.0
 11
22.024861575621554
 21
-92.99691771321383
 31
0.0
  0
LINE
  5
14E
330
17
100
AcDbEntity
  8
可见轮廓
100
AcDbLine
 10
22.099384492691968
 20
-93.99135693191621
 30
0.0
 11
22.055924056376394
 21
-93.49460187172836
 31
0.0
  0
LINE
  5
14F
330
17
100
AcDbEntity
  8
可见轮廓
100
AcDbLine
 10
22.155215867996553
 20
-94.48687409294959
 30
0.0
 11
22.099384492691968
 21
-93.99135693191621
 31
0.0
  0
LINE
  5
150
330
17
100
AcDbEntity
  8
可见轮廓
100
AcDbLine
 10
22.223383475497418
 20
-94.98084532352338
 30
0.0
 11
22.155215867996553
 21
-94.48687409294959
 31
0.0
  0
LINE
  5
151
330
17
100
AcDbEntity
  8
可见轮廓
100
AcDbLine
 10
22.303844939755827
 20
-95.4729635533385
 30
0.0
 11
22.223383475497418
 21
-94.98084532352338
 31
0.0
  0
LINE
  5
152
330
17
100
AcDbEntity
  8
可见轮廓
100
AcDbLine
 10
22.396550243029107
 20
-95.96292286398784
 30
0.0
 11
22.303844939755827
 21
-95.4729635533385
 31
0.0
  0
LINE
  5
153
330
17
100
AcDbEntity
  8
可见轮廓
100
AcDbLine
 10
22.501441756363512
 20
-96.45041867912619
 30
0.0
 11
22.396550243029107
 21
-95.96292286398784
 31
0.0
  0
LINE
  5
154
330
17
100
AcDbEntity
  8
可见轮廓
100
AcDbLine
 10
22.618454275418422
 20
-96.93514795380577
 30
0.0
 11
22.501441756363512
 21
-96.45041867912619
 31
0.0
  0
LINE
  5
155
330
17
100
AcDbEntity
  8
可见轮廓
100
AcDbLine
 10
22.74751506099974
 20
-97.41680936286001
 30
0.0
 11
22.618454275418422
 21
-96.93514795380577
 31
0.0
  0
LINE
  5
156
330
17
100
AcDbEntity
  8
可见轮廓
100
AcDbLine
 10
22.888543884277166
 20
-97.89510348821798
 30
0.0
 11
22.74751506099974
 21
-97.41680936286001
 31
0.0
  0
LINE
  5
157
330
17
100
AcDbEntity
  8
可见轮廓
100
AcDbLine
 10
23.04145307665734
 20
-98.3697330050336
 30
0.0
 11
22.888543884277166
 21
-97.89510348821798
 31
0.0
  0
LINE
  5
158
330
17
100
AcDbEntity
  8
可见轮廓
100
AcDbLine
 10
23.20614758428181
 20
-98.84040286651329
 30
0.0
 11
23.04145307665734
 21
-98.3697330050336
 31
0.0
  0
LINE
  5
159
330
17
100
AcDbEntity
  8
可见轮廓
100
AcDbLine
 10
23.38252502711589
 20
-99.30682048732781
 30
0.0
 11
23.20614758428181
 21
-98.84040286651329
 31
0.0
  0
LINE
  5
15A
330
17
100
AcDbEntity
  8
可见轮廓
100
AcDbLine
 10
23.57047576259182
 20
-99.7686959254938
 30
0.0
 11
23.38252502711589
 21
-99.30682048732781
 31
0.0
  0
LINE
  5
15B
330
17
100
AcDbEntity
  8
可见轮廓
100
AcDbLine
 10
23.76988295376651
 20
-100.22574206261214
 30
0.0
 11
23.57047576259182
 21
-99.7686959254938
 31
0.0
  0
LINE
  5
15C
330
17
100
AcDbEntity
  8
可见轮廓
100
AcDbLine
 10
23.980622641951587
 20
-100.67767478235109
 30
0.0
 11
23.76988295376651
 21
-100.22574206261214
 31
0.0
  0
LINE
  5
15D
330
17
100
AcDbEntity
  8
可见轮廓
100
AcDbLine
 10
24.202563823770596
 20
-101.12421314706319
 30
0.0
 11
23.980622641951587
 21
-100.67767478235109
 31
0.0
  0
LINE
  5
15E
330
17
100
AcDbEntity
  8
可见轮廓
100
AcDbLine
 10
24.435568532595397
 20
-101.56507957242628
 30
0.0
 11
24.202563823770596
 21
-101.12421314706319
 31
0.0
  0
LINE
  5
15F
330
17
100
AcDbEntity
  8
可见轮廓
100
AcDbLine
 10
24.679491924311193
 20
-101.99999999999993
 30
0.0
 11
24.435568532595397
 21
-101.56507957242628
 31
0.0
  0
LINE
  5
160
330
17
100
AcDbEntity
  8
可见轮廓
100
AcDbLine
 10
24.93418236735685
 20
-102.42870406758989
 30
0.0
 11
24.679491924311193
 21
-101.99999999999993
 31
0.0
  0
LINE
  5
161
330
17
100
AcDbEntity
  8
可见轮廓
100
AcDbLine
 10
25.199481536984536
 20
-102.85092527731513
 30
0.0
 11
24.93418236735685
 21
-102.42870406758989
 31
0.0
  0
LINE
  5
162
330
17
100
AcDbEntity
  8
可见轮廓
100
AcDbLine
 10
25.475224513680068
 20
-103.26640116127237
 30
0.0
 11
25.199481536984536
 21
-102.85092527731513
 31
0.0
  0
LINE
  5
163
330
17
100
AcDbEntity
  8
可见轮廓
100
AcDbLine
 10
25.761239885682834
 20
-103.67487344469573
 30
0.0
 11
25.475224513680068
 21
-103.26640116127237
 31
0.0
  0
LINE
  5
164
330
17
100
AcDbEntity
  8
可见轮廓
100
AcDbLine
 10
26.057349855541514
 20
-104.07608820650948
 30
0.0
 11
25.761239885682834
 21
-103.67487344469573
 31
0.0
  0
LINE
  5
165
330
17
100
AcDbEntity
  8
可见轮廓
100
AcDbLine
 10
26.363370350639368
 20
-104.46979603717462
 30
0.0
 11
26.057349855541514
 21
-104.07608820650948
 31
0.0
  0
LINE
  5
166
330
17
100
AcDbEntity
  8
可见轮廓
100
AcDbLine
 10
26.679111137620403
 20
-104.85575219373074
 30
0.0
 11
26.363370350639368
 21
-104.46979603717462
 31
0.0
  0
LINE
  5
167
330
17
100
AcDbEntity
  8
可见轮廓
100
AcDbLine
 10
27.00437594064528
 20
-105.23371675193714
 30
0.0
 11
26.679111137620403
 21
-104.85575219373074
 31
0.0
  0
LINE
  5
168
330
17
100
AcDbEntity
  8
可见轮廓
100
AcDbLine
 10
27.338962563403435
 20
-105.60345475541834
 30
0.0
 11
27.00437594064528
 21
-105.23371675193714
 31
0.0
  0
LINE
  5
169
330
17
100
AcDbEntity
  8
可见轮廓
100
AcDbLine
 10
27.682663014805595
 20
-105.9647363617214
 30
0.0
 11
27.338962563403435
 21
-105.60345475541834
 31
0.0
  0
LINE
  5
16A
330
17
100
AcDbEntity
  8
可见轮廓
100
AcDbLine
 10
28.035263638278508
 20
-106.31733698519432
 30
0.0
 11
27.682663014805595
 21
-105.9647363617214
 31
0.0
  0
LINE
  5
16B
330
17
100
AcDbEntity
  8
可见轮廓
100
AcDbLine
 10
28.396545244581574
 20
-106.66103743659649
 30
0.0
 11
28.035263638278508
 21
-106.31733698519432
 31
0.0
  0
LINE
  5
16C
330
17
100
AcDbEntity
  8
可见轮廓
100
AcDbLine
 10
28.766283248062777
 20
-106.99562405935464
 30
0.0
 11
28.396545244581574
 21
-106.66103743659649
 31
0.0
  0
LINE
  5
16D
330
17
100
AcDbEntity
  8
可见轮廓
100
AcDbLine
 10
29.144247806269178
 20
-107.32088886237952
 30
0.0
 11
28.766283248062777
 21
-106.99562405935464
 31
0.0
  0
LINE
  5
16E
330
17
100
AcDbEntity
  8
可见轮廓
100
AcDbLine
 10
29.530203962825297
 20
-107.63662964936056
 30
0.0
 11
29.144247806269178
 21
-107.32088886237952
 31
0.0
  0
LINE
  5
16F
330
17
100
AcDbEntity
  8
可见轮廓
100
AcDbLine
 10
29.92391179349042
 20
-107.94265014445841
 30
0.0
 11
29.530203962825297
 21
-107.63662964936056
 31
0.0
  0
LINE
  5
170
330
17
100
AcDbEntity
  8
可见轮廓
100
AcDbLine
 10
30.32512655530417
 20
-108.2387601143171
 30
0.0
 11
29.92391179349042
 21
-107.94265014445841
 31
0.0
  0
LINE
  5
171
330
17
100
AcDbEntity
  8
可见轮廓
100
AcDbLine
 10
30.733598838727527
 20
-108.52477548631987
 30
0.0
 11
30.32512655530417
 21
-108.2387601143171
 31
0.0
  0
LINE
  5
172
330
17
100
AcDbEntity
  8
可见轮廓
100
AcDbLine
 10
31.14907472268478
 20
-108.80051846301541
 30
0.0
 11
30.733598838727527
 21
-108.52477548631987
 31
0.0
  0
LINE
  5
173
330
17
100
AcDbEntity
  8
可见轮廓
100
AcDbLine
 10
31.57129593241001
 20
-109.06581763264309
 30
0.0
 11
31.14907472268478
 21
-108.80051846301541
 31
0.0
  0
LINE
  5
174
330
17
100
AcDbEntity
  8
可见轮廓
100
AcDbLine
 10
31.99999999999997
 20
-109.32050807568875
 30
0.0
 11
31.57129593241001
 21
-109.06581763264309
 31
0.0
  0
LINE
  5
175
330
17
100
AcDbEntity
  8
可见轮廓
100
AcDbLine
 10
32.43492042757361
 20
-109.56443146740455
 30
0.0
 11
31.99999999999997
 21
-109.32050807568875
 31
0.0
  0
LINE
  5
176
330
17
100
AcDbEntity
  8
可见轮廓
100
AcDbLine
 10
32.87578685293671
 20
-109.79743617622935
 30
0.0
 11
32.43492042757361
 21
-109.56443146740455
 31
0.0
  0
LINE
  5
177
330
17
100
AcDbEntity
  8
可见轮廓
100
AcDbLine
 10
33.32232521764881
 20
-110.01937735804836
 30
0.0
 11
32.87578685293671
 21
-109.79743617622935
 31
0.0
  0
LINE
  5
178
330
17
100
AcDbEntity
  8
可见轮廓
100
AcDbLine
 10
33.774257937387745
 20
-110.23011704623345
 30
0.0
 11
33.32232521764881
 21
-110.01937735804836
 31
0.0
  0
LINE
  5
179
330
17
100
AcDbEntity
  8
可见轮廓
100
AcDbLine
 10
34.231304074506085
 20
-110.42952423740813
 30
0.0
 11
33.774257937387745
 21
-110.23011704623345
 31
0.0
  0
LINE
  5
17A
330
17
100
AcDbEntity
  8
可见轮廓
100
AcDbLine
 10
34.693179512672074
 20
-110.61747497288407
 30
0.0
 11
34.231304074506085
 21
-110.42952423740813
 31
0.0
  0
LINE
  5
17B
330
17
100
AcDbEntity
  8
可见轮廓
100
AcDbLine
 10
35.159597133486606
 20
-110.79385241571815
 30
0.0
 11
34.693179512672074
 21
-110.61747497288407
 31
0.0
  0
LINE
  5
17C
330
17
100
AcDbEntity
  8
可见轮廓
100
AcDbLine
 10
35.63026699496629
 20
-110.95854692334262
 30
0.0
 11
35.159597133486606
 21
-110.79385241571815
 31
0.0
  0
LINE
  5
17D
330
17
100
AcDbEntity
  8
可见轮廓
100
AcDbLine
 10
36.104896511781895
 20
-111.1114561157228
 30
0.0
 11
35.63026699496629
 21
-110.95854692334262
 31
0.0
  0
LINE
  5
17E
330
17
100
AcDbEntity
  8
可见轮廓
100
AcDbLine
 10
36.58319063713988
 20
-111.25248493900023
 30
0.0
 11
36.104896511781895
 21
-111.1114561157228
 31
0.0
  0
LINE
  5
17F
330
17
100
AcDbEntity
  8
可见轮廓
100
AcDbLine
 10
37.06485204619411
 20
-111.38154572458154
 30
0.0
 11
36.58319063713988
 21
-111.25248493900023
 31
0.0
  0
LINE
  5
180
330
17
100
AcDbEntity
  8
可见轮廓
100
AcDbLine
 10
37.5495813208737
 20
-111.49855824363647
 30
0.0
 11
37.06485204619411
 21
-111.38154572458154
 31
0.0
  0
LINE
  5
181
330
17
100
AcDbEntity
  8
可见轮廓
100
AcDbLine
 10
38.03707713601204
 20
-111.60344975697086
 30
0.0
 11
37.5495813208737
 21
-111.49855824363647
 31
0.0
  0
LINE
  5
182
330
17
100
AcDbEntity
  8
可见轮廓
100
AcDbLine
 10
38.527036446661384
 20
-111.69615506024415
 30
0.0
 11
38.03707713601204
 21
-111.60344975697086
 31
0.0
  0
LINE
  5
183
330
17
100
AcDbEntity
  8
可见轮廓
100
AcDbLine
 10
39.019154676476504
 20
-111.77661652450257
 30
0.0
 11
38.527036446661384
 21
-111.69615506024415
 31
0.0
  0
LINE
  5
184
330
17
100
AcDbEntity
  8
可见轮廓
100
AcDbLine
 10
39.51312590705029
 20
-111.84478413200344
 30
0.0
 11
39.019154676476504
 21
-111.77661652450257
 31
0.0
  0
LINE
  5
185
330
17
100
AcDbEntity
  8
可见轮廓
100
AcDbLine
 10
40.008643068083664
 20
-111.90061550730802
 30
0.0
 11
39.51312590705029
 21
-111.84478413200344
 31
0.0
  0
LINE
  5
186
330
17
100
AcDbEntity
  8
可见轮廓
100
AcDbLine
 10
40.50539812827151
 20
-111.9440759436236
 30
0.0
 11
40.008643068083664
 21
-111.90061550730802
 31
0.0
  0
LINE
  5
187
330
17
100
AcDbEntity
  8
可见轮廓
100
AcDbLine
 10
41.003082286786054
 20
-111.97513842437844
 30
0.0
 11
40.50539812827151
 21
-111.9440759436236
 31
0.0
  0
LINE
  5
188
330
17
100
AcDbEntity
  8
可见轮廓
100
AcDbLine
 10
41.50138616523854
 20
-111.99378364001632
 30
0.0
 11
41.003082286786054
 21
-111.97513842437844
 31
0.0
  0
LINE
  5
189
330
17
100
AcDbEntity
  8
可见轮廓
100
AcDbLine
 10
42.0
 20
-112.0
 30
0.0
 11
41.50138616523854
 21
-111.99378364001632
 31
0.0
  0
LINE
  5
18A
330
17
100
AcDbEntity
  8
可见轮廓
100
AcDbLine
 10
42.0
 20
-112.0
 30
0.0
 11
42.0
 21
-122.0
 31
0.0
  0
LINE
  5
18B
330
17
100
AcDbEntity
  8
可见轮廓
100
AcDbLine
 10
2.0
 20
-62.0
 30
0.0
 11
2.0
 21
-122.0
 31
0.0
  0
LINE
  5
18C
330
17
100
AcDbEntity
  8
可见轮廓
100
AcDbLine
 10
2.0
 20
-122.0
 30
0.0
 11
42.0
 21
-122.0
 31
0.0
  0
LINE
  5
18D
330
17
100
AcDbEntity
  8
可见轮廓
100
AcDbLine
 10
2.0
 20
-62.0
 30
0.0
 11
42.0
 21
-62.0
 31
0.0
  0
LINE
  5
18E
330
17
100
AcDbEntity
  8
隐藏线
100
AcDbLine
 10
42.0
 20
-122.0
 30
0.0
 11
14.000000000000004
 21
-122.0
 31
0.0
  0
LINE
  5
18F
330
17
100
AcDbEntity
  8
隐藏线
100
AcDbLine
 10
42.0
 20
-112.0
 30
0.0
 11
42.0
 21
-122.0
 31
0.0
  0
LINE
  5
190
330
17
100
AcDbEntity
  8
隐藏线
100
AcDbLine
 10
41.501386165238785
 20
-111.99378364001632
 30
0.0
 11
42.0
 21
-112.0
 31
0.0
  0
LINE
  5
191
330
17
100
AcDbEntity
  8
隐藏线
100
AcDbLine
 10
41.003082286786295
 20
-111.97513842437846
 30
0.0
 11
41.501386165238785
 21
-111.99378364001632
 31
0.0
  0
LINE
  5
192
330
17
100
AcDbEntity
  8
隐藏线
100
AcDbLine
 10
40.50539812827175
 20
-111.94407594362362
 30
0.0
 11
41.003082286786295
 21
-111.97513842437846
 31
0.0
  0
LINE
  5
193
330
17
100
AcDbEntity
  8
隐藏线
100
AcDbLine
 10
40.0086430680839
 20
-111.90061550730805
 30
0.0
 11
40.50539812827175
 21
-111.94407594362362
 31
0.0
  0
LINE
  5
194
330
17
100
AcDbEntity
  8
隐藏线
100
AcDbLine
 10
39.51312590705053
 20
-111.84478413200347
 30
0.0
 11
40.0086430680839
 21
-111.90061550730805
 31
0.0
  0
LINE
  5
195
330
17
100
AcDbEntity
  8
隐藏线
100
AcDbLine
 10
39.019154676476745
 20
-111.7766165245026
 30
0.0
 11
39.51312590705053
 21
-111.84478413200347
 31
0.0
  0
LINE
  5
196
330
17
100
AcDbEntity
  8
隐藏线
100
AcDbLine
 10
38.52703644666162
 20
-111.6961550602442
 30
0.0
 11
39.019154676476745
 21
-111.7766165245026
 31
0.0
  0
LINE
  5
197
330
17
100
AcDbEntity
  8
隐藏线
100
AcDbLine
 10
38.03707713601227
 20
-111.60344975697092
 30
0.0
 11
38.52703644666162
 21
-111.6961550602442
 31
0.0
  0
LINE
  5
198
330
17
100
AcDbEntity
  8
隐藏线
100
AcDbLine
 10
37.54958132087393
 20
-111.49855824363652
 30
0.0
 11
38.03707713601227
 21
-111.60344975697092
 31
0.0
  0
LINE
  5
199
330
17
100
AcDbEntity
  8
隐藏线
100
AcDbLine
 10
37.064852046194346
 20
-111.3815457245816
 30
0.0
 11
37.54958132087393
 21
-111.49855824363652
 31
0.0
  0
LINE
  5
19A
330
17
100
AcDbEntity
  8
隐藏线
100
AcDbLine
 10
36.58319063714011
 20
-111.2524849390003
 30
0.0
 11
37.064852046194346
 21
-111.3815457245816
 31
0.0
  0
LINE
  5
19B
330
17
100
AcDbEntity
  8
隐藏线
100
AcDbLine
 10
36.10489651178213
 20
-111.11145611572287
 30
0.0
 11
36.58319063714011
 21
-111.2524849390003
 31
0.0
  0
LINE
  5
19C
330
17
100
AcDbEntity
  8
隐藏线
100
AcDbLine
 10
35.63026699496652
 20
-110.9585469233427
 30
0.0
 11
36.10489651178213
 21
-111.11145611572287
 31
0.0
  0
LINE
  5
19D
330
17
100
AcDbEntity
  8
隐藏线
100
AcDbLine
 10
35.159597133486834
 20
-110.79385241571823
 30
0.0
 11
35.63026699496652
 21
-110.9585469233427
 31
0.0
  0
LINE
  5
19E
330
17
100
AcDbEntity
  8
隐藏线
100
AcDbLine
 10
34.6931795126723
 20
-110.61747497288415
 30
0.0
 11
35.159597133486834
 21
-110.79385241571823
 31
0.0
  0
LINE
  5
19F
330
17
100
AcDbEntity
  8
隐藏线
100
AcDbLine
 10
34.231304074506305
 20
-110.42952423740823
 30
0.0
 11
34.6931795126723
 21
-110.61747497288415
 31
0.0
  0
LINE
  5
1A0
330
17
100
AcDbEntity
  8
隐藏线
100
AcDbLine
 10
33.774257937387965
 20
-110.23011704623354
 30
0.0
 11
34.231304074506305
 21
-110.42952423740823
 31
0.0
  0
LINE
  5
1A1
330
17
100
AcDbEntity
  8
隐藏线
100
AcDbLine
 10
33.32232521764903
 20
-110.01937735804847
 30
0.0
 11
33.774257937387965
 21
-110.23011704623354
 31
0.0
  0
LINE
  5
1A2
330
17
100
AcDbEntity
  8
隐藏线
100
AcDbLine
 10
32.875786852936926
 20
-109.79743617622947
 30
0.0
 11
33.32232521764903
 21
-110.01937735804847
 31
0.0
  0
LINE
  5
1A3
330
17
100
AcDbEntity
  8
隐藏线
100
AcDbLine
 10
32.43492042757382
 20
-109.56443146740466
 30
0.0
 11
32.875786852936926
 21
-109.79743617622947
 31
0.0
  0
LINE
  5
1A4
330
17
100
AcDbEntity
  8
隐藏线
100
AcDbLine
 10
32.00000000000018
 20
-109.32050807568886
 30
0.0
 11
32.43492042757382
 21
-109.56443146740466
 31
0.0
  0
LINE
  5
1A5
330
17
100
AcDbEntity
  8
隐藏线
100
AcDbLine
 10
31.571295932410216
 20
-109.06581763264322
 30
0.0
 11
32.00000000000018
 21
-109.32050807568886
 31
0.0
  0
LINE
  5
1A6
330
17
100
AcDbEntity
  8
隐藏线
100
AcDbLine
 10
31.149074722684986
 20
-108.80051846301554
 30
0.0
 11
31.571295932410216
 21
-109.06581763264322
 31
0.0
  0
LINE
  5
1A7
330
17
100
AcDbEntity
  8
隐藏线
100
AcDbLine
 10
30.73359883872773
 20
-108.52477548632001
 30
0.0
 11
31.149074722684986
 21
-108.80051846301554
 31
0.0
  0
LINE
  5
1A8
330
17
100
AcDbEntity
  8
隐藏线
100
AcDbLine
 10
30.325126555304365
 20
-108.23876011431724
 30
0.0
 11
30.73359883872773
 21
-108.52477548632001
 31
0.0
  0
LINE
  5
1A9
330
17
100
AcDbEntity
  8
隐藏线
100
AcDbLine
 10
29.92391179349061
 20
-107.94265014445855
 30
0.0
 11
30.325126555304365
 21
-108.23876011431724
 31
0.0
  0
LINE
  5
1AA
330
17
100
AcDbEntity
  8
隐藏线
100
AcDbLine
 10
29.53020396282548
 20
-107.63662964936071
 30
0.0
 11
29.92391179349061
 21
-107.94265014445855
 31
0.0
  0
LINE
  5
1AB
330
17
100
AcDbEntity
  8
隐藏线
100
AcDbLine
 10
29.144247806269362
 20
-107.32088886237968
 30
0.0
 11
29.53020396282548
 21
-107.63662964936071
 31
0.0
  0
LINE
  5
1AC
330
17
100
AcDbEntity
  8
隐藏线
100
AcDbLine
 10
28.766283248062955
 20
-106.9956240593548
 30
0.0
 11
29.144247806269362
 21
-107.32088886237968
 31
0.0
  0
LINE
  5
1AD
330
17
100
AcDbEntity
  8
隐藏线
100
AcDbLine
 10
28.396545244581752
 20
-106.66103743659664
 30
0.0
 11
28.766283248062955
 21
-106.9956240593548
 31
0.0
  0
LINE
  5
1AE
330
17
100
AcDbEntity
  8
隐藏线
100
AcDbLine
 10
28.03526363827868
 20
-106.31733698519449
 30
0.0
 11
28.396545244581752
 21
-106.66103743659664
 31
0.0
  0
LINE
  5
1AF
330
17
100
AcDbEntity
  8
隐藏线
100
AcDbLine
 10
27.68266301480576
 20
-105.96473636172158
 30
0.0
 11
28.03526363827868
 21
-106.31733698519449
 31
0.0
  0
LINE
  5
1B0
330
17
100
AcDbEntity
  8
隐藏线
100
AcDbLine
 10
27.338962563403598
 20
-105.60345475541851
 30
0.0
 11
27.68266301480576
 21
-105.96473636172158
 31
0.0
  0
LINE
  5
1B1
330
17
100
AcDbEntity
  8
隐藏线
100
AcDbLine
 10
27.00437594064544
 20
-105.23371675193732
 30
0.0
 11
27.338962563403598
 21
-105.60345475541851
 31
0.0
  0
LINE
  5
1B2
330
17
100
AcDbEntity
  8
隐藏线
100
AcDbLine
 10
26.67911113762056
 20
-104.85575219373092
 30
0.0
 11
27.00437594064544
 21
-105.23371675193732
 31
0.0
  0
LINE
  5
1B3
330
17
100
AcDbEntity
  8
隐藏线
100
AcDbLine
 10
26.36337035063952
 20
-104.4697960371748
 30
0.0
 11
26.67911113762056
 21
-104.85575219373092
 31
0.0
  0
LINE
  5
1B4
330
17
100
AcDbEntity
  8
隐藏线
100
AcDbLine
 10
26.05734985554166
 20
-104.07608820650968
 30
0.0
 11
26.36337035063952
 21
-104.4697960371748
 31
0.0
  0
LINE
  5
1B5
330
17
100
AcDbEntity
  8
隐藏线
100
AcDbLine
 10
25.761239885682976
 20
-103.67487344469593
 30
0.0
 11
26.05734985554166
 21
-104.07608820650968
 31
0.0
  0
LINE
  5
1B6
330
17
100
AcDbEntity
  8
隐藏线
100
AcDbLine
 10
25.475224513680203
 20
-103.26640116127257
 30
0.0
 11
25.761239885682976
 21
-103.67487344469593
 31
0.0
  0
LINE
  5
1B7
330
17
100
AcDbEntity
  8
隐藏线
100
AcDbLine
 10
25.199481536984667
 20
-102.85092527731533
 30
0.0
 11
25.475224513680203
 21
-103.26640116127257
 31
0.0
  0
LINE
  5
1B8
330
17
100
AcDbEntity
  8
隐藏线
100
AcDbLine
 10
24.93418236735698
 20
-102.4287040675901
 30
0.0
 11
25.199481536984667
 21
-102.85092527731533
 31
0.0
  0
LINE
  5
1B9
330
17
100
AcDbEntity
  8
隐藏线
100
AcDbLine
 10
24.679491924311314
 20
-102.00000000000014
 30
0.0
 11
24.93418236735698
 21
-102.4287040675901
 31
0.0
  0
LINE
  5
1BA
330
17
100
AcDbEntity
  8
隐藏线
100
AcDbLine
 10
24.43556853259551
 20
-101.5650795724265
 30
0.0
 11
24.679491924311314
 21
-102.00000000000014
 31
0.0
  0
LINE
  5
1BB
330
17
100
AcDbEntity
  8
隐藏线
100
AcDbLine
 10
24.202563823770706
 20
-101.1242131470634
 30
0.0
 11
24.43556853259551
 21
-101.5650795724265
 31
0.0
  0
LINE
  5
1BC
330
17
100
AcDbEntity
  8
隐藏线
100
AcDbLine
 10
23.980622641951694
 20
-100.6776747823513
 30
0.0
 11
24.202563823770706
 21
-101.1242131470634
 31
0.0
  0
LINE
  5
1BD
330
17
100
AcDbEntity
  8
隐藏线
100
AcDbLine
 10
23.769882953766604
 20
-100.22574206261237
 30
0.0
 11
23.980622641951694
 21
-100.6776747823513
 31
0.0
  0
LINE
  5
1BE
330
17
100
AcDbEntity
  8
隐藏线
100
AcDbLine
 10
23.57047576259191
 20
-99.76869592549403
 30
0.0
 11
23.769882953766604
 21
-100.22574206261237
 31
0.0
  0
LINE
  5
1BF
330
17
100
AcDbEntity
  8
隐藏线
100
AcDbLine
 10
23.382525027115978
 20
-99.30682048732804
 30
0.0
 11
23.57047576259191
 21
-99.76869592549403
 31
0.0
  0
LINE
  5
1C0
330
17
100
AcDbEntity
  8
隐藏线
100
AcDbLine
 10
23.20614758428189
 20
-98.84040286651351
 30
0.0
 11
23.382525027115978
 21
-99.30682048732804
 31
0.0
  0
LINE
  5
1C1
330
17
100
AcDbEntity
  8
隐藏线
100
AcDbLine
 10
23.04145307665742
 20
-98.36973300503382
 30
0.0
 11
23.20614758428189
 21
-98.84040286651351
 31
0.0
  0
LINE
  5
1C2
330
17
100
AcDbEntity
  8
隐藏线
100
AcDbLine
 10
22.888543884277237
 20
-97.89510348821823
 30
0.0
 11
23.04145307665742
 21
-98.36973300503382
 31
0.0
  0
LINE
  5
1C3
330
17
100
AcDbEntity
  8
隐藏线
100
AcDbLine
 10
22.747515060999802
 20
-97.41680936286023
 30
0.0
 11
22.888543884277237
 21
-97.89510348821823
 31
0.0
  0
LINE
  5
1C4
330
17
100
AcDbEntity
  8
隐藏线
100
AcDbLine
 10
22.618454275418483
 20
-96.93514795380601
 30
0.0
 11
22.747515060999802
 21
-97.41680936286023
 31
0.0
  0
LINE
  5
1C5
330
17
100
AcDbEntity
  8
隐藏线
100
AcDbLine
 10
22.501441756363565
 20
-96.45041867912641
 30
0.0
 11
22.618454275418483
 21
-96.93514795380601
 31
0.0
  0
LINE
  5
1C6
330
17
100
AcDbEntity
  8
隐藏线
100
AcDbLine
 10
22.396550243029157
 20
-95.96292286398808
 30
0.0
 11
22.501441756363565
 21
-96.45041867912641
 31
0.0
  0
LINE
  5
1C7
330
17
100
AcDbEntity
  8
隐藏线
100
AcDbLine
 10
22.30384493975587
 20
-95.47296355333874
 30
0.0
 11
22.396550243029157
 21
-95.96292286398808
 31
0.0
  0
LINE
  5
1C8
330
17
100
AcDbEntity
  8
隐藏线
100
AcDbLine
 10
22.223383475497457
 20
-94.98084532352362
 30
0.0
 11
22.30384493975587
 21
-95.47296355333874
 31
0.0
  0
LINE
  5
1C9
330
17
100
AcDbEntity
  8
隐藏线
100
AcDbLine
 10
22.15521586799658
 20
-94.48687409294983
 30
0.0
 11
22.223383475497457
 21
-94.98084532352362
 31
0.0
  0
LINE
  5
1CA
330
17
100
AcDbEntity
  8
隐藏线
100
AcDbLine
 10
22.099384492691993
 20
-93.99135693191646
 30
0.0
 11
22.15521586799658
 21
-94.48687409294983
 31
0.0
  0
LINE
  5
1CB
330
17
100
AcDbEntity
  8
隐藏线
100
AcDbLine
 10
22.055924056376412
 20
-93.4946018717286
 30
0.0
 11
22.099384492691993
 21
-93.99135693191646
 31
0.0
  0
LINE
  5
1CC
330
17
100
AcDbEntity
  8
隐藏线
100
AcDbLine
 10
22.024861575621568
 20
-92.99691771321407
 30
0.0
 11
22.055924056376412
 21
-93.4946018717286
 31
0.0
  0
LINE
  5
1CD
330
17
100
AcDbEntity
  8
隐藏线
100
AcDbLine
 10
22.006216359983686
 20
-92.49861383476158
 30
0.0
 11
22.024861575621568
 21
-92.99691771321407
 31
0.0
  0
LINE
  5
1CE
330
17
100
AcDbEntity
  8
隐藏线
100
AcDbLine
 10
22.000000000000007
 20
-92.00000000000011
 30
0.0
 11
22.006216359983686
 21
-92.49861383476158
 31
0.0
  0
LINE
  5
1CF
330
17
100
AcDbEntity
  8
隐藏线
100
AcDbLine
 10
22.00621635998368
 20
-91.50138616523866
 30
0.0
 11
22.000000000000007
 21
-92.00000000000011
 31
0.0
  0
LINE
  5
1D0
330
17
100
AcDbEntity
  8
隐藏线
100
AcDbLine
 10
22.024861575621554
 20
-91.00308228678617
 30
0.0
 11
22.00621635998368
 21
-91.50138616523866
 31
0.0
  0
LINE
  5
1D1
330
17
100
AcDbEntity
  8
隐藏线
100
AcDbLine
 10
22.055924056376394
 20
-90.50539812827164
 30
0.0
 11
22.024861575621554
 21
-91.00308228678617
 31
0.0
  0
LINE
  5
1D2
330
17
100
AcDbEntity
  8
隐藏线
100
AcDbLine
 10
22.099384492691968
 20
-90.00864306808379
 30
0.0
 11
22.055924056376394
 21
-90.50539812827164
 31
0.0
  0
LINE
  5
1D3
330
17
100
AcDbEntity
  8
隐藏线
100
AcDbLine
 10
22.155215867996553
 20
-89.51312590705041
 30
0.0
 11
22.099384492691968
 21
-90.00864306808379
 31
0.0
  0
LINE
  5
1D4
330
17
100
AcDbEntity
  8
隐藏线
100
AcDbLine
 10
22.223383475497418
 20
-89.01915467647662
 30
0.0
 11
22.155215867996553
 21
-89.51312590705041
 31
0.0
  0
LINE
  5
1D5
330
17
100
AcDbEntity
  8
隐藏线
100
AcDbLine
 10
22.303844939755827
 20
-88.5270364466615
 30
0.0
 11
22.223383475497418
 21
-89.01915467647662
 31
0.0
  0
LINE
  5
1D6
330
17
100
AcDbEntity
  8
隐藏线
100
AcDbLine
 10
22.396550243029107
 20
-88.03707713601216
 30
0.0
 11
22.303844939755827
 21
-88.5270364466615
 31
0.0
  0
LINE
  5
1D7
330
17
100
AcDbEntity
  8
隐藏线
100
AcDbLine
 10
22.501441756363512
 20
-87.54958132087381
 30
0.0
 11
22.396550243029107
 21
-88.03707713601216
 31
0.0
  0
LINE
  5
1D8
330
17
100
AcDbEntity
  8
隐藏线
100
AcDbLine
 10
22.618454275418422
 20
-87.06485204619423
 30
0.0
 11
22.501441756363512
 21
-87.54958132087381
 31
0.0
  0
LINE
  5
1D9
330
17
100
AcDbEntity
  8
隐藏线
100
AcDbLine
 10
22.74751506099974
 20
-86.58319063713999
 30
0.0
 11
22.618454275418422
 21
-87.06485204619423
 31
0.0
  0
LINE
  5
1DA
330
17
100
AcDbEntity
  8
隐藏线
100
AcDbLine
 10
22.888543884277166
 20
-86.10489651178202
 30
0.0
 11
22.74751506099974
 21
-86.58319063713999
 31
0.0
  0
LINE
  5
1DB
330
17
100
AcDbEntity
  8
隐藏线
100
AcDbLine
 10
23.04145307665734
 20
-85.6302669949664
 30
0.0
 11
22.888543884277166
 21
-86.10489651178202
 31
0.0
  0
LINE
  5
1DC
330
17
100
AcDbEntity
  8
隐藏线
100
AcDbLine
 10
23.20614758428181
 20
-85.15959713348671
 30
0.0
 11
23.04145307665734
 21
-85.6302669949664
 31
0.0
  0
LINE
  5
1DD
330
17
100
AcDbEntity
  8
隐藏线
100
AcDbLine
 10
23.38252502711589
 20
-84.69317951267219
 30
0.0
 11
23.20614758428181
 21
-85.15959713348671
 31
0.0
  0
LINE
  5
1DE
330
17
100
AcDbEntity
  8
隐藏线
100
AcDbLine
 10
23.57047576259182
 20
-84.2313040745062
 30
0.0
 11
23.38252502711589
 21
-84.69317951267219
 31
0.0
  0
LINE
  5
1DF
330
17
100
AcDbEntity
  8
隐藏线
100
AcDbLine
 10
23.76988295376651
 20
-83.77425793738786
 30
0.0
 11
23.57047576259182
 21
-84.2313040745062
 31
0.0
  0
LINE
  5
1E0
330
17
100
AcDbEntity
  8
隐藏线
100
AcDbLine
 10
23.980622641951587
 20
-83.32232521764891
 30
0.0
 11
23.76988295376651
 21
-83.77425793738786
 31
0.0
  0
LINE
  5
1E1
330
17
100
AcDbEntity
  8
隐藏线
100
AcDbLine
 10
24.202563823770596
 20
-82.87578685293681
 30
0.0
 11
23.980622641951587
 21
-83.32232521764891
 31
0.0
  0
LINE
  5
1E2
330
17
100
AcDbEntity
  8
隐藏线
100
AcDbLine
 10
24.435568532595397
 20
-82.43492042757372
 30
0.0
 11
24.202563823770596
 21
-82.87578685293681
 31
0.0
  0
LINE
  5
1E3
330
17
100
AcDbEntity
  8
隐藏线
100
AcDbLine
 10
24.679491924311193
 20
-82.00000000000007
 30
0.0
 11
24.435568532595397
 21
-82.43492042757372
 31
0.0
  0
LINE
  5
1E4
330
17
100
AcDbEntity
  8
隐藏线
100
AcDbLine
 10
24.93418236735685
 20
-81.57129593241011
 30
0.0
 11
24.679491924311193
 21
-82.00000000000007
 31
0.0
  0
LINE
  5
1E5
330
17
100
AcDbEntity
  8
隐藏线
100
AcDbLine
 10
25.199481536984536
 20
-81.14907472268487
 30
0.0
 11
24.93418236735685
 21
-81.57129593241011
 31
0.0
  0
LINE
  5
1E6
330
17
100
AcDbEntity
  8
隐藏线
100
AcDbLine
 10
25.475224513680068
 20
-80.73359883872763
 30
0.0
 11
25.199481536984536
 21
-81.14907472268487
 31
0.0
  0
LINE
  5
1E7
330
17
100
AcDbEntity
  8
隐藏线
100
AcDbLine
 10
25.761239885682834
 20
-80.32512655530427
 30
0.0
 11
25.475224513680068
 21
-80.73359883872763
 31
0.0
  0
LINE
  5
1E8
330
17
100
AcDbEntity
  8
隐藏线
100
AcDbLine
 10
26.057349855541514
 20
-79.92391179349052
 30
0.0
 11
25.761239885682834
 21
-80.32512655530427
 31
0.0
  0
LINE
  5
1E9
330
17
100
AcDbEntity
  8
隐藏线
100
AcDbLine
 10
26.363370350639368
 20
-79.53020396282538
 30
0.0
 11
26.057349855541514
 21
-79.92391179349052
 31
0.0
  0
LINE
  5
1EA
330
17
100
AcDbEntity
  8
隐藏线
100
AcDbLine
 10
26.679111137620403
 20
-79.14424780626926
 30
0.0
 11
26.363370350639368
 21
-79.53020396282538
 31
0.0
  0
LINE
  5
1EB
330
17
100
AcDbEntity
  8
隐藏线
100
AcDbLine
 10
27.00437594064528
 20
-78.76628324806286
 30
0.0
 11
26.679111137620403
 21
-79.14424780626926
 31
0.0
  0
LINE
  5
1EC
330
17
100
AcDbEntity
  8
隐藏线
100
AcDbLine
 10
27.338962563403435
 20
-78.39654524458166
 30
0.0
 11
27.00437594064528
 21
-78.76628324806286
 31
0.0
  0
LINE
  5
1ED
330
17
100
AcDbEntity
  8
隐藏线
100
AcDbLine
 10
27.682663014805595
 20
-78.0352636382786
 30
0.0
 11
27.338962563403435
 21
-78.39654524458166
 31
0.0
  0
LINE
  5
1EE
330
17
100
AcDbEntity
  8
隐藏线
100
AcDbLine
 10
28.035263638278508
 20
-77.68266301480568
 30
0.0
 11
27.682663014805595
 21
-78.0352636382786
 31
0.0
  0
LINE
  5
1EF
330
17
100
AcDbEntity
  8
隐藏线
100
AcDbLine
 10
28.396545244581574
 20
-77.33896256340351
 30
0.0
 11
28.035263638278508
 21
-77.68266301480568
 31
0.0
  0
LINE
  5
1F0
330
17
100
AcDbEntity
  8
隐藏线
100
AcDbLine
 10
28.766283248062777
 20
-77.00437594064536
 30
0.0
 11
28.396545244581574
 21
-77.33896256340351
 31
0.0
  0
LINE
  5
1F1
330
17
100
AcDbEntity
  8
隐藏线
100
AcDbLine
 10
29.144247806269178
 20
-76.67911113762048
 30
0.0
 11
28.766283248062777
 21
-77.00437594064536
 31
0.0
  0
LINE
  5
1F2
330
17
100
AcDbEntity
  8
隐藏线
100
AcDbLine
 10
29.530203962825297
 20
-76.36337035063944
 30
0.0
 11
29.144247806269178
 21
-76.67911113762048
 31
0.0
  0
LINE
  5
1F3
330
17
100
AcDbEntity
  8
隐藏线
100
AcDbLine
 10
29.92391179349042
 20
-76.05734985554159
 30
0.0
 11
29.530203962825297
 21
-76.36337035063944
 31
0.0
  0
LINE
  5
1F4
330
17
100
AcDbEntity
  8
隐藏线
100
AcDbLine
 10
30.32512655530417
 20
-75.7612398856829
 30
0.0
 11
29.92391179349042
 21
-76.05734985554159
 31
0.0
  0
LINE
  5
1F5
330
17
100
AcDbEntity
  8
隐藏线
100
AcDbLine
 10
30.733598838727527
 20
-75.47522451368013
 30
0.0
 11
30.32512655530417
 21
-75.7612398856829
 31
0.0
  0
LINE
  5
1F6
330
17
100
AcDbEntity
  8
隐藏线
100
AcDbLine
 10
31.14907472268478
 20
-75.19948153698459
 30
0.0
 11
30.733598838727527
 21
-75.47522451368013
 31
0.0
  0
LINE
  5
1F7
330
17
100
AcDbEntity
  8
隐藏线
100
AcDbLine
 10
31.57129593241001
 20
-74.93418236735691
 30
0.0
 11
31.14907472268478
 21
-75.19948153698459
 31
0.0
  0
LINE
  5
1F8
330
17
100
AcDbEntity
  8
隐藏线
100
AcDbLine
 10
31.99999999999997
 20
-74.67949192431125
 30
0.0
 11
31.57129593241001
 21
-74.93418236735691
 31
0.0
  0
LINE
  5
1F9
330
17
100
AcDbEntity
  8
隐藏线
100
AcDbLine
 10
32.43492042757361
 20
-74.43556853259545
 30
0.0
 11
31.99999999999997
 21
-74.67949192431125
 31
0.0
  0
LINE
  5
1FA
330
17
100
AcDbEntity
  8
隐藏线
100
AcDbLine
 10
32.87578685293671
 20
-74.20256382377065
 30
0.0
 11
32.43492042757361
 21
-74.43556853259545
 31
0.0
  0
LINE
  5
1FB
330
17
100
AcDbEntity
  8
隐藏线
100
AcDbLine
 10
33.32232521764881
 20
-73.98062264195164
 30
0.0
 11
32.87578685293671
 21
-74.20256382377065
 31
0.0
  0
LINE
  5
1FC
330
17
100
AcDbEntity
  8
隐藏线
100
AcDbLine
 10
33.774257937387745
 20
-73.76988295376655
 30
0.0
 11
33.32232521764881
 21
-73.98062264195164
 31
0.0
  0
LINE
  5
1FD
330
17
100
AcDbEntity
  8
隐藏线
100
AcDbLine
 10
34.231304074506085
 20
-73.57047576259187
 30
0.0
 11
33.774257937387745
 21
-73.76988295376655
 31
0.0
  0
LINE
  5
1FE
330
17
100
AcDbEntity
  8
隐藏线
100
AcDbLine
 10
34.693179512672074
 20
-73.38252502711593
 30
0.0
 11
34.231304074506085
 21
-73.57047576259187
 31
0.0
  0
LINE
  5
1FF
330
17
100
AcDbEntity
  8
隐藏线
100
AcDbLine
 10
35.159597133486606
 20
-73.20614758428185
 30
0.0
 11
34.693179512672074
 21
-73.38252502711593
 31
0.0
  0
LINE
  5
200
330
17
100
AcDbEntity
  8
隐藏线
100
AcDbLine
 10
35.63026699496629
 20
-73.04145307665738
 30
0.0
 11
35.159597133486606
 21
-73.20614758428185
 31
0.0
  0
LINE
  5
201
330
17
100
AcDbEntity
  8
隐藏线
100
AcDbLine
 10
36.104896511781895
 20
-72.8885438842772
 30
0.0
 11
35.63026699496629
 21
-73.04145307665738
 31
0.0
  0
LINE
  5
202
330
17
100
AcDbEntity
  8
隐藏线
100
AcDbLine
 10
36.58319063713988
 20
-72.74751506099977
 30
0.0
 11
36.104896511781895
 21
-72.8885438842772
 31
0.0
  0
LINE
  5
203
330
17
100
AcDbEntity
  8
隐藏线
100
AcDbLine
 10
37.06485204619411
 20
-72.61845427541846
 30
0.0
 11
36.58319063713988
 21
-72.74751506099977
 31
0.0
  0
LINE
  5
204
330
17
100
AcDbEntity
  8
隐藏线
100
AcDbLine
 10
37.5495813208737
 20
-72.50144175636353
 30
0.0
 11
37.06485204619411
 21
-72.61845427541846
 31
0.0
  0
LINE
  5
205
330
17
100
AcDbEntity
  8
隐藏线
100
AcDbLine
 10
38.03707713601204
 20
-72.39655024302914
 30
0.0
 11
37.5495813208737
 21
-72.50144175636353
 31
0.0
  0
LINE
  5
206
330
17
100
AcDbEntity
  8
隐藏线
100
AcDbLine
 10
38.527036446661384
 20
-72.30384493975585
 30
0.0
 11
38.03707713601204
 21
-72.39655024302914
 31
0.0
  0
LINE
  5
207
330
17
100
AcDbEntity
  8
隐藏线
100
AcDbLine
 10
39.019154676476504
 20
-72.22338347549743
 30
0.0
 11
38.527036446661384
 21
-72.30384493975585
 31
0.0
  0
LINE
  5
208
330
17
100
AcDbEntity
  8
隐藏线
100
AcDbLine
 10
39.51312590705029
 20
-72.15521586799656
 30
0.0
 11
39.019154676476504
 21
-72.22338347549743
 31
0.0
  0
LINE
  5
209
330
17
100
AcDbEntity
  8
隐藏线
100
AcDbLine
 10
40.008643068083664
 20
-72.09938449269198
 30
0.0
 11
39.51312590705029
 21
-72.15521586799656
 31
0.0
  0
LINE
  5
20A
330
17
100
AcDbEntity
  8
隐藏线
100
AcDbLine
 10
40.50539812827151
 20
-72.0559240563764
 30
0.0
 11
40.008643068083664
 21
-72.09938449269198
 31
0.0
  0
LINE
  5
20B
330
17
100
AcDbEntity
  8
隐藏线
100
AcDbLine
 10
41.003082286786054
 20
-72.02486157562156
 30
0.0
 11
40.50539812827151
 21
-72.0559240563764
 31
0.0
  0
LINE
  5
20C
330
17
100
AcDbEntity
  8
隐藏线
100
AcDbLine
 10
41.50138616523854
 20
-72.00621635998368
 30
0.0
 11
41.003082286786054
 21
-72.02486157562156
 31
0.0
  0
LINE
  5
20D
330
17
100
AcDbEntity
  8
隐藏线
100
AcDbLine
 10
42.0
 20
-72.0
 30
0.0
 11
41.50138616523854
 21
-72.00621635998368
 31
0.0
  0
LINE
  5
20E
330
17
100
AcDbEntity
  8
隐藏线
100
AcDbLine
 10
42.0
 20
-62.0
 30
0.0
 11
42.0
 21
-72.0
 31
0.0
  0
LINE
  5
20F
330
17
100
AcDbEntity
  8
隐藏线
100
AcDbLine
 10
42.0
 20
-62.0
 30
0.0
 11
14.000000000000004
 21
-62.0
 31
0.0
  0
LINE
  5
210
330
17
100
AcDbEntity
  8
隐藏线
100
AcDbLine
 10
2.0
 20
-122.0
 30
0.0
 11
14.000000000000002
 21
-122.0
 31
0.0
  0
LINE
  5
211
330
17
100
AcDbEntity
  8
隐藏线
100
AcDbLine
 10
2.0
 20
-122.0
 30
0.0
 11
2.0
 21
-62.0
 31
0.0
  0
LINE
  5
212
330
17
100
AcDbEntity
  8
隐藏线
100
AcDbLine
 10
2.0
 20
-62.0
 30
0.0
 11
14.000000000000002
 21
-62.0
 31
0.0
  0
LINE
  5
213
330
17
100
AcDbEntity
  8
隐藏线
100
AcDbLine
 10
14.000000000000004
 20
-62.0
 30
0.0
 11
14.000000000000004
 21
-122.0
 31
0.0
  0
LINE
  5
214
330
17
100
AcDbEntity
  8
隐藏线
100
AcDbLine
 10
14.000000000000002
 20
-62.0
 30
0.0
 11
14.000000000000002
 21
-122.0
 31
0.0
  0
HATCH
  5
215
330
17
100
AcDbEntity
  8
剖面线
 62
7
100
AcDbHatch
 10
0.0
 20
0.0
 30
0.0
210
0.0
220
0.0
230
1.0
  2
ANSI31
 70
0
 71
0
 91
1
 92
3
 72
0
 73
1
 93
4
 10
2.0
 20
-62.0
 10
14.0
 20
-62.0
 10
14.0
 20
-122.0
 10
2.0
 20
-122.0
 97
0
 75
0
 76
1
 52
0.0
 41
2.0
 77
0
 78
1
 53
45.0
 43
0.0
 44
0.0
 45
-4.4901280606
 46
4.4901280606
 79
0
 98
0
  0
TEXT
  5
216
330
17
100
AcDbEntity
  8
标注
100
AcDbText
 10
22.0
 20
-140.0
 30
0.0
 40
6.0
  1
A—A  纵向全剖 y=22.00（中截面）
  7
中文字体
 72
1
 11
22.0
 21
-140.0
 31
0.0
100
AcDbText
 73
2
  0
LINE
  5
217
330
17
100
AcDbEntity
  8
剖切线
100
AcDbLine
 10
-6.0
 20
138.0
 30
0.0
 11
2.0
 21
138.0
 31
0.0
  0
LINE
  5
218
330
17
100
AcDbEntity
  8
剖切线
100
AcDbLine
 10
42.0
 20
138.0
 30
0.0
 11
50.0
 21
138.0
 31
0.0
  0
LINE
  5
219
330
17
100
AcDbEntity
  8
剖切线
100
AcDbLine
 10
-6.0
 20
138.0
 30
0.0
 11
-2.0
 21
132.0
 31
0.0
  0
TEXT
  5
21A
330
17
100
AcDbEntity
  8
标注
100
AcDbText
 10
-4.0
 20
141.0
 30
0.0
 40
5.0
  1
A—A
  7
中文字体
 11
-4.0
 21
141.0
 31
0.0
100
AcDbText
  0
LINE
  5
21B
330
17
100
AcDbEntity
  8
剖切线
100
AcDbLine
 10
50.0
 20
138.0
 30
0.0
 11
46.0
 21
132.0
 31
0.0
  0
TEXT
  5
21C
330
17
100
AcDbEntity
  8
标注
100
AcDbText
 10
48.0
 20
141.0
 30
0.0
 40
5.0
  1
A—A
  7
中文字体
 11
48.0
 21
141.0
 31
0.0
100
AcDbText
  0
LINE
  5
21D
330
17
100
AcDbEntity
  8
可见轮廓
100
AcDbLine
 10
2.0
 20
-225.0
 30
0.0
 11
2.0
 21
-213.0
 31
0.0
  0
LINE
  5
21E
330
17
100
AcDbEntity
  8
可见轮廓
100
AcDbLine
 10
30.0
 20
-181.0
 30
0.0
 11
42.0
 21
-181.0
 31
0.0
  0
LINE
  5
21F
330
17
100
AcDbEntity
  8
可见轮廓
100
AcDbLine
 10
42.0
 20
-181.0
 30
0.0
 11
42.0
 21
-225.0
 31
0.0
  0
LINE
  5
220
330
17
100
AcDbEntity
  8
可见轮廓
100
AcDbLine
 10
42.0
 20
-225.0
 30
0.0
 11
2.0
 21
-225.0
 31
0.0
  0
LINE
  5
221
330
17
100
AcDbEntity
  8
可见轮廓
100
AcDbLine
 10
2.0
 20
-213.0
 30
0.0
 11
29.999999999999996
 21
-213.0
 31
0.0
  0
LINE
  5
222
330
17
100
AcDbEntity
  8
可见轮廓
100
AcDbLine
 10
29.999999999999996
 20
-213.0
 30
0.0
 11
30.0
 21
-181.0
 31
0.0
  0
LINE
  5
223
330
17
100
AcDbEntity
  8
隐藏线
100
AcDbLine
 10
2.0
 20
-213.0
 30
0.0
 11
2.0
 21
-225.0
 31
0.0
  0
LINE
  5
224
330
17
100
AcDbEntity
  8
隐藏线
100
AcDbLine
 10
21.99378364001632
 20
-225.0
 30
0.0
 11
21.999999999999993
 21
-225.0
 31
0.0
  0
LINE
  5
225
330
17
100
AcDbEntity
  8
隐藏线
100
AcDbLine
 10
21.975138424378446
 20
-225.0
 30
0.0
 11
21.99378364001632
 21
-225.0
 31
0.0
  0
LINE
  5
226
330
17
100
AcDbEntity
  8
隐藏线
100
AcDbLine
 10
21.944075943623606
 20
-225.0
 30
0.0
 11
21.975138424378446
 21
-225.0
 31
0.0
  0
LINE
  5
227
330
17
100
AcDbEntity
  8
隐藏线
100
AcDbLine
 10
21.900615507308032
 20
-225.0
 30
0.0
 11
21.944075943623606
 21
-225.0
 31
0.0
  0
LINE
  5
228
330
17
100
AcDbEntity
  8
隐藏线
100
AcDbLine
 10
21.844784132003447
 20
-225.0
 30
0.0
 11
21.900615507308032
 21
-225.0
 31
0.0
  0
LINE
  5
229
330
17
100
AcDbEntity
  8
隐藏线
100
AcDbLine
 10
21.776616524502582
 20
-225.0
 30
0.0
 11
21.844784132003447
 21
-225.0
 31
0.0
  0
LINE
  5
22A
330
17
100
AcDbEntity
  8
隐藏线
100
AcDbLine
 10
21.696155060244173
 20
-225.0
 30
0.0
 11
21.776616524502582
 21
-225.0
 31
0.0
  0
LINE
  5
22B
330
17
100
AcDbEntity
  8
隐藏线
100
AcDbLine
 10
21.603449756970893
 20
-225.0
 30
0.0
 11
21.696155060244173
 21
-225.0
 31
0.0
  0
LINE
  5
22C
330
17
100
AcDbEntity
  8
隐藏线
100
AcDbLine
 10
21.498558243636488
 20
-225.0
 30
0.0
 11
21.603449756970893
 21
-225.0
 31
0.0
  0
LINE
  5
22D
330
17
100
AcDbEntity
  8
隐藏线
100
AcDbLine
 10
21.381545724581578
 20
-225.0
 30
0.0
 11
21.498558243636488
 21
-225.0
 31
0.0
  0
LINE
  5
22E
330
17
100
AcDbEntity
  8
隐藏线
100
AcDbLine
 10
21.25248493900026
 20
-225.0
 30
0.0
 11
21.381545724581578
 21
-225.0
 31
0.0
  0
LINE
  5
22F
330
17
100
AcDbEntity
  8
隐藏线
100
AcDbLine
 10
21.111456115722834
 20
-225.0
 30
0.0
 11
21.25248493900026
 21
-225.0
 31
0.0
  0
LINE
  5
230
330
17
100
AcDbEntity
  8
隐藏线
100
AcDbLine
 10
20.95854692334266
 20
-225.0
 30
0.0
 11
21.111456115722834
 21
-225.0
 31
0.0
  0
LINE
  5
231
330
17
100
AcDbEntity
  8
隐藏线
100
AcDbLine
 10
20.79385241571819
 20
-225.0
 30
0.0
 11
20.95854692334266
 21
-225.0
 31
0.0
  0
LINE
  5
232
330
17
100
AcDbEntity
  8
隐藏线
100
AcDbLine
 10
20.61747497288411
 20
-225.0
 30
0.0
 11
20.79385241571819
 21
-225.0
 31
0.0
  0
LINE
  5
233
330
17
100
AcDbEntity
  8
隐藏线
100
AcDbLine
 10
20.42952423740818
 20
-225.0
 30
0.0
 11
20.61747497288411
 21
-225.0
 31
0.0
  0
LINE
  5
234
330
17
100
AcDbEntity
  8
隐藏线
100
AcDbLine
 10
20.23011704623349
 20
-225.0
 30
0.0
 11
20.42952423740818
 21
-225.0
 31
0.0
  0
LINE
  5
235
330
17
100
AcDbEntity
  8
隐藏线
100
AcDbLine
 10
20.019377358048413
 20
-225.0
 30
0.0
 11
20.23011704623349
 21
-225.0
 31
0.0
  0
LINE
  5
236
330
17
100
AcDbEntity
  8
隐藏线
100
AcDbLine
 10
19.797436176229404
 20
-225.0
 30
0.0
 11
20.019377358048413
 21
-225.0
 31
0.0
  0
LINE
  5
237
330
17
100
AcDbEntity
  8
隐藏线
100
AcDbLine
 10
19.564431467404603
 20
-225.0
 30
0.0
 11
19.797436176229404
 21
-225.0
 31
0.0
  0
LINE
  5
238
330
17
100
AcDbEntity
  8
隐藏线
100
AcDbLine
 10
19.320508075688807
 20
-225.0
 30
0.0
 11
19.564431467404603
 21
-225.0
 31
0.0
  0
LINE
  5
239
330
17
100
AcDbEntity
  8
隐藏线
100
AcDbLine
 10
19.06581763264315
 20
-225.0
 30
0.0
 11
19.320508075688807
 21
-225.0
 31
0.0
  0
LINE
  5
23A
330
17
100
AcDbEntity
  8
隐藏线
100
AcDbLine
 10
18.800518463015464
 20
-225.0
 30
0.0
 11
19.06581763264315
 21
-225.0
 31
0.0
  0
LINE
  5
23B
330
17
100
AcDbEntity
  8
隐藏线
100
AcDbLine
 10
18.524775486319932
 20
-225.0
 30
0.0
 11
18.800518463015464
 21
-225.0
 31
0.0
  0
LINE
  5
23C
330
17
100
AcDbEntity
  8
隐藏线
100
AcDbLine
 10
18.238760114317166
 20
-225.0
 30
0.0
 11
18.524775486319932
 21
-225.0
 31
0.0
  0
LINE
  5
23D
330
17
100
AcDbEntity
  8
隐藏线
100
AcDbLine
 10
17.942650144458486
 20
-225.0
 30
0.0
 11
18.238760114317166
 21
-225.0
 31
0.0
  0
LINE
  5
23E
330
17
100
AcDbEntity
  8
隐藏线
100
AcDbLine
 10
17.636629649360632
 20
-225.0
 30
0.0
 11
17.942650144458486
 21
-225.0
 31
0.0
  0
LINE
  5
23F
330
17
100
AcDbEntity
  8
隐藏线
100
AcDbLine
 10
17.320888862379597
 20
-225.0
 30
0.0
 11
17.636629649360632
 21
-225.0
 31
0.0
  0
LINE
  5
240
330
17
100
AcDbEntity
  8
隐藏线
100
AcDbLine
 10
16.99562405935472
 20
-225.0
 30
0.0
 11
17.320888862379597
 21
-225.0
 31
0.0
  0
LINE
  5
241
330
17
100
AcDbEntity
  8
隐藏线
100
AcDbLine
 10
16.661037436596565
 20
-225.0
 30
0.0
 11
16.99562405935472
 21
-225.0
 31
0.0
  0
LINE
  5
242
330
17
100
AcDbEntity
  8
隐藏线
100
AcDbLine
 10
16.317336985194405
 20
-225.0
 30
0.0
 11
16.661037436596565
 21
-225.0
 31
0.0
  0
LINE
  5
243
330
17
100
AcDbEntity
  8
隐藏线
100
AcDbLine
 10
15.964736361721492
 20
-225.0
 30
0.0
 11
16.317336985194405
 21
-225.0
 31
0.0
  0
LINE
  5
244
330
17
100
AcDbEntity
  8
隐藏线
100
AcDbLine
 10
15.603454755418426
 20
-225.0
 30
0.0
 11
15.964736361721492
 21
-225.0
 31
0.0
  0
LINE
  5
245
330
17
100
AcDbEntity
  8
隐藏线
100
AcDbLine
 10
15.233716751937223
 20
-225.0
 30
0.0
 11
15.603454755418426
 21
-225.0
 31
0.0
  0
LINE
  5
246
330
17
100
AcDbEntity
  8
隐藏线
100
AcDbLine
 10
14.855752193730822
 20
-225.0
 30
0.0
 11
15.233716751937223
 21
-225.0
 31
0.0
  0
LINE
  5
247
330
17
100
AcDbEntity
  8
隐藏线
100
AcDbLine
 10
14.469796037174703
 20
-225.0
 30
0.0
 11
14.855752193730822
 21
-225.0
 31
0.0
  0
LINE
  5
248
330
17
100
AcDbEntity
  8
隐藏线
100
AcDbLine
 10
14.076088206509581
 20
-225.0
 30
0.0
 11
14.469796037174703
 21
-225.0
 31
0.0
  0
LINE
  5
249
330
17
100
AcDbEntity
  8
隐藏线
100
AcDbLine
 10
13.67487344469583
 20
-225.0
 30
0.0
 11
14.076088206509581
 21
-225.0
 31
0.0
  0
LINE
  5
24A
330
17
100
AcDbEntity
  8
隐藏线
100
AcDbLine
 10
13.266401161272473
 20
-225.0
 30
0.0
 11
13.67487344469583
 21
-225.0
 31
0.0
  0
LINE
  5
24B
330
17
100
AcDbEntity
  8
隐藏线
100
AcDbLine
 10
12.85092527731522
 20
-225.0
 30
0.0
 11
13.266401161272473
 21
-225.0
 31
0.0
  0
LINE
  5
24C
330
17
100
AcDbEntity
  8
隐藏线
100
AcDbLine
 10
12.42870406758999
 20
-225.0
 30
0.0
 11
12.85092527731522
 21
-225.0
 31
0.0
  0
LINE
  5
24D
330
17
100
AcDbEntity
  8
隐藏线
100
AcDbLine
 10
12.000000000000028
 20
-225.0
 30
0.0
 11
12.42870406758999
 21
-225.0
 31
0.0
  0
LINE
  5
24E
330
17
100
AcDbEntity
  8
隐藏线
100
AcDbLine
 10
11.565079572426392
 20
-225.0
 30
0.0
 11
12.000000000000028
 21
-225.0
 31
0.0
  0
LINE
  5
24F
330
17
100
AcDbEntity
  8
隐藏线
100
AcDbLine
 10
11.124213147063287
 20
-225.0
 30
0.0
 11
11.565079572426392
 21
-225.0
 31
0.0
  0
LINE
  5
250
330
17
100
AcDbEntity
  8
隐藏线
100
AcDbLine
 10
10.67767478235119
 20
-225.0
 30
0.0
 11
11.124213147063287
 21
-225.0
 31
0.0
  0
LINE
  5
251
330
17
100
AcDbEntity
  8
隐藏线
100
AcDbLine
 10
10.225742062612255
 20
-225.0
 30
0.0
 11
10.67767478235119
 21
-225.0
 31
0.0
  0
LINE
  5
252
330
17
100
AcDbEntity
  8
隐藏线
100
AcDbLine
 10
9.768695925493915
 20
-225.0
 30
0.0
 11
10.225742062612255
 21
-225.0
 31
0.0
  0
LINE
  5
253
330
17
100
AcDbEntity
  8
隐藏线
100
AcDbLine
 10
9.306820487327926
 20
-225.0
 30
0.0
 11
9.768695925493915
 21
-225.0
 31
0.0
  0
LINE
  5
254
330
17
100
AcDbEntity
  8
隐藏线
100
AcDbLine
 10
8.840402866513394
 20
-225.0
 30
0.0
 11
9.306820487327926
 21
-225.0
 31
0.0
  0
LINE
  5
255
330
17
100
AcDbEntity
  8
隐藏线
100
AcDbLine
 10
8.369733005033709
 20
-225.0
 30
0.0
 11
8.840402866513394
 21
-225.0
 31
0.0
  0
LINE
  5
256
330
17
100
AcDbEntity
  8
隐藏线
100
AcDbLine
 10
7.895103488218105
 20
-225.0
 30
0.0
 11
8.369733005033709
 21
-225.0
 31
0.0
  0
LINE
  5
257
330
17
100
AcDbEntity
  8
隐藏线
100
AcDbLine
 10
7.416809362860121
 20
-225.0
 30
0.0
 11
7.895103488218105
 21
-225.0
 31
0.0
  0
LINE
  5
258
330
17
100
AcDbEntity
  8
隐藏线
100
AcDbLine
 10
6.935147953805888
 20
-225.0
 30
0.0
 11
7.416809362860121
 21
-225.0
 31
0.0
  0
LINE
  5
259
330
17
100
AcDbEntity
  8
隐藏线
100
AcDbLine
 10
6.450418679126301
 20
-225.0
 30
0.0
 11
6.935147953805888
 21
-225.0
 31
0.0
  0
LINE
  5
25A
330
17
100
AcDbEntity
  8
隐藏线
100
AcDbLine
 10
5.962922863987963
 20
-225.0
 30
0.0
 11
6.450418679126301
 21
-225.0
 31
0.0
  0
LINE
  5
25B
330
17
100
AcDbEntity
  8
隐藏线
100
AcDbLine
 10
5.472963553338616
 20
-225.0
 30
0.0
 11
5.962922863987963
 21
-225.0
 31
0.0
  0
LINE
  5
25C
330
17
100
AcDbEntity
  8
隐藏线
100
AcDbLine
 10
4.980845323523496
 20
-225.0
 30
0.0
 11
5.472963553338616
 21
-225.0
 31
0.0
  0
LINE
  5
25D
330
17
100
AcDbEntity
  8
隐藏线
100
AcDbLine
 10
4.486874092949712
 20
-225.0
 30
0.0
 11
4.980845323523496
 21
-225.0
 31
0.0
  0
LINE
  5
25E
330
17
100
AcDbEntity
  8
隐藏线
100
AcDbLine
 10
3.991356931916336
 20
-225.0
 30
0.0
 11
4.486874092949712
 21
-225.0
 31
0.0
  0
LINE
  5
25F
330
17
100
AcDbEntity
  8
隐藏线
100
AcDbLine
 10
3.4946018717284915
 20
-225.0
 30
0.0
 11
3.991356931916336
 21
-225.0
 31
0.0
  0
LINE
  5
260
330
17
100
AcDbEntity
  8
隐藏线
100
AcDbLine
 10
2.9969177132139464
 20
-225.0
 30
0.0
 11
3.4946018717284915
 21
-225.0
 31
0.0
  0
LINE
  5
261
330
17
100
AcDbEntity
  8
隐藏线
100
AcDbLine
 10
2.498613834761457
 20
-225.0
 30
0.0
 11
2.9969177132139464
 21
-225.0
 31
0.0
  0
LINE
  5
262
330
17
100
AcDbEntity
  8
隐藏线
100
AcDbLine
 10
2.0
 20
-225.0
 30
0.0
 11
2.498613834761457
 21
-225.0
 31
0.0
  0
LINE
  5
263
330
17
100
AcDbEntity
  8
隐藏线
100
AcDbLine
 10
30.0
 20
-181.0
 30
0.0
 11
38.0
 21
-181.0
 31
0.0
  0
LINE
  5
264
330
17
100
AcDbEntity
  8
隐藏线
100
AcDbLine
 10
2.4986138347613434
 20
-213.0
 30
0.0
 11
2.0
 21
-213.0
 31
0.0
  0
LINE
  5
265
330
17
100
AcDbEntity
  8
隐藏线
100
AcDbLine
 10
2.9969177132138256
 20
-213.0
 30
0.0
 11
2.4986138347613434
 21
-213.0
 31
0.0
  0
LINE
  5
266
330
17
100
AcDbEntity
  8
隐藏线
100
AcDbLine
 10
3.4946018717283707
 20
-213.0
 30
0.0
 11
2.9969177132138256
 21
-213.0
 31
0.0
  0
LINE
  5
267
330
17
100
AcDbEntity
  8
隐藏线
100
AcDbLine
 10
3.991356931916222
 20
-213.0
 30
0.0
 11
3.4946018717283707
 21
-213.0
 31
0.0
  0
LINE
  5
268
330
17
100
AcDbEntity
  8
隐藏线
100
AcDbLine
 10
4.486874092949591
 20
-213.0
 30
0.0
 11
3.991356931916222
 21
-213.0
 31
0.0
  0
LINE
  5
269
330
17
100
AcDbEntity
  8
隐藏线
100
AcDbLine
 10
4.980845323523383
 20
-213.0
 30
0.0
 11
4.486874092949591
 21
-213.0
 31
0.0
  0
LINE
  5
26A
330
17
100
AcDbEntity
  8
隐藏线
100
AcDbLine
 10
5.472963553338502
 20
-213.0
 30
0.0
 11
4.980845323523383
 21
-213.0
 31
0.0
  0
LINE
  5
26B
330
17
100
AcDbEntity
  8
隐藏线
100
AcDbLine
 10
5.962922863987849
 20
-213.0
 30
0.0
 11
5.472963553338502
 21
-213.0
 31
0.0
  0
LINE
  5
26C
330
17
100
AcDbEntity
  8
隐藏线
100
AcDbLine
 10
6.450418679126187
 20
-213.0
 30
0.0
 11
5.962922863987849
 21
-213.0
 31
0.0
  0
LINE
  5
26D
330
17
100
AcDbEntity
  8
隐藏线
100
AcDbLine
 10
6.9351479538057745
 20
-213.0
 30
0.0
 11
6.450418679126187
 21
-213.0
 31
0.0
  0
LINE
  5
26E
330
17
100
AcDbEntity
  8
隐藏线
100
AcDbLine
 10
7.416809362860008
 20
-213.0
 30
0.0
 11
6.9351479538057745
 21
-213.0
 31
0.0
  0
LINE
  5
26F
330
17
100
AcDbEntity
  8
隐藏线
100
AcDbLine
 10
7.895103488217991
 20
-213.0
 30
0.0
 11
7.416809362860008
 21
-213.0
 31
0.0
  0
LINE
  5
270
330
17
100
AcDbEntity
  8
隐藏线
100
AcDbLine
 10
8.369733005033595
 20
-213.0
 30
0.0
 11
7.895103488217991
 21
-213.0
 31
0.0
  0
LINE
  5
271
330
17
100
AcDbEntity
  8
隐藏线
100
AcDbLine
 10
8.840402866513287
 20
-213.0
 30
0.0
 11
8.369733005033595
 21
-213.0
 31
0.0
  0
LINE
  5
272
330
17
100
AcDbEntity
  8
隐藏线
100
AcDbLine
 10
9.306820487327812
 20
-213.0
 30
0.0
 11
8.840402866513287
 21
-213.0
 31
0.0
  0
LINE
  5
273
330
17
100
AcDbEntity
  8
隐藏线
100
AcDbLine
 10
9.768695925493809
 20
-213.0
 30
0.0
 11
9.306820487327812
 21
-213.0
 31
0.0
  0
LINE
  5
274
330
17
100
AcDbEntity
  8
隐藏线
100
AcDbLine
 10
10.225742062612149
 20
-213.0
 30
0.0
 11
9.768695925493809
 21
-213.0
 31
0.0
  0
LINE
  5
275
330
17
100
AcDbEntity
  8
隐藏线
100
AcDbLine
 10
10.677674782351083
 20
-213.0
 30
0.0
 11
10.225742062612149
 21
-213.0
 31
0.0
  0
LINE
  5
276
330
17
100
AcDbEntity
  8
隐藏线
100
AcDbLine
 10
11.12421314706318
 20
-213.0
 30
0.0
 11
10.677674782351083
 21
-213.0
 31
0.0
  0
LINE
  5
277
330
17
100
AcDbEntity
  8
隐藏线
100
AcDbLine
 10
11.565079572426292
 20
-213.0
 30
0.0
 11
11.12421314706318
 21
-213.0
 31
0.0
  0
LINE
  5
278
330
17
100
AcDbEntity
  8
隐藏线
100
AcDbLine
 10
11.999999999999929
 20
-213.0
 30
0.0
 11
11.565079572426292
 21
-213.0
 31
0.0
  0
LINE
  5
279
330
17
100
AcDbEntity
  8
隐藏线
100
AcDbLine
 10
12.42870406758989
 20
-213.0
 30
0.0
 11
11.999999999999929
 21
-213.0
 31
0.0
  0
LINE
  5
27A
330
17
100
AcDbEntity
  8
隐藏线
100
AcDbLine
 10
12.85092527731512
 20
-213.0
 30
0.0
 11
12.42870406758989
 21
-213.0
 31
0.0
  0
LINE
  5
27B
330
17
100
AcDbEntity
  8
隐藏线
100
AcDbLine
 10
13.266401161272377
 20
-213.0
 30
0.0
 11
12.85092527731512
 21
-213.0
 31
0.0
  0
LINE
  5
27C
330
17
100
AcDbEntity
  8
隐藏线
100
AcDbLine
 10
13.674873444695734
 20
-213.0
 30
0.0
 11
13.266401161272377
 21
-213.0
 31
0.0
  0
LINE
  5
27D
330
17
100
AcDbEntity
  8
隐藏线
100
AcDbLine
 10
14.076088206509489
 20
-213.0
 30
0.0
 11
13.674873444695734
 21
-213.0
 31
0.0
  0
LINE
  5
27E
330
17
100
AcDbEntity
  8
隐藏线
100
AcDbLine
 10
14.469796037174614
 20
-213.0
 30
0.0
 11
14.076088206509489
 21
-213.0
 31
0.0
  0
LINE
  5
27F
330
17
100
AcDbEntity
  8
隐藏线
100
AcDbLine
 10
14.85575219373073
 20
-213.0
 30
0.0
 11
14.469796037174614
 21
-213.0
 31
0.0
  0
LINE
  5
280
330
17
100
AcDbEntity
  8
隐藏线
100
AcDbLine
 10
15.233716751937138
 20
-213.0
 30
0.0
 11
14.85575219373073
 21
-213.0
 31
0.0
  0
LINE
  5
281
330
17
100
AcDbEntity
  8
隐藏线
100
AcDbLine
 10
15.60345475541834
 20
-213.0
 30
0.0
 11
15.233716751937138
 21
-213.0
 31
0.0
  0
LINE
  5
282
330
17
100
AcDbEntity
  8
隐藏线
100
AcDbLine
 10
15.96473636172141
 20
-213.0
 30
0.0
 11
15.60345475541834
 21
-213.0
 31
0.0
  0
LINE
  5
283
330
17
100
AcDbEntity
  8
隐藏线
100
AcDbLine
 10
16.317336985194324
 20
-213.0
 30
0.0
 11
15.96473636172141
 21
-213.0
 31
0.0
  0
LINE
  5
284
330
17
100
AcDbEntity
  8
隐藏线
100
AcDbLine
 10
16.661037436596484
 20
-213.0
 30
0.0
 11
16.317336985194324
 21
-213.0
 31
0.0
  0
LINE
  5
285
330
17
100
AcDbEntity
  8
隐藏线
100
AcDbLine
 10
16.995624059354643
 20
-213.0
 30
0.0
 11
16.661037436596484
 21
-213.0
 31
0.0
  0
LINE
  5
286
330
17
100
AcDbEntity
  8
隐藏线
100
AcDbLine
 10
17.32088886237952
 20
-213.0
 30
0.0
 11
16.995624059354643
 21
-213.0
 31
0.0
  0
LINE
  5
287
330
17
100
AcDbEntity
  8
隐藏线
100
AcDbLine
 10
17.636629649360557
 20
-213.0
 30
0.0
 11
17.32088886237952
 21
-213.0
 31
0.0
  0
LINE
  5
288
330
17
100
AcDbEntity
  8
隐藏线
100
AcDbLine
 10
17.942650144458415
 20
-213.0
 30
0.0
 11
17.636629649360557
 21
-213.0
 31
0.0
  0
LINE
  5
289
330
17
100
AcDbEntity
  8
隐藏线
100
AcDbLine
 10
18.2387601143171
 20
-213.0
 30
0.0
 11
17.942650144458415
 21
-213.0
 31
0.0
  0
LINE
  5
28A
330
17
100
AcDbEntity
  8
隐藏线
100
AcDbLine
 10
18.524775486319868
 20
-213.0
 30
0.0
 11
18.2387601143171
 21
-213.0
 31
0.0
  0
LINE
  5
28B
330
17
100
AcDbEntity
  8
隐藏线
100
AcDbLine
 10
18.8005184630154
 20
-213.0
 30
0.0
 11
18.524775486319868
 21
-213.0
 31
0.0
  0
LINE
  5
28C
330
17
100
AcDbEntity
  8
隐藏线
100
AcDbLine
 10
19.065817632643085
 20
-213.0
 30
0.0
 11
18.8005184630154
 21
-213.0
 31
0.0
  0
LINE
  5
28D
330
17
100
AcDbEntity
  8
隐藏线
100
AcDbLine
 10
19.32050807568875
 20
-213.0
 30
0.0
 11
19.065817632643085
 21
-213.0
 31
0.0
  0
LINE
  5
28E
330
17
100
AcDbEntity
  8
隐藏线
100
AcDbLine
 10
19.564431467404546
 20
-213.0
 30
0.0
 11
19.32050807568875
 21
-213.0
 31
0.0
  0
LINE
  5
28F
330
17
100
AcDbEntity
  8
隐藏线
100
AcDbLine
 10
19.79743617622935
 20
-213.0
 30
0.0
 11
19.564431467404546
 21
-213.0
 31
0.0
  0
LINE
  5
290
330
17
100
AcDbEntity
  8
隐藏线
100
AcDbLine
 10
20.019377358048363
 20
-213.0
 30
0.0
 11
19.79743617622935
 21
-213.0
 31
0.0
  0
LINE
  5
291
330
17
100
AcDbEntity
  8
隐藏线
100
AcDbLine
 10
20.230117046233445
 20
-213.0
 30
0.0
 11
20.019377358048363
 21
-213.0
 31
0.0
  0
LINE
  5
292
330
17
100
AcDbEntity
  8
隐藏线
100
AcDbLine
 10
20.429524237408135
 20
-213.0
 30
0.0
 11
20.230117046233445
 21
-213.0
 31
0.0
  0
LINE
  5
293
330
17
100
AcDbEntity
  8
隐藏线
100
AcDbLine
 10
20.617474972884068
 20
-213.0
 30
0.0
 11
20.429524237408135
 21
-213.0
 31
0.0
  0
LINE
  5
294
330
17
100
AcDbEntity
  8
隐藏线
100
AcDbLine
 10
20.793852415718153
 20
-213.0
 30
0.0
 11
20.617474972884068
 21
-213.0
 31
0.0
  0
LINE
  5
295
330
17
100
AcDbEntity
  8
隐藏线
100
AcDbLine
 10
20.95854692334262
 20
-213.0
 30
0.0
 11
20.793852415718153
 21
-213.0
 31
0.0
  0
LINE
  5
296
330
17
100
AcDbEntity
  8
隐藏线
100
AcDbLine
 10
21.111456115722802
 20
-213.0
 30
0.0
 11
20.95854692334262
 21
-213.0
 31
0.0
  0
LINE
  5
297
330
17
100
AcDbEntity
  8
隐藏线
100
AcDbLine
 10
21.25248493900023
 20
-213.0
 30
0.0
 11
21.111456115722802
 21
-213.0
 31
0.0
  0
LINE
  5
298
330
17
100
AcDbEntity
  8
隐藏线
100
AcDbLine
 10
21.38154572458155
 20
-213.0
 30
0.0
 11
21.25248493900023
 21
-213.0
 31
0.0
  0
LINE
  5
299
330
17
100
AcDbEntity
  8
隐藏线
100
AcDbLine
 10
21.498558243636463
 20
-213.0
 30
0.0
 11
21.38154572458155
 21
-213.0
 31
0.0
  0
LINE
  5
29A
330
17
100
AcDbEntity
  8
隐藏线
100
AcDbLine
 10
21.603449756970868
 20
-213.0
 30
0.0
 11
21.498558243636463
 21
-213.0
 31
0.0
  0
LINE
  5
29B
330
17
100
AcDbEntity
  8
隐藏线
100
AcDbLine
 10
21.696155060244152
 20
-213.0
 30
0.0
 11
21.603449756970868
 21
-213.0
 31
0.0
  0
LINE
  5
29C
330
17
100
AcDbEntity
  8
隐藏线
100
AcDbLine
 10
21.776616524502565
 20
-213.0
 30
0.0
 11
21.696155060244152
 21
-213.0
 31
0.0
  0
LINE
  5
29D
330
17
100
AcDbEntity
  8
隐藏线
100
AcDbLine
 10
21.844784132003433
 20
-213.0
 30
0.0
 11
21.776616524502565
 21
-213.0
 31
0.0
  0
LINE
  5
29E
330
17
100
AcDbEntity
  8
隐藏线
100
AcDbLine
 10
21.90061550730802
 20
-213.0
 30
0.0
 11
21.844784132003433
 21
-213.0
 31
0.0
  0
LINE
  5
29F
330
17
100
AcDbEntity
  8
隐藏线
100
AcDbLine
 10
21.944075943623595
 20
-213.0
 30
0.0
 11
21.90061550730802
 21
-213.0
 31
0.0
  0
LINE
  5
2A0
330
17
100
AcDbEntity
  8
隐藏线
100
AcDbLine
 10
21.97513842437844
 20
-213.0
 30
0.0
 11
21.944075943623595
 21
-213.0
 31
0.0
  0
LINE
  5
2A1
330
17
100
AcDbEntity
  8
隐藏线
100
AcDbLine
 10
21.993783640016318
 20
-213.0
 30
0.0
 11
21.97513842437844
 21
-213.0
 31
0.0
  0
LINE
  5
2A2
330
17
100
AcDbEntity
  8
隐藏线
100
AcDbLine
 10
21.999999999999993
 20
-213.0
 30
0.0
 11
21.993783640016318
 21
-213.0
 31
0.0
  0
LINE
  5
2A3
330
17
100
AcDbEntity
  8
隐藏线
100
AcDbLine
 10
38.0
 20
-181.0
 30
0.0
 11
42.0
 21
-181.0
 31
0.0
  0
LINE
  5
2A4
330
17
100
AcDbEntity
  8
隐藏线
100
AcDbLine
 10
42.0
 20
-181.0
 30
0.0
 11
42.0
 21
-225.0
 31
0.0
  0
LINE
  5
2A5
330
17
100
AcDbEntity
  8
隐藏线
100
AcDbLine
 10
42.0
 20
-225.0
 30
0.0
 11
21.999999999999993
 21
-225.0
 31
0.0
  0
LINE
  5
2A6
330
17
100
AcDbEntity
  8
隐藏线
100
AcDbLine
 10
21.999999999999993
 20
-225.0
 30
0.0
 11
21.999999999999993
 21
-213.0
 31
0.0
  0
LINE
  5
2A7
330
17
100
AcDbEntity
  8
隐藏线
100
AcDbLine
 10
21.999999999999993
 20
-213.0
 30
0.0
 11
29.999999999999996
 21
-213.0
 31
0.0
  0
LINE
  5
2A8
330
17
100
AcDbEntity
  8
隐藏线
100
AcDbLine
 10
38.0
 20
-181.0
 30
0.0
 11
29.999999999999996
 21
-197.0
 31
0.0
  0
LINE
  5
2A9
330
17
100
AcDbEntity
  8
隐藏线
100
AcDbLine
 10
30.0
 20
-197.0
 30
0.0
 11
38.0
 21
-181.0
 31
0.0
  0
LINE
  5
2AA
330
17
100
AcDbEntity
  8
隐藏线
100
AcDbLine
 10
30.0
 20
-197.0
 30
0.0
 11
30.0
 21
-181.0
 31
0.0
  0
LINE
  5
2AB
330
17
100
AcDbEntity
  8
隐藏线
100
AcDbLine
 10
29.999999999999996
 20
-213.0
 30
0.0
 11
30.0
 21
-197.0
 31
0.0
  0
HATCH
  5
2AC
330
17
100
AcDbEntity
  8
剖面线
 62
7
100
AcDbHatch
 10
0.0
 20
0.0
 30
0.0
210
0.0
220
0.0
230
1.0
  2
ANSI31
 70
0
 71
0
 91
1
 92
3
 72
0
 73
1
 93
7
 10
21.999999999999986
 20
-213.0
 10
30.0
 20
-213.0
 10
30.0
 20
-197.0
 10
37.99999999999999
 20
-181.0
 10
42.0
 20
-181.0
 10
42.0
 20
-225.0
 10
21.999999999999986
 20
-225.0
 97
0
 75
0
 76
1
 52
0.0
 41
2.0
 77
0
 78
1
 53
45.0
 43
0.0
 44
0.0
 45
-4.4901280606
 46
4.4901280606
 79
0
 98
0
  0
TEXT
  5
2AD
330
17
100
AcDbEntity
  8
标注
100
AcDbText
 10
22.0
 20
-243.0
 30
0.0
 40
6.0
  1
B—B  横剖 z=0.00（穿 r20.0 孔轴）
  7
中文字体
 72
1
 11
22.0
 21
-243.0
 31
0.0
100
AcDbText
 73
2
  0
LINE
  5
2AE
330
17
100
AcDbEntity
  8
剖切线
100
AcDbLine
 10
-6.0
 20
32.0
 30
0.0
 11
2.0
 21
32.0
 31
0.0
  0
LINE
  5
2AF
330
17
100
AcDbEntity
  8
剖切线
100
AcDbLine
 10
42.0
 20
32.0
 30
0.0
 11
50.0
 21
32.0
 31
0.0
  0
LINE
  5
2B0
330
17
100
AcDbEntity
  8
剖切线
100
AcDbLine
 10
-6.0
 20
32.0
 30
0.0
 11
-2.0
 21
26.0
 31
0.0
  0
TEXT
  5
2B1
330
17
100
AcDbEntity
  8
标注
100
AcDbText
 10
-4.0
 20
35.0
 30
0.0
 40
5.0
  1
B—B
  7
中文字体
 11
-4.0
 21
35.0
 31
0.0
100
AcDbText
  0
LINE
  5
2B2
330
17
100
AcDbEntity
  8
剖切线
100
AcDbLine
 10
50.0
 20
32.0
 30
0.0
 11
46.0
 21
26.0
 31
0.0
  0
TEXT
  5
2B3
330
17
100
AcDbEntity
  8
标注
100
AcDbText
 10
48.0
 20
35.0
 30
0.0
 40
5.0
  1
B—B
  7
中文字体
 11
48.0
 21
35.0
 31
0.0
100
AcDbText
  0
ENDSEC
  0
SECTION
  2
OBJECTS
  0
DICTIONARY
  5
A
330
0
100
AcDbDictionary
281
1
  3
ACAD_COLOR
350
B
  3
ACAD_GROUP
350
C
  3
ACAD_LAYOUT
350
D
  3
ACAD_MATERIAL
350
E
  3
ACAD_MLEADERSTYLE
350
F
  3
ACAD_MLINESTYLE
350
10
  3
ACAD_PLOTSETTINGS
350
11
  3
ACAD_PLOTSTYLENAME
350
12
  3
ACAD_SCALELIST
350
14
  3
ACAD_TABLESTYLE
350
15
  3
ACAD_VISUALSTYLE
350
16
  3
EZDXF_META
350
2D
  0
DICTIONARY
  5
B
330
A
100
AcDbDictionary
281
1
  0
DICTIONARY
  5
C
330
A
100
AcDbDictionary
281
1
  0
DICTIONARY
  5
D
330
A
100
AcDbDictionary
281
1
  3
Model
350
1A
  3
Layout1
350
1E
  0
DICTIONARY
  5
E
330
A
100
AcDbDictionary
281
1
  3
ByBlock
350
1F
  3
ByLayer
350
20
  3
Global
350
21
  0
DICTIONARY
  5
F
330
A
100
AcDbDictionary
281
1
  3
Standard
350
2C
  0
DICTIONARY
  5
10
330
A
100
AcDbDictionary
281
1
  3
Standard
350
22
  0
DICTIONARY
  5
11
330
A
100
AcDbDictionary
281
1
  0
ACDBDICTIONARYWDFLT
  5
12
330
A
100
AcDbDictionary
281
1
  3
Normal
350
13
100
AcDbDictionaryWithDefault
340
13
  0
ACDBPLACEHOLDER
  5
13
330
12
  0
DICTIONARY
  5
14
330
A
100
AcDbDictionary
281
1
  0
DICTIONARY
  5
15
330
A
100
AcDbDictionary
281
1
  0
DICTIONARY
  5
16
330
A
100
AcDbDictionary
281
1
  0
LAYOUT
  5
1A
330
D
100
AcDbPlotSettings
  1

  4
A3
  6

 40
7.5
 41
20.0
 42
7.5
 43
20.0
 44
420.0
 45
297.0
 46
0.0
 47
0.0
 48
0.0
 49
0.0
140
0.0
141
0.0
142
1.0
143
1.0
 70
1024
 72
1
 73
0
 74
5
  7

 75
16
 76
0
 77
2
 78
300
147
1.0
148
0.0
149
0.0
100
AcDbLayout
  1
Model
 70
1
 71
0
 10
0.0
 20
0.0
 11
420.0
 21
297.0
 12
0.0
 22
0.0
 32
0.0
 14
1e+20
 24
1e+20
 34
1e+20
 15
-1e+20
 25
-1e+20
 35
-1e+20
146
0.0
 13
0.0
 23
0.0
 33
0.0
 16
1.0
 26
0.0
 36
0.0
 17
0.0
 27
1.0
 37
0.0
 76
1
330
17
  0
LAYOUT
  5
1E
330
D
100
AcDbPlotSettings
  1

  4
A3
  6

 40
7.5
 41
20.0
 42
7.5
 43
20.0
 44
420.0
 45
297.0
 46
0.0
 47
0.0
 48
0.0
 49
0.0
140
0.0
141
0.0
142
1.0
143
1.0
 70
0
 72
1
 73
0
 74
5
  7

 75
16
 76
0
 77
2
 78
300
147
1.0
148
0.0
149
0.0
100
AcDbLayout
  1
Layout1
 70
1
 71
1
 10
0.0
 20
0.0
 11
420.0
 21
297.0
 12
0.0
 22
0.0
 32
0.0
 14
1e+20
 24
1e+20
 34
1e+20
 15
-1e+20
 25
-1e+20
 35
-1e+20
146
0.0
 13
0.0
 23
0.0
 33
0.0
 16
1.0
 26
0.0
 36
0.0
 17
0.0
 27
1.0
 37
0.0
 76
1
330
1B
  0
MATERIAL
  5
1F
102
{ACAD_REACTORS
330
E
102
}
330
E
100
AcDbMaterial
  1
ByBlock
  2

 70
0
 40
1.0
 71
1
 41
1.0
 91
-1023410177
 42
1.0
 72
1
  3

 73
1
 74
1
 75
1
 44
0.5
 73
0
 45
1.0
 46
1.0
 77
1
  4

 78
1
 79
1
170
1
 48
1.0
171
1
  6

172
1
173
1
174
1
140
1.0
141
1.0
175
1
  7

176
1
177
1
178
1
143
1.0
179
1
  8

270
1
271
1
272
1
145
1.0
146
1.0
273
1
  9

274
1
275
1
276
1
 42
1.0
 72
1
  3

 73
1
 74
1
 75
1
 94
63
  0
MATERIAL
  5
20
102
{ACAD_REACTORS
330
E
102
}
330
E
100
AcDbMaterial
  1
ByLayer
  2

 70
0
 40
1.0
 71
1
 41
1.0
 91
-1023410177
 42
1.0
 72
1
  3

 73
1
 74
1
 75
1
 44
0.5
 73
0
 45
1.0
 46
1.0
 77
1
  4

 78
1
 79
1
170
1
 48
1.0
171
1
  6

172
1
173
1
174
1
140
1.0
141
1.0
175
1
  7

176
1
177
1
178
1
143
1.0
179
1
  8

270
1
271
1
272
1
145
1.0
146
1.0
273
1
  9

274
1
275
1
276
1
 42
1.0
 72
1
  3

 73
1
 74
1
 75
1
 94
63
  0
MATERIAL
  5
21
102
{ACAD_REACTORS
330
E
102
}
330
E
100
AcDbMaterial
  1
Global
  2

 70
0
 40
1.0
 71
1
 41
1.0
 91
-1023410177
 42
1.0
 72
1
  3

 73
1
 74
1
 75
1
 44
0.5
 73
0
 45
1.0
 46
1.0
 77
1
  4

 78
1
 79
1
170
1
 48
1.0
171
1
  6

172
1
173
1
174
1
140
1.0
141
1.0
175
1
  7

176
1
177
1
178
1
143
1.0
179
1
  8

270
1
271
1
272
1
145
1.0
146
1.0
273
1
  9

274
1
275
1
276
1
 42
1.0
 72
1
  3

 73
1
 74
1
 75
1
 94
63
  0
MLINESTYLE
  5
22
102
{ACAD_REACTORS
330
10
102
}
330
10
100
AcDbMlineStyle
  2
Standard
 70
0
  3

 62
256
 51
90.0
 52
90.0
 71
2
 49
0.5
 62
256
  6
BYLAYER
 49
-0.5
 62
256
  6
BYLAYER
  0
MLEADERSTYLE
  5
2C
102
{ACAD_REACTORS
330
F
102
}
330
F
100
AcDbMLeaderStyle
179
2
170
2
171
1
172
0
 90
2
 40
0.0
 41
0.0
173
1
 91
-1056964608
 92
-2
290
1
 42
2.0
291
1
 43
8.0
  3
Standard
 44
4.0
300

342
29
174
1
175
1
176
0
178
1
 93
-1056964608
 45
4.0
292
0
297
0
 46
4.0
 94
-1056964608
 47
1.0
 49
1.0
140
1.0
294
1
141
0.0
177
0
142
1.0
295
0
296
0
143
3.75
271
0
272
9
273
9
  0
DICTIONARY
  5
2D
330
A
100
AcDbDictionary
280
1
281
1
  3
CREATED_BY_EZDXF
350
2E
  3
WRITTEN_BY_EZDXF
350
2B6
  0
DICTIONARYVAR
  5
2E
330
2D
100
DictionaryVariables
280
0
  1
1.4.2 @ 2026-10-01T07:50:23.099315+00:00
  0
DICTIONARYVAR
  5
2B6
330
2D
100
DictionaryVariables
280
0
  1
1.4.2 @ 2026-10-01T07:50:23.113785+00:00
  0
ENDSEC
  0
EOF
